<svg xmlns="http://www.w3.org/2000/svg" width="71.5" height="71.5" viewBox="0 0 71.5 71.5">
  <g id="Group_21" data-name="Group 21" transform="translate(-1583.304 -2861)">
    <circle id="Ellipse_7" data-name="Ellipse 7" cx="35.75" cy="35.75" r="35.75" transform="translate(1583.304 2861)" fill="#fff"/>
    <g id="instagram" transform="translate(1603.324 2881.02)">
      <path id="Path_3" data-name="Path 3" d="M15.294,7.5h15.73a7.909,7.909,0,0,1,7.894,7.894v15.73a7.909,7.909,0,0,1-7.894,7.894H15.294A7.909,7.909,0,0,1,7.4,31.124V15.336A7.973,7.973,0,0,1,15.294,7.5Z" transform="translate(-7.4 -7.5)" fill="none" stroke="#d8473a" stroke-linecap="round" stroke-linejoin="round" stroke-width="3.5"/>
      <path id="Path_4" data-name="Path 4" d="M36.518,29.255a6.3,6.3,0,1,1-7.15-5.32,4.921,4.921,0,0,1,1.83,0A6.31,6.31,0,0,1,36.518,29.255Z" transform="translate(-14.496 -14.498)" fill="none" stroke="#d8473a" stroke-linecap="round" stroke-linejoin="round" stroke-width="3.5"/>
      <line id="Line_53" data-name="Line 53" transform="translate(15.787 7.093)" fill="none" stroke="#d8473a" stroke-linecap="round" stroke-linejoin="round" stroke-width="3.5"/>
    </g>
  </g>
</svg>
