<svg xmlns="http://www.w3.org/2000/svg" width="125" height="125" viewBox="0 0 125 125"><g transform="translate(-226 -1452)"><circle cx="62.5" cy="62.5" r="62.5" transform="translate(226 1452)" fill="#fff"/><path d="M62.5,48.7V57A5.636,5.636,0,0,1,57,62.6h-.5A55.574,55.574,0,0,1,32.6,54,53.67,53.67,0,0,1,16,37.4a54.121,54.121,0,0,1-8.5-24,5.568,5.568,0,0,1,5-6h8.8a5.508,5.508,0,0,1,5.5,4.8A40.4,40.4,0,0,0,28.7,20a5.41,5.41,0,0,1-1.2,5.8L24,29.3A44.816,44.816,0,0,0,40.6,45.9l3.5-3.5a5.41,5.41,0,0,1,5.8-1.2,34.2,34.2,0,0,0,7.8,1.9A5.523,5.523,0,0,1,62.5,48.7Z" transform="translate(253.526 1479.6)" fill="none" stroke="#d8473a" stroke-linecap="round" stroke-linejoin="round" stroke-width="5"/></g></svg>