<svg xmlns="http://www.w3.org/2000/svg" width="125" height="125" viewBox="0 0 125 125"><g transform="translate(-227 -1452)"><circle cx="62.5" cy="62.5" r="62.5" transform="translate(227 1452)" fill="#fff"/><path d="M62.5,12.6a25.678,25.678,0,0,1-7.8,3.8,11.134,11.134,0,0,0-15.8-1.1,10.968,10.968,0,0,0-3.8,8.6v2.5A26.71,26.71,0,0,1,12.6,15.1S2.6,37.6,25.1,47.6a29.33,29.33,0,0,1-17.5,5c22.5,12.5,50,0,50-28.8a14.919,14.919,0,0,0-.2-2.1A18.328,18.328,0,0,0,62.5,12.6Z" transform="translate(253.9 1479.977)" fill="none" stroke="#d8473a" stroke-linecap="round" stroke-linejoin="round" stroke-width="5"/></g></svg>