<svg xmlns="http://www.w3.org/2000/svg" width="125" height="125" viewBox="0 0 125 125"><g transform="translate(-226 -1452)"><circle cx="62.5" cy="62.5" r="62.5" transform="translate(226 1452)" fill="#fff"/><g transform="translate(253.5 1479.3)"><path d="M61.3,21.7a7.113,7.113,0,0,0-4.8-5c-4.3-1-21.5-1-21.5-1s-17.2,0-21.5,1.1a6.932,6.932,0,0,0-4.8,5A73.65,73.65,0,0,0,7.5,35,84.237,84.237,0,0,0,8.6,48.3a7.02,7.02,0,0,0,4.8,4.8c4.3,1.1,21.5,1.1,21.5,1.1s17.2,0,21.5-1.1a6.932,6.932,0,0,0,4.8-5A63.808,63.808,0,0,0,62.3,35,59.65,59.65,0,0,0,61.3,21.7Z" fill="none" stroke="#d8473a" stroke-linecap="round" stroke-linejoin="round" stroke-width="5"/><path d="M29.4,43.2,43.7,35,29.4,26.9Z" fill="none" stroke="#d8473a" stroke-linecap="round" stroke-linejoin="round" stroke-width="5"/></g></g></svg>