<svg xmlns="http://www.w3.org/2000/svg" width="125" height="125" viewBox="0 0 125 125"><g transform="translate(-226 -1452)"><circle cx="62.5" cy="62.5" r="62.5" transform="translate(226 1452)" fill="#fff"/><path d="M27.2,56.4C13,60.6,13,49.3,7.3,47.8M47.1,64.9v-11a9.762,9.762,0,0,0-2.7-7.4c8.9-1,18.3-4.4,18.3-19.9a15.3,15.3,0,0,0-4.3-10.7,14.157,14.157,0,0,0-.3-10.7S54.7,4.2,47,9.4a37.343,37.343,0,0,0-19.9,0C19.3,4.2,16,5.2,16,5.2a14.157,14.157,0,0,0-.3,10.7,15.3,15.3,0,0,0-4.3,10.7c0,15.4,9.4,18.8,18.3,19.9A9.542,9.542,0,0,0,27,53.8v11" transform="translate(252.7 1479.877)" fill="none" stroke="#d8473a" stroke-linecap="round" stroke-linejoin="round" stroke-width="5"/></g></svg>