<svg xmlns="http://www.w3.org/2000/svg" width="125" height="125" viewBox="0 0 125 125"><g transform="translate(-226 -1452)"><circle cx="62.5" cy="62.5" r="62.5" transform="translate(226 1452)" fill="#fff"/><g transform="translate(253.6 1479.5)"><path d="M21.2,7.5H48.7A13.828,13.828,0,0,1,62.5,21.3V48.8A13.828,13.828,0,0,1,48.7,62.6H21.2A13.828,13.828,0,0,1,7.4,48.8V21.2A13.939,13.939,0,0,1,21.2,7.5Z" fill="none" stroke="#d8473a" stroke-linecap="round" stroke-linejoin="round" stroke-width="5"/><path d="M45.9,33.3A11.017,11.017,0,1,1,33.4,24a8.6,8.6,0,0,1,3.2,0A11.032,11.032,0,0,1,45.9,33.3Z" fill="none" stroke="#d8473a" stroke-linecap="round" stroke-linejoin="round" stroke-width="5"/><line transform="translate(35 19.9)" stroke-width="5" stroke="#d8473a" stroke-linecap="round" stroke-linejoin="round" fill="none"/></g></g></svg>