<svg xmlns="http://www.w3.org/2000/svg" width="125" height="125" viewBox="0 0 125 125"><g transform="translate(-226 -1452)"><path d="M62.5,0A62.5,62.5,0,1,1,0,62.5,62.5,62.5,0,0,1,62.5,0Z" transform="translate(226 1452)" fill="#fff"/><g transform="translate(253.5 1479.1)"><path d="M46,25.4A16.516,16.516,0,0,1,62.5,41.9V61.1h-11V41.9a5.5,5.5,0,1,0-11,0V61.1h-11V41.9A16.516,16.516,0,0,1,46,25.4Z" fill="none" stroke="#d8473a" stroke-linecap="round" stroke-linejoin="round" stroke-width="5"/><path d="M0,0H11V33H0Z" transform="translate(7.5 28.1)" fill="none" stroke="#d8473a" stroke-linecap="round" stroke-width="5"/><circle cx="5.5" cy="5.5" r="5.5" transform="translate(7.5 8.9)" fill="none" stroke="#d8473a" stroke-linecap="round" stroke-linejoin="round" stroke-width="5"/></g></g></svg>