<svg xmlns="http://www.w3.org/2000/svg" width="71.5" height="71.5" viewBox="0 0 71.5 71.5">
  <g id="Group_20" data-name="Group 20" transform="translate(-1502.652 -2861)">
    <circle id="Ellipse_6" data-name="Ellipse 6" cx="35.75" cy="35.75" r="35.75" transform="translate(1502.652 2861)" fill="#fff"/>
    <path id="twitter" d="M39,12.567a14.688,14.688,0,0,1-4.462,2.174,6.368,6.368,0,0,0-9.038-.629,6.274,6.274,0,0,0-2.174,4.919v1.43A15.278,15.278,0,0,1,10.46,14s-5.72,12.87,7.15,18.59A16.777,16.777,0,0,1,7.6,35.447c12.87,7.15,28.6,0,28.6-16.474a8.533,8.533,0,0,0-.114-1.2A10.483,10.483,0,0,0,39,12.567Z" transform="translate(1514.786 2871.643)" fill="none" stroke="#d8473a" stroke-linecap="round" stroke-linejoin="round" stroke-width="3.5"/>
  </g>
</svg>
