<?xml version="1.0" encoding="utf-8"?>
<!-- Generator: Adobe Illustrator 23.0.2, SVG Export Plug-In . SVG Version: 6.00 Build 0)  -->
<svg version="1.1" id="Layer_1" xmlns="http://www.w3.org/2000/svg" xmlns:xlink="http://www.w3.org/1999/xlink" x="0px" y="0px"
	 viewBox="0 0 125 125" style="enable-background:new 0 0 125 125;" xml:space="preserve">
<style type="text/css">
	.st0{fill:#FFFFFF;}
	.st1{fill:#231F20;}
</style>
<g transform="translate(-226 -1452)">
	<circle class="st0" cx="288.5" cy="1514.5" r="62.5"/>
</g>
<g>
	<path class="st1" d="M23.7,61.2l-1.2,5h4.1c-0.4,2.7-7,3.8-6-2.7c0.7-4.5,6.4-7,7.6-3.5l7-1.8c-1-4.4-4.9-6.5-9.1-6.5
		c-5.8,0-12.4,4.1-13.3,12.1c-0.7,6.8,4.3,10.5,10.2,10.4c4.2-0.1,7.5-1.6,9.1-2.7l2.4-10.4H23.7L23.7,61.2z M36.4,58.9l-3.5,15h7.3
		l3.5-15H36.4L36.4,58.9z M47.1,50.3l-5.5,23.5h7.3l5.5-23.5H47.1L47.1,50.3z M45.3,52.5H38L36.7,58l7.8-1.9L45.3,52.5L45.3,52.5z
		 M104.9,57.9c-3,0-5.5,1.3-7.2,3.4c0.3-1.1,0.6-2.4,0.6-2.4h-3l1.5-6.5h-7.3L88,59l-1.6,0l1.6-6.5h-7.3l-1.5,6.5l-2.3,0l-1.1,4
		c-0.8-3.4-4-5.1-7.1-5.1c-4.3,0-7.6,2.8-9,6.7L63,50.3h-7.3l-5.5,23.5h7.3l1.6-6.7c-0.3,2.7,0.7,7.5,7.3,7.5c3.3,0,7.5-2.1,8.5-5.1
		l-5.7-1c-0.6,0.8-1.6,1.3-2.5,1.3c-1.6,0-2-1.3-1.7-2.5l10.6,0c0.1-0.4,0.3-0.8,0.4-2.1c0-0.4,0-0.8,0-1.1h2l-2.3,9.7h7.3l2.3-9.7
		h1.6l-2.3,9.7h7.3l2.3-9.7h2c0,0,0,0,0,0c-0.4,0.9-0.6,1.8-0.7,2.8l0,0c-0.4,2.6,0.5,7.8,7.3,7.8c3.3,0,7.5-2.1,8.5-5.1l-5.7-1
		c-0.6,0.8-1.6,1.3-2.5,1.3c-1.6,0-2-1.3-1.7-2.5l0,0l10.6,0c0.1-0.4,0.3-0.8,0.4-2.1C112.6,60.2,108.6,57.9,104.9,57.9 M69.7,64.3
		l-4,0C66.3,62.2,70.1,61.7,69.7,64.3 M106.1,64.4l-4,0C102.7,62.3,106.4,61.8,106.1,64.4"/>
</g>
</svg>
