<?xml version="1.0" encoding="utf-8"?>
<!-- Generator: Adobe Illustrator 23.0.2, SVG Export Plug-In . SVG Version: 6.00 Build 0)  -->
<svg version="1.1" id="Layer_1" xmlns="http://www.w3.org/2000/svg" xmlns:xlink="http://www.w3.org/1999/xlink" x="0px" y="0px"
	 viewBox="0 0 125 125" style="enable-background:new 0 0 125 125;" xml:space="preserve">
<style type="text/css">
	.st0{fill:#FFFFFF;}
	.st1{fill:#00AEEF;}
</style>
<g transform="translate(-226 -1452)">
	<circle class="st0" cx="288.5" cy="1514.5" r="62.5"/>
</g>
<g>
	<path class="st1" d="M25,63.7h6.5c1,0,1.7,0.3,2.1,0.8c0.4,0.5,0.4,1.3,0.2,2.3c-0.2,0.9,0.6,2,0,2.5C33,69.7,31,69.7,30,69.7H20
		c-1.2,0-2-0.3-2.4-0.8c-0.4-0.5-0.5-1.4-0.2-2.6l4.1-16.4c0.3-1.1,0.8-2,1.6-2.6c0.8-0.6,1.7-0.9,2.8-0.9c1.1,0,1.9,0.3,2.4,0.9
		c0.4,0.6,0.5,1.4,0.3,2.5L25,63.7L25,63.7z M35.8,67.8c-0.4,0.6-0.9,1-1.5,1.3c-0.6,0.3-1.2,0.5-1.9,0.5c-0.9,0-1.6-0.2-2-0.7
		c-0.4-0.5-0.5-1.1-0.2-2c0.1-0.3,0.2-0.5,0.2-0.7c0.1-0.2,0.2-0.4,0.3-0.5l9-13.3c0.7-1.1,1.4-1.8,2-2.2c0.6-0.4,1.4-0.6,2.2-0.6
		H46c0.8,0,1.5,0.2,1.8,0.6c0.4,0.4,0.5,1.2,0.7,2.3l2.7,13.8c0.4,2.1-2.4,3.4-4.1,3.4c-0.7,0-1.3-0.2-1.6-0.5
		c-0.4-0.3-0.6-0.7-0.7-1.3l-0.1-1.1h-8.1L35.8,67.8L35.8,67.8z M39,62.6H44l-0.3-6.8L39,62.6L39,62.6z M91.8,67.8
		c-0.4,0.6-0.9,1-1.5,1.3c-0.6,0.3-1.2,0.5-1.9,0.5c-0.9,0-1.6-0.3-2-0.7c-0.4-0.5-0.5-1.2-0.2-2c0.1-0.3,0.2-0.5,0.3-0.7
		c0.1-0.2,0.2-0.4,0.3-0.5l9.1-13.7c0.7-1.1,1.4-1.9,2.1-2.3c0.6-0.4,1.4-0.6,2.2-0.6h2c0.9,0,1.5,0.2,1.8,0.6
		c0.4,0.4,0.5,1.2,0.7,2.4l2.8,14.3c0,0.2,0,0.3,0,0.6c0,0.2-0.1,0.5-0.1,0.7c-0.4,1.5-2.7,2.1-4,2.1c-0.7,0-1.3-0.2-1.7-0.5
		c-0.4-0.3-0.6-0.8-0.7-1.4l-0.1-1.2h-8.2L91.8,67.8L91.8,67.8z M95.3,62.1h4.8l-0.6-6.7L95.3,62.1L95.3,62.1z M62.9,64.9
		c0.6,0,1.2-0.1,1.8-0.3c0.5-0.2,1-0.5,1.5-0.9c0,0,0.2-0.3,0.6-0.6c0.3-0.4,0.7-0.7,1-0.9c0.3-0.2,0.6-0.4,1-0.5
		c0.4-0.1,0.8-0.2,1.2-0.2c0.9,0,1.6,0.3,2.1,0.8c0.5,0.5,0.6,1.2,0.5,2c-0.1,0.6-0.5,1.2-0.9,1.8c-0.5,0.6-1.1,1.2-1.9,1.7
		c-1,0.7-2.2,1.2-3.5,1.6c-1.3,0.4-2.7,0.5-4.1,0.5c-3.6,0-6.2-0.9-7.8-2.7c-1.6-1.8-2.1-4.4-1.3-7.6c0.7-3.2,2.3-5.7,4.6-7.6
		c2.4-1.8,5.3-2.8,8.7-2.8c2.8,0,5,0.5,6.5,1.6c1.6,1.1,2.2,2.4,1.8,4c-0.2,0.8-0.6,1.4-1.3,2c-0.7,0.5-1.5,0.8-2.4,0.8
		c-0.6,0-1.1-0.1-1.4-0.4c-0.4-0.2-0.7-0.7-1.1-1.3c-0.3-0.7-0.8-1.1-1.2-1.4C66.6,54.1,66,54,65.2,54c-1.4,0-2.6,0.5-3.4,1.4
		c-0.9,0.9-1.5,2.3-1.9,4.1c-0.4,1.8-0.3,3.1,0.2,4.1C60.5,64.4,61.5,64.9,62.9,64.9L62.9,64.9z M74.7,54.4c-0.9,0-1.6-0.2-2-0.7
		c-0.4-0.4-0.5-1.1-0.3-2c0.2-0.9,0.6-1.5,1.2-2c0.6-0.5,1.4-0.7,2.3-0.7h15.9c1,0,1.6,0.2,2,0.7c0.4,0.5,0.5,1.2,0.3,2.1
		c-0.2,0.8-0.6,1.4-1.1,1.9c-0.6,0.4-1.3,0.6-2.3,0.6h-5.1l-2.7,12.3c-0.2,1-0.7,1.7-1.3,2.2c-0.7,0.5-1.6,0.8-2.6,0.8
		c-1.1,0-1.8-0.3-2.3-0.8c-0.5-0.5-0.6-1.3-0.4-2.3l2.6-12.2H74.7L74.7,54.4z M21.1,78.1c25.4-3.9,50.6-4.3,75.3,0.1
		c0.9,0.2,1.1,0.3,1.9,0.2c3-0.3,7.7-2.3,3.1-3.3c-26.7-5.4-54.4-4.3-80.7,1.3C20,76.6,19.9,78.3,21.1,78.1L21.1,78.1z"/>
</g>
</svg>
