<?xml version="1.0" encoding="utf-8"?>
<!-- Generator: Adobe Illustrator 23.0.2, SVG Export Plug-In . SVG Version: 6.00 Build 0)  -->
<svg version="1.1" id="Layer_1" xmlns="http://www.w3.org/2000/svg" xmlns:xlink="http://www.w3.org/1999/xlink" x="0px" y="0px"
	 viewBox="0 0 125 125" style="enable-background:new 0 0 125 125;" xml:space="preserve">
<style type="text/css">
	.st0{fill:#FFFFFF;}
	.st1{fill-rule:evenodd;clip-rule:evenodd;fill:#231F20;}
	.st2{fill:#231F20;}
</style>
<g transform="translate(-226 -1452)">
	<circle class="st0" cx="288.5" cy="1514.5" r="62.5"/>
</g>
<g>
	<path class="st1" d="M97,69.6c3.3,0,7.1-3.1,8.6-7c1.5-3.9,0.1-6.9-3.2-6.9C95,55.7,88.9,69.6,97,69.6L97,69.6z M13.1,73.1
		c0.1-0.1,0.2-0.3,0.3-0.5c1.4-2.1,2.6-3.8,3.5-5.2L24.5,55c2.9-4.7,5.2-9.4,7.8-14.2c1.8-0.2,3.7-0.3,5.6-0.3
		c8.4,0,12.6,2.1,12.6,6.2c0,2.1-1,4-3.1,5.9c-1.6,1.5-3.6,2.7-5.9,3.5c-2,0.7-4.1,1.2-6.4,1.5c-0.3,0-0.4,0.1-0.4,0.3
		c0,0.1,0,0.2,0.1,0.3c2.5,4.5,5.4,9.1,8.7,13.6c4.2,5.9,10.8,12.2,19.6,11.8c1.8-0.1,3.6-0.5,5.6-1.2c1.6-0.5,3.1-1.1,3.6-1.3
		l-0.1,0.5c-3.6,1.8-7.6,2.9-11.3,2.9c-5.7,0.1-10.4-1.3-14.2-3.9c-3.2-2.3-6.5-6.1-9.8-11.4c-1.2-2.1-3.5-6-6.6-11.2
		c-0.2-0.3-0.2-0.5-0.2-0.6c0-0.3,0.6-0.5,1.9-0.7c0.7,0,1.5-0.1,2.2-0.1c3.2-0.3,6-0.9,8.1-2.4c2.5-1.9,3.7-4.2,3.7-7.2
		c0-1.9-0.8-3.4-2.5-4.4c-1.4-0.9-3.1-1.3-5.1-1.3c-1.2,0-2.1,0.3-2.7,1c-1.9,2.3-4.9,7-9.1,14.3C23.7,62.3,20.7,67.8,18,73
		C16.8,75.2,14.6,74,13.1,73.1L13.1,73.1z M62.8,65.3c-1.1,1.1-2.2,2.1-3.5,2.9c-3,1.9-5.9,2.7-8.3,2.7c-2.2,0-3.3-1-3.3-2.9
		c0-0.5,0-1.1,0.1-1.5c0.4-2,1.4-3.9,2.9-5.9c0.4-0.5,0.8-1.1,1.3-1.5c1.4-1.6,3.4-3.1,5.4-3.8c0.7-0.3,1.2-0.3,1.7-0.3
		c2.7,0,2.2,2.1,1,3.6c-2.1,2.7-7.3,5.6-9.5,5.9c-0.7,2.7-0.1,5.1,2.5,5.1c0.6,0,1.2-0.1,1.9-0.3c3.6-0.9,6.7-4,9.8-8
		c1.8-2.9,4.3-4.9,7.4-6.3c0.5-0.2,1-0.3,1.3-0.3c1.1,0,1.9,0.6,2.4,1.9C76,56.8,76,57,76,57.1c0,0.2-0.1,0.4-0.3,0.6
		c0,0-0.3,0.3-0.8,0.8c-0.8,0.8-1.1,0.1-1.1-0.3c0-1.2-0.2-1.7-1.7-1.7c-3.2,0-6.5,6.2-6.8,9.4c0,0,0,0.3,0,0.8
		c0,1.9,0.8,2.9,2.5,2.9c1.8,0,4-1.1,6.7-3.4c2-1.6,3.8-3.5,5.4-5.6c0,0,0-0.1,0.1-0.1c1.8-2.4,4-4.2,6.8-5.3c0.5-0.2,1-0.3,1.3-0.3
		c1.1,0,1.9,0.6,2.4,1.9c0.1,0.2,0.1,0.4,0.1,0.5c0,0.2-0.1,0.4-0.3,0.6c0,0-0.3,0.3-0.8,0.8c-0.8,0.8-1.1,0.1-1.1-0.3
		c0-1.2-0.2-1.7-1.7-1.7c-3.2,0-6.5,6.2-6.8,9.4c0,0,0,0.3,0,0.8c0,1.9,0.8,2.9,2.5,2.9c1.8,0,4-1.1,6.7-3.4
		c0.8-0.7,1.7-1.4,2.4-2.2c1.4-4.3,6.1-9.2,11.5-9.2c4.2,0,6.1,3.6,4.3,7.9c-1.9,4.4-6.8,7.9-11.1,7.9c-4,0-5.3-2.2-5-5
		C88.8,68,86.8,69,84.7,70c-1.4,0.6-3,0.7-4,0.7c-2.4,0-3.6-1.1-3.6-3.3c0-0.8,0.2-1.7,0.6-2.7c0.1-0.2,0.2-0.4,0.3-0.6
		c-3.2,3.5-5.6,4.7-7.9,5.8c-1.4,0.6-3,0.7-4,0.7c-2.4,0-3.6-1.1-3.6-3.3C62.4,66.8,62.6,66,62.8,65.3L62.8,65.3z M57.1,56.4
		c-1.3,0.5-2.5,1.9-3.4,3c-1.1,1.3-2,2.7-2.7,4.2c2.6-0.6,5.2-3,6.4-4.9C57.9,57.8,58.7,55.7,57.1,56.4L57.1,56.4z"/>
	<path class="st2" d="M78.2,78.8l1-4.9h0.4l-1,4.9H78.2L78.2,78.8z M80.5,74.4l0.1-0.6h0.5L81,74.4H80.5L80.5,74.4z M79.6,78.8
		l0.8-3.6h0.4L80,78.8H79.6L79.6,78.8z M81,78.8l0.8-3.6h0.4L82,75.8c0.2-0.2,0.4-0.4,0.6-0.5c0.2-0.1,0.4-0.2,0.7-0.2
		c0.3,0,0.6,0.1,0.7,0.2c0.2,0.2,0.3,0.4,0.3,0.7c0,0.1,0,0.1,0,0.2c0,0.1,0,0.1,0,0.2l-0.5,2.3h-0.4l0.5-2.4c0-0.1,0-0.1,0-0.2
		c0-0.1,0-0.1,0-0.2c0-0.2-0.1-0.3-0.2-0.4c-0.1-0.1-0.3-0.1-0.5-0.1c-0.4,0-0.7,0.1-0.9,0.4c-0.2,0.2-0.4,0.6-0.5,1.1l-0.4,1.8H81
		L81,78.8z M86.7,75.5c-0.4,0-0.7,0.2-1,0.5c-0.3,0.4-0.4,0.8-0.4,1.3c0,0.4,0.1,0.7,0.3,0.9c0.2,0.2,0.4,0.3,0.8,0.3
		c0.4,0,0.7-0.2,1-0.5c0.3-0.4,0.4-0.8,0.4-1.3c0-0.4-0.1-0.6-0.3-0.9C87.2,75.6,87,75.5,86.7,75.5L86.7,75.5z M84.7,79.2h0.4
		c0,0.2,0.1,0.4,0.3,0.5c0.2,0.1,0.4,0.2,0.6,0.2c0.4,0,0.7-0.1,0.9-0.3c0.2-0.2,0.3-0.6,0.4-1.2c-0.2,0.2-0.3,0.3-0.5,0.4
		c-0.2,0.1-0.4,0.1-0.6,0.1c-0.4,0-0.8-0.1-1-0.4c-0.3-0.3-0.4-0.6-0.4-1.1c0-0.6,0.2-1.1,0.5-1.6c0.3-0.4,0.8-0.6,1.3-0.6
		c0.3,0,0.6,0.1,0.8,0.2c0.2,0.1,0.4,0.3,0.5,0.6l0.2-0.7h0.4l-0.7,3.4c-0.1,0.6-0.3,1-0.6,1.3c-0.2,0.2-0.6,0.3-1.1,0.3
		c-0.4,0-0.7-0.1-0.9-0.3C84.9,79.8,84.7,79.5,84.7,79.2L84.7,79.2z M89.3,76.7h2.2c0,0,0-0.1,0-0.1c0,0,0-0.1,0-0.1
		c0-0.3-0.1-0.6-0.3-0.7c-0.2-0.2-0.4-0.3-0.7-0.3c-0.3,0-0.6,0.1-0.8,0.3C89.6,76,89.4,76.3,89.3,76.7L89.3,76.7z M91.3,77.7h0.4
		c-0.1,0.4-0.3,0.7-0.5,0.9c-0.3,0.2-0.6,0.3-1,0.3c-0.5,0-0.8-0.1-1-0.4c-0.2-0.3-0.4-0.6-0.4-1.1c0-0.6,0.2-1.2,0.5-1.6
		c0.3-0.4,0.8-0.6,1.3-0.6c0.4,0,0.8,0.1,1,0.4c0.2,0.3,0.4,0.6,0.4,1.1c0,0.1,0,0.2,0,0.3c0,0,0,0.1,0,0.1h-2.7c0,0.1,0,0.1,0,0.2
		c0,0.1,0,0.1,0,0.2c0,0.3,0.1,0.6,0.3,0.8c0.2,0.2,0.4,0.3,0.8,0.3c0.3,0,0.5-0.1,0.7-0.2C91.1,78.2,91.3,78,91.3,77.7L91.3,77.7z
		 M92.4,78.8l0.7-3.6h0.4l-0.1,0.5c0.2-0.2,0.3-0.3,0.5-0.4c0.1-0.1,0.3-0.1,0.4-0.1c0,0,0.1,0,0.1,0c0,0,0.1,0,0.1,0l-0.1,0.4
		c-0.1,0-0.1,0-0.1,0c0,0-0.1,0-0.1,0c-0.3,0-0.5,0.1-0.7,0.3c-0.2,0.2-0.3,0.6-0.4,1.1l-0.4,1.8H92.4L92.4,78.8z M95.2,74.4
		l0.1-0.6h0.5l-0.1,0.6H95.2L95.2,74.4z M94.3,78.8l0.8-3.6h0.4l-0.8,3.6H94.3L94.3,78.8z M96.4,76.7h2.2c0,0,0-0.1,0-0.1
		c0,0,0-0.1,0-0.1c0-0.3-0.1-0.6-0.3-0.7c-0.2-0.2-0.4-0.3-0.7-0.3c-0.3,0-0.6,0.1-0.8,0.3C96.6,76,96.5,76.3,96.4,76.7L96.4,76.7z
		 M98.4,77.7h0.4c-0.1,0.4-0.3,0.7-0.5,0.9c-0.3,0.2-0.6,0.3-1,0.3c-0.5,0-0.8-0.1-1-0.4c-0.2-0.3-0.4-0.6-0.4-1.1
		c0-0.6,0.2-1.2,0.5-1.6c0.3-0.4,0.8-0.6,1.3-0.6c0.4,0,0.8,0.1,1,0.4c0.2,0.3,0.4,0.6,0.4,1.1c0,0.1,0,0.2,0,0.3c0,0,0,0.1,0,0.1
		h-2.7c0,0.1,0,0.1,0,0.2c0,0.1,0,0.1,0,0.2c0,0.3,0.1,0.6,0.3,0.8c0.2,0.2,0.4,0.3,0.8,0.3c0.3,0,0.5-0.1,0.7-0.2
		C98.2,78.2,98.3,78,98.4,77.7L98.4,77.7z"/>
	<path class="st1" d="M110,56.2h0.3c0.2,0,0.3,0,0.3-0.1c0.1,0,0.1-0.1,0.1-0.2c0-0.1,0-0.1,0-0.1c0,0-0.1-0.1-0.1-0.1
		c-0.1,0-0.1,0-0.3,0H110V56.2L110,56.2z M109.7,57.2v-1.7h0.6c0.2,0,0.3,0,0.4,0c0.1,0,0.2,0.1,0.2,0.2c0.1,0.1,0.1,0.2,0.1,0.3
		c0,0.1,0,0.2-0.1,0.3c-0.1,0.1-0.2,0.1-0.4,0.2c0.1,0,0.1,0.1,0.1,0.1c0.1,0.1,0.2,0.2,0.3,0.3l0.2,0.3h-0.3l-0.2-0.3
		c-0.1-0.2-0.2-0.3-0.3-0.4c-0.1,0-0.1-0.1-0.2-0.1H110v0.7H109.7L109.7,57.2z M110.4,54.9c-0.2,0-0.4,0.1-0.7,0.2
		c-0.2,0.1-0.4,0.3-0.5,0.5c-0.1,0.2-0.2,0.4-0.2,0.7c0,0.2,0.1,0.5,0.2,0.7c0.1,0.2,0.3,0.4,0.5,0.5c0.2,0.1,0.4,0.2,0.7,0.2
		c0.2,0,0.5-0.1,0.7-0.2c0.2-0.1,0.4-0.3,0.5-0.5c0.1-0.2,0.2-0.4,0.2-0.7c0-0.2-0.1-0.5-0.2-0.7c-0.1-0.2-0.3-0.4-0.5-0.5
		C110.8,55,110.6,54.9,110.4,54.9L110.4,54.9z M110.4,54.7c0.3,0,0.5,0.1,0.8,0.2c0.3,0.1,0.5,0.3,0.6,0.6c0.1,0.3,0.2,0.5,0.2,0.8
		c0,0.3-0.1,0.5-0.2,0.8c-0.1,0.3-0.3,0.5-0.6,0.6c-0.3,0.1-0.5,0.2-0.8,0.2c-0.3,0-0.5-0.1-0.8-0.2c-0.3-0.1-0.5-0.3-0.6-0.6
		c-0.1-0.3-0.2-0.5-0.2-0.8c0-0.3,0.1-0.5,0.2-0.8c0.1-0.3,0.3-0.5,0.6-0.6C109.8,54.7,110.1,54.7,110.4,54.7L110.4,54.7z"/>
</g>
</svg>
