<?xml version="1.0" encoding="utf-8"?>
<!-- Generator: Adobe Illustrator 23.0.2, SVG Export Plug-In . SVG Version: 6.00 Build 0)  -->
<svg version="1.1" id="Layer_1" xmlns="http://www.w3.org/2000/svg" xmlns:xlink="http://www.w3.org/1999/xlink" x="0px" y="0px"
	 viewBox="0 0 125 125" style="enable-background:new 0 0 125 125;" xml:space="preserve">
<style type="text/css">
	.st0{fill:#FFFFFF;}
	.st1{fill:#FAE100;}
	.st2{fill:#1D1D1D;}
	.st3{fill:#231F20;}
</style>
<g transform="translate(-226 -1452)">
	<circle class="st0" cx="288.5" cy="1514.5" r="62.5"/>
</g>
<g>
	<g>
		<path class="st1" d="M90.1,40.8c-5.8-7.5-14.2-12.4-23.6-13.6c-9.4-1.2-18.8,1.3-26.3,7.1c-7.5,5.8-12.4,14.2-13.6,23.6
			c-1.2,9.4,1.3,18.8,7.1,26.3c12,15.6,34.4,18.5,49.9,6.5c7.5-5.8,12.4-14.2,13.6-23.6C98.4,57.7,95.9,48.3,90.1,40.8z"/>
		<path class="st2" d="M88.2,42.3c-5.4-7-13.2-11.5-22-12.7c-8.8-1.1-17.5,1.2-24.5,6.6c-7,5.4-11.5,13.2-12.7,22
			c-1.1,8.8,1.2,17.5,6.6,24.5c5.4,7,13.2,11.5,22,12.7c8.8,1.1,17.5-1.2,24.5-6.6c7-5.4,11.5-13.2,12.7-22
			C95.9,58,93.6,49.3,88.2,42.3z"/>
		<g>
			<path class="st2" d="M88.3,60.2c-0.3-0.8-1.1-1.5-2.6-1.3c-1.5,0.2-2.9,0.9-4.1,1.8c0.6-1.3,1-2.4,1-2.4l0,0
				c0.2-0.5,0.5-1.2,0.4-1.8c0.6,0.4,1.2,0.5,1.8,0.4c1.2-0.2,2.4-1.1,2.7-2.3c0.1,0.1,0.1,0.2,0.2,0.3c0.9,1.2,2.4,1.7,4.2,1.5
				c3.6-0.4,7.5-3.9,8.9-7.9c0.8-2.3,0.6-4.5-0.5-5.9c-0.9-1.2-2.4-1.7-4.2-1.5c-2.2,0.3-4.6,1.8-6.4,3.9c0-0.2,0-0.4-0.1-0.6
				c-0.4-1.5-1.9-2.5-3.6-2.3c-0.4,0.1-0.8,0.1-1.3,0.2l1.9-4.2c0.6-1.3,1-2.7,0.3-3.7c-0.3-0.4-0.9-0.9-2-0.7L83,34.1
				c-0.6,0.1-1,0.4-1.2,0.9c-0.1,0.4-0.1,0.9,0.2,1.2c0,0.1-0.1,0.3-0.3,0.8c0,0-6,13.5-7.8,17.6l-0.6,0.1c0.1-0.6,0.5-1.5,0.9-2.3
				c0,0,0.9-1.7,0.9-1.7c0.8-1.7,1.6-3.1,1.1-4.5c-0.4-1.5-1.9-2.5-3.6-2.3c-1.2,0.1-2.4,0.4-3.4,1.1c-0.5-0.3-1.1-0.4-1.7-0.3
				l-1.8,0.2c-0.6,0.1-1,0.4-1.2,0.9c-0.1,0.4-0.1,0.9,0.2,1.2c0,0.1,0,0.3-0.2,0.8c0,0-0.5,1-1.1,2.4c0-1.1-0.4-2.2-1-2.9
				c-0.9-1.2-2.4-1.7-4.2-1.5c-3.1,0.4-6.4,3.1-8.2,6.4c0.3-2.8-0.6-5.4-2.8-7.6l-1.4-1.4c-1.3-1.3-1.7-1.7-3.7-3.4
				c-1-0.9-1.2-1.9-1.2-2.7c0-1.3,0.8-2.7,1.9-3.6c2.2-1.7,4.4-1.4,5.4-0.4c0.3,0.3,0.4,0.8,0.4,1.4c-0.1,1.2-0.9,2.5-1.7,3
				c-0.7,0.5-1,1.5-0.5,2.2c0.4,0.7,1.3,0.8,2.1,0.4c1.9-1.1,3.7-3.9,4.1-6.2c0.2-1.5-0.1-2.9-1-3.8c-2.1-2.4-6.9-2.1-10.8,0.6
				c-2.7,1.9-4.5,4.8-4.7,7.7c-0.2,2.1,0.5,4.1,2,5.5c1.6,1.6,2.4,2.3,3.1,3c0.5,0.5,1,0.9,1.7,1.6c1.5,1.5,2,3.3,1.5,5.4
				c-0.8,3.3-4.1,6.6-7.7,7.7c-2.7,0.8-5.1,0.8-6.7-0.1c-1.1-0.6-1.8-1.5-2.1-2.8c-0.7-2.8,1.1-7.1,4.5-8.6c1.6-0.7,3-0.8,3.9-0.4
				c0.7,0.3,1.1,0.9,1.2,1.4c0.4,1.4-0.8,3.1-2.1,4.3c-0.7,0.6-0.7,1.5-0.3,1.9c0.4,0.6,1.3,0.8,2,0.5c2-1,4.8-4.2,4.2-7.9
				c-0.2-1.4-1-2.6-2.4-3.4c-2-1.1-4.6-1.1-7.6,0.1c-5.7,2.3-9.8,9.2-8.3,13.9c1.6,5.1,7.2,7,14.5,4.9c4.1-1.2,9-5,11.3-9.6
				c-0.1,1.4,0.2,2.6,1,3.6c0.9,1.2,2.4,1.7,4.2,1.5c2.1-0.3,4.3-1.6,6.1-3.4c-0.2,0.6-0.2,1.1,0.1,1.6c0.3,0.5,0.9,0.7,1.7,0.6
				c0,0,2-0.3,2-0.3l0.7-0.1l0.3-0.7c0,0,0.8-2.1,2.2-4.9c1.7-3.6,3-5,3.8-5.7c-0.2,0.3-0.4,0.8-0.7,1.4l-0.1,0.1
				c0,0-0.4,0.8-0.4,0.8c-0.7,1.3-1.7,3.7-1.2,5.8c0.5,2,1.9,2.5,3,2.3c0.7-0.1,1.4-0.5,2-1c0.2,0.2,0.5,0.5,1,0.5
				c0.2,0,0.3,0,0.5,0c0.1,0,2.1-0.3,2.1-0.3l0.7-0.1l0.3-0.7c0,0,0.1-0.1,0.1-0.3c0,0.1,0.1,0.2,0.1,0.4c0,0.1,0,0.1-0.1,0.2
				c0,0-0.7,1.7-1.2,2.9c-0.3-0.1-0.8-0.1-1.3-0.1c-2.2,0.3-4.5,2-5.9,4.2c-1,1.7-1.2,3.3-0.7,4.7c0.6,1.6,2.1,2.4,3.9,2.2
				c0.9-0.1,1.6-0.5,2.1-0.9c0.7,0.4,1.6,0.5,2.4,0.2c0.3-0.1,1.3-0.5,1.5-1.3l0.2-0.7c0.9,1.2,2.5,1.7,3.8,1.5
				c1.4-0.2,2.8-1,3.9-2.4c0.6-0.8,0.3-1.5,0-1.8c-0.2-0.2-0.9-0.8-1.8,0c-0.7,0.5-1.2,0.8-1.8,0.9c-0.3,0-0.5-0.1-0.5-0.1
				c0-0.1,0-0.3,0-0.5c2.6-1,4.5-2.4,5.2-3.9C88.5,61.3,88.4,60.6,88.3,60.2L88.3,60.2z M81.7,54.6c0,0.1,0.1,0.3,0.1,0.4
				c-0.3-0.1-0.6-0.2-1.1-0.1c0,0-1.4,0.2-1.4,0.2c-0.2,0-0.4,0.1-0.5,0.2c0.4-1,1.1-2.3,1.1-2.3c0,0,0.1-0.3,0.1-0.3
				c0,0,0.1-0.1,0.1-0.1c0.1-0.1,0.1-0.2,0.2-0.3c1.8-3.6,3-5.1,3.8-5.7c-0.1,0.3-0.4,0.8-0.7,1.4L83.4,48c0,0-0.4,0.8-0.4,0.8
				C82.2,50.1,81.2,52.5,81.7,54.6z M75.7,63.4c0,0.1-0.1,0.2-0.1,0.2c-0.1,0.2-0.2,0.5-0.3,0.8l-0.3,0.7c-0.8,2.1-1.5,2.6-1.7,2.6
				c0,0,0,0,0,0c-0.1-0.5,0.2-1.4,0.8-2.4C74.5,64.4,75.2,63.8,75.7,63.4z M54,57.5C54,57.5,54,57.5,54,57.5
				c-0.2-0.3-0.2-1.3,0.7-3.2c1.3-3,3.2-4.8,4.2-4.9c0.1,0,0.2,0,0.2,0c0.1,0.1,0.4,1-0.6,3.1C57.2,55.5,55.1,57.3,54,57.5z"/>
			<path class="st2" d="M86.5,70.2c0,0-2,0.3-2,0.3c-0.4,0.1-0.9,0.2-1.2,0.6c-0.6-0.3-1.2-0.4-1.9-0.3c-2.3,0.3-5.1,2.2-7.1,4.7
				c0.1-0.3,0.1-0.6,0-1c-0.1-0.9-0.7-1.7-1.7-2.1c-1.6-0.6-3.8-0.1-5.5,1.2c-3.1,2.4-2.6,4.5-2.4,5.1c0.3,0.9,0.8,1.5,1.4,2.2
				c0.4,0.5,0.8,1,1,1.5c0.2,0.4,0.3,1.1-0.7,1.6c-0.2,0.1-0.3,0.1-0.5,0.2c0.3-0.8,0.2-1.6-0.3-2.2c-0.5-0.6-1.4-0.8-2.2-0.5
				c-1,0.4-1.6,1.3-1.6,2.5c0,0,0,0.1,0,0.1l-0.7,0.1c0.1-0.4,0.3-1.1,1-2.4c0,0,6-13.3,6-13.3c0.6-1.3,1.1-2.7,0.3-3.7
				c-0.3-0.4-0.9-0.9-2-0.7c0,0-1.9,0.2-1.9,0.2c-0.6,0.1-1,0.4-1.2,1c-0.1,0.4-0.1,0.9,0.2,1.2c0,0.1-0.1,0.3-0.3,0.8
				c0,0-5.8,12.8-5.8,12.8c-0.7,1.6-1.4,3.3-1.5,4.8l-0.7,0.1c0.1-0.4,0.3-1.1,0.9-2.3c0,0,0.1-0.2,0.1-0.2l2.9-6.3
				c0.1-0.2,0.5-1,0-1.7c-0.2-0.2-0.6-0.7-1.5-0.6c0,0-2,0.3-2,0.3c-0.4,0.1-0.9,0.2-1.2,0.6c-0.6-0.3-1.2-0.4-1.9-0.3
				C50,74.6,46.8,77,44.8,80c-1.6,2.3-2.1,4.7-1.6,6.7c0.6,2.2,2.6,3.2,4.3,3C48.8,89.5,50,89,51,88c0.8,0.9,2,1.2,3.2,0.7
				c1.1-0.4,1.9-1.3,1.9-2.3c0.1,0.3,0.2,0.5,0.4,0.7c0.7,0.8,1.6,1.2,2.5,1C60.5,88,61.6,87,62,86l0.2-0.5c0.3,0.7,0.8,1.2,1.6,1.6
				c1.8,0.9,4.3,0.4,6.2-1.2c1-0.8,1.7-1.8,2-2.8c0.6,2.1,2.6,3,4.2,2.8c1.4-0.2,2.6-0.7,3.6-1.6c0.8,0.9,2,1.2,3.2,0.7
				c1.2-0.4,2-1.5,2-2.6l0-1.4l-0.9,0.1c0.1-0.4,0.4-1.1,0.9-2.3c0,0,0.1-0.2,0.1-0.3l2.9-6.3c0.1-0.2,0.5-1,0-1.7
				C87.8,70.5,87.4,70.1,86.5,70.2z M47.7,85.7c-0.2-0.7,0.5-3.1,2-5.4c1.2-1.8,2.2-2.5,2.8-2.6c0,0,0,0,0.1,0
				c0.1,0.5-0.5,1.9-0.9,3c0,0-0.4,0.9-0.4,0.9c-1,2.5-2.4,4.2-3.1,4.3C47.8,86,47.8,85.9,47.7,85.7L47.7,85.7z M71.9,80.3
				c-0.4-0.7-0.9-1.5-1.3-2.1c-0.4-0.5-0.8-1.1-1-1.5c-0.1-0.3-0.1-0.8,0.9-1.2c0.1,0.5,0.3,0.9,0.7,1.2c0.6,0.4,1.4,0.5,2,0.1
				C72.6,78,72.1,79.2,71.9,80.3z M81.4,74.2C81.4,74.2,81.4,74.2,81.4,74.2c0.2,0.5-0.4,1.9-0.9,3c0,0-0.4,0.9-0.4,0.9
				c-1,2.5-2.4,4.2-3.1,4.3c-0.4,0.1-0.4-0.1-0.5-0.2l0,0c-0.2-0.7,0.5-3.1,2-5.4C79.8,74.9,80.9,74.2,81.4,74.2z"/>
			<path class="st2" d="M46.7,68.4c-0.5-1.8-2.3-2.7-3.8-2.5c-1,0.1-1.7,0.6-2.2,1.3c-0.4,0.7-0.6,1.5-0.3,2.3
				c0.3,1.1,1.2,1.4,1.7,1.5c0.1,0,0.3,0.1,0.3,0.1l0,0c0,0,0,0,0.1,0.2c0.7,2.4-1.4,8.3-4.4,12.9c-2,3-4.2,5-5.8,5.2
				c-0.2,0-0.9,0.1-1.2,0c0,0,0,0,0,0C31,88.7,31,87.1,33,82.8c0-0.1,2.7-5.8,2.7-5.8c0.9-2,1.2-3.7,0.8-5.1
				c-0.7-2.4-3.1-4.7-6.8-4.3c-2.8,0.3-5.1,2.5-6,4c-0.7,1.1-0.7,2.1,0,2.7c0.5,0.4,1.2,0.5,1.9-0.1c1.6-1.5,3.1-2.4,4-2.5
				c1-0.1,1.7,0.4,1.8,0.8c0.1,0.3-0.1,1-0.4,1.7c0,0-3.4,7.6-3.4,7.6c-1.7,3.9-2.3,6.6-1.7,8.7c0.6,2.1,2.6,3.3,5.1,3
				c3.5-0.4,7.3-3.4,10.5-8.2C45.5,79.3,47.8,72,46.7,68.4z"/>
		</g>
		<path class="st2" d="M88.9,59.4c-0.3-0.8-1.1-1.5-2.6-1.3c-1.5,0.2-2.9,0.8-4.1,1.8c0.6-1.3,1-2.4,1-2.4l0,0
			c0.2-0.6,0.5-1.2,0.4-1.8c0.6,0.4,1.2,0.5,1.8,0.4c1.3-0.2,2.7-1.3,2.7-2.6l0-0.6c0.2,0.4,0.4,0.8,0.6,1.1
			c0.9,1.2,2.4,1.7,4.1,1.5c3.6-0.4,7.5-3.9,8.9-7.9c0.8-2.3,0.6-4.5-0.5-5.9c-0.9-1.2-2.4-1.7-4.2-1.5c-2.4,0.3-5,2.1-6.9,4.4
			c0-0.3,0-0.6-0.1-1c-0.4-1.5-1.9-2.5-3.6-2.3c-0.4,0.1-0.8,0.1-1.3,0.2l1.9-4.2c0.6-1.3,1-2.7,0.3-3.7c-0.3-0.4-0.9-0.9-2-0.7
			c0,0-1.8,0.2-1.8,0.2c-0.6,0.1-1,0.4-1.2,0.9c-0.1,0.4-0.1,0.9,0.2,1.2c0,0.1-0.1,0.3-0.3,0.8c0,0-6,13.5-7.8,17.6l-0.6,0.1
			c0.1-0.6,0.5-1.5,0.9-2.4c0,0,0.9-1.7,0.9-1.7c0.8-1.7,1.5-3.1,1.1-4.6c-0.4-1.5-1.9-2.5-3.6-2.3c-1.2,0.1-2.4,0.4-3.4,1.1
			c-0.5-0.3-1.1-0.4-1.8-0.3c0,0-1.8,0.2-1.8,0.2c-0.6,0.1-1,0.4-1.2,0.9c-0.1,0.4-0.1,0.9,0.2,1.3c0,0.1,0,0.3-0.2,0.8
			c0,0-0.5,1-1.1,2.4c0-1.1-0.4-2.2-1-3c-0.9-1.2-2.4-1.7-4.2-1.5c-2.9,0.4-6.1,2.8-7.9,6c0.1-2.6-0.8-4.9-2.8-6.9l-1.4-1.4
			C45.4,41.3,45,41,43,39.3c-1-0.9-1.2-1.9-1.2-2.7c0-1.3,0.8-2.7,1.9-3.6c2.2-1.7,4.4-1.4,5.4-0.4c0.3,0.3,0.4,0.8,0.4,1.4
			c-0.1,1.2-0.9,2.5-1.7,3c-0.7,0.5-1,1.5-0.5,2.2c0.4,0.7,1.3,0.8,2.1,0.4c1.9-1.1,3.7-3.9,4.1-6.2c0.2-1.5-0.1-2.9-1-3.8
			c-2.1-2.4-6.9-2.1-10.8,0.6C39,32,37.2,35,36.9,37.8c-0.2,2.1,0.5,4.1,2,5.5c1.6,1.6,2.4,2.4,3.1,3c0.5,0.5,1,0.9,1.6,1.6
			c1.5,1.5,2,3.3,1.5,5.4c-0.8,3.3-4.1,6.6-7.7,7.7c-2.7,0.8-5.1,0.8-6.7-0.1c-1.1-0.6-1.8-1.6-2.1-2.8c-0.7-2.8,1.3-6.6,4.7-8.7
			c1.2-0.7,1.8-0.8,2.7-0.7c0.8,0.1,1.5-0.5,1.6-1.3c0.1-0.7-0.3-1.7-1.5-2.1c-0.9-0.3-2.2-0.1-3.9,0.7c-5.8,2.4-9.8,9.1-8.3,13.9
			c1.6,5.1,7.2,7,14.5,4.9c3.9-1.1,8.7-4.7,11.1-9.1c0,1.1,0.3,2.1,1,2.9c0.9,1.2,2.4,1.7,4.2,1.5c2.1-0.3,4.3-1.6,6.1-3.4
			c-0.2,0.6-0.2,1.1,0.1,1.6c0.3,0.5,0.9,0.7,1.7,0.6c0,0,2-0.3,2-0.3l0.7-0.1l0.3-0.7c0,0,0.8-2.1,2.2-4.9c1.8-3.6,3-5,3.8-5.6
			c-0.2,0.4-0.4,0.8-0.7,1.5c0,0.1-0.5,0.9-0.5,0.9c-0.7,1.3-1.7,3.7-1.2,5.8c0.5,2,1.9,2.5,3,2.3c0.7-0.1,1.5-0.5,2-1
			c0.2,0.3,0.6,0.4,1,0.5c0.2,0,0.4,0,0.7,0c0,0,2-0.3,2-0.3l0.7-0.1l0.3-0.7c0,0,0.1-0.1,0.1-0.3c0,0.1,0.1,0.2,0.1,0.4
			c0,0.1,0,0.1-0.1,0.2c0,0-0.7,1.7-1.3,2.9c-0.3-0.1-0.8-0.1-1.3-0.1c-2.1,0.3-4.5,1.9-5.8,4.2c-1,1.7-1.3,3.3-0.7,4.7
			c0.6,1.6,2.1,2.4,3.9,2.2c0.9-0.1,1.6-0.5,2.1-0.9c0.7,0.4,1.6,0.5,2.5,0.2c0.3-0.1,1.2-0.5,1.5-1.3l0.2-0.7
			c0.9,1.2,2.5,1.7,3.8,1.5c1.4-0.2,2.8-1,3.8-2.4c0.7-0.8,0.3-1.5,0-1.8c-0.2-0.2-0.9-0.8-1.8,0c-0.7,0.5-1.2,0.8-1.8,0.9
			c-0.3,0-0.5-0.1-0.5-0.1c0-0.1,0-0.3,0-0.5c2.6-1,4.5-2.4,5.2-3.9C89.1,60.5,89,59.8,88.9,59.4L88.9,59.4z M92.9,51.8
			C92.8,51.8,92.8,51.8,92.9,51.8c-0.2-0.3-0.2-1.3,0.7-3.2c1.3-3,3.2-4.8,4.2-4.9l0,0c0.1,0,0.2,0,0.2,0c0.1,0.1,0.4,1-0.6,3.1
			C96,49.9,93.9,51.7,92.9,51.8z M82.3,53.8c0,0.1,0.1,0.3,0.1,0.4c-0.3-0.1-0.6-0.2-1.1-0.1c0,0-1.4,0.2-1.4,0.2
			c-0.2,0-0.4,0.1-0.5,0.2c0.5-1,1.1-2.3,1.1-2.3c0,0,0.1-0.3,0.1-0.3c0,0.1,0.1-0.2,0.1-0.2l0.2-0.3c1.8-3.6,3-5.1,3.8-5.7
			c-0.1,0.3-0.4,0.8-0.7,1.4L84,47.2c0,0-0.4,0.8-0.4,0.8C82.8,49.3,81.8,51.7,82.3,53.8z M76.3,62.6c0,0.1-0.1,0.2-0.1,0.2
			c-0.1,0.2-0.2,0.5-0.3,0.8l-0.3,0.7c-1,2.4-1.7,2.6-1.7,2.6c0,0,0,0-0.1,0c-0.1-0.5,0.2-1.4,0.8-2.5C75.2,63.6,75.8,63,76.3,62.6z
			 M54.6,56.7C54.6,56.7,54.6,56.7,54.6,56.7c-0.2-0.3-0.2-1.3,0.7-3.2c1.3-3,3.2-4.8,4.2-4.9l0,0c0.1,0,0.2,0,0.2,0
			c0.1,0.1,0.4,1-0.6,3.1C57.8,54.7,55.7,56.5,54.6,56.7z M87.1,52.2c0.1-0.4,0.3-1,0.6-1.6c0,0.5,0,1.1,0.1,1.5L87.1,52.2z"/>
		<path class="st3" d="M75.1,57.3C75.1,57.3,75.1,57.3,75.1,57.3c-0.1,0-0.1,0-0.1,0L75.1,57.3z"/>
		<path class="st2" d="M87.1,69.4c0,0-2,0.3-2,0.3c-0.4,0.1-0.9,0.2-1.2,0.6c-0.6-0.3-1.2-0.4-1.9-0.3c-2.3,0.3-5.1,2.2-7.1,4.7
			c0.1-0.3,0.1-0.6,0-1c-0.1-0.9-0.7-1.7-1.7-2.1c-1.6-0.6-3.8-0.2-5.5,1.2c-3.1,2.4-2.6,4.5-2.4,5.1c0.3,0.9,0.8,1.5,1.4,2.2
			c0.4,0.5,0.8,1,1,1.5c0.2,0.4,0.3,1.1-0.7,1.6c-0.2,0.1-0.3,0.1-0.5,0.2c0.3-0.8,0.2-1.6-0.3-2.2c-0.5-0.6-1.4-0.8-2.2-0.5
			c-1,0.4-1.6,1.3-1.6,2.5c0,0,0,0.1,0,0.1l-0.7,0.1c0.1-0.4,0.3-1.1,1-2.4c0,0,6-13.3,6-13.3c0.6-1.3,1.1-2.7,0.3-3.7
			c-0.3-0.4-0.9-0.9-2-0.7c0,0-1.9,0.2-1.9,0.2c-0.6,0.1-1,0.4-1.2,0.9c-0.1,0.4-0.1,0.9,0.2,1.2c0,0.1-0.1,0.3-0.3,0.8
			c0,0-5.8,12.8-5.8,12.8c-0.8,1.7-1.4,3.3-1.5,4.7l-0.7,0.1c0.1-0.4,0.4-1.1,0.9-2.3c0,0,0.1-0.2,0.1-0.2l2.9-6.3
			c0.1-0.2,0.5-1,0-1.7c-0.2-0.3-0.6-0.7-1.5-0.6c0,0-2,0.3-2,0.3c-0.4,0.1-0.8,0.2-1.2,0.6c-0.6-0.3-1.2-0.4-1.9-0.3
			c-2.5,0.3-5.6,2.6-7.7,5.5c1.9-4.4,2.8-8.7,2.1-11.3c-0.5-1.8-2.3-2.7-3.8-2.5c-0.9,0.1-1.7,0.6-2.2,1.3c-0.4,0.7-0.6,1.5-0.3,2.3
			c0.3,1.1,1.2,1.4,1.7,1.5c0.1,0,0.3,0.1,0.3,0.1c0,0,0,0,0,0s0,0,0.1,0.2C44,73,42,78.9,39,83.4c-2,3-4.2,5-5.8,5.2
			c-0.2,0-0.9,0.1-1.2,0c0,0,0,0,0,0c-0.1-0.5-0.2-2,1.9-6.4c0-0.1,2.7-5.8,2.7-5.8c0.9-2,1.2-3.7,0.8-5.1c-0.7-2.4-3.1-4.7-6.9-4.3
			c-2.8,0.3-5.1,2.5-6,4c-0.7,1.1-0.7,2.1,0,2.7c0.5,0.4,1.2,0.5,1.9-0.1c1.6-1.5,3.1-2.4,4-2.5c1.1-0.1,1.7,0.4,1.8,0.8
			c0.1,0.3-0.1,1-0.4,1.7c0,0-3.4,7.6-3.4,7.6c-1.7,3.9-2.3,6.6-1.7,8.7c0.6,2.1,2.6,3.3,5.1,3c3.5-0.4,7.3-3.4,10.5-8.2
			c0.5-0.8,1-1.6,1.5-2.5c-0.4,1.3-0.5,2.6-0.2,3.7c0.6,2.2,2.7,3.2,4.3,3c1.4-0.2,2.6-0.7,3.6-1.6c0.8,0.9,2,1.2,3.2,0.7
			c1.1-0.4,1.9-1.3,1.9-2.3c0.1,0.3,0.2,0.5,0.4,0.8c0.7,0.8,1.6,1.2,2.5,1c1.3-0.2,2.4-1.2,2.8-2.2l0.2-0.5
			c0.3,0.7,0.8,1.2,1.6,1.6c1.8,0.9,4.3,0.4,6.2-1.2c1-0.8,1.7-1.8,2-2.8c0.7,2.1,2.6,3,4.2,2.8c1.4-0.2,2.6-0.7,3.6-1.6
			c0.8,0.9,2,1.2,3.2,0.7c1.2-0.4,2-1.5,2-2.6l0-1.4l-0.9,0.1c0.1-0.4,0.4-1.1,0.9-2.4c0,0,0.1-0.2,0.1-0.2l2.9-6.3
			c0.1-0.2,0.5-1,0-1.7C88.4,69.7,88,69.3,87.1,69.4z M50.4,79.6c1.2-1.8,2.2-2.5,2.8-2.6c0,0,0,0,0.1,0c0.1,0.5-0.5,1.9-0.9,3
			c0,0-0.4,0.9-0.4,0.9c-1.1,2.6-2.4,4.2-3.1,4.3c-0.4,0-0.4-0.1-0.5-0.2C48.2,84.2,48.8,81.9,50.4,79.6z M72.5,79.5
			c-0.4-0.8-0.9-1.5-1.3-2.1c-0.4-0.5-0.8-1.1-1-1.5c-0.1-0.3,0-0.8,0.9-1.2c0.1,0.5,0.3,0.9,0.7,1.2c0.6,0.4,1.4,0.5,2,0.1
			C73.2,77.2,72.7,78.4,72.5,79.5z M77.2,81.3c-0.2-0.7,0.5-3.1,2-5.4c1.2-1.8,2.2-2.5,2.8-2.6c0,0,0,0,0.1,0c0.1,0.5-0.5,1.9-0.9,3
			c0,0-0.4,0.9-0.4,0.9c-1,2.5-2.4,4.2-3,4.3C77.3,81.5,77.2,81.4,77.2,81.3L77.2,81.3z"/>
		<g>
			<path class="st1" d="M51.3,58.2c0.7,0.9,1.9,1.3,3.3,1.1c3.2-0.4,6.8-3.6,8.1-7.3c0.7-2,0.6-3.8-0.3-5c-0.7-0.9-1.9-1.3-3.3-1.1
				c-3.2,0.4-6.7,3.6-8.1,7.3C50.2,55.2,50.3,57,51.3,58.2 M54.6,53.1c1.3-3,3.4-5.3,4.9-5.5c0.5-0.1,0.8,0.1,1.1,0.4
				c0.5,0.7,0.3,2.2-0.5,4.1c-1.4,3.3-3.8,5.4-5.2,5.6c-0.4,0.1-0.7,0-0.9-0.3C53.4,56.6,53.7,55.1,54.6,53.1z"/>
			<path class="st1" d="M100.6,42.2c-0.7-0.9-1.9-1.3-3.3-1.1c-3.2,0.4-6.7,3.6-8.1,7.3c-0.7,2-0.6,3.8,0.3,5
				c0.7,0.9,1.9,1.3,3.3,1.1c3.3-0.4,6.8-3.6,8.1-7.3C101.6,45.2,101.5,43.4,100.6,42.2 M98.3,47.2c-1.4,3.3-3.8,5.4-5.2,5.6
				c-0.4,0.1-0.7,0-0.9-0.3c-0.5-0.6-0.3-2.2,0.6-4.2c1.3-3,3.4-5.3,4.9-5.5c0.5-0.1,0.9,0.1,1.1,0.4C99.3,43.9,99.1,45.4,98.3,47.2
				z"/>
			<path class="st1" d="M61.7,57c-0.1,0.2-0.2,0.6,0,0.8c0.2,0.2,0.5,0.2,0.8,0.2l2-0.3l0.2,0l0.1-0.2c0,0,0.8-2.2,2.2-5
				c0.8-1.5,3.1-6.3,5.3-6.5c0.5-0.1,0.5,0.1,0.5,0.2c0.2,0.7-0.7,2.4-1.1,3l-0.1,0.1c0,0-0.4,0.8-0.4,0.8c-0.6,1.2-1.5,3.3-1.1,5.1
				c0.4,1.7,1.5,1.7,2,1.6c0.9-0.1,1.9-1,1.9-1.7l0-0.3l-0.3,0C73.2,55,73,54.8,73,54.6c-0.2-0.7,0.5-2.5,1-3.4c0,0,0.9-1.7,0.9-1.7
				l0,0c0,0,0,0,0,0c0.7-1.5,1.4-2.7,1.1-3.8c-0.3-1-1.4-1.7-2.5-1.6c-1.4,0.2-2.6,0.5-3.6,1.5c0-0.1-0.1-0.2-0.1-0.3
				c-0.2-0.4-0.8-0.5-1.4-0.4c0,0-1.8,0.2-1.8,0.2c-0.3,0-0.4,0.2-0.4,0.3c0,0.1-0.1,0.3,0.1,0.5c0.2,0.2,0.1,0.8-0.2,1.6
				C66,47.4,61.7,57,61.7,57z"/>
			<path class="st1" d="M89.3,43.9c-0.3-1.1-1.4-1.7-2.5-1.6c-1.3,0.2-2.3,0.4-3.2,1.2l2.9-6.4c0.6-1.4,0.7-2.3,0.4-2.7
				c-0.2-0.3-0.6-0.4-1.1-0.3l-1.8,0.2c-0.3,0-0.4,0.2-0.4,0.3c0,0.1-0.1,0.3,0.2,0.5l0,0c0.2,0.2,0.1,0.8-0.2,1.6
				c0,0-8.4,18.7-8.4,18.7c-0.1,0.2-0.2,0.5-0.1,0.8c0.1,0.1,0.2,0.2,0.4,0.2c0.1,0,0.3,0,0.4,0c0,0,2-0.3,2-0.3l0.2,0l0.1-0.2
				c0,0,0.1-0.3,0.3-0.7c0,0,1.5-3.4,1.5-3.4l0.1-0.3c0.1-0.1,0.1-0.2,0.2-0.4l0.1-0.2c0.8-1.5,3.1-6.3,5.3-6.5
				c0.5-0.1,0.5,0.1,0.5,0.2c0.2,0.7-0.7,2.4-1.1,3l-0.1,0.1c0,0-0.5,0.8-0.5,0.8c-1,1.9-1.4,3.8-1.1,5.1c0.4,1.7,1.5,1.7,2,1.6
				c0.9-0.1,1.9-1,1.9-1.7l0-0.4l-0.3,0c-0.4,0.1-0.6-0.1-0.6-0.3c-0.2-0.7,0.5-2.5,1-3.4c0,0,0.9-1.7,0.9-1.7c0,0,0-0.1,0-0.1
				C88.9,46.2,89.6,45,89.3,43.9z"/>
			<path class="st1" d="M78.2,60.7c-0.3-0.3-0.8-0.5-1.6-0.4c-1.9,0.2-4,1.7-5.2,3.7c-0.8,1.4-1.1,2.8-0.7,3.9
				c0.5,1.2,1.5,1.8,2.9,1.6c1-0.1,1.7-0.7,2.2-1.3c0.1,0.1,0.2,0.3,0.3,0.4c0.7,0.5,1.5,0.4,1.8,0.3c0.4-0.1,0.8-0.4,0.9-0.7
				l0.1-0.5l-0.5,0.1c-0.3,0-0.4-0.1-0.4-0.2c-0.1-0.4,0.4-1.8,0.8-2.6c0,0,3.4-7.8,3.4-7.8c0.4-0.9,0.5-1.5,0.2-1.9
				c-0.3-0.4-0.8-0.3-1-0.3l-1.4,0.2c-0.3,0-0.4,0.2-0.4,0.3c0,0.1,0,0.3,0.2,0.5c0.1,0.1,0.1,0.4-0.1,0.9
				C79.9,56.8,78.7,59.6,78.2,60.7 M74.1,67.9c-0.3,0-0.8,0-1-0.4c-0.3-0.8,0-2.1,0.9-3.5c0.9-1.4,2-2.5,2.9-2.6
				c0.2,0,0.4,0,0.6,0.4c0.2,0.4-0.1,0.9-0.3,1.5c-0.1,0.2-0.2,0.5-0.3,0.8l-0.3,0.7C75.4,67.3,74.5,67.8,74.1,67.9z"/>
			<path class="st1" d="M86.4,59c-2.1,0.3-4.1,1.6-5.3,3.6c-0.8,1.4-1,2.8-0.6,3.9c0.6,1.5,2.3,1.8,3.3,1.7c1.1-0.1,2.3-0.9,3.2-2.1
				c0,0,0,0,0,0c0.1-0.1,0.3-0.3,0.1-0.5c-0.2-0.2-0.4,0-0.6,0.1c-0.8,0.6-1.5,1-2.2,1.1c-0.7,0.1-1.3-0.2-1.5-0.7
				c-0.2-0.5,0-1.2,0.1-1.6c2.6-0.9,4.5-2.3,5.1-3.6c0.2-0.4,0.2-0.8,0.1-1.2C87.9,59.2,87.3,58.9,86.4,59 M85.9,60.2
				c0.3,0,0.4,0,0.4,0.2c0.1,0.4-0.6,1.4-2.9,2.4C84.3,61.2,85.3,60.3,85.9,60.2z"/>
			<path class="st1" d="M59.1,74.1c-0.2-0.2-0.5-0.2-0.6-0.2c0,0-2,0.2-2,0.2c-0.4,0.1-0.6,0.1-0.7,0.5c0,0-0.1,0.3-0.3,0.6
				c-0.5-0.6-1.3-0.9-2.1-0.8c-2.3,0.3-5.3,2.5-7.1,5.3c-1.4,2.1-1.9,4.2-1.5,5.9c0.5,1.7,2,2.4,3.2,2.3c1.6-0.2,2.8-0.9,4-2.3
				c0.1,0.3,0.2,0.6,0.4,0.9c0.5,0.6,1.4,0.9,2.3,0.5c0.8-0.3,1.4-1,1.4-1.7l0-0.3l-0.3,0c-0.4,0.1-0.6-0.1-0.6-0.3
				c-0.2-0.7,0.7-2.6,1.1-3.4c0,0,0.1-0.2,0.1-0.2l2.9-6.3C59.1,74.7,59.3,74.4,59.1,74.1 M53.2,80.4c0,0-0.4,0.9-0.4,0.9
				c-0.7,1.7-2.3,4.6-3.8,4.8c-0.5,0.1-1.2,0-1.5-0.9c-0.3-1.2,0.6-3.9,2.1-6.1c1.2-1.8,2.4-2.9,3.4-3c0.8-0.1,1,0.4,1.1,0.7
				C54.4,77.5,53.9,78.8,53.2,80.4z"/>
			<path class="st1" d="M87.4,70.3c0,0-2,0.3-2,0.3c-0.4,0.1-0.6,0.1-0.7,0.5l0,0l-0.3,0.6c-0.5-0.6-1.3-0.9-2.1-0.8
				c-2.3,0.3-5.3,2.5-7.1,5.3c-1.4,2.1-1.9,4.2-1.5,5.9c0.5,1.7,2,2.4,3.2,2.3c1.6-0.2,2.8-0.9,3.9-2.3c0.1,0.3,0.2,0.6,0.4,0.9
				c0.5,0.6,1.4,0.8,2.3,0.5c0.8-0.3,1.4-1,1.4-1.6l0-0.3l-0.3,0c-0.4,0.1-0.5-0.1-0.6-0.3c-0.2-0.7,0.7-2.6,1-3.4
				c0,0,0.1-0.2,0.1-0.2l2.9-6.3c0.1-0.2,0.2-0.5,0.1-0.7C87.8,70.3,87.5,70.3,87.4,70.3 M82.1,76.7L82.1,76.7
				c0,0.1-0.4,0.9-0.4,0.9c-0.7,1.7-2.3,4.6-3.8,4.8c-0.5,0.1-1.2,0-1.5-0.9c-0.3-1.1,0.6-3.9,2.1-6.1c1.2-1.8,2.4-2.8,3.4-3
				c0.8-0.1,1,0.4,1.1,0.7C83.3,73.8,82.7,75.2,82.1,76.7z"/>
			<path class="st1" d="M60.9,84c-0.1-0.3-0.1-1.2,1.1-3.5c0,0,6-13.3,6-13.3c0.6-1.4,0.8-2.3,0.4-2.7c-0.2-0.3-0.6-0.4-1.2-0.3
				l-1.9,0.2c-0.3,0-0.4,0.2-0.4,0.3c0,0.1-0.1,0.3,0.2,0.5l0,0c0.2,0.3,0.1,0.8-0.2,1.6l-5.8,12.8c-1.1,2.4-2,4.9-1,6.1
				c0.6,0.7,1.3,0.8,1.7,0.7c0.9-0.1,1.8-0.9,2.1-1.6l0.2-0.5l-0.6,0.1C61.1,84.4,61,84.3,60.9,84z"/>
			<path class="st1" d="M74.1,73.8c-0.1-0.6-0.5-1.1-1.1-1.3c-1-0.4-2.9-0.3-4.5,1.1c-2,1.6-2.4,3.2-2.1,4.1
				c0.3,0.7,0.7,1.3,1.2,1.9c0.4,0.5,0.8,1.1,1.1,1.7c0.5,1.1,0.1,2.2-1.2,2.8c-0.9,0.4-1.6,0.4-1.9,0.1c-0.2-0.2-0.1-0.7,0.1-0.9
				c0.4-0.8,0.1-1.3,0-1.4c-0.3-0.3-0.8-0.4-1.2-0.2c-0.6,0.2-1,0.8-1,1.6c0,1,0.5,1.9,1.4,2.3c1.5,0.7,3.6,0.3,5.2-1.1
				c1.6-1.3,2.3-3,1.8-4.3c-0.3-0.7-0.8-1.5-1.3-2.2c-0.5-0.6-0.9-1.2-1.1-1.8c-0.3-1.2,0.4-2.1,1.9-2.5c0.4-0.1,0.7-0.1,0.8,0.1
				c0.1,0.1,0.1,0.3,0.1,0.4c-0.1,0.4,0,0.8,0.3,1c0.3,0.2,0.7,0.2,1.1,0C73.8,75.1,74.2,74.7,74.1,73.8z"/>
			<path class="st1" d="M38.2,64.1c4.5-1.3,10.3-6.2,11.6-11.3c0.8-3,0-5.8-2.3-8l-1.4-1.4c-1.3-1.3-1.7-1.7-3.6-3.3
				c-1.3-1.1-1.6-2.5-1.5-3.4c0-1.6,0.9-3.3,2.3-4.3c2.7-2,5.4-1.7,6.6-0.3c0.6,0.7,0.7,1.6,0.6,2.2c-0.2,1.5-1.2,3-2.1,3.6
				c-0.4,0.3-0.4,0.7-0.3,0.9c0.1,0.2,0.4,0.3,0.8,0.1c1.7-1,3.3-3.5,3.6-5.6c0.2-1.2-0.1-2.3-0.7-3.1c-1.8-2-6.1-1.7-9.6,0.8
				c-2.4,1.7-4.1,4.4-4.3,7c-0.2,1.9,0.4,3.5,1.7,4.8c1.6,1.6,2.4,2.3,3.1,3c0.5,0.5,1,0.9,1.7,1.6c2.2,2.2,2.2,4.6,1.8,6.3
				c-0.9,3.7-4.4,7.2-8.3,8.4c-3,0.9-5.6,0.8-7.5-0.2c-1.3-0.7-2.2-1.9-2.6-3.4C27,55.2,29.2,51,33,48.7c1.4-0.8,2.2-0.9,3.2-0.9
				c0.3,0,0.6-0.2,0.6-0.5c0.1-0.4-0.2-0.8-0.8-1c-0.7-0.2-1.8,0-3.3,0.6c-5.3,2.2-9.1,8.5-7.8,12.8C26.4,64.4,31.4,66,38.2,64.1z"
				/>
			<path class="st1" d="M46.8,68c-0.4-1.3-1.7-2-2.8-1.8c-0.9,0.1-1.3,0.5-1.5,0.9c-0.3,0.4-0.4,1-0.2,1.5c0.2,0.6,0.6,0.7,1,0.8
				c0.5,0.1,0.8,0.2,1.1,1c0.7,2.7-1.3,8.8-4.5,13.6c-2.2,3.3-4.6,5.4-6.4,5.6c-1.3,0.2-2,0.1-2.2-0.7c-0.3-1.2,0.3-3.6,1.9-7
				l0.1-0.1l2.7-5.7c0.8-1.8,1.1-3.2,0.7-4.4c-0.6-2.1-2.6-4-5.8-3.6c-2.4,0.3-4.6,2.3-5.3,3.5c-0.3,0.5-0.6,1.2-0.2,1.5
				c0.1,0.1,0.3,0.2,0.7-0.1c1.8-1.6,3.4-2.6,4.6-2.7c1.5-0.2,2.6,0.6,2.8,1.4c0.2,0.6-0.1,1.7-0.5,2.4c0,0-3.4,7.6-3.4,7.6
				c-1.6,3.6-2.2,6.2-1.7,8.1c0.5,1.7,2,2.6,4.1,2.3c3.3-0.4,6.8-3.2,9.9-7.8C45.5,78.5,47.7,71.3,46.8,68z"/>
		</g>
	</g>
</g>
</svg>
