<?xml version="1.0" encoding="utf-8"?>
<!-- Generator: Adobe Illustrator 23.0.2, SVG Export Plug-In . SVG Version: 6.00 Build 0)  -->
<svg version="1.1" id="Layer_1" xmlns="http://www.w3.org/2000/svg" xmlns:xlink="http://www.w3.org/1999/xlink" x="0px" y="0px"
	 viewBox="0 0 125 125" style="enable-background:new 0 0 125 125;" xml:space="preserve">
<style type="text/css">
	.st0{fill:#FFFFFF;}
	.st1{fill:#FFCA01;}
	.st2{fill-rule:evenodd;clip-rule:evenodd;fill:#009945;}
</style>
<g transform="translate(-226 -1452)">
	<circle class="st0" cx="288.5" cy="1514.5" r="62.5"/>
</g>
<g>
	<path class="st1" d="M19.5,58.2l6.5,0v-4.1h-7.2c-0.1,0-0.2,0-0.3,0c-2.5,0-4.6,2.1-4.6,4.6c0,1.9,1.1,3.5,2.8,4.2l4.6,2.3
		c1.1,0.5,0.9,1.5-0.3,1.5h-6.6l0-2l-2.7,2l-2.7,2l2.7,2l2.7,2l0-2l7.8,0.1c2.5,0,4.6-2.1,4.6-4.6c0-1.3-0.3-2.7-1.4-3.5l-6-3.1
		C18.9,59.4,19,58.2,19.5,58.2L19.5,58.2z M41.4,54.2V65c0,1.9-0.6,3.4-1.9,4.6c-1.3,1.1-3,1.7-5.1,1.7c-2.1,0-3.8-0.6-4.9-1.7
		c-1.1-1.1-1.7-2.7-1.7-4.8V54.2h5v11.1c0,1,0.8,1.8,1.8,1.8l0,0c1,0,1.8-0.8,1.8-1.8V54.2H41.4L41.4,54.2z M52.1,70.8
		c2.5,0,4.6-2.1,4.6-4.6c0-1.7-1-3.3-2.4-4c1.1-0.8,1.8-2.1,1.8-3.6c0-2.3-1.8-4.2-4.1-4.4v0h-9.3v16.6H52.1L52.1,70.8z M47.7,63.9
		h2.4c1,0,1.7,0.8,1.7,1.7v0c0,0.9-0.7,1.6-1.6,1.6h-2.5V63.9L47.7,63.9z M47.7,57.9h2c0.8,0,1.4,0.7,1.4,1.4v0
		c0,0.7-0.6,1.4-1.4,1.4h-2.1V57.9L47.7,57.9z"/>
	<path class="st2" d="M108.2,58.2v3.4c0,2.4-1.9,4.3-4.2,4.5v4.9h-5.4V66c-2.3-0.2-4.1-2.1-4.1-4.5v-7.4h4.9v6.6
		c0,0.9,0.7,1.6,1.6,1.6h0.7c0.9,0,1.6-0.7,1.6-1.6v-3.5h0c0,0,0,0,0-0.1c0-1.7,1.4-3,3-3h0h0h0h0h0h0h0h0h0l0,0v0h0.6h1.2h2.4l0-2
		l2.7,2l2.7,2l-2.7,2l-2.7,2l0-2H108.2L108.2,58.2z M84.6,70.8h-5V60.3c0-2,0.6-3.6,1.9-4.7c1.3-1.1,3-1.7,5.3-1.7
		c2.2,0,3.8,0.5,4.9,1.5c1.1,1,1.6,2.6,1.6,4.7v10.7h-5V66h-3.7V70.8L84.6,70.8z M88.3,62.4v-2.8c0-1-0.8-1.9-1.9-1.9l0,0
		c-1,0-1.9,0.8-1.9,1.9v2.8H88.3L88.3,62.4z M78.3,54.2v12c0,1.5-0.5,2.7-1.6,3.7c-1.1,0.9-2.4,1.4-4.1,1.4c-0.1,0-0.2,0-0.3,0
		c-0.9,0.1-2.8,0.1-4.3-1.2c-1.4,1.4-3.3,1.3-4.1,1.2c-0.3,0-0.5,0-0.8,0c-1.7,0-3.1-0.5-4-1.4c-0.9-0.9-1.4-2.3-1.4-4.1V54.2h4.9
		v11.3c0,0.8,0.7,1.5,1.5,1.5l0,0c0.8,0,1.5-0.7,1.5-1.5V54.2h4.7v11.3c0,0.8,0.7,1.5,1.5,1.5l0,0c0.8,0,1.5-0.7,1.5-1.5V54.2H78.3
		L78.3,54.2z M106.3,68.4c0.2,0,0.4,0.1,0.6,0.2c0.2,0.1,0.4,0.3,0.5,0.5c0.1,0.2,0.2,0.4,0.2,0.6c0,0.2-0.1,0.4-0.2,0.6
		c-0.1,0.2-0.3,0.4-0.5,0.5c-0.2,0.1-0.4,0.2-0.6,0.2c-0.2,0-0.4-0.1-0.6-0.2c-0.2-0.1-0.4-0.3-0.5-0.5c-0.1-0.2-0.2-0.4-0.2-0.6
		c0-0.2,0.1-0.4,0.2-0.6c0.1-0.2,0.3-0.4,0.5-0.5C105.9,68.5,106.1,68.4,106.3,68.4L106.3,68.4z M106.3,68.6c-0.2,0-0.3,0-0.5,0.1
		c-0.2,0.1-0.3,0.2-0.4,0.4c-0.1,0.2-0.1,0.3-0.1,0.5c0,0.2,0,0.4,0.1,0.5c0.1,0.2,0.2,0.3,0.4,0.4c0.2,0.1,0.3,0.1,0.5,0.1
		c0.2,0,0.4,0,0.5-0.1c0.2-0.1,0.3-0.2,0.4-0.4c0.1-0.2,0.1-0.3,0.1-0.5c0-0.2,0-0.4-0.1-0.5c-0.1-0.2-0.2-0.3-0.4-0.4
		C106.6,68.7,106.5,68.6,106.3,68.6L106.3,68.6z M105.8,70.4V69h0.5c0.2,0,0.3,0,0.3,0c0.1,0,0.1,0.1,0.2,0.1c0,0.1,0.1,0.1,0.1,0.2
		c0,0.1,0,0.2-0.1,0.3c-0.1,0.1-0.2,0.1-0.3,0.1c0,0,0.1,0,0.1,0.1c0.1,0.1,0.1,0.1,0.2,0.3l0.2,0.3h-0.3l-0.1-0.2
		c-0.1-0.2-0.2-0.3-0.2-0.3c0,0-0.1,0-0.2,0H106v0.6H105.8L105.8,70.4z M106,69.6h0.3c0.1,0,0.2,0,0.3-0.1c0,0,0.1-0.1,0.1-0.1
		c0,0,0-0.1,0-0.1c0,0-0.1-0.1-0.1-0.1c0,0-0.1,0-0.2,0H106V69.6L106,69.6z"/>
</g>
</svg>
