<?xml version="1.0" encoding="utf-8"?>
<!-- Generator: Adobe Illustrator 23.0.2, SVG Export Plug-In . SVG Version: 6.00 Build 0)  -->
<svg version="1.1" id="Layer_1" xmlns="http://www.w3.org/2000/svg" xmlns:xlink="http://www.w3.org/1999/xlink" x="0px" y="0px"
	 viewBox="0 0 125 125" style="enable-background:new 0 0 125 125;" xml:space="preserve">
<style type="text/css">
	.st0{fill:#FFFFFF;}
	.st1{fill:#0066B3;}
	.st2{fill:#FAA634;}
</style>
<g transform="translate(-226 -1452)">
	<circle class="st0" cx="288.5" cy="1514.5" r="62.5"/>
</g>
<g>
	<polygon class="st1" points="55.6,76.4 48.4,76.4 52.9,48.6 60.1,48.6 55.6,76.4 	"/>
	<path class="st1" d="M42.3,48.6l-6.9,19.1l-0.8-4.1l0,0l-2.4-12.5c0,0-0.3-2.5-3.4-2.5H17.3l-0.1,0.5c0,0,3.5,0.7,7.6,3.2L31,76.4
		h7.5l11.5-27.8H42.3L42.3,48.6z"/>
	<path class="st1" d="M91.2,66.6L95,56.2l2.1,10.4H91.2L91.2,66.6z M99.2,76.4h6.6L100,48.6h-5.8c-2.7,0-3.3,2.1-3.3,2.1L80.1,76.4
		h7.5l1.5-4.1h9.2L99.2,76.4L99.2,76.4z"/>
	<path class="st1" d="M80.6,55.3l1-6c0,0-3.2-1.2-6.5-1.2c-3.6,0-12.1,1.6-12.1,9.2c0,7.2,10,7.3,10,11c0,3.8-9,3.1-11.9,0.7
		l-1.1,6.2c0,0,3.2,1.6,8.2,1.6c4.9,0,12.4-2.6,12.4-9.5c0-7.2-10.1-7.9-10.1-11C70.5,53.2,77.6,53.6,80.6,55.3L80.6,55.3z"/>
	<path class="st2" d="M34.6,63.6l-2.4-12.5c0,0-0.3-2.5-3.4-2.5H17.3l-0.1,0.5c0,0,5.5,1.1,10.7,5.4C32.9,58.5,34.6,63.6,34.6,63.6
		L34.6,63.6z"/>
</g>
</svg>
