<?xml version="1.0" encoding="utf-8"?>
<!-- Generator: Adobe Illustrator 23.0.2, SVG Export Plug-In . SVG Version: 6.00 Build 0)  -->
<svg version="1.1" id="Layer_1" xmlns="http://www.w3.org/2000/svg" xmlns:xlink="http://www.w3.org/1999/xlink" x="0px" y="0px"
	 viewBox="0 0 125 125" style="enable-background:new 0 0 125 125;" xml:space="preserve">
<style type="text/css">
	.st0{fill:#FFFFFF;}
	.st1{fill:none;}
	.st2{fill:#C4992D;}
	.st3{fill:#EC2227;}
</style>
<g transform="translate(-226 -1452)">
	<circle class="st0" cx="288.5" cy="1514.5" r="62.5"/>
</g>
<g>
	<rect x="19.3" y="31.3" class="st1" width="86.4" height="62.4"/>
	<path class="st2" d="M22.1,92.4c2.4-4.1,11.2-11.6,39.8-12.2c19.3-0.4,32.6-3.5,36.4-5.2c1.5-0.7,5.3-1.7,6-5.4c0-0.2,0-1.1,0-1.5
		c0-5.3-0.8-30.9-0.9-35.9c0-0.9,0-1-0.7-0.3c-4.3,4.6-20.3,8.4-39.7,9.3c-25.3,1.2-35.7,4.3-39.9,7.5c-2,1.5-2.3,4.4-2.4,7.9
		c0.1,10.7,0.5,15.4,0.7,35.4C21.4,93.7,21.6,93.2,22.1,92.4"/>
	<path class="st3" d="M20.3,89.9C22.9,86.2,32,79.5,61.7,79c22-0.4,32.4-2.7,38.2-5.1c1.6-0.6,4.9-1.8,5.6-5.2c0-0.2,0.1-1,0.1-1.4
		c0-4.8-0.6-28-0.6-32.6c0-0.9,0-0.9-0.7-0.2c-4.5,4.2-20.6,7.1-41.3,7.8c-25.9,0.8-36.7,4.5-41,7.4c-2.1,1.4-2.6,3.3-2.7,6.5
		c0.1,9.8,0.1,15.1,0.3,33.4C19.6,91.3,19.9,90.6,20.3,89.9"/>
	<path d="M35,64.3c0.9-0.7,2.5-2.2,2.6-5.8c0.1-2.2-0.5-3.3-1.1-3.9c-1.1-1.2-2.5-1.2-4.9-0.4c-1.8,0.6-3.7,1.5-5.4,2.4
		c0,21.1,0.1,22.4,0.1,22.4c2.1-1.1,3.2-1.5,5.4-2.3c1.2-0.4,3.3-1,4.5-2.7c0.6-0.9,1.6-2.5,1.7-5C38,64.3,35.8,64.3,35,64.3
		 M29.8,58.3L29.8,58.3c0.5-0.2,1.2-0.5,1.7-0.7c1.6-0.5,2.2,0.6,2.1,2.2c0,1-0.1,2.7-2.3,3.3c-0.5,0.2-1,0.3-1.5,0.5
		C29.8,61.9,29.7,60.1,29.8,58.3 M33.7,69.3c-0.1,2.5-1.1,3.3-2.6,3.9c-0.5,0.2-0.7,0.3-1.2,0.5c0-2-0.1-3.9,0-5.9
		c0.5-0.2,0.8-0.4,1.3-0.6c1.2-0.5,1.7-0.6,2.2,0.1C33.7,68,33.7,69.1,33.7,69.3"/>
	<path d="M38.4,74.8L38.4,74.8L38.4,74.8z"/>
	<path d="M67.6,49.6c0,2.9,0.1,6.1,0.1,9.1c-1,0-2,0-3,0c0-3-0.1-6.1-0.1-9.1c-1.4,0-2.8,0.1-4.2,0.1c0.1,6.3,0.2,12.9,0.2,19.2
		c-1.3-6.3-2.6-12.9-3.9-19.1c-1.4,0.1-3.2,0.1-4.6,0.2c-1.2,5.9-2.3,12.1-3.5,18.1c-0.5-1.7-1.1-3.4-1.6-4.9
		c0.9-0.8,2.6-2.1,2.6-6.4c0-0.8,0-3.5-1.8-5.2c-1-0.9-2.2-0.8-4.4-0.5c-1.7,0.3-3.5,0.7-5.3,1.1c0.2,7.4,0.3,15,0.3,22.5
		c1.3-0.3,2.5-0.5,3.8-0.7c0-2.9-0.1-5.9-0.1-8.8c0.4-0.1,0.9-0.2,1.4-0.3c0.7,2.8,1.6,5.8,2.3,8.6c1.4-0.2,2.8-0.4,4.3-0.5
		c0,0,0,0,0,0c0.5,0,1-0.1,1.4-0.1c0.3-1.6,0.6-3.6,0.9-5.2c1.3-0.1,2.6-0.2,3.9-0.2c0.3,1.6,0.6,3.5,0.9,5.1c1.4,0,2.7-0.1,4.1-0.1
		c0,0,0,0,0,0c1.2,0,2.4-0.1,3.6-0.1c0-3.1-0.1-6.7-0.1-10c1,0,2,0,3,0c0,3.2,0.1,6.8,0.1,9.9c1.4-0.1,2.6-0.1,4-0.2
		c0-7.2-0.1-15.1-0.2-22.6C70.3,49.6,69,49.6,67.6,49.6 M43.4,61.2c-0.4,0.1-0.9,0.1-1.2,0.2c0-2.1-0.1-4.2-0.1-6.3
		c0.4-0.1,0.9-0.2,1.3-0.3c1.3-0.3,2.3,0.4,2.3,2.7C45.7,59.6,45,60.9,43.4,61.2 M52.8,64c0.5-3,1.5-9.7,1.5-9.8
		c0,0.9,1,6.6,1.5,9.7C54.8,63.9,53.8,64,52.8,64"/>
	<path d="M96.6,46c-1.4,0.4-3,0.8-4.4,1l-0.3,0c-1.1,6.6-2.1,13.1-3.2,19.6c-0.1-6.2-0.2-12.9-0.3-18.9c-1.9,0.4-3.6,0.6-5.5,0.8
		c-0.6,4-2.1,14.5-2.2,16.1c-0.1-1-1.7-11.4-2.4-15.6c-1.9,0.2-3.8,0.3-5.6,0.4c0.1,7.5,0.2,15.3,0.2,22.6c1.1,0,2.7-0.1,3.8-0.2
		C76.5,65.1,76,55,76,54.4c0.1,0.2,2,10.7,3.1,17.2c0.9-0.1,2.8-0.3,3.7-0.4c0.9-6.5,2.5-19,2.4-18.2c0,1.4,0.1,10.8,0.2,18
		c1.3-0.2,2.1-0.3,3.4-0.6c0,0,0,0,0,0c1.1-0.2,2.5-0.4,3.5-0.6c0.2-1.6,0.3-3.3,0.5-4.8c2.4-0.6,2.4-0.6,4.1-1.1
		c0.3,1.6,0.6,3.1,0.9,4.6c1.6-0.4,4.2-1.6,4.2-1.6C102.1,66.8,98.2,52.3,96.6,46 M76,54.4C76,54.4,76,54.4,76,54.4
		C76,54.4,76,54.4,76,54.4 M93.2,60.9c0.4-3.6,0.7-7.1,1.1-10.7c0.7,3.3,1.3,6.5,2,9.8C96.3,60.1,94.2,60.7,93.2,60.9"/>
	<path class="st0" d="M34.1,63.6c0.9-0.7,2.5-2.2,2.6-5.8c0.1-2.2-0.5-3.3-1.1-3.9c-1.1-1.2-2.5-1.2-4.9-0.4
		c-1.8,0.6-3.7,1.5-5.4,2.4c0,21.1,0.1,22.4,0.1,22.4c2.1-1.1,3.2-1.5,5.4-2.3c1.2-0.4,3.3-1,4.5-2.7c0.6-0.9,1.6-2.5,1.7-5
		C37,63.7,34.8,63.7,34.1,63.6 M28.8,57.7c0.5-0.2,1.2-0.5,1.7-0.7c1.6-0.5,2.2,0.6,2.1,2.2c0,1-0.1,2.7-2.3,3.3
		c-0.5,0.2-1,0.3-1.5,0.5C28.9,61.3,28.8,59.5,28.8,57.7 M32.7,68.6c-0.1,2.5-1.1,3.3-2.6,3.9c-0.5,0.2-0.7,0.3-1.2,0.5
		c0-2-0.1-3.9,0-5.9c0.5-0.2,0.8-0.4,1.3-0.6c1.2-0.5,1.7-0.6,2.2,0.1C32.8,67.4,32.7,68.4,32.7,68.6"/>
	<path class="st0" d="M66.6,49c0,2.9,0.1,6.1,0.1,9.1c-1,0-2,0-3,0c0-3-0.1-6.1-0.1-9.1c-1.4,0-2.8,0.1-4.2,0.1
		c0.1,6.3,0.2,12.9,0.2,19.2c-1.3-6.3-2.6-12.9-3.9-19.1c-1.4,0.1-3.2,0.1-4.6,0.2c-1.2,5.9-2.3,12.1-3.5,18.1
		c-0.5-1.7-1.1-3.4-1.6-4.9c0.9-0.8,2.6-2.1,2.6-6.4c0-0.8,0-3.5-1.8-5.2c-1-0.9-2.2-0.8-4.4-0.5c-1.7,0.3-3.5,0.7-5.3,1.1
		c0.2,7.4,0.3,15.1,0.3,22.6c1.3-0.3,2.5-0.5,3.8-0.8c0-2.9-0.1-5.9-0.1-8.8c0.4-0.1,0.9-0.2,1.4-0.3c0.7,2.8,1.6,5.8,2.3,8.6
		c1.4-0.2,2.8-0.4,4.3-0.5c0,0,0,0,0,0c0.5,0,1-0.1,1.4-0.1c0.3-1.6,0.6-3.6,0.9-5.2c1.3-0.1,2.6-0.2,3.9-0.2
		c0.3,1.6,0.6,3.5,0.9,5.1c1.4,0,2.7-0.1,4.1-0.1c0,0,0,0,0,0c1.2,0,2.4-0.1,3.6-0.1c0-3.1-0.1-6.7-0.1-10c1,0,2,0,3,0
		c0,3.2,0.1,6.8,0.1,9.9c1.4-0.1,2.6-0.1,4-0.2c0-7.2-0.1-15.1-0.2-22.6C69.3,48.9,68,48.9,66.6,49 M42.4,60.5
		c-0.4,0.1-0.9,0.1-1.2,0.2c0-2.1-0.1-4.2-0.1-6.3c0.4-0.1,0.9-0.2,1.3-0.3c1.3-0.3,2.3,0.4,2.3,2.7C44.7,59,44,60.2,42.4,60.5
		 M51.8,63.4c0.5-3,1.5-9.7,1.5-9.8c0,0.9,1,6.6,1.5,9.7C53.9,63.3,52.8,63.3,51.8,63.4"/>
	<path class="st0" d="M95.7,45.3c-1.4,0.4-3,0.8-4.4,1l-0.3,0C89.9,53,88.8,59.4,87.8,66c-0.1-6.2-0.2-12.9-0.3-18.9
		c-1.9,0.4-3.6,0.6-5.5,0.8c-0.6,4-2.1,14.5-2.2,16.1c-0.1-1-1.7-11.4-2.4-15.6c-1.9,0.2-3.8,0.3-5.6,0.4c0.1,7.5,0.2,15.3,0.2,22.6
		c1.1,0,2.7-0.1,3.8-0.2c-0.3-6.7-0.7-16.8-0.7-17.4c0.1,0.2,2,10.7,3.1,17.2c0.9-0.1,2.8-0.3,3.7-0.4c0.9-6.5,2.5-19,2.4-18.2
		c0,1.4,0.1,10.8,0.2,18c1.3-0.2,2.1-0.3,3.4-0.6c0,0,0,0,0,0c1.1-0.2,2.5-0.4,3.5-0.6c0.2-1.6,0.3-3.3,0.5-4.8
		c2.4-0.6,2.4-0.6,4.1-1.1c0.3,1.6,0.6,3.1,0.9,4.6c1.6-0.4,4.2-1.6,4.2-1.6C101.1,66.2,97.2,51.6,95.7,45.3 M75,53.8
		C75,53.8,75,53.8,75,53.8C75,53.8,75,53.8,75,53.8 M92.2,60.3c0.4-3.6,0.7-7.1,1.1-10.7c0.7,3.3,1.3,6.5,2,9.8
		C95.3,59.4,93.3,60.1,92.2,60.3"/>
</g>
</svg>
