<?xml version="1.0" encoding="utf-8"?>
<!-- Generator: Adobe Illustrator 23.0.2, SVG Export Plug-In . SVG Version: 6.00 Build 0)  -->
<svg version="1.1" id="Layer_1" xmlns="http://www.w3.org/2000/svg" xmlns:xlink="http://www.w3.org/1999/xlink" x="0px" y="0px"
	 viewBox="0 0 125 125" style="enable-background:new 0 0 125 125;" xml:space="preserve">
<style type="text/css">
	.st0{fill:#FFFFFF;}
	.st1{fill:#CFA62D;}
	.st2{fill:#D52649;}
</style>
<g transform="translate(-226 -1452)">
	<circle class="st0" cx="288.5" cy="1514.5" r="62.5"/>
</g>
<g>
	<path class="st0" d="M101.4,68.4l4.4-21.1c0.1-0.3,0.2-1.1-0.3-1.9c-0.5-0.7-1.3-1-2.4-1.1c-0.6,0-1.6,0-3,0c-2.3,0-4.9,0-4.9,0
		l-2.8,0c0,0,1,2.4,0.4,5.5c-0.1,0.6-0.4,2.1-0.8,4c-0.5-2.3-1.6-4.4-3.2-6c-2.6-2.8-6.5-4.4-10.6-4.4c-1.5,0-3,0.2-4.4,0.7
		c-0.5,0.2-1,0.3-1.5,0.5H57.1c0,0,0,0.8-0.6,1.6l-6,6.9c0.5-2.3,0.7-3.8,0.9-5c0.2-1.1-0.3-3.5-2.8-3.5h-9.7l0.3,1l-0.3-0.1
		c-4.4-1.4-7.2-1.9-10-1.9c-0.7,0-1.3,0-1.7,0.1l-0.3,0c-1,0-3.5,0.5-6,1.7c-3.3,1.7-5.5,4.3-6.1,7.6c-1.3,6.4,2.9,9.4,5.9,11.5
		l0.2,0.1c0.1,0.1,0.3,0.2,0.5,0.3c2,1.3,4.2,3.4,3,5.2c-1.1,1.8-4.6,0.2-6.1-1.5c-1-1.2-3.4-4.8-3.4-4.8l-3.7,12.3l0.8,0.4
		c3.5,1.4,6.8,2.1,10.1,2.1h0c5.3,0.1,9.2-1.7,11.7-4.2l-0.1,0.2l-1.6,3h10.5c1.8,0,3.5-1,3.9-3.1c0.4-2.1,1.1-5.9,1.1-5.9l2.2,4.2
		c0.2,0.5,2.5,4.8,8.1,5.9c5.3,1,8.9-0.7,10.2-1.4c7.7,5.2,16.9,4,16.9,4s-4.1-3.9-5.2-5c2.2-1,6.3-3.3,9.2-7.6
		c-0.2,1.1-0.4,1.9-0.4,2c-1,3.3-2.9,6.7-2.9,6.7l21.5-0.2c0.7,0,1.1-0.6,1.3-1c0.1-0.2,0.3-0.6,0.5-1c0.4-0.7,0.9-1.7,1.5-3
		c1-2.1,2.1-4.3,2.1-4.3l1.4-3.5C113.9,64.5,108.6,67.3,101.4,68.4 M39.2,49.7c-0.1,0.7-1.5,7.7-2.7,13.6c-1.4-3.7-5.3-6-9-8.9
		c-2.7-2.1,0.6-4.6,2.9-3.7c2.8,1.1,6.6,6.2,6.6,6.2l2.3-9.7C39.3,48.1,39.3,49.2,39.2,49.7 M56.3,60.6c0.6-0.7,2.3-2.7,4.5-5.1
		c-0.5,1.2-0.9,2.5-1.2,3.8c-0.6,3-0.3,5.7,0.3,7.9L56.3,60.6 M78.2,62.7c0.1-0.6,0.9-4.4,0.9-4.4L64.6,69.9c0-0.3-0.1-1.5-0.1-3.3
		c0.1-1.9,0.6-4.4,2.3-7.5C72.8,48.7,85.1,54.2,78.2,62.7"/>
	<path class="st1" d="M99.2,70c0,0,3.8-0.2,5.9-0.6c1.3-0.3,3.4-1.1,4.7-1.7c0.2-0.5,0.4-0.7,0.4-0.7s-3.7,1.7-5.8,2
		c-1.5,0.3-3.9,0.4-5.1,0.5L99.2,70"/>
	<path class="st1" d="M90.7,70.7c0,0,3.6-18,4.2-20.8c0.3-1.5,0.2-2.7,0.1-3.5c-0.6,0-0.9,0-0.9,0c0,0,0.7,1.7,0.1,4.3
		C93.6,53.3,90,70.2,90,70.2c0,0-0.8,3.3-2.1,5.1l1.1,0C90.1,73.4,90.7,70.7,90.7,70.7"/>
	<path class="st1" d="M76.7,61.2l-11.2,9.4l0.3,0.4l10.7-9C76.7,61.5,76.7,61.2,76.7,61.2"/>
	<path class="st1" d="M65.4,59.2c5.4-10.4,17.6-8.4,15.8,0.2c-0.8,3.8-3.9,5.9-5,6.5c-0.1,0.3-0.1,0.5-0.1,0.6l0.1,0.1
		c0.1,0,4.6-2.4,5.5-7.3c1.5-8.3-10.1-11.2-16.1-1.2c-2.1,3.4-2.7,7.9-2.7,9.8c0,2,0.5,3.3,0.5,3.3S62.4,65.1,65.4,59.2"/>
	<path class="st1" d="M68.5,46.2h-1c-0.5,0.3-1.3,0.9-2.4,2c-1.8,1.9-10.9,12-10.9,12l5.8,10.6c0,0,3.1,4.7,5.2,6.2
		c0.3-0.1,0.4-0.2,0.4-0.2c-2.1-0.9-5.4-6.2-5.4-6.2l-5.4-10.2c0,0,8.7-9.7,10.5-11.6C67,46.8,68.5,46.2,68.5,46.2"/>
	<path class="st1" d="M46.6,63.7l-2.1,11.9c0.5-0.4,0.7-0.8,0.7-1.2c0.1-0.3,1.7-10,1.7-10L46.6,63.7"/>
	<path class="st1" d="M49.8,48c-0.4,2.4-2.1,10.5-2.1,10.5l0.7-0.8c0.4-2,1.5-7.5,1.8-9.3c0.2-1.2-0.1-1.7-0.5-1.9
		C49.8,46.8,49.9,47.3,49.8,48"/>
	<path class="st1" d="M22.7,72.6c1.1,0,2-0.3,2.6-0.8c-0.5,0.2-1.1,0.4-1.9,0.4c-4.8,0.1-7.3-5-7.3-5l-0.3,1
		C16.7,69.7,19,72.7,22.7,72.6"/>
	<path class="st1" d="M37.4,46.6L35.9,53c0.3,0.4,0.5,0.6,0.5,0.6l1.6-6.9C37.8,46.7,37.6,46.6,37.4,46.6"/>
	<path class="st1" d="M29.2,57.2c-3.3-2.3-4.4-3.4-3.8-5.3c0.5-1.6,2.4-2.9,5.4-2.4c0.5,0.1,0.9,0.2,1.3,0.4c-0.6-0.4-1.3-0.7-2-0.8
		c-3.1-0.5-5,0.9-5.5,2.5c-0.6,1.9,0.5,3.4,3.8,5.7c3.6,2.6,7.6,5.5,6.5,11.4c-0.4,2.3-1.5,4.2-3.2,5.7c2-1.4,3.3-3.5,3.8-6
		C36.7,62.8,32.7,59.7,29.2,57.2"/>
	<path class="st2" d="M105.6,69.7c-2.1,0.4-5.9,0.6-5.9,0.6l4.9-23.2c0,0,0.5-1.4-1.6-1.5c-2.1-0.1-7.8,0-7.8,0s0.7,1.8,0.1,4.6
		c-0.5,2.8-4.2,20.8-4.2,20.8c0,0-0.8,3.6-2.1,5.4l18.1-0.2c0.2,0,4.3-8.6,4.3-8.6S107.7,69.3,105.6,69.7"/>
	<path class="st2" d="M77.9,75.9c1.4-0.5,12.5-4.6,13.3-17.5c0.7-10.9-9.4-15.5-16.9-13.2c-6.9,2.1-12.2,7.6-13.5,14.3
		c-1.3,6.7,2,10.9,2,10.9s-1.4-5.5,2.1-12.1c5.8-10.6,19.3-8.2,17.2,1.3c-1.1,5.2-5.8,7.5-5.8,7.5L76.2,67l1.2-5.3l-13,10.9
		c6.8,8.1,17.8,7.9,17.8,7.9c-2-1.4-3.9-3.9-4.4-4.5L77.9,75.9"/>
	<path class="st2" d="M59.3,70.7l-5.6-10.6c0,0,9-10.1,10.9-12c1.8-1.9,3-2.3,3-2.3H58c-0.1,0.6-0.6,1.1-0.6,1.1L47.3,58.3
		c0,0,1.6-8.1,2.1-10.5c0.4-2-0.9-2.1-1.4-2.1c-0.6,0-7.7,0-7.7,0c0.4,1.6,0.1,4.1,0.1,4.1c0,0-3.7,18.3-4.4,21.8
		c-0.8,3.5-2,4.8-2,4.8c0,0,7,0,8.5,0c1.5,0,1.7-1.5,1.7-1.5l2.1-11.4l4.5,8.9c0,0,2.2,4.4,7.2,5.2c5.3,0.8,7-0.6,7-0.6
		C62.8,76.2,59.3,70.7,59.3,70.7"/>
	<path class="st2" d="M27.9,57.3c-3.3-2.4-4.5-3.8-3.8-5.7c0.5-1.6,2.4-3,5.5-2.5c3,0.5,5.6,4.2,5.6,4.2l1.6-7.1
		c-5.1-1.7-8.6-1.4-10-1.3c-1.5,0.1-9.6,1.4-11,8.4c-1.2,5.8,2.7,8.4,5.7,10.5c1.1,0.8,5.3,3,4.1,6.8c-0.4,1.2-1.5,2-3.4,2
		c-4.9,0.1-7.3-5.1-7.3-5.1l-2.4,8.1c11,4.4,20.6,1.3,22.1-6.7C35.6,62.8,31.5,59.9,27.9,57.3"/>
	<g>
		<defs>
			<path id="SVGID_1_" d="M78.3,45.1c-1.3,0-2.6,0.2-3.9,0.6c-6.8,2.1-11.8,7.4-13.1,13.8c-0.7,3.3-0.1,6,0.5,7.6l0.1,0.2
				c0-2.3,0.5-5.7,2.5-9.4c1.9-3.5,5.8-7.3,11-7.3c2.5,0,4.7,1,6.1,2.6c1.3,1.7,1.7,3.8,1.2,6.3c-1.1,5.2-5.6,7.7-6,7.9l-0.4,0.1
				c-0.2,0-0.4-0.1-0.5-0.3c-0.1-0.2-0.2-0.4-0.1-0.6c0-0.1,0.4-1.8,0.8-3.6l-11.2,9.4c5,5.6,11.9,6.9,15.1,7.2
				c-1.4-1.3-2.6-2.9-3-3.4c-0.2-0.3-0.2-0.5-0.1-0.7c0.1-0.2,0.2-0.4,0.5-0.5c1.2-0.4,12.1-4.5,12.9-17c0.2-3.7-0.8-6.9-3.1-9.3
				C85.2,46.5,81.9,45.1,78.3,45.1"/>
		</defs>
		<clipPath id="SVGID_2_">
			<use xlink:href="#SVGID_1_"  style="overflow:visible;"/>
		</clipPath>
		<g style="clip-path:url(#SVGID_2_);">
			
				<image style="overflow:visible;" width="38" height="43" xlink:href="70FA8DB8D8E3FDC7.jpg"  transform="matrix(0.8705 0 0 -0.8705 59.3187 81.2739)">
			</image>
		</g>
	</g>
	<g>
		<defs>
			<path id="SVGID_3_" d="M100.1,46c-1.5,0-3.2,0-4.1,0c0.2,0.8,0.3,2.3,0,4.1c-0.5,2.8-4.1,20.6-4.2,20.8c0,0.1-0.6,2.7-1.7,4.7
				l16.7-0.2c0.5-0.9,2.1-4.1,3.4-6.8c-1.3,0.6-3.2,1.3-4.4,1.5c-2.1,0.4-5.8,0.6-6,0.6l-0.8,0l5.1-24l0,0l0,0l0-0.4
				c-0.1-0.2-0.5-0.3-1-0.3C102.5,46,101.5,46,100.1,46"/>
		</defs>
		<clipPath id="SVGID_4_">
			<use xlink:href="#SVGID_3_"  style="overflow:visible;"/>
		</clipPath>
		<g style="clip-path:url(#SVGID_4_);">
			
				<image style="overflow:visible;" width="26" height="37" xlink:href="70FA8DB8D8E3FDC5.jpg"  transform="matrix(0.8705 0 0 -0.8705 88.9146 76.9225)">
			</image>
		</g>
	</g>
	<g>
		<defs>
			<path id="SVGID_5_" d="M65.6,46.2h-7.1c-0.2,0.4-0.5,0.8-0.6,0.9L46.3,60.3l0.5-2.2c0-0.1,1.6-8.1,2.1-10.4
				c0.1-0.6,0.1-1-0.1-1.2c-0.2-0.2-0.5-0.2-0.7-0.2h-7c0.2,1.6,0,3.5,0,3.6l0,0l0,0c0,0.2-3.7,18.4-4.4,21.8c-0.4,2-1,3.3-1.4,4.1
				h7.3c0.9,0,1.1-0.8,1.1-1l0,0L46,61.6l5.3,10.5l0,0c0,0,1.9,4.1,6.8,4.8c1.1,0.2,2,0.2,2.9,0.2c1.3,0,2.1-0.2,2.7-0.3
				c-2.1-1.7-4.6-5.5-4.9-6l0,0l-5.8-11l0.3-0.3c0.1-0.1,9.1-10.1,10.9-12C64.7,47,65.2,46.6,65.6,46.2"/>
		</defs>
		<clipPath id="SVGID_6_">
			<use xlink:href="#SVGID_5_"  style="overflow:visible;"/>
		</clipPath>
		<g style="clip-path:url(#SVGID_6_);">
			
				<image style="overflow:visible;" width="38" height="39" xlink:href="70FA8DB8D8E3FDCB.jpg"  transform="matrix(0.8705 0 0 -0.8705 34.0734 78.6635)">
			</image>
		</g>
	</g>
	<g>
		<defs>
			<path id="SVGID_7_" d="M28.8,45.3c-0.7,0-1.2,0-1.6,0.1l-0.3,0c-0.7,0-3,0.4-5.3,1.5c-2.9,1.5-4.6,3.6-5.2,6.4
				c-1.1,5.3,2.3,7.6,5.2,9.7l0.2,0.1c0.1,0.1,0.2,0.2,0.4,0.3c1.5,1,5.1,3.3,3.9,7.2c-0.5,1.5-2,2.4-4,2.4L22,73
				c-2.1,0-4.2-1-5.9-2.8c-0.5-0.5-0.9-1-1.2-1.5l-1.9,6.3c3,1.2,6.1,1.8,8.9,1.8h0c6.4,0,11-3.2,11.9-8.3c1-5.6-2.7-8.3-6.3-10.8
				c-3.3-2.4-4.8-4-4.1-6.4c0.7-2.2,3-3,4.7-3c0.5,0,0.9,0,1.4,0.1c2.2,0.4,4.2,2.3,5.2,3.5l1.2-5.4C33.6,45.7,31.2,45.3,28.8,45.3"
				/>
		</defs>
		<clipPath id="SVGID_8_">
			<use xlink:href="#SVGID_7_"  style="overflow:visible;"/>
		</clipPath>
		<g style="clip-path:url(#SVGID_8_);">
			
				<image style="overflow:visible;" width="30" height="39" xlink:href="70FA8DB8D8E3FDCD.jpg"  transform="matrix(0.8705 0 0 -0.8705 11.4402 77.7921)">
			</image>
		</g>
	</g>
</g>
</svg>
