<?xml version="1.0" encoding="utf-8"?>
<!-- Generator: Adobe Illustrator 23.0.2, SVG Export Plug-In . SVG Version: 6.00 Build 0)  -->
<svg version="1.1" id="Layer_1" xmlns="http://www.w3.org/2000/svg" xmlns:xlink="http://www.w3.org/1999/xlink" x="0px" y="0px"
	 viewBox="0 0 125 125" style="enable-background:new 0 0 125 125;" xml:space="preserve">
<style type="text/css">
	.st0{fill:#FFFFFF;}
	.st1{fill:#2CAAE1;}
</style>
<g transform="translate(-226 -1452)">
	<circle class="st0" cx="288.5" cy="1514.5" r="62.5"/>
</g>
<g>
	<path class="st1" d="M97.2,41c-2.6,1.1-5.3,1.9-8.2,2.2c2.9-1.8,5.2-4.6,6.3-7.9c-2.8,1.6-5.8,2.8-9,3.5c-2.6-2.8-6.3-4.5-10.4-4.5
		c-7.9,0-14.2,6.4-14.2,14.2c0,1.1,0.1,2.2,0.4,3.2c-11.8-0.6-22.3-6.3-29.4-14.9c-1.2,2.1-1.9,4.5-1.9,7.2c0,4.9,2.5,9.3,6.3,11.9
		c-2.3-0.1-4.5-0.7-6.5-1.8c0,0.1,0,0.1,0,0.2c0,6.9,4.9,12.7,11.4,14c-1.2,0.3-2.5,0.5-3.8,0.5c-0.9,0-1.8-0.1-2.7-0.3
		c1.8,5.7,7.1,9.8,13.3,9.9c-4.9,3.8-11,6.1-17.7,6.1c-1.1,0-2.3-0.1-3.4-0.2c6.3,4,13.8,6.4,21.8,6.4c26.2,0,40.5-21.7,40.5-40.5
		c0-0.6,0-1.2,0-1.8C92.9,46.3,95.3,43.8,97.2,41L97.2,41z"/>
</g>
</svg>
