<?xml version="1.0" encoding="utf-8"?>
<!-- Generator: Adobe Illustrator 23.0.2, SVG Export Plug-In . SVG Version: 6.00 Build 0)  -->
<svg version="1.1" id="Layer_1" xmlns="http://www.w3.org/2000/svg" xmlns:xlink="http://www.w3.org/1999/xlink" x="0px" y="0px"
	 viewBox="0 0 125 125" style="enable-background:new 0 0 125 125;" xml:space="preserve">
<style type="text/css">
	.st0{fill:#FFFFFF;}
	.st1{fill:#025AAA;}
</style>
<g transform="translate(-226 -1452)">
	<circle class="st0" cx="288.5" cy="1514.5" r="62.5"/>
</g>
<path class="st1" d="M62.5,13.9c-26.8,0-48.6,21.7-48.6,48.6c0,26.8,21.7,48.6,48.6,48.6c26.8,0,48.6-21.7,48.6-48.6
	C111.1,35.7,89.3,13.9,62.5,13.9z M62.5,106.7c-24.4,0-44.2-19.8-44.2-44.2c0-24.4,19.8-44.2,44.2-44.2c24.4,0,44.2,19.8,44.2,44.2
	C106.7,86.9,86.9,106.7,62.5,106.7z"/>
<path class="st1" d="M52.8,29.5c3.1-0.9,6.3-1.4,9.7-1.4c3.4,0,6.6,0.5,9.7,1.4l-9.7,21.4L52.8,29.5z"/>
<path class="st1" d="M81,33.5c3.6,2.3,6.8,5.3,9.3,8.7L74.4,77.3l-6.1-13.6H56.7l-6.1,13.6L34.7,42.2c2.5-3.4,5.7-6.4,9.3-8.7
	l12.7,28.1h11.6L81,33.5z"/>
<path class="st1" d="M29.3,53.6c-0.8,2.8-1.2,5.8-1.2,8.9c0,13.5,7.8,25.2,19.1,30.8L29.3,53.6z"/>
<path class="st1" d="M53,95.6c3,0.9,6.2,1.3,9.5,1.3c3.3,0,6.5-0.5,9.5-1.3l-9.5-21.1L53,95.6z"/>
<path class="st1" d="M77.9,93.3C89.2,87.7,96.9,76,96.9,62.5c0-3.1-0.4-6-1.1-8.8L77.9,93.3z"/>
</svg>
