<?xml version="1.0" encoding="utf-8"?>
<!-- Generator: Adobe Illustrator 23.0.2, SVG Export Plug-In . SVG Version: 6.00 Build 0)  -->
<svg version="1.1" id="Layer_1" xmlns="http://www.w3.org/2000/svg" xmlns:xlink="http://www.w3.org/1999/xlink" x="0px" y="0px"
	 viewBox="0 0 125 125" style="enable-background:new 0 0 125 125;" xml:space="preserve">
<style type="text/css">
	.st0{fill:#FFFFFF;}
	.st1{fill:#00EC92;}
</style>
<g transform="translate(-226 -1452)">
	<circle class="st0" cx="288.5" cy="1514.5" r="62.5"/>
</g>
<g>
	<path class="st1" d="M75.5,56.3c-1,0-1.8,0.9-1.8,1.8c0,5.2-0.6,6.6-0.6,6.6c-1.5,6-6,6.1-7.9,4.3c-1.5-1.5-2.1-4.7-1.5-7.9
		c1.7-8.6,7.9-7.6,11-6.1c0.9,0.4,2,0.1,2.4-0.8c0.4-0.9,0.1-2-0.8-2.4c-4.6-2.2-13.6-3.1-15.9,8.7c-0.9,4.3,0.2,12.6,7,13.2
		c2.6,0.2,4.8-1,6.4-2.7c0,0,0.2,2.3,0,4.8c-0.1,0.6-0.6,5.9-4.6,6.1c-3.2,0.2-4.4-1.5-5-2.1c-0.7-0.7-1.7-0.9-2.5-0.3
		c-0.8,0.6-0.9,1.7-0.3,2.5l0.1,0.1c1.7,2.3,4.1,3.4,7.2,3.4c0.2,0,0.6,0,0.8,0c5.9-0.4,7.8-6.4,7.9-9.5c0.1-1.7,0-6.8,0-6.8V58.1
		C77.4,57.1,76.6,56.3,75.5,56.3L75.5,56.3z"/>
	<path class="st1" d="M103.3,63.1c-1-0.1-1.8,0.6-1.9,1.6c-0.1,1-0.8,6-5.7,6c-2.5,0-3.8-2.6-4.3-5.3c2.1-0.2,5.8-1.4,9.1-5.6
		c2.9-4,1.6-7.3-0.6-8.4c-6-3-11.9,3.6-12.2,9.9c-0.6,11.2,6,13,8.1,13c5.8,0,8.9-4.6,9.3-9.2C104.9,64.1,104.2,63.2,103.3,63.1
		L103.3,63.1z M95.4,54.4c2.6-1.5,3.5,0.7,2.8,2.1c-0.7,1.5-3,4.5-7,5.3C91.9,57,94.2,55,95.4,54.4L95.4,54.4z"/>
	<path class="st1" d="M82.5,50.3c-1,0-1.7,0.8-1.7,1.8v20.4c0,1,0.8,1.8,1.7,1.8s1.8-0.8,1.8-1.8V52.2
		C84.4,51.1,83.6,50.3,82.5,50.3L82.5,50.3z"/>
	<path class="st1" d="M37.3,64.6v-6.4c0-1-0.8-1.8-1.8-1.8c-1,0-1.8,0.9-1.8,1.8c0,5.2-0.6,6.6-0.6,6.6c-1.5,6-6,6.1-7.9,4.3
		c-1.5-1.5-2.1-4.7-1.5-7.9c1.7-8.6,7.9-7.6,11-6.1c0.9,0.4,2,0.1,2.4-0.8c0.4-0.9,0.1-2-0.8-2.4c-4.6-2.2-13.6-3.1-15.9,8.7
		c-0.8,4.3,0.2,12.6,7,13.1c2.6,0.2,4.8-1,6.4-2.7c0,0,0,0.1,0,0.2v1.4c0,1,0.8,1.8,1.7,1.8s1.8-0.8,1.8-1.8V64.6L37.3,64.6
		L37.3,64.6z"/>
	<path class="st1" d="M82.5,39.4c-3.7,0-6.6,1.7-6.6,4c0,2.3,2.9,4,6.6,4c3.7,0,6.6-1.7,6.6-4C89.1,41.2,86.3,39.4,82.5,39.4
		L82.5,39.4z M82.5,44.9c-2,0-3.3-0.8-3.3-1.4s1.3-1.4,3.3-1.4c2,0,3.3,0.8,3.3,1.4C85.9,44,84.5,44.9,82.5,44.9L82.5,44.9z"/>
	<path class="st1" d="M57.7,71.9C57.5,71.5,57,70,57,68.3c0-1.7-0.2-11.5-0.2-11.5c0-0.4,0-2.9-1.8-4.8c-0.8-0.8-6-4.2-10.7,1.5
		v-1.7c0-1-0.8-1.8-1.8-1.8c-1,0-1.8,0.8-1.8,1.8v20.8c0,1,0.8,1.8,1.8,1.8c1,0,1.8-0.8,1.8-1.8V63c0.6-11.8,9-10.3,8.7-6.4
		c0,0-0.1,9.5,0.2,12.6c0.1,1.2,0.3,3.2,1.4,4.6c0.4,0.4,0.7,0.9,1.5,0.9c1,0,1.8-0.8,1.8-1.8C58.1,72.6,57.8,71.9,57.7,71.9
		L57.7,71.9z"/>
</g>
</svg>
