<?xml version="1.0" encoding="utf-8"?>
<!-- Generator: Adobe Illustrator 23.0.2, SVG Export Plug-In . SVG Version: 6.00 Build 0)  -->
<svg version="1.1" id="Layer_1" xmlns="http://www.w3.org/2000/svg" xmlns:xlink="http://www.w3.org/1999/xlink" x="0px" y="0px"
	 viewBox="0 0 125 125" style="enable-background:new 0 0 125 125;" xml:space="preserve">
<style type="text/css">
	.st0{fill:#FFFFFF;}
	.st1{fill:#00E8CD;}
</style>
<g transform="translate(-226 -1452)">
	<circle class="st0" cx="288.5" cy="1514.5" r="62.5"/>
</g>
<g>
	<g>
		<path class="st1" d="M62.5,58c-2.6,0-4.8,2.1-4.8,4.8c0,2.6,2.1,4.8,4.8,4.8s4.8-2.1,4.8-4.8C67.3,60.1,65.2,58,62.5,58z
			 M62.5,65.3c-1.4,0-2.5-1.1-2.5-2.5c0-1.4,1.1-2.5,2.5-2.5c1.4,0,2.5,1.1,2.5,2.5C65,64.1,63.9,65.3,62.5,65.3z"/>
		<path class="st1" d="M62.5,53.2c-5.3,0-9.5,4.3-9.5,9.5s4.3,9.5,9.5,9.5s9.5-4.3,9.5-9.5S67.8,53.2,62.5,53.2z M62.5,70.1
			c-4,0-7.4-3.3-7.4-7.4s3.3-7.4,7.4-7.4c4,0,7.4,3.3,7.4,7.4S66.5,70.1,62.5,70.1z"/>
		<path class="st1" d="M62.5,48.5c-7.9,0-14.3,6.4-14.3,14.3S54.6,77,62.5,77s14.3-6.4,14.3-14.3S70.4,48.5,62.5,48.5z M62.5,74.9
			c-6.6,0-12.1-5.4-12.1-12.1s5.4-12.1,12.1-12.1S74.7,56,74.7,62.8S69.2,74.9,62.5,74.9z"/>
		<path class="st1" d="M79.9,55c-1.1-2.4-2.6-4.5-4.5-6.3c-0.1-0.1-0.3-0.3-0.4-0.4c-3-3-7-4.6-10.6-4.5c-0.1,0-0.4,0-0.5,0
			c-0.4,0-0.9,0-1.3,0c-10.5,0-19,8.5-19,19c0,1.3,0.1,2.5,0.4,3.8c0,0.3,0.1,0.5,0.1,0.8v0.1c2,6,5.8,10.9,10.4,13.1h0.1
			c0.3,0.1,0.5,0.1,0.8,0.3c0.8,0.3,1.6,0.4,2.4,0.5c0.3,0,0.5,0.1,0.8,0.1c1.4,0.3,2.6,0.4,4,0.4c0.3,0,0.5,0,0.8,0
			c0.3,0,0.5,0,0.6,0c0.8,0,1.6-0.1,2.4-0.4c0.4-0.1,0.9-0.3,1.1-0.3h0.1c0.3-0.1,0.5-0.1,0.8-0.3c1.4-0.5,2.8-1,3.9-1.8
			c0.3-0.1,0.5-0.3,0.6-0.4l0.1-0.1c0.1-0.1,0.1-0.1,0.3-0.3c0.3-0.3,0.5-0.4,0.6-0.5h0.1l0.1-0.1c0.3-0.1,0.4-0.4,0.6-0.5
			c3.9-3.3,6.3-7.9,6.6-12.9c0-0.5,0.1-1.1,0.1-1.6c0-2.3-0.4-4.4-1.1-6.3C80.3,55.9,80.1,55.5,79.9,55z M79.3,64.1
			c-0.4,4.4-2.5,8.5-5.9,11.4c-0.1,0.1-0.3,0.3-0.4,0.4c-0.4,0.3-0.8,0.5-1.1,0.8l-0.1,0.1c-0.1,0.1-0.4,0.3-0.5,0.4
			c-1.1,0.6-2.3,1.3-3.5,1.6c-0.1,0-0.4,0.1-0.5,0.1c-0.4,0-0.9,0.1-1.4,0.3c-0.6,0.1-1.4,0.4-1.9,0.3h-0.1h-0.1c-0.3,0-0.5,0-0.6,0
			c-1.4,0-2.9-0.1-4.3-0.4c-0.3,0-0.5-0.1-0.8-0.1H58c-0.8-0.1-1.5-0.3-2.1-0.4c-0.3,0-0.4-0.1-0.6-0.1c-4.1-2-7.4-6.4-9.3-11.9
			c0-0.3-0.1-0.4-0.1-0.6c-0.3-1.1-0.4-2.1-0.4-3.3c0-9.3,7.5-16.9,16.9-16.9c0.4,0,0.8,0,1.1,0c0.3,0,0.4,0,0.5,0h0.1h0.1
			c3.1-0.1,6.5,1.4,9,3.9l0,0c0.1,0.1,0.3,0.3,0.4,0.4c1.8,1.6,3.1,3.5,4,5.5c0.1,0.4,0.4,0.9,0.5,1.3c0.6,1.8,0.9,3.5,1,5.6
			C79.4,63.3,79.3,63.8,79.3,64.1z"/>
		<path class="st1" d="M86.1,58.4c0-0.3-0.1-0.4-0.1-0.6c-0.5-1.9-1.4-3.6-2.4-5.5l-0.3-0.4c-0.1-0.3-0.3-0.6-0.5-0.9
			c-0.4-0.6-0.6-1.3-1-1.8c-0.1-0.3-0.4-0.6-0.5-0.9l0,0c-0.1-0.3-0.4-0.5-0.5-0.8c-0.1-0.3-0.4-0.5-0.5-0.8c-0.9-1.8-2.1-3-4-3.9
			c-0.1-0.1-0.3-0.1-0.4-0.3c-0.1-0.1-0.3-0.3-0.5-0.4c-1.4-0.9-2.8-1.6-4.1-2c-0.1,0-0.3-0.1-0.5-0.1c-2.3-0.9-4.8-1.4-7.9-1.3
			c-0.1,0-0.3,0-0.4,0s-0.4,0-0.5,0c-2,0-3.9,0.4-5.8,0.9c-0.1,0-0.3,0-0.4,0.1h-0.1c-2.9,0.5-5.5,1.9-8,4.1l-0.4,0.4
			c-0.1,0.1-0.3,0.3-0.4,0.4c-0.3,0.1-0.4,0.4-0.6,0.5l0,0c-0.6,0.6-1.1,1.1-1.6,1.8c-0.1,0.1-0.3,0.3-0.3,0.4
			c-1.1,1.3-2,2.4-2.8,3.6l-0.1,0.3c-0.5,0.6-0.8,1.4-1.1,2.1c-0.3,0.6-0.5,1.1-0.8,1.6v0.1v0.1c0,0.1-0.1,0.4-0.1,0.5
			c-0.4,0.9-0.5,1.6-0.8,2.5c0,0.1-0.1,0.4-0.1,0.5l0,0c-0.3,2.6-0.6,5.4,0.4,8c0,0.1,0.1,0.4,0.1,0.5s0.1,0.4,0.1,0.5
			c0,0.1,0.1,0.3,0.1,0.5c0.3,1.3,0.8,2.4,1.3,3.5c0.1,0.1,0.1,0.4,0.3,0.5l0.1,0.5c0.3,0.8,0.6,1.6,1,2.4v0.1
			c0.1,0.1,0.1,0.4,0.3,0.5c0.5,0.8,1,1.6,1.5,2.4l0,0c0.1,0.3,0.3,0.4,0.4,0.6c0.6,0.9,1.4,1.6,2,2.3c0.1,0.1,0.3,0.3,0.4,0.4
			c0.1,0.1,0.3,0.3,0.4,0.3l0,0c1.9,1.8,4.1,3.6,7,3.8c0.3,0.1,0.6,0.1,0.9,0.3c2.5,0.6,5.3,0.9,7.3,1l0,0l0,0c0.1,0,0.4,0,0.5,0
			s0.4,0,0.5,0c0.4,0,0.8-0.1,1.1-0.1h0.3l0.3-0.1c0.1-0.1,0.6-0.1,1-0.1c0.6,0,1.4,0,2-0.4c0.3,0,0.6-0.1,0.9-0.3
			c0.6-0.1,1.3-0.3,2.1-0.5l0.5-0.1c2.3-0.3,4.1-1.5,5.8-2.9l0,0c0.1-0.1,0.3-0.3,0.4-0.4c1.3-1.3,2.5-2.6,3.9-4.8
			c0.1-0.1,0.3-0.4,0.4-0.5c0.4-0.5,0.9-1.1,1.3-1.8v-0.1c0.1-0.3,0.3-0.5,0.4-0.8c0.6-1.3,1.3-2.6,1.6-4c0.1-0.4,0.3-0.8,0.3-1
			v-0.1c0.1-0.6,0.3-1.4,0.4-2c0.5-2.1,1-4.6,0.4-7.1C86.3,59.1,86.2,58.7,86.1,58.4z M83.8,66.1c-0.1,0.8-0.3,1.4-0.4,2.1
			c-0.1,0.3-0.1,0.6-0.3,0.9c-0.4,1.3-0.9,2.5-1.5,3.6c-0.1,0.3-0.3,0.4-0.4,0.6c-0.4,0.5-0.8,1.1-1.1,1.6c-0.1,0.1-0.3,0.4-0.4,0.5
			v0.1c-1.3,1.9-2.5,3.3-3.6,4.4c-0.1,0.1-0.3,0.3-0.4,0.3c-1.6,1.3-3.1,2.1-4.8,2.4l-0.6,0.1c-0.9,0.3-1.5,0.4-2,0.5
			c-0.4,0.1-0.6,0.1-1,0.3h-0.3L67,83.7c-0.1,0.1-0.6,0.1-0.9,0.1c-0.5,0-1.3,0-1.9,0.3c-0.3,0-0.5,0-0.8,0.1c-0.1,0-0.4,0-0.5,0
			c-0.1,0-0.3,0-0.4,0c-2-0.1-4.5-0.3-6.8-0.9c-0.3-0.1-0.6-0.1-0.9-0.3h-0.1h-0.1c-2.1,0-4-1.6-5.8-3.1c-0.1-0.1-0.3-0.3-0.4-0.3
			c-0.1-0.1-0.3-0.3-0.4-0.4c-0.6-0.6-1.3-1.3-1.9-2c-0.1-0.1-0.3-0.4-0.4-0.5c-0.5-0.8-0.9-1.4-1.4-2.1c-0.1-0.1-0.1-0.3-0.3-0.4
			c-0.3-0.9-0.6-1.6-1-2.4l-0.3-0.5l0,0C43,71.1,43,71,42.9,70.8c-0.5-1.1-0.9-2-1.1-3.1v-0.1c0-0.1-0.1-0.4-0.1-0.5
			c0-0.1-0.1-0.4-0.1-0.5s-0.1-0.4-0.1-0.5l0,0c-0.8-2.3-0.5-4.5-0.3-7c0-0.1,0-0.3,0.1-0.5c0.1-0.6,0.4-1.4,0.6-2.1
			c0-0.1,0.1-0.3,0.1-0.4c0.4-0.6,0.6-1.3,0.9-1.9c0.3-0.6,0.5-1.3,0.9-1.6l0.3-0.4c0.8-1.1,1.5-2.3,2.5-3.4
			c0.1-0.1,0.3-0.3,0.3-0.4c0.5-0.5,1-1.1,1.5-1.6c0.1-0.1,0.4-0.3,0.5-0.5c0.1-0.1,0.3-0.3,0.4-0.4l0.5-0.4c2.1-2,4.5-3.3,6.9-3.6
			l0.3-0.1c0.1,0,0.3,0,0.4-0.1l0,0c1.8-0.5,3.5-0.8,5.3-0.8c0.1,0,0.4,0,0.5,0l0,0c0.1,0,0.3,0,0.4,0l0,0l0,0c2.9,0,5.1,0.3,7,1.1
			h0.1c0.1,0,0.4,0.1,0.5,0.1l0,0c1.3,0.4,2.4,1,3.6,1.8c0.1,0.1,0.3,0.3,0.4,0.3c0.1,0.1,0.3,0.3,0.4,0.3h0.1h0.1
			c1.5,0.8,2.4,1.6,3.1,3l0.1,0.1c0.1,0.3,0.4,0.5,0.5,0.8c0.3,0.4,0.4,0.6,0.6,0.8c0.1,0.3,0.4,0.5,0.5,0.8
			c0.4,0.5,0.6,1.1,0.9,1.6c0.1,0.3,0.3,0.6,0.5,0.9l0.3,0.5v0.1c1,1.6,1.8,3.3,2.3,5c0,0.1,0.1,0.4,0.1,0.5l0,0
			c0.1,0.4,0.1,0.6,0.3,1v0.1C84.8,62,84.3,64.1,83.8,66.1z"/>
		<path class="st1" d="M90,56.1L90,56.1c-0.1-0.3-0.1-0.5-0.3-0.6c-0.6-1.6-1.5-3.1-2.5-4.6c-0.3-0.4-0.4-0.6-0.5-1l-0.3-0.3
			c-0.1-0.1-0.3-0.4-0.3-0.5l-0.3-0.5c-0.1-0.3-0.3-0.6-0.5-0.9c-0.1-0.3-0.3-0.6-0.4-1c-1-3.5-3.9-6.3-8.9-8.3
			c-0.3-0.1-0.4-0.3-0.6-0.4c-0.5-0.3-0.9-0.5-1.4-0.8l-0.3-0.3c-3-2.3-6.9-3.4-10.9-2.9c-0.1,0-0.3,0-0.5,0h-0.3l-0.1,0.1
			c-0.1,0-0.4,0-0.4,0h-0.1h-0.5c-0.3,0-0.4,0-0.6,0.1c-0.9,0.1-1.6,0.1-2.5,0.3h-0.1c-0.3,0-0.4,0-0.6,0.1
			c-1.4,0.1-2.6,0.5-3.9,0.9c-0.1,0-0.4,0.1-0.5,0.1c-1,0.4-2,0.8-2.8,1.3c-0.1,0.1-0.4,0.1-0.5,0.3c-1.9,1-3.5,2.4-4.9,4
			c-0.1,0-0.1,0.1-0.3,0.1c-0.5,0.3-0.9,0.5-1.3,0.8h-0.1L43,42.3c-0.1,0.1-0.3,0.3-0.5,0.4c-0.5,0.5-1.1,1-1.6,1.5
			c-0.1,0.1-0.3,0.3-0.4,0.4l-0.1,0.1l-0.1,0.1c-0.8,1.3-1.5,2.4-2.5,3.6c-0.9,1.1-1.8,2.3-2.5,3.5c-0.1,0.1-0.3,0.4-0.3,0.5
			l0.1,0.1v0.3c-0.1,0.9-0.3,1.8-0.6,2.9c0,0.1-0.1,0.4-0.1,0.5v0.1c-0.1,0.6-0.3,1.3-0.4,1.9c-0.6,3.1-1.4,6.3,0.5,9.4
			c0.1,0.1,0.1,0.3,0.3,0.4c0.4,0.9,0.8,1.9,1.3,2.8c0.9,2.3,1.9,4.5,3.3,6.6c0.1,0.1,0.1,0.3,0.3,0.4c0.5,0.9,1.1,1.9,1.9,3
			l0.1,0.1c0.1,0.1,0.3,0.4,0.5,0.5l0.1,0.1c0.3,0.3,0.5,0.4,0.8,0.6c0.1,0.1,0.4,0.4,0.5,0.5c1.5,3.6,4.4,5.8,8.4,6.1
			c0.3,0,0.6,0,1,0H53c0.1,0,0.3,0,0.4,0s0.1,0,0.3,0c2.5,1.6,5.1,1.6,7.6,1.5c0.9,0,1.8,0,2.5,0h0.1c0.3,0,0.4,0,0.6,0
			c1.4,0,2.6-0.3,4-0.5c1.5-0.3,2.8-0.5,4.1-0.5c0.3,0,0.4,0,0.6,0c3.1-0.1,5.9-1.8,8.3-5c0.1-0.1,0.3-0.3,0.4-0.4
			c1.3-1.3,2.3-2.8,3.3-4.3c0.5-0.8,1-1.5,1.6-2.3c0.1-0.1,0.3-0.4,0.4-0.5c0.8-1,1.3-2,1.6-3c0-0.1,0.1-0.3,0.1-0.5v-0.1
			c0.1-0.3,0.1-0.5,0.3-0.8c0.8-1.3,1.4-2.6,1.6-3.9c0-0.3,0.1-0.4,0.1-0.5c1-4.5,0.8-8.5-0.5-12.1L90,56.1z M88.3,68.1
			c0,0.1-0.1,0.4-0.1,0.5c-0.3,1.1-0.8,2.3-1.5,3.4l-0.1,0.1v0.1c-0.1,0.4-0.3,0.6-0.3,1v0.1c0,0.1-0.1,0.3-0.1,0.4
			c-0.3,0.8-0.8,1.6-1.4,2.5c-0.1,0.1-0.3,0.3-0.4,0.4c-0.6,0.8-1.1,1.6-1.6,2.4c-1,1.4-1.9,2.8-3,3.9c-0.1,0.1-0.3,0.3-0.4,0.4
			l-0.1,0.1v0.1c-2,2.6-4.3,4-6.6,4.1c-0.1,0-0.4,0-0.5,0c0,0,0,0-0.1,0c-1.5,0-3,0.3-4.5,0.5c-1.3,0.3-2.5,0.5-3.6,0.5
			c-0.1,0-0.3,0-0.5,0c-0.5,0-1,0-1.6,0c-0.4,0-0.8,0-1.1,0c-2.4,0-4.5,0.1-6.5-1.3L54,87.3h-0.3c-0.3,0-0.4-0.1-0.6-0.1
			c-0.1,0-0.4,0-0.5-0.1h-0.4c-0.3,0-0.6,0-0.9,0c-3.3-0.3-5.5-1.9-6.6-4.9l0.1-0.5l-0.1-0.1c-0.3-0.3-0.5-0.5-0.8-0.8
			c-0.3-0.3-0.5-0.5-0.8-0.8c-0.1-0.1-0.3-0.3-0.4-0.4c-0.8-1.1-1.3-2-1.8-2.9c-0.1-0.1-0.1-0.3-0.3-0.4l0,0c-1.3-1.9-2.1-4-3.1-6.3
			c-0.4-0.9-0.8-1.9-1.3-2.9c-0.1-0.1-0.1-0.4-0.3-0.5v-0.1c-1.5-2.4-0.9-5-0.3-7.9c0.1-0.6,0.3-1.3,0.4-1.9c0-0.1,0.1-0.3,0.1-0.5
			c0.4-1.1,0.6-2.1,0.6-3.1c0-0.1,0.1-0.1,0.1-0.3c0.8-1.1,1.5-2.3,2.4-3.4c0.9-1.1,1.8-2.4,2.6-3.8c0.1-0.1,0.1-0.1,0.3-0.3
			c0.5-0.5,1-1,1.5-1.4c0.1-0.1,0.3-0.3,0.4-0.3c0.4-0.3,0.9-0.5,1.3-0.8c0.1-0.1,0.3-0.3,0.5-0.3l0.1-0.1l0.1-0.1
			c1.3-1.5,2.8-2.8,4.4-3.6c0.1-0.1,0.3-0.1,0.5-0.3h0.1c0.8-0.4,1.5-0.8,2.4-1c0.1,0,0.4-0.1,0.5-0.1l0,0c1.1-0.4,2.3-0.6,3.5-0.8
			c0.1,0,0.3,0,0.5,0c1,0,1.9-0.1,2.6-0.3c0.3,0,0.4,0,0.6-0.1h0.4c0.3,0,0.8,0,1.3-0.1c0.1,0,0.3,0,0.4,0c3.4-0.4,6.8,0.5,9.4,2.5
			h0.1l0.5,0.3c0.4,0.3,0.9,0.5,1.3,0.8c0.3,0.1,0.4,0.3,0.6,0.4l0.1,0.1c4.4,1.8,6.9,4,7.6,6.9v0.1c0.1,0.4,0.3,0.6,0.4,1v0.1v0.1
			c0.1,0.4,0.4,0.6,0.5,1l0.4,0.6c0.1,0.1,0.3,0.4,0.3,0.5l0.1,0.3c0.3,0.4,0.4,0.8,0.6,1.1l0.1,0.1c1,1.3,1.8,2.6,2.3,4.1
			c0,0.1,0.1,0.3,0.1,0.4l0.1,0.5v0.1C89.1,60.4,89.2,64,88.3,68.1z"/>
		<path class="st1" d="M96,63.6l-1,0.5l-1,0.5l0,0c0.4,0.8,0.6,1.4,0.6,1.9c-0.1,1.1-0.3,2.3-0.5,3.3c-0.1,0.8-0.8,1.3-1.4,1.9
			c-0.5,0.5-1,1-1.3,1.6c-0.5,1.5-1.3,2.9-2,4.3c-0.3,0.5-0.4,1.3-0.4,1.9c0,0.8-0.1,1.5-0.5,2c-1,1.4-2.1,2.6-3.4,3.9
			c-0.5,0.5-1.3,0.8-2.1,1c-0.8,0.3-1.5,0.4-2,0.9c-1.3,1-2.6,1.9-4.1,2.6c-0.5,0.3-1,0.8-1.5,1.4c-0.5,0.6-1.1,1.1-1.8,1.4
			c-0.4,0.1-0.8,0.3-1.1,0.5l0,0c-1.3,0.5-2.5,1-3.8,1.3c-1.1,0.3-2.3-0.1-3.5-0.4c-1-0.3-1.9-0.5-2.8-0.5c-0.6,0-1.4,0.3-2,0.5
			c-0.8,0.3-1.4,0.5-2,0.5c-0.1,0-0.1,0-0.3,0c-0.6-0.1-1.1-0.1-1.6-0.1c-0.9,0-1.8-0.1-2.6-0.4c-0.9-0.3-1.9-1.1-2.8-1.9
			c-0.8-0.6-1.4-1.3-2.1-1.6c-0.5-0.3-1.1-0.3-1.6-0.3h-0.1c-0.6,0-1.3,0-1.8-0.4c-1.1-0.8-2.4-1.6-3.4-2.5c-0.5-0.5-1-1.3-1.4-2.1
			c-0.4-0.8-0.8-1.4-1.1-1.8c-0.8-0.8-1.4-1.6-2-2.5c-0.5-0.8-1.1-1.5-1.6-2.4c-0.4-0.6-1-1-1.6-1.5c-0.8-0.5-1.5-1-1.8-1.6
			c-0.5-1-0.9-2.1-1.1-3.3c-0.4-1.1-0.6-2.3-0.9-3.4c-0.1-1,0.1-2.3,0.5-3.4c0.3-1,0.5-1.9,0.5-2.8c0-1,0-1.9,0.1-2.9
			c0.1-1.1,0.3-2.3,0.5-3.3c0.3-1.4,0.6-2.9,1.1-4.3c0.3-0.9,0.5-1.8,0.6-2.9c0.3-1.4,0.5-2.9,1.1-3.9c0.9-1.4,1.9-2.8,2.9-4
			c0.6-0.8,1.8-1.3,2.8-1.6c0.9-0.4,1.6-0.6,2.4-1.3c0.5-0.4,0.9-1.1,1.4-1.8c0.5-0.8,0.9-1.5,1.6-1.9c1.4-0.8,2.8-1.5,4.1-2
			c0.8-0.4,1.8-0.3,2.9-0.3c0.9,0,1.8,0.1,2.4-0.1c0.9-0.3,1.8-0.6,2.6-1c1.3-0.6,2.5-1.1,3.9-1.1c2,0,3.9,0.1,5.8,0.5
			c0.8,0.1,1.6,0.8,2.5,1.4c0.6,0.5,1.4,1,2,1.3c1.6,0.6,3.3,1.3,4.8,2.1c0.8,0.4,1.6,0.5,2.4,0.5c0.9,0,1.8,0.1,2.5,0.6
			c1.1,0.9,2.1,1.8,3,2.9c0.4,0.5,0.8,1.5,1.1,2.5c0.4,1,0.6,1.8,0.9,2.1c0.4,0.5,1,0.9,1.6,1.4c0.8,0.5,1.5,1,1.8,1.5
			c0.9,1.4,1.4,3.4,2,5.1c0.1,0.5,0.3,1,0.5,1.4c0.3,0.8,0.1,1.3,0,1.9c-0.1,0.5-0.3,1.1-0.1,1.8c0.3,1.8,0.5,3.6,0.5,5.4
			c0,0.5,0.3,1.1,0.6,1.9l1-0.5L96,63.6c-0.1-0.3-0.4-0.8-0.4-1c0-1.9-0.1-3.9-0.5-5.8c0-0.3,0-0.5,0.1-0.9c0.1-0.6,0.4-1.8,0-3
			c-0.1-0.4-0.3-0.9-0.4-1.4c-0.6-1.9-1.3-4-2.1-5.6c-0.6-1-1.5-1.6-2.5-2.3c-0.4-0.3-1-0.6-1.1-0.8c-0.1-0.3-0.5-1.1-0.6-1.6
			c-0.4-1.3-0.9-2.5-1.6-3.3c-1-1.1-2.1-2.1-3.3-3c-1.3-1-2.8-1.1-3.8-1.1c-0.6,0-1.1,0-1.4-0.3c-1.6-0.9-3.4-1.6-5.1-2.3
			c-0.4-0.1-1-0.5-1.5-0.9c-1-0.8-2.1-1.5-3.4-1.8c-2-0.4-4.1-0.6-6.3-0.6c-1.9,0-3.4,0.8-4.9,1.4c-0.8,0.4-1.5,0.8-2.3,0.9
			c-0.5,0.1-1.1,0.1-1.9,0c-1.3-0.1-2.5-0.1-3.8,0.4c-1.5,0.6-3,1.4-4.4,2.3c-1.1,0.6-1.8,1.8-2.4,2.6c-0.3,0.5-0.6,1-0.9,1.3
			c-0.4,0.4-1.1,0.6-1.8,0.9c-1.3,0.5-2.6,1-3.6,2.3c-1.1,1.4-2.3,2.8-3.1,4.4c-0.9,1.4-1.1,3.1-1.4,4.8c-0.1,0.9-0.3,1.9-0.5,2.5
			c-0.5,1.5-1,3-1.3,4.5c-0.3,1.1-0.4,2.4-0.5,3.5c-0.1,1-0.1,2-0.1,3c0,0.6-0.3,1.4-0.5,2.3c-0.4,1.4-0.8,2.9-0.5,4.4
			c0.3,1.3,0.5,2.4,0.9,3.6c0.4,1.1,0.8,2.4,1.3,3.5c0.5,1.3,1.6,1.9,2.5,2.5c0.4,0.3,0.9,0.6,1,0.8c0.5,0.9,1.1,1.8,1.6,2.5
			c0.6,0.9,1.4,1.9,2.1,2.6c0.3,0.3,0.5,0.9,0.9,1.4c0.5,1,1.1,2,1.9,2.8c1.1,1,2.4,1.9,3.6,2.8c1.1,0.8,2.3,0.8,3,0.8
			c0.3,0,0.6,0,0.8,0c0.4,0.3,1,0.8,1.6,1.3c1,0.9,2.1,1.9,3.6,2.4c1.1,0.4,2.3,0.4,3.1,0.5c0.5,0,1,0,1.5,0.1c0.1,0,0.4,0,0.5,0
			c1,0,1.9-0.3,2.6-0.6c0.5-0.1,1-0.4,1.4-0.4c0.6,0,1.4,0.3,2.3,0.4c1.4,0.4,2.9,0.8,4.4,0.4c1.5-0.3,2.9-0.9,4.3-1.4l0,0
			c0.4-0.1,0.8-0.3,1.1-0.5c1.1-0.4,1.9-1.3,2.6-2c0.4-0.4,0.8-0.8,1-0.9c1.5-0.9,3-1.8,4.4-2.9c0.3-0.1,0.9-0.4,1.3-0.5
			c1-0.3,2.1-0.6,3-1.5c1.3-1.3,2.5-2.6,3.5-4.1c0.8-1,0.8-2.1,0.9-3.1c0-0.4,0.1-0.9,0.1-1c0.8-1.5,1.5-3,2.1-4.5
			c0.1-0.3,0.5-0.6,0.8-0.9c0.8-0.8,1.6-1.6,1.9-3c0.3-1.1,0.4-2.4,0.5-3.5C96.8,65.6,96.3,64.6,96,63.6z"/>
	</g>
</g>
</svg>
