<?xml version="1.0" encoding="utf-8"?>
<!-- Generator: Adobe Illustrator 23.0.2, SVG Export Plug-In . SVG Version: 6.00 Build 0)  -->
<svg version="1.1" id="Layer_1" xmlns="http://www.w3.org/2000/svg" xmlns:xlink="http://www.w3.org/1999/xlink" x="0px" y="0px"
	 viewBox="0 0 125 125" style="enable-background:new 0 0 125 125;" xml:space="preserve">
<style type="text/css">
	.st0{fill:#FFFFFF;}
	.st1{fill:#A21B2F;}
	.st2{fill:#F1CA12;}
	.st3{fill:#D57C1B;}
	.st4{fill:#4A2980;}
	.st5{fill:#276E3B;}
	.st6{fill:#009CDF;}
</style>
<g transform="translate(-226 -1452)">
	<circle class="st0" cx="288.5" cy="1514.5" r="62.5"/>
</g>
<g>
	<g>
		<g>
			<path class="st1" d="M54.4,51.3c-6.6,2.3-13.3,6.2-17.9,8.3c-0.6,0.3-0.6,0.9,0.1,1c11,1.9,33.2,9.9,38.3-5.2
				C68.4,61.1,60.9,56.7,54.4,51.3z"/>
		</g>
		<g>
			<path class="st2" d="M62.5,44.3c-5.7-1.1-12.1-1.1-16.3-1.5c-0.7-0.1-0.9,0.5-0.4,0.9c2.4,2,5.3,5,8.6,7.7
				c3.6-1.3,7.1-2,10.3-1.9C63.9,47.8,63.2,46,62.5,44.3z"/>
		</g>
		<g>
			<path class="st3" d="M74.9,55.3c0,0.1-0.1,0.1-0.1,0.2c-4.8,1-7.9-2-10-6c-3.2-0.2-6.8,0.6-10.3,1.9c6.4,5.4,14,9.8,20.4,4.1
				C74.9,55.4,74.9,55.4,74.9,55.3C74.9,55.3,74.9,55.3,74.9,55.3z"/>
		</g>
		<g>
			<path class="st4" d="M64.8,49.5c2.2,4.1,5.2,7.1,10,6c0-0.1,0.1-0.1,0.1-0.2C72.3,51.3,68.7,49.6,64.8,49.5z"/>
		</g>
		<g>
			<path class="st5" d="M62.5,44.3c0.6,1.8,1.4,3.6,2.2,5.2c4,0.2,7.5,1.8,10.1,5.9c0,0,0-0.1,0-0.1C74.6,48.4,69,45.6,62.5,44.3z"
				/>
		</g>
		<g>
			<path class="st6" d="M60.2,37c0.7,2,1.4,4.6,2.4,7.2c6.5,1.3,12,4.1,12.4,11c4.2-8.5-8.1-14.7-13.9-18.8C60.4,36,60,36.4,60.2,37
				z"/>
		</g>
	</g>
	<g>
		<path d="M101.8,71.7c0.1,0,0.3,0,0.4,0.1c0.1,0.1,0.2,0.2,0.3,0.3c0.1,0.1,0.1,0.3,0.1,0.4c0,0.1,0,0.3-0.1,0.4
			c-0.1,0.1-0.2,0.2-0.3,0.3c-0.1,0.1-0.3,0.1-0.4,0.1s-0.3,0-0.4-0.1s-0.2-0.2-0.3-0.3c-0.1-0.1-0.1-0.3-0.1-0.4
			c0-0.1,0-0.3,0.1-0.4c0.1-0.1,0.2-0.2,0.3-0.3C101.6,71.7,101.7,71.7,101.8,71.7z M101.8,71.8c-0.1,0-0.2,0-0.3,0.1
			s-0.2,0.1-0.3,0.2c-0.1,0.1-0.1,0.2-0.1,0.3c0,0.1,0,0.2,0.1,0.3c0.1,0.1,0.1,0.2,0.2,0.2s0.2,0.1,0.3,0.1c0.1,0,0.2,0,0.3-0.1
			s0.2-0.1,0.2-0.2c0.1-0.1,0.1-0.2,0.1-0.3c0-0.1,0-0.2-0.1-0.3s-0.1-0.2-0.3-0.2C102.1,71.8,102,71.8,101.8,71.8z M101.6,72.9V72
			h0.3c0.1,0,0.2,0,0.2,0c0.1,0,0.1,0.1,0.1,0.1c0,0.1,0.1,0.1,0.1,0.1s0,0.1-0.1,0.2c-0.1,0.1-0.1,0.1-0.2,0.1c0,0,0.1,0,0.1,0.1
			s0.1,0.1,0.1,0.2l0.1,0.2h-0.2l-0.1-0.1c-0.1-0.1-0.1-0.2-0.2-0.2c0,0-0.1,0-0.1,0h-0.1v0.4H101.6z M101.6,72.4h0.2
			c0.1,0,0.1,0,0.2,0s0.1-0.1,0.1-0.1c0,0,0-0.1,0-0.1c0,0,0,0-0.1-0.1c0,0-0.1,0-0.1,0h-0.2V72.4z"/>
	</g>
	<g>
		<path d="M49.4,72.8c-1.5-0.5-3.2-0.6-5.2-0.4c-1.9,0.2-3.4,0.9-4.7,2.1c-0.7,0.7-1.3,1.6-1.6,2.7c-0.4,1.1-0.5,2.1-0.5,3.2
			c0,1.3,0.2,2.6,0.6,3.8c0.4,1.2,1.1,2.2,2.1,2.9c0.9,0.7,2.2,1.2,3.7,1.5c1.6,0.3,3.1,0.3,4.6-0.1c1.7-0.3,3.1-1.1,4.2-2.4
			c0.5-0.6,0.9-1.4,1.3-2.3s0.5-2,0.5-3.3c0-1.7-0.4-3.3-1.2-4.6C52.4,74.5,51.1,73.4,49.4,72.8z M48.8,84c-0.6,0.7-1.2,1.1-1.9,1.3
			s-1.4,0.2-2.1-0.1c-0.7-0.2-1.2-0.5-1.5-0.8c-0.7-0.7-1.1-2-1.2-3.8c-0.1-1.8,0.4-3.1,1.3-4.1c0.3-0.3,0.8-0.5,1.5-0.7
			c0.7-0.2,1.4-0.2,2.1,0c0.7,0.2,1.3,0.7,1.8,1.4c0.5,0.7,0.8,1.8,0.8,3.2C49.7,82.1,49.4,83.3,48.8,84z"/>
		<path d="M85.7,73.5c-1.3-0.7-3.2-1.1-5.9-1.1c-2.3,0-4.1,0.5-5.4,1.4c-1.1,0.8-1.8,1.8-1.9,3h4.7c0.2-0.4,0.6-0.7,1.1-0.9
			c0.5-0.2,1.1-0.2,1.7-0.2c0.6,0,1.3,0.1,2,0.3c0.7,0.2,1.1,0.6,1.1,1.1c0,0.8-1,1.3-3.1,1.5c-0.4,0.1-0.8,0.1-1.1,0.2
			c-0.3,0.1-0.6,0.1-0.8,0.1c-1.8,0.2-3.2,0.7-4.3,1.4c-1.1,0.7-1.7,1.9-1.7,3.6c0,1.8,0.6,3.1,1.9,3.8c1.3,0.8,2.7,1.1,4.4,1.1
			c0.8,0,1.8-0.1,2.9-0.2c1-0.1,2.1-0.4,3-0.8c0.1,0.1,0.1,0.1,0.1,0.2c0.4,0.4,0.8,0.6,1.4,0.6h2v-6.4v-0.7v-4.7
			C87.7,75.4,87,74.3,85.7,73.5z M83.2,82c0,1.1-0.4,2-1.1,2.6s-1.8,0.9-3.1,0.9c-0.8,0-1.4-0.2-1.8-0.5c-0.4-0.4-0.6-0.8-0.6-1.4
			c0-0.4,0.2-0.9,0.5-1.3c0.4-0.3,1-0.6,1.8-0.8l1.6-0.3c1.1-0.2,2.1-0.5,2.7-0.8L83.2,82L83.2,82z"/>
		<path d="M99.8,72.3c-0.1,0-0.3,0-0.4,0c-1.3,0-2.5,0.2-3.7,0.4c-1.2,0.3-2.2,0.7-3.1,1.3c-0.9,0.6-1.7,1.5-2.2,2.6
			c-0.5,1.1-0.8,2.4-0.8,4v8h3.6c0.7,0,1.3-0.6,1.3-1.3c0,0,0-0.1,0-0.1v-7.1c0-1.2,0.3-2.1,1-2.7s1.6-0.8,3-0.8h1.6v-4.3
			C100,72.3,99.9,72.3,99.8,72.3z"/>
		<path d="M72.5,72.5h-5.3l0,0c-0.4,0-0.8,0.2-1,0.5l0,0l-5.5,6.3v-7.7c0-0.6-0.2-1.1-0.7-1.6c-0.5-0.5-1-0.7-1.7-0.7h-2.5v19.2h4.9
			V84c0-0.1,0-0.1,0-0.2c0.1-0.4,0.4-0.7,0.9-0.7c0,0,0.1,0,0.1,0c0.3,0,0.6,0.2,0.9,0.6c0.2,0.2,2.8,3.3,3.8,4.4l0,0
			c0.2,0.3,0.6,0.4,1,0.4l0,0l0,0h5.2l-6.7-8.1L72.5,72.5z"/>
		<path d="M39,72.5h-5.2l0,0c-0.4,0-0.8,0.2-1,0.5l0,0l-5.5,6.3v-7.7c0-0.6-0.2-1.1-0.7-1.6c-0.5-0.5-1-0.7-1.7-0.7h-2.5v19.2h4.9
			V84c0-0.1,0-0.1,0-0.2c0.1-0.4,0.4-0.7,0.9-0.7c0,0,0.1,0,0.1,0c0.3,0,0.6,0.2,0.9,0.6c0.2,0.2,2.8,3.3,3.8,4.4l0,0
			c0.2,0.3,0.6,0.4,1,0.4l0,0l0,0h5.2l-6.7-8.1L39,72.5z"/>
	</g>
</g>
</svg>
