<?xml version="1.0" encoding="utf-8"?>
<!-- Generator: Adobe Illustrator 23.0.2, SVG Export Plug-In . SVG Version: 6.00 Build 0)  -->
<svg version="1.1" id="Layer_1" xmlns="http://www.w3.org/2000/svg" xmlns:xlink="http://www.w3.org/1999/xlink" x="0px" y="0px"
	 viewBox="0 0 125 125" style="enable-background:new 0 0 125 125;" xml:space="preserve">
<style type="text/css">
	.st0{fill:#FFFFFF;}
	.st1{fill-rule:evenodd;clip-rule:evenodd;fill:#3B3D40;}
</style>
<g transform="translate(-226 -1452)">
	<circle class="st0" cx="288.5" cy="1514.5" r="62.5"/>
</g>
<path class="st1" d="M62.2,31.2c-17.1,0-31,13.9-31,31s13.9,31,31,31c17.1,0,31-13.9,31-31S79.3,31.2,62.2,31.2z M73,50.2h-3.1h-0.2
	l-7.5,7.5l-3.1-7.5h-3.3h-2.9h0l0,0l-6.5,6.5c-2.8,2.8-2.8,7.3,0,10c1.3,1.3,3.1,2.1,5,2.1s3.7-0.7,5-2.1l2.9-2.9l2.4,5.2v8.1h5.6
	v-8.3l8.9-18.7H73z M54.7,65.2c-0.9,0.9-2.1,1.4-3.4,1.4c-1.3,0-2.5-0.5-3.4-1.4c-0.9-0.9-1.4-2.2-1.4-3.4s0.5-2.4,1.4-3.4l6-6
	l4.3,9.2L54.7,65.2z M64.5,63.3L63.2,60l4.6-4.6L64.5,63.3z"/>
</svg>
