<?xml version="1.0" encoding="utf-8"?>
<!-- Generator: Adobe Illustrator 19.0.0, SVG Export Plug-In . SVG Version: 6.00 Build 0)  -->
<svg version="1.1" id="Layer_1" xmlns="http://www.w3.org/2000/svg" xmlns:xlink="http://www.w3.org/1999/xlink" x="0px" y="0px"
	 viewBox="0 0 100 122" style="enable-background:new 0 0 100 122;" xml:space="preserve">
<style type="text/css">
	.st0{fill:#FFFFFF;}
</style>
<rect id="XMLID_4_" x="-0.8" y="-0.4" width="100.8" height="122.4"/>
<g id="XMLID_2_">
	<path id="XMLID_25_" class="st0" d="M40,29c0,9.5-7,16.1-17.4,16.1H9.1V13h13.9C33,13,40,19.5,40,29z M31.4,29.1
		c0-5.5-3.6-9.3-8.7-9.3h-5.2v18.5h5.7C28,38.3,31.4,34.6,31.4,29.1z"/>
	<path id="XMLID_28_" class="st0" d="M52.6,13v32.1h-8.4V13H52.6z"/>
	<path id="XMLID_30_" class="st0" d="M91.5,29c0,9.4-7.4,16.4-17.3,16.4c-10,0-17.4-7.1-17.4-16.4s7.4-16.2,17.4-16.2
		C84.1,12.8,91.5,19.8,91.5,29z M65.3,29c0,5.2,4,9.3,8.8,9.3c4.8,0,8.6-4,8.6-9.3s-3.9-9.2-8.6-9.2C69.4,20,65.3,23.9,65.3,29z"/>
</g>
<g id="XMLID_3_">
	<path id="XMLID_13_" class="st0" d="M18.1,51.5c-3.9,0-7.1,3-7.1,6.9c0,3.8,3.1,6.9,7.1,6.9c1.9,0,3.8-0.8,5.1-2.1l1.2,1.3
		c-1.7,1.6-4,2.7-6.4,2.7c-5,0-9-3.9-9-8.8c0-4.9,4-8.6,9-8.6c2.4,0,4.7,0.9,6.3,2.5l-1.2,1.5C21.8,52.4,19.9,51.5,18.1,51.5z"/>
	<path id="XMLID_15_" class="st0" d="M39.7,49.8v1.8h-9.7v5.8h8.7v1.8h-8.7v6.1H40v1.8H27.9V49.8H39.7z"/>
	<path id="XMLID_17_" class="st0" d="M56.4,49.8v1.6L45.1,65.2h11.6V67H42.4v-1.6l11.5-13.9H42.8v-1.8L56.4,49.8L56.4,49.8z"/>
	<path id="XMLID_19_" class="st0" d="M71.2,62.6h-9.5L59.8,67h-2.1l7.7-17.3h2L75.2,67h-2.1L71.2,62.6z M70.4,60.8l-3.9-8.9
		l-3.9,8.9H70.4z"/>
	<path id="XMLID_22_" class="st0" d="M89.3,67l-3.7-5.5c-0.4,0-0.7,0.1-1.1,0.1h-4.6v5.5h-2V49.8h6.6c4.3,0,6.8,2.1,6.8,5.8
		c0,2.8-1.4,4.8-3.9,5.6l4,5.9C91.5,67,89.3,67,89.3,67z M84.5,59.7c3.1,0,4.9-1.4,4.9-4.1c0-2.7-1.7-4-4.9-4h-4.6v8.2H84.5z"/>
</g>
<g id="XMLID_6_">
	<path id="XMLID_7_" class="st0" d="M37.1,88.4h8.6v15.1c-4.1,2.8-10.6,5-16.1,5c-11.7,0-20.6-8.4-20.6-19.6s9.1-19.5,21.3-19.5
		c5.8,0,11.8,2.2,15.8,5.7l-5.7,7.1c-2.8-2.6-6.6-4.2-10.2-4.2c-6.2,0-10.8,4.8-10.8,11c0,6.3,4.7,11.1,11,11.1
		c1.9,0,4.3-0.6,6.6-1.8V88.4z"/>
	<path id="XMLID_9_" class="st0" d="M91.5,88.8c0,11.3-8.9,19.7-20.8,19.7s-20.8-8.4-20.8-19.7c0-11.2,8.9-19.5,20.8-19.5
		S91.5,77.7,91.5,88.8z M60.2,88.9c0,6.2,4.9,11.1,10.6,11.1c5.8,0,10.4-4.9,10.4-11.1s-4.6-11-10.4-11
		C65.1,77.9,60.2,82.6,60.2,88.9z"/>
</g>
</svg>
