<?xml version="1.0" standalone="no"?>
<!DOCTYPE svg PUBLIC "-//W3C//DTD SVG 1.1//EN" "http://www.w3.org/Graphics/SVG/1.1/DTD/svg11.dtd" >
<svg>
<metadata>
Created by FontForge 20090622 at Thu Mar  7 14:56:06 2019
 By deploy user
Copyright &#194;&#169; 2000 Adobe Systems Incorporated. All Rights Reserved. U.S. Patent Des. 318,290.
</metadata>
<defs>
<font id="AGaramondPro-Semibold" horiz-adv-x="380" >
  <font-face 
    font-family="Adobe Garamond Pro"
    font-weight="600"
    font-stretch="normal"
    units-per-em="1000"
    panose-1="2 2 6 2 6 5 6 2 4 3"
    ascent="725"
    descent="-275"
    x-height="397"
    cap-height="663"
    bbox="-177 -282 1123 893"
    underline-thickness="50"
    underline-position="-50"
    unicode-range="U+0020-U+FB04"
  />
<missing-glyph horiz-adv-x="500" 
d="M0 0v700h500v-700h-500zM250 395l170 255h-340zM280 350l170 -255v510zM80 50h340l-170 255zM50 605v-510l170 255z" />
    <glyph glyph-name="T_h" unicode="Th" horiz-adv-x="1092" 
d="M296 144v432q0 32 -4 38t-23 6h-66q-71 0 -100 -16.5t-56 -75.5q-5 -5 -17 -2.5t-15 9.5q24 77 39 151q3 4 11 4q7 0 10 -4q4 -18 18.5 -22t68.5 -4h408q70 0 77 14v8l94 33q10 2 14 -8q-3 -60 -3 -145v-185q0 -17 9 -17q65 48 128 48t95.5 -37.5t32.5 -102.5v-149
q0 -56 6.5 -71.5t31.5 -18.5l23 -3q7 -5 6 -15.5t-8 -13.5q-63 3 -113 3q-49 0 -102 -3q-6 3 -6.5 13.5t4.5 15.5l15 2q25 4 31.5 19.5t6.5 71.5v141q0 88 -80 88q-41 0 -68 -29q-12 -13 -12 -66v-134q0 -56 6.5 -71.5t31.5 -19.5l15 -2q5 -5 4.5 -15.5t-6.5 -13.5
q-53 3 -106 3q-45 0 -108 -3q-6 3 -6.5 13.5t4.5 15.5l22 3q25 4 31.5 19t6.5 71v409q0 56 -20.5 74t-90.5 18h-97q-19 0 -23 -6t-4 -38v-432q0 -54 5 -76.5t14.5 -28.5t36.5 -9l36 -4q5 -5 4.5 -15.5t-6.5 -13.5q-87 3 -147 3q-59 0 -155 -3q-6 3 -6.5 14t4.5 15l42 5
q27 3 36.5 9t14.5 28t5 76z" />
    <glyph glyph-name="T_h.caron" unicode="&#x164;h" horiz-adv-x="1092" 
d="M296 144v432q0 32 -4 38t-23 6h-66q-71 0 -100 -16.5t-56 -75.5q-5 -5 -17 -2.5t-15 9.5q24 77 39 151q3 4 11 4q7 0 10 -4q4 -18 18.5 -22t68.5 -4h408q70 0 77 14v8l94 33q10 2 14 -8q-3 -60 -3 -145v-185q0 -17 9 -17q65 48 128 48t95.5 -37.5t32.5 -102.5v-149
q0 -56 6.5 -71.5t31.5 -18.5l23 -3q7 -5 6 -15.5t-8 -13.5q-63 3 -113 3q-49 0 -102 -3q-6 3 -6.5 13.5t4.5 15.5l15 2q25 4 31.5 19.5t6.5 71.5v141q0 88 -80 88q-41 0 -68 -29q-12 -13 -12 -66v-134q0 -56 6.5 -71.5t31.5 -19.5l15 -2q5 -5 4.5 -15.5t-6.5 -13.5
q-53 3 -106 3q-45 0 -108 -3q-6 3 -6.5 13.5t4.5 15.5l22 3q25 4 31.5 19t6.5 71v409q0 56 -20.5 74t-90.5 18h-97q-19 0 -23 -6t-4 -38v-432q0 -54 5 -76.5t14.5 -28.5t36.5 -9l36 -4q5 -5 4.5 -15.5t-6.5 -13.5q-87 3 -147 3q-59 0 -155 -3q-6 3 -6.5 14t4.5 15l42 5
q27 3 36.5 9t14.5 28t5 76zM507 848l-136 -127q-23 -21 -47 0l-137 127q0 8 5.5 16t11.5 8l125 -65q19 -9 36 0l125 65q5 -1 11 -9t6 -15z" />
    <glyph glyph-name="T_h.commaaccent" unicode="&#x162;h" horiz-adv-x="1092" 
d="M296 144v432q0 32 -4 38t-23 6h-66q-71 0 -100 -16.5t-56 -75.5q-5 -5 -17 -2.5t-15 9.5q24 77 39 151q3 4 11 4q7 0 10 -4q4 -18 18.5 -22t68.5 -4h408q70 0 77 14v8l94 33q10 2 14 -8q-3 -60 -3 -145v-185q0 -17 9 -17q65 48 128 48t95.5 -37.5t32.5 -102.5v-149
q0 -56 6.5 -71.5t31.5 -18.5l23 -3q7 -5 6 -15.5t-8 -13.5q-63 3 -113 3q-49 0 -102 -3q-6 3 -6.5 13.5t4.5 15.5l15 2q25 4 31.5 19.5t6.5 71.5v141q0 88 -80 88q-41 0 -68 -29q-12 -13 -12 -66v-134q0 -56 6.5 -71.5t31.5 -19.5l15 -2q5 -5 4.5 -15.5t-6.5 -13.5
q-53 3 -106 3q-45 0 -108 -3q-6 3 -6.5 13.5t4.5 15.5l22 3q25 4 31.5 19t6.5 71v409q0 56 -20.5 74t-90.5 18h-97q-19 0 -23 -6t-4 -38v-432q0 -54 5 -76.5t14.5 -28.5t36.5 -9l36 -4q5 -5 4.5 -15.5t-6.5 -13.5q-87 3 -147 3q-59 0 -155 -3q-6 3 -6.5 14t4.5 15l42 5
q27 3 36.5 9t14.5 28t5 76zM409 -125q0 -54 -32.5 -88t-83.5 -49q-9 3 -11.5 12.5t2.5 17.5q25 8 47.5 29t22.5 44q0 8 -3 15t-7 12t-10.5 9.5t-10.5 6.5t-9.5 4.5t-6.5 2.5q-18 9 -18 30q0 19 13.5 31.5t36.5 12.5q26 0 48 -24t22 -66z" />
    <glyph glyph-name="f_f_j" unicode="ffj" horiz-adv-x="798" 
d="M341 347h-127q-15 0 -18 -4.5t-3 -26.5v-197q0 -55 6.5 -69.5t32.5 -19.5l24 -4q5 -5 4.5 -15.5t-6.5 -13.5q-45 3 -116 3q-45 0 -108 -3q-6 3 -6.5 13.5t4.5 15.5l22 3q25 4 31.5 19t6.5 71v198q0 21 -2.5 25.5t-15.5 4.5h-36q-6 3 -7 10.5t4 12.5l43 22q14 8 14 22v8
q0 67 22 129q23 63 73 101.5t123 38.5q69 0 118 -40q66 64 165 64q60 0 101 -27t41 -66q0 -24 -15 -38t-37 -14q-27 0 -38 20q-45 85 -92 85q-51 0 -68 -58.5t-17 -192.5v-11q0 -12 4.5 -15.5t20.5 -3.5h85q25 0 49.5 1.5t42 3.5t31 4t21.5 3l7 2q10 0 13 -8q-3 -46 -3 -120
v-161v-66q0 -108 -23 -161q-44 -102 -175 -161q-8 1 -12 9.5t-1 18.5q45 24 65 54q41 62 41 219v87v147q0 59 -7 70t-45 11h-93q-14 0 -17.5 -4.5t-3.5 -26.5v-197q0 -56 6.5 -71t32.5 -18l39 -4q5 -5 4.5 -15.5t-6.5 -13.5q-66 3 -130 3q-50 0 -102 -3q-6 3 -6.5 13.5
t4.5 15.5l15 2q25 4 31.5 19.5t6.5 71.5v198q0 21 -2.5 25.5t-15.5 4.5zM193 442v-23q0 -17 3 -21t19 -4h130q14 0 14 17v21q0 75 21 142q-8 30 -34.5 53.5t-57.5 23.5q-45 0 -70 -44t-25 -165z" />
    <glyph glyph-name="f_j" unicode="fj" horiz-adv-x="527" 
d="M88 119v198q0 21 -2.5 25.5t-15.5 4.5h-36q-6 3 -7 10.5t4 12.5l43 22q14 8 14 22v11q0 89 26 150q58 140 204 140q60 0 101 -27t41 -66q0 -24 -15 -38t-37 -14q-27 0 -38 20q-45 85 -92 85q-51 0 -68 -58.5t-17 -192.5v-8q0 -14 4.5 -18t20.5 -4h85q25 0 49.5 1.5
t42 3.5t31 4l20.5 3l8 2q10 0 13 -8q-3 -46 -3 -120v-161v-66q0 -108 -23 -161q-44 -102 -175 -161q-8 1 -12 9.5t-1 18.5q45 24 65 54q41 62 41 219v87v150q0 57 -7 67.5t-45 10.5h-93q-14 0 -17.5 -4.5t-3.5 -26.5v-197q0 -56 6.5 -71.5t32.5 -18.5l25 -3q5 -5 4.5 -15.5
t-6.5 -13.5q-47 3 -117 3q-45 0 -108 -3q-7 3 -7.5 13.5t5.5 15.5l22 3q25 4 31.5 19t6.5 71z" />
    <glyph glyph-name="ff" unicode="ff" horiz-adv-x="572" 
d="M341 347h-127q-15 0 -18 -4.5t-3 -26.5v-197q0 -55 6.5 -69.5t32.5 -19.5l24 -4q5 -5 4.5 -15.5t-6.5 -13.5q-45 3 -116 3q-45 0 -108 -3q-6 3 -6.5 13.5t4.5 15.5l22 3q25 4 31.5 19t6.5 71v198q0 21 -2.5 25.5t-15.5 4.5h-36q-6 3 -7 10.5t4 12.5l43 22q14 6 14 22v8
q0 67 22 129q23 63 73 101.5t123 38.5q69 0 116 -40q54 64 142 64q52 0 83.5 -20.5t31.5 -51.5q0 -20 -14.5 -33t-32.5 -13t-27 12q-53 65 -83 65q-58 0 -58 -218v-30q0 -23 3 -28t19 -5h105q6 -5 6 -16q0 -21 -14 -30h-98q-15 0 -18 -4.5t-3 -26.5v-197q0 -56 6.5 -71
t32.5 -18l39 -4q5 -5 4.5 -15.5t-6.5 -13.5q-66 3 -130 3q-50 0 -102 -3q-6 3 -6.5 13.5t4.5 15.5l15 2q25 4 31.5 19.5t6.5 71.5v197q0 21 -3 26t-15 5zM193 442v-23q0 -18 3 -22t19 -4h130q14 0 14 21v18q0 75 21 142q-8 30 -34.5 53.5t-57.5 23.5q-45 0 -70 -44t-25 -165
z" />
    <glyph glyph-name="fi" unicode="fi" horiz-adv-x="539" 
d="M88 119v198q0 21 -2.5 25.5t-15.5 4.5h-36q-6 3 -7 10.5t4 12.5l43 22q14 8 14 22v11q0 89 26 150q58 140 204 140q60 0 101 -27t41 -66q0 -24 -15 -38t-37 -14q-27 0 -38 20q-45 85 -92 85q-51 0 -68 -58.5t-17 -192.5v-8q0 -14 4.5 -18t20.5 -4h85q25 0 49.5 1.5
t42 3.5t31 4l20.5 3l8 2q10 0 13 -8q-3 -46 -3 -120v-161q0 -56 6.5 -71t31.5 -19l18 -3q5 -5 4.5 -15.5t-6.5 -13.5q-56 3 -108 3t-98 -3q-7 3 -7.5 13.5t4.5 15.5l12 2q25 4 31.5 19.5t6.5 71.5v150q0 57 -7 67.5t-45 10.5h-93q-14 0 -17.5 -4.5t-3.5 -26.5v-197
q0 -56 6.5 -71.5t32.5 -18.5l25 -3q5 -5 4.5 -15.5t-6.5 -13.5q-47 3 -117 3q-45 0 -108 -3q-7 3 -7.5 13.5t5.5 15.5l22 3q25 4 31.5 19t6.5 71z" />
    <glyph glyph-name="fl" unicode="fl" horiz-adv-x="539" 
d="M464 562v-443q0 -56 6.5 -71t31.5 -19l22 -3q5 -5 4.5 -15.5t-6.5 -13.5q-63 3 -112 3t-103 -3q-6 3 -6.5 13.5t4.5 15.5l16 3q25 4 31.5 19t6.5 71v202q0 18 -4 22t-21 4h-120q-14 0 -17.5 -4.5t-3.5 -26.5v-197q0 -56 6.5 -71.5t32.5 -18.5l24 -3q5 -5 4.5 -15.5
t-6.5 -13.5q-45 3 -116 3q-44 0 -108 -3q-6 3 -6.5 13.5t4.5 15.5l22 3q25 4 31.5 19t6.5 71v198q0 21 -2.5 25.5t-15.5 4.5h-36q-6 3 -7 10.5t4 12.5l43 22q14 8 14 22v18q0 76 25 143q23 62 76 101t123 39q54 0 99 -26q9 6 22.5 14t19.5 12q10 2 14 -8q-3 -60 -3 -145z
M215 394h119q17 0 21 3.5t4 18.5v190q0 29 -19 49t-48 20q-99 0 -99 -229v-20q0 -22 3.5 -27t18.5 -5z" />
    <glyph glyph-name="ffi" unicode="ffi" horiz-adv-x="810" 
d="M341 347h-127q-15 0 -18 -4.5t-3 -26.5v-197q0 -55 6.5 -69.5t32.5 -19.5l24 -4q5 -5 4.5 -15.5t-6.5 -13.5q-45 3 -116 3q-45 0 -108 -3q-6 3 -6.5 13.5t4.5 15.5l22 3q25 4 31.5 19t6.5 71v198q0 21 -2.5 25.5t-15.5 4.5h-36q-6 3 -7 10.5t4 12.5l43 22q14 8 14 22v8
q0 67 22 129q23 63 73 101.5t123 38.5q69 0 118 -40q66 64 165 64q60 0 101 -27t41 -66q0 -24 -15 -38t-37 -14q-27 0 -38 20q-45 85 -92 85q-51 0 -68 -58.5t-17 -192.5v-11q0 -12 4.5 -15.5t20.5 -3.5h85q25 0 49.5 1.5t42 3.5t31 4t21.5 3l7 2q10 0 13 -8q-3 -46 -3 -120
v-161q0 -56 6.5 -71t31.5 -19l18 -3q5 -5 4.5 -15.5t-6.5 -13.5q-55 3 -108 3q-51 0 -98 -3q-7 3 -7.5 13.5t4.5 15.5l12 2q25 4 31.5 19.5t6.5 71.5v147q0 59 -7 70t-45 11h-93q-14 0 -17.5 -4.5t-3.5 -26.5v-197q0 -56 6.5 -71t32.5 -18l39 -4q5 -5 4.5 -15.5t-6.5 -13.5
q-66 3 -130 3q-50 0 -102 -3q-6 3 -6.5 13.5t4.5 15.5l15 2q25 4 31.5 19.5t6.5 71.5v198q0 21 -2.5 25.5t-15.5 4.5zM193 442v-23q0 -17 3 -21t19 -4h130q14 0 14 17v21q0 75 21 142q-8 30 -34.5 53.5t-57.5 23.5q-45 0 -70 -44t-25 -165z" />
    <glyph glyph-name="ffl" unicode="ffl" horiz-adv-x="810" 
d="M341 347h-127q-15 0 -18 -4.5t-3 -26.5v-197q0 -55 6.5 -69.5t32.5 -19.5l24 -4q5 -5 4.5 -15.5t-6.5 -13.5q-45 3 -116 3q-45 0 -108 -3q-6 3 -6.5 13.5t4.5 15.5l22 3q25 4 31.5 19t6.5 71v198q0 21 -2.5 25.5t-15.5 4.5h-36q-6 3 -7 10.5t4 12.5l43 22q14 8 14 22v8
q0 67 22 129q23 63 73 101.5t123 38.5q68 0 117 -40q66 64 158 64q56 0 101 -26q8 6 22 14t20 12q10 2 14 -8q-3 -60 -3 -145v-443q0 -56 6.5 -71t31.5 -19l22 -3q5 -5 4.5 -15.5t-6.5 -13.5q-63 3 -112 3t-103 -3q-6 3 -6.5 13.5t4.5 15.5l16 3q25 4 31.5 19t6.5 71v202
q0 18 -4 22t-21 4h-120q-14 0 -17.5 -4.5t-3.5 -26.5v-197q0 -56 6.5 -71.5t32.5 -18.5l24 -3q5 -5 4.5 -15.5t-6.5 -13.5q-45 3 -116 3q-43 0 -108 -3q-6 3 -6.5 13.5t4.5 15.5l22 3q25 4 31.5 19t6.5 71v198q0 21 -2.5 25.5t-15.5 4.5zM193 442v-23q0 -17 3 -21t19 -4h130
q14 0 14 20v18q0 75 21 142q-8 30 -34.5 53.5t-57.5 23.5q-45 0 -70 -44t-25 -165zM486 394h119q17 0 21 3.5t4 18.5v190q0 29 -19 49t-48 20q-99 0 -99 -229v-20q0 -22 3.5 -27t18.5 -5z" />
    <glyph glyph-name=".notdef" horiz-adv-x="500" 
d="M0 0v700h500v-700h-500zM250 395l170 255h-340zM280 350l170 -255v510zM80 50h340l-170 255zM50 605v-510l170 255z" />
    <glyph glyph-name=".null" horiz-adv-x="0" 
 />
    <glyph glyph-name="nonmarkingreturn" horiz-adv-x="333" 
 />
    <glyph glyph-name="space" unicode=" " horiz-adv-x="245" 
 />
    <glyph glyph-name="space" unicode="&#xa0;" horiz-adv-x="245" 
 />
    <glyph glyph-name="exclam" unicode="!" horiz-adv-x="280" 
d="M140 -14q-28 0 -46.5 18t-18.5 46q0 26 18.5 44t46.5 18t46 -18t18 -44q0 -28 -18 -46t-46 -18zM197 540l-42 -335q-17 -13 -30 0l-42 335q-6 46 -6 66q0 40 63 40t63 -40q0 -20 -6 -66z" />
    <glyph glyph-name="quotedbl" unicode="&#x22;" horiz-adv-x="438" 
d="M139 700q51 0 51 -28q0 -15 -6 -50l-30 -162q-15 -12 -30 0l-30 162q-6 35 -6 50q0 28 51 28zM299 700q51 0 51 -28q0 -15 -6 -50l-30 -162q-15 -12 -30 0l-30 162q-6 35 -6 50q0 28 51 28z" />
    <glyph glyph-name="numbersign" unicode="#" horiz-adv-x="510" 
d="M290 244l42 158h-105l-42 -158h105zM26 244h107l42 158h-107l14 54h108l45 168h52l-45 -168h105l45 168h52l-45 -168h99l-11 -54h-103l-42 -158h96l-13 -54h-98l-50 -187h-51l50 187h-106l-50 -187h-51l50 187h-106z" />
    <glyph glyph-name="dollar" unicode="$" horiz-adv-x="510" 
d="M278 267l-24 -226q113 5 113 110q0 76 -89 116zM251 393l21 195q-51 -2 -77.5 -30t-26.5 -67q0 -59 83 -98zM324 704l-8 -77q20 -1 38 -4t39.5 -8t32.5 -7q19 -47 17 -119q-4 -4 -13 -5t-14 2q-26 84 -104 100l-23 -210l15 -6q77 -31 121 -74t44 -114
q-1 -80 -59.5 -128.5t-159.5 -52.5l-10 -93q-4 -7 -20 -7t-20 7l10 94q-15 0 -29 2t-26.5 5t-22 5.5t-20 7l-15.5 6.5t-13.5 6.5t-9.5 4.5q-14 20 -23.5 58.5t-8.5 75.5q3 6 13 7t14 -4q18 -45 53.5 -83t91.5 -49l26 240q-77 28 -121 70t-44 108q0 72 53 118t148 48l8 76
q5 8 20.5 8t19.5 -8z" />
    <glyph glyph-name="percent" unicode="%" horiz-adv-x="868" 
d="M660 374q53 0 90 -32t52 -74t15 -88q0 -45 -15 -87.5t-52 -74.5t-90 -32t-90 32t-52 74.5t-15 87.5q0 46 15 88t52 74t90 32zM660 340q-22 0 -37.5 -17t-22.5 -44.5t-10 -51t-3 -47.5t3 -47.5t10 -51t22.5 -44.5t37.5 -17t37.5 17t22.5 44.5t10 51t3 47.5t-3 47.5t-10 51
t-22.5 44.5t-37.5 17zM208 640q53 0 90 -32t52 -74t15 -88q0 -45 -15 -87.5t-52 -74.5t-90 -32t-90 32t-52 74.5t-15 87.5q0 46 15 88t52 74t90 32zM208 606q-22 0 -37.5 -17t-22.5 -44.5t-10 -51t-3 -47.5t3 -47.5t10 -51t22.5 -44.5t37.5 -17t37.5 17t22.5 44.5t10 51
t3 47.5t-3 47.5t-10 51t-22.5 44.5t-37.5 17zM650 632l-406 -672q-26 -2 -35 22l404 670q9 2 21 -4.5t16 -15.5z" />
    <glyph glyph-name="ampersand" unicode="&#x26;" horiz-adv-x="834" 
d="M309 640q65 0 105 -37.5t40 -91.5q0 -18 -5.5 -34t-10.5 -25.5t-19 -21l-18.5 -15t-22.5 -13.5l-18 -10q55 -36 90.5 -74.5t77.5 -103.5q43 57 96 175q14 28 13.5 38.5t-20.5 14.5l-29 5q-7 7 -6 16t9 12h55q99 0 168 6q6 -3 7 -12.5t-5 -15.5l-46 -10q-36 -8 -57.5 -29
t-49.5 -69q-34 -57 -104 -157q-8 -13 2 -29q34 -53 71 -80t88 -27q43 0 81 27q8 -1 12 -7.5t2 -13.5q-34 -37 -81 -54.5t-90 -17.5q-36 0 -69.5 9t-47.5 23q-19 19 -48 66q-97 -98 -207 -98q-99 0 -150.5 55t-51.5 124q0 122 153 202q-1 0 -6.5 5t-8.5 8t-9.5 9t-11 11.5
l-10.5 13.5t-9.5 16t-7 17.5t-5.5 20.5t-2 22q0 66 46 108t110 42zM369 252q-21 24 -47.5 45.5t-43.5 32t-20 10.5q-7 0 -23 -12q-26 -18 -43.5 -53t-17.5 -72q0 -62 45.5 -102.5t111.5 -40.5q65 0 116 46q11 10 11.5 17t-8.5 21q-39 61 -81 108zM305 604q-27 0 -45.5 -21.5
t-18.5 -55.5q0 -55 68 -104q13 -9 16 -9l10 5q33 36 33 96q0 39 -17.5 64t-45.5 25z" />
    <glyph glyph-name="quotesingle" unicode="'" horiz-adv-x="248" 
d="M124 700q51 0 51 -28q0 -15 -6 -50l-30 -162q-15 -12 -30 0l-30 162q-6 35 -6 50q0 28 51 28z" />
    <glyph glyph-name="parenleft" unicode="(" horiz-adv-x="320" 
d="M149 270q0 -118 36 -234t110 -182q1 -6 -4 -12t-11 -5q-101 62 -154 182.5t-53 250.5t53 250.5t154 182.5q6 1 11 -5t4 -12q-74 -66 -110 -182t-36 -234z" />
    <glyph glyph-name="parenright" unicode=")" horiz-adv-x="320" 
d="M171 270q0 118 -36 234t-110 182q-1 6 4 12t11 5q101 -62 154 -182.5t53 -250.5t-53 -250.5t-154 -182.5q-6 -1 -11 5t-4 12q74 66 110 182t36 234z" />
    <glyph glyph-name="asterisk" unicode="*" horiz-adv-x="420" 
d="M224 672l12 -127l124 60q7 -1 11 -9.5t1 -15.5l-113 -80l112 -78q3 -7 -1 -16.5t-13 -10.5l-121 63l-12 -127q-4 -4 -14 -4t-14 4l-12 127l-121 -63q-9 1 -13 10.5t-1 16.5l112 78l-113 80q-3 7 1 15.5t11 9.5l124 -60l12 127q4 4 13.5 4t14.5 -4z" />
    <glyph glyph-name="plus" unicode="+" horiz-adv-x="510" 
d="M293 0h-75v174h-155v63h155v157h75v-157h155v-63h-155v-174z" />
    <glyph glyph-name="comma" unicode="," horiz-adv-x="255" 
d="M204 36q0 -61 -39.5 -101.5t-100.5 -58.5q-23 8 -11 30q86 27 86 89q0 12 -5 22t-13 16.5t-15 10.5t-15.5 7.5t-9.5 3.5q-23 11 -23 37q0 23 17 38t45 15q32 0 58 -28.5t26 -80.5z" />
    <glyph glyph-name="hyphen" unicode="-" horiz-adv-x="320" 
d="M41 228l238 22q9 -9 9 -33q0 -20 -9 -32l-238 -22q-9 9 -9 32q0 18 9 33z" />
    <glyph glyph-name="hyphen" unicode="&#xad;" horiz-adv-x="320" 
d="M41 228l238 22q9 -9 9 -33q0 -20 -9 -32l-238 -22q-9 9 -9 32q0 18 9 33z" />
    <glyph glyph-name="period" unicode="." horiz-adv-x="255" 
d="M128 -14q-28 0 -47 19t-19 47t19 47t47 19t46.5 -19t18.5 -47t-18.5 -47t-46.5 -19z" />
    <glyph glyph-name="slash" unicode="/" horiz-adv-x="347" 
d="M317 676l-209 -692h-78l209 692h78z" />
    <glyph glyph-name="zero" unicode="0" horiz-adv-x="510" 
d="M255 640q73 0 123.5 -51.5t71 -123t20.5 -152.5q0 -84 -20.5 -155t-71 -121.5t-123.5 -50.5t-123.5 50.5t-71 121.5t-20.5 155q0 81 20.5 152.5t71 123t123.5 51.5zM255 600q-31 0 -51.5 -30t-29.5 -80t-12.5 -91t-3.5 -86t3.5 -86t12.5 -91t29.5 -80t51.5 -30t51.5 30
t29.5 80t12.5 91t3.5 86t-3.5 86t-12.5 91t-29.5 80t-51.5 30z" />
    <glyph glyph-name="one" unicode="1" horiz-adv-x="510" 
d="M317 510v-374q0 -71 9 -85t55 -21l27 -4q5 -4 5 -15.5t-7 -13.5q-70 3 -138 3q-73 0 -145 -3q-7 2 -7 13.5t5 15.5l27 4q46 7 55 21t9 85v317q0 54 -8 72.5t-40 22.5l-48 5q-4 4 -4.5 12.5t3.5 11.5q124 24 194 63q10 -2 11 -9q-3 -31 -3 -121z" />
    <glyph glyph-name="two" unicode="2" horiz-adv-x="510" 
d="M216 86h117q54 0 75.5 11t44.5 52q5 3 13.5 1.5t11.5 -7.5q-20 -108 -49 -146q-59 3 -126 3h-165q-78 0 -110 -3q-10 7 -6 18q90 80 150 143q145 149 145 280q0 61 -32.5 99.5t-86.5 38.5q-71 0 -123 -88q-23 -4 -26 15q27 65 82.5 101t126.5 36q79 0 126.5 -47
t47.5 -119q0 -50 -26.5 -102t-91.5 -121l-82 -86q-47 -49 -47 -65q0 -14 31 -14z" />
    <glyph glyph-name="three" unicode="3" horiz-adv-x="510" 
d="M256 640q68 0 108.5 -32t40.5 -81q0 -36 -22 -66t-85 -61q-11 -13 12 -15q62 -6 103.5 -46.5t41.5 -110.5q0 -77 -49.5 -144t-123.5 -103.5t-150 -36.5q-39 0 -69 17t-30 48q0 20 13.5 33.5t33.5 13.5q25 0 55 -37q26 -32 55 -32q44 0 96.5 55t52.5 137q0 66 -33 109
t-94 43q-52 0 -97 -41q-12 2 -19.5 15t-2.5 26q8 3 36.5 15t44.5 19.5t41.5 22.5t39.5 29.5t25 36.5t11 46q0 40 -22 62.5t-56 22.5q-69 0 -123 -83q-7 -4 -13.5 1.5t-8.5 14.5q25 55 76 88.5t112 33.5z" />
    <glyph glyph-name="four" unicode="4" horiz-adv-x="510" 
d="M473 189h-62q-18 0 -21.5 -4t-3.5 -21v-45q0 -55 6.5 -71t31.5 -19l25 -3q5 -4 4.5 -15t-6.5 -14q-67 3 -116 3q-71 0 -134 -3q-6 3 -6.5 13.5t4.5 15.5l48 6q25 3 31.5 18.5t6.5 68.5v42q0 21 -3.5 24.5t-20.5 3.5h-229q-8 2 -12.5 11t-2.5 17l333 476q9 12 22 13h27
q27 0 12 -19l-311 -431q-9 -12 -0.5 -17t32.5 -5h125q20 0 24 3.5t4 23.5v165q0 20 12 27q9 5 38.5 15t39.5 10q7 0 10.5 -4t4 -9.5t0.5 -17.5v-189q0 -18 3 -21t22 -3h62q8 -6 8 -22.5t-8 -22.5z" />
    <glyph glyph-name="five" unicode="5" horiz-adv-x="510" 
d="M152 620l260 34q9 -2 9 -9q-11 -50 -39 -82l-207 -27q-21 -3 -26 -7t-10 -21l-10 -36q-2 -8 2 -12.5t18 -6.5l70 -12q224 -40 224 -213q0 -52 -23.5 -99t-62 -81t-87.5 -60.5t-101 -40t-101 -15.5q-9 5 -11.5 15.5t4.5 18.5q118 14 201 72t83 154q0 50 -23.5 86t-64 54
t-81 26t-87.5 9q-16 1 -19 6t2 25l54 195q6 25 26 27z" />
    <glyph glyph-name="six" unicode="6" horiz-adv-x="510" 
d="M481 197q-2 -94 -62.5 -152.5t-153.5 -58.5q-107 0 -166.5 71.5t-59.5 183.5q0 180 133 311q67 66 152 99.5t155 41.5q5 -3 6.5 -12t-2.5 -15q-150 -51 -217 -125q-53 -58 -78.5 -134.5t-27.5 -150.5q-2 -97 29 -163.5t88 -66.5q47 0 70.5 36.5t23.5 90.5q0 76 -31 129
t-84 53q-16 0 -33 -6q-13 4 -7 20q44 38 106 38q72 0 116.5 -53t42.5 -137z" />
    <glyph glyph-name="seven" unicode="7" horiz-adv-x="510" 
d="M167 626h189q119 0 131 3q7 -3 7 -12q-50 -79 -98 -173l-260 -506q-14 -2 -28 4.5t-15 18.5l256 486q33 63 33 83q0 10 -23 10h-203q-42 0 -65.5 -9t-38.5 -37q-5 -4 -14 -2t-11 9q14 45 34 128q30 -3 106 -3z" />
    <glyph glyph-name="eight" unicode="8" horiz-adv-x="510" 
d="M264 640q77 0 127.5 -40t50.5 -111q0 -16 -3 -30.5t-11.5 -27.5l-14.5 -21.5t-20 -20t-19.5 -15.5t-23 -15.5t-19.5 -13.5q131 -72 131 -186q0 -83 -61.5 -128t-149.5 -45q-83 0 -143 40.5t-60 120.5q0 53 34.5 90.5t97.5 72.5q-46 24 -80 64.5t-34 91.5q0 77 55.5 125.5
t142.5 48.5zM256 26q42 0 70.5 27t28.5 71q0 55 -36 95t-104 73q-71 -56 -71 -141q0 -56 31.5 -90.5t80.5 -34.5zM257 600q-43 0 -67.5 -29.5t-24.5 -72.5q0 -24 11 -44.5t35.5 -38t38.5 -25.5t46 -24q57 46 57 123q0 45 -26 78t-70 33z" />
    <glyph glyph-name="nine" unicode="9" horiz-adv-x="510" 
d="M40 437q3 91 63.5 147t144.5 56q102 0 163 -78q55 -68 52 -192q-6 -197 -160 -320q-104 -84 -243 -110q-7 3 -9.5 13.5t2.5 16.5q80 26 142 73q142 110 147 344q2 92 -24 152.5t-79 60.5q-35 0 -61 -33t-28 -93q-2 -63 27 -115.5t74 -52.5q17 0 33 4q14 -5 8 -23
q-39 -27 -95 -27q-67 0 -113 48t-44 129z" />
    <glyph glyph-name="colon" unicode=":" horiz-adv-x="255" 
d="M128 394q28 0 46.5 -19t18.5 -47t-18.5 -47t-46.5 -19t-47 19t-19 47t19 47t47 19zM128 -14q-28 0 -47 19t-19 47t19 47t47 19t46.5 -19t18.5 -47t-18.5 -47t-46.5 -19z" />
    <glyph glyph-name="semicolon" unicode=";" horiz-adv-x="255" 
d="M204 36q0 -61 -39.5 -101.5t-100.5 -58.5q-23 8 -11 30q86 27 86 89q0 12 -5 22t-13 16.5t-15 10.5t-15.5 7.5t-9.5 3.5q-23 11 -23 37q0 23 17 38t45 15q32 0 58 -28.5t26 -80.5zM128 394q28 0 46.5 -19t18.5 -47t-18.5 -47t-46.5 -19t-47 19t-19 47t19 47t47 19z" />
    <glyph glyph-name="less" unicode="&#x3c;" horiz-adv-x="510" 
d="M61 229l389 185v-75l-297 -131v-2l297 -132v-74l-389 184v45z" />
    <glyph glyph-name="equal" unicode="=" horiz-adv-x="510" 
d="M448 312v-63h-385v63h385zM448 162v-63h-385v63h385z" />
    <glyph glyph-name="greater" unicode="&#x3e;" horiz-adv-x="510" 
d="M61 414l389 -185v-45l-389 -184v74l297 132v2l-297 131v75z" />
    <glyph glyph-name="question" unicode="?" horiz-adv-x="330" 
d="M101 646q75 0 130 -68.5t55 -140.5q0 -77 -64 -107l-54 -26q-47 -22 -47 -50q0 -26 9 -50q-4 -7 -12.5 -9t-15.5 3q-43 62 -43 110q0 53 69 84l56 25q49 22 49 58q0 39 -36.5 54.5t-104.5 15.5q-14 0 -30.5 13.5t-16.5 37.5q0 22 15.5 36t40.5 14zM127 -14q-28 0 -47 19
t-19 47t19 47t47 19t46.5 -19t18.5 -47t-18.5 -47t-46.5 -19z" />
    <glyph glyph-name="at" unicode="@" horiz-adv-x="781" 
d="M448 517q-138 0 -225 -103t-87 -243q0 -48 13.5 -92t43.5 -86t88 -67.5t136 -25.5q77 0 158 33q13 -7 9 -22q-84 -46 -195 -46q-65 0 -124.5 19.5t-107.5 56.5t-76.5 98t-28.5 138q0 113 56.5 201t146 133t193.5 45q136 0 214.5 -78.5t78.5 -191.5q0 -100 -68.5 -165
t-182.5 -65q-73 0 -73 28q0 12 7 33l24 54l-2 1q-45 -47 -102 -81.5t-88 -34.5q-21 0 -32.5 13t-11.5 31q0 20 19 63.5t58 91.5q101 125 202 125q28 0 36 -22l24 51q27 9 56 -12q-6 -15 -57 -134t-58 -137t-3.5 -25t19.5 -9q70 -7 128 49t58 141q0 107 -70 171t-176 64z
M299 118q0 -14 6 -14q25 0 80 49q34 31 71 84t46 79q-9 27 -41 27q-28 0 -60 -28q-39 -35 -70.5 -97t-31.5 -100z" />
    <glyph glyph-name="A" unicode="A" horiz-adv-x="627" 
d="M341 245h-133q-19 0 -23 -3t-11 -24l-41 -120q-14 -44 -11 -53t32 -14l29 -5q5 -5 4.5 -15.5t-6.5 -13.5q-11 1 -106 3q-47 0 -99 -3q-5 4 -5.5 13t4.5 16l30 5q22 4 33 13t22 33q10 21 49 122l137 356q22 58 19 73q15 3 32 15t27 23l11 10q11 0 17 -8q8 -23 22.5 -69
t22.5 -68l144 -419q17 -51 29 -63.5t50 -19.5l15 -3q6 -5 6 -15t-5 -14q-62 3 -130 3q-17 0 -122 -3q-6 4 -7 14.5t4 14.5l22 3q27 4 32 12.5t-6 40.5l-47 136q-6 19 -12.5 23t-28.5 4zM224 290h104q22 0 26 4t-2 22l-42 120q-26 76 -28 79h-2q-4 -7 -30 -79l-42 -117
q-7 -22 -4.5 -25.5t20.5 -3.5z" />
    <glyph glyph-name="B" unicode="B" horiz-adv-x="627" 
d="M119 144v366q0 74 -7 91.5t-41 21.5l-26 3q-5 5 -5 14.5t6 13.5q101 9 228 9q137 0 196 -34q70 -41 70 -130q0 -44 -30 -76.5t-83 -50.5q-6 -2 -6 -6q0 -3 8 -6q66 -10 113.5 -53t47.5 -121q0 -84 -61 -133q-67 -56 -227 -56q-23 0 -64.5 1.5t-59.5 1.5q-69 0 -135 -3
q-6 3 -6.5 13.5t4.5 15.5l22 3q27 3 36.5 9.5t14.5 29t5 76.5zM235 309v-144q0 -74 17.5 -101t79.5 -27q55 0 92.5 35t37.5 99q0 77 -48.5 120.5t-132.5 43.5q-31 0 -38.5 -5t-7.5 -21zM235 581v-181q0 -19 6.5 -23t36.5 -4q71 0 104 30t33 97q0 61 -37.5 92t-89.5 31
q-38 0 -45.5 -6t-7.5 -36z" />
    <glyph glyph-name="C" unicode="C" horiz-adv-x="694" 
d="M645 648q13 -147 14 -156q-5 -6 -16 -6.5t-16 4.5q-39 146 -194 146q-105 0 -180 -75.5t-75 -219.5q0 -150 78 -233.5t184 -83.5q145 0 209 149q7 6 16.5 4.5t13.5 -8.5q-5 -46 -20 -90.5t-28 -61.5q-5 -1 -35 -9q-75 -24 -156 -24q-153 0 -256 67q-142 93 -142 275
q0 168 126 265q112 85 276 85q87 0 173 -22q7 -2 16.5 -4t11.5 -2z" />
    <glyph glyph-name="D" unicode="D" horiz-adv-x="784" 
d="M119 144v366q0 75 -7 93t-41 21l-21 2q-5 4 -5 14t6 14q108 9 250 9q141 0 236 -34q93 -34 149 -112t56 -187q0 -88 -45 -165.5t-134 -122.5q-95 -48 -248 -48q-33 0 -81 3t-64 3q-61 0 -127 -3q-6 3 -6.5 13.5t4.5 15.5l22 3q27 3 36.5 9.5t14.5 29t5 76.5zM235 535
v-352q0 -83 20 -116t93 -33q128 0 193 81t65 214q0 144 -76 219t-206 75q-65 0 -81 -14q-8 -7 -8 -74z" />
    <glyph glyph-name="E" unicode="E" horiz-adv-x="580" 
d="M119 144v372q0 54 -5 76.5t-14.5 29.5t-36.5 10l-16 2q-5 5 -4.5 15.5t6.5 13.5q57 -3 129 -3h191q116 0 135 3q2 -9 7.5 -64.5t8.5 -74.5q-3 -6 -14.5 -7.5t-17.5 3.5q-12 44 -25.5 64t-37.5 27q-35 9 -80 9h-67q-32 0 -37.5 -8t-5.5 -51v-169q0 -19 3.5 -23t20.5 -4h48
q68 0 86 6.5t25 37.5l7 34q6 5 17 5t15 -6q-3 -81 -3 -100q0 -9 3 -105q-4 -5 -15 -5.5t-17 4.5l-7 40q-5 30 -24 37t-87 7h-48q-17 0 -20.5 -4t-3.5 -23v-127q0 -85 17 -104q10 -11 32 -16t81 -6q63 0 97.5 11t50.5 31.5t36 65.5q7 5 17.5 3t14.5 -9q-5 -32 -18.5 -78.5
t-23.5 -66.5q-66 3 -247 3h-114q-83 0 -150 -3q-6 3 -6.5 13.5t4.5 15.5l37 4q27 3 36.5 9t14.5 28.5t5 76.5z" />
    <glyph glyph-name="F" unicode="F" horiz-adv-x="533" 
d="M176 660h189q109 0 141 3q0 -97 2 -144q-3 -6 -14 -7.5t-18 3.5q-8 45 -22 67.5t-42 29.5q-31 8 -84 8h-51q-31 0 -36.5 -8t-5.5 -50v-179q0 -19 3.5 -23t20.5 -4h59q68 0 86.5 6.5t25.5 37.5l8 34q4 5 15 5t15 -6q-3 -78 -3 -100q0 -11 3 -104q-4 -6 -15 -6t-15 5l-8 39
q-7 30 -25.5 37t-86.5 7h-59q-17 0 -20.5 -4t-3.5 -23v-140q0 -54 5 -76t14.5 -28t36.5 -9l42 -5q5 -5 4.5 -15.5t-6.5 -13.5q-96 3 -153 3q-66 0 -135 -3q-6 3 -6.5 13.5t4.5 15.5l22 3q27 3 36.5 9.5t14.5 29t5 76.5v372q0 54 -5 76.5t-14.5 29t-36.5 10.5l-13 2
q-5 5 -4.5 15.5t6.5 13.5q53 -3 124 -3z" />
    <glyph glyph-name="G" unicode="G" horiz-adv-x="743" 
d="M657 162v-58q0 -59 24 -70q2 -3 2 -8t-3 -7q-10 0 -48 -8q-112 -27 -194 -27q-202 0 -308 110q-88 91 -88 229q0 140 92 235q112 118 319 118q58 0 133 -15q41 -9 64 -9q0 -14 5 -66t8 -93q-4 -7 -16 -8t-16 6q-16 72 -66 108.5t-126 36.5q-127 0 -194 -82t-67 -215
q0 -145 72 -230q37 -44 89.5 -64.5t103.5 -20.5q71 0 89 23q9 14 9 63v36q0 54 -9.5 67t-58.5 21l-36 6q-5 5 -5 15t6 14q59 -3 156 -3q58 0 122 3q7 -4 8 -14t-6 -15l-18 -3q-28 -5 -35.5 -17.5t-7.5 -57.5z" />
    <glyph glyph-name="H" unicode="H" horiz-adv-x="812" 
d="M523 320h-234q-38 0 -46 -4.5t-8 -24.5v-147q0 -54 5 -76t14.5 -28.5t36.5 -9.5l30 -4q5 -5 4.5 -15.5t-6.5 -13.5q-78 3 -141 3q-70 0 -127 -3q-6 3 -6.5 13.5t4.5 15.5l14 2q27 4 36.5 10.5t14.5 29t5 76.5v372q0 54 -5 76.5t-14.5 29t-36.5 9.5l-22 3q-5 4 -4.5 15
t6.5 14q66 -3 135 -3q70 0 128 3q6 -3 6.5 -14t-4.5 -15l-17 -3q-38 -6 -47 -22.5t-9 -92.5v-121q0 -21 8 -25.5t46 -4.5h234q38 0 46 4.5t8 25.5v121q0 54 -5 76.5t-14.5 29t-36.5 9.5l-22 3q-5 4 -4.5 15t6.5 14q69 -3 135 -3q69 0 129 3q6 -3 6.5 -14t-4.5 -15l-18 -3
q-38 -6 -47 -22.5t-9 -92.5v-372q0 -54 5 -76.5t14.5 -29t36.5 -9.5l22 -3q5 -5 4.5 -15.5t-6.5 -13.5q-66 3 -133 3q-69 0 -135 -3q-6 3 -6.5 13.5t4.5 15.5l22 3q27 3 36.5 9.5t14.5 29t5 76.5v147q0 20 -8 24.5t-46 4.5z" />
    <glyph glyph-name="I" unicode="I" horiz-adv-x="354" 
d="M235 516v-372q0 -54 5 -76.5t14.5 -29t36.5 -9.5l22 -3q5 -5 4.5 -15.5t-6.5 -13.5q-66 3 -133 3q-69 0 -135 -3q-6 3 -6.5 13.5t4.5 15.5l22 3q27 3 36.5 9.5t14.5 29t5 76.5v372q0 54 -5 76.5t-14.5 29t-36.5 9.5l-22 3q-5 5 -4.5 15.5t6.5 13.5q66 -3 135 -3
q67 0 133 3q6 -3 6.5 -13.5t-4.5 -15.5l-22 -3q-27 -3 -36.5 -9.5t-14.5 -29t-5 -76.5z" />
    <glyph glyph-name="J" unicode="J" horiz-adv-x="354" 
d="M251 514v-377q0 -138 -22 -193q-26 -64 -82 -104.5t-137 -40.5q-53 0 -53 33q0 18 13 39t33 21q15 0 45 -19q28 -18 43 -18q27 0 35 79q9 76 9 196v384q0 54 -5 76.5t-14.5 29t-37.5 10.5l-29 4q-5 4 -4.5 15t6.5 14q78 -3 142 -3q69 0 124 3q6 -3 6.5 -14t-4.5 -15
l-14 -2q-25 -3 -34.5 -10t-14.5 -30.5t-5 -77.5z" />
    <glyph glyph-name="K" unicode="K" horiz-adv-x="684" 
d="M235 516v-111q0 -24 3 -34.5t14 -10.5q21 0 75 59l102 110q30 30 54 62q23 30 7 34l-31 9q-14 13 2 29q63 -3 112 -3q2 0 110 3q8 -2 9.5 -13.5t-6.5 -15.5q-65 -9 -98.5 -29t-90.5 -75l-122 -123q-16 -16 -3 -33q134 -176 246 -307q27 -32 74 -38l24 -3q5 -4 4.5 -15.5
t-6.5 -13.5q-52 3 -128 3q-72 0 -138 -3q-8 3 -8.5 14t6.5 15l27 4q26 3 7 27l-91.5 119.5t-106.5 132.5q-15 15 -24 15q-11 0 -16.5 -7.5t-6 -15t-0.5 -24.5v-6v-127q0 -54 5 -76.5t14.5 -29t36.5 -9.5l25 -3q5 -4 4.5 -15t-6.5 -14q-70 3 -136 3q-73 0 -127 -3
q-6 3 -6.5 14t4.5 15l14 2q27 4 36.5 10.5t14.5 29t5 76.5v372q0 54 -5 76.5t-14.5 28.5t-36.5 10l-19 3q-5 5 -4.5 15.5t6.5 13.5q61 -3 132 -3q70 0 128 3q6 -3 6.5 -14t-4.5 -15l-17 -3q-38 -6 -47 -22.5t-9 -92.5z" />
    <glyph glyph-name="L" unicode="L" horiz-adv-x="560" 
d="M235 516v-351q0 -84 17 -103q10 -12 31 -17t77 -5q85 0 112 16t61 92q7 4 17 2t14 -8q-17 -88 -42 -145q-63 3 -240 3h-104q-80 0 -143 -3q-6 3 -7 14t5 15l30 5q38 6 47 22.5t9 90.5v372q0 53 -5 75t-14.5 28.5t-36.5 10.5l-28 4q-5 4 -5 15t7 14q75 -3 141 -3
q67 0 133 3q7 -3 7.5 -14t-5.5 -15l-22 -4q-27 -5 -36.5 -11t-14.5 -28t-5 -75z" />
    <glyph glyph-name="M" unicode="M" horiz-adv-x="921" 
d="M847 31l29 -5q8 -3 7 -14.5t-9 -14.5q-65 3 -122 3q-68 0 -134 -3q-6 3 -7.5 13.5t5.5 15.5l27 5q30 5 36.5 18t6.5 64v409h-2l-60 -125l-86 -176q-69 -143 -102 -228q-3 -3 -12 -3t-14 3q-22 68 -83 202l-89 192q-35 76 -58 135h-2q-1 -21 -3 -83.5t-3 -85.5
q-4 -122 -4 -232q0 -53 6.5 -68t37.5 -21l33 -6q5 -4 5 -15t-6 -14q-55 3 -105 3q-49 0 -107 -3q-6 4 -7 14.5t4 14.5l17 2q35 4 46 19.5t16 62.5q7 61 15 232q10 170 10 212q0 35 -12.5 52t-41.5 22l-34 6q-5 5 -3.5 16t7.5 13q45 -3 94 -3q70 0 107 3q4 -60 55 -166
l110 -231q19 -41 47 -90q10 18 52 104l94 192l18.5 37t20 41l15.5 34.5t16 41t11 37.5q41 -3 82 -3q63 0 105 3q8 -3 9 -13.5t-6 -15.5l-33 -5q-33 -5 -43.5 -20.5t-10.5 -55.5q0 -254 9 -444q2 -48 11 -61t35 -17z" />
    <glyph glyph-name="N" unicode="N" horiz-adv-x="780" 
d="M669 409v-239q0 -153 3 -176q-12 -16 -34 -14q-22 28 -117 137l-234 267q-93 107 -114 126q-3 0 -3 -64v-195q0 -165 18 -197q12 -20 51 -25l22 -3q7 -5 6 -16t-8 -13q-55 3 -114 3q-51 0 -104 -3q-6 4 -7 14t5 15l22 5q37 8 44 23q13 31 13 197v237q0 64 -4.5 83
t-28.5 40q-14 12 -53 20l-15 3q-6 4 -4.5 15.5t8.5 13.5q28 -3 118 -3q33 0 69 3q11 -28 65.5 -95.5t95.5 -111.5l100 -108l51 -57l64.5 -71t29.5 -30q3 3 3 24v195q0 165 -19 197q-12 20 -50 25l-23 3q-7 5 -6 16t8 13q58 -3 115 -3q51 0 105 3q6 -4 7 -14t-5 -15l-23 -5
q-36 -8 -43 -23q-14 -31 -14 -197z" />
    <glyph glyph-name="O" unicode="O" horiz-adv-x="792" 
d="M400 676q165 0 257.5 -101.5t92.5 -246.5q0 -148 -100.5 -246t-251.5 -98q-163 0 -259.5 98.5t-96.5 238.5q0 154 100.5 254.5t257.5 100.5zM387 636q-86 0 -147.5 -69.5t-61.5 -216.5q0 -55 12.5 -109.5t38 -104.5t72 -81t107.5 -31q91 0 148.5 71.5t57.5 214.5
q0 59 -13.5 115t-40 104t-71.5 77.5t-102 29.5z" />
    <glyph glyph-name="P" unicode="P" horiz-adv-x="588" 
d="M119 144v366q0 72 -6.5 90t-36.5 22l-35 4q-5 5 -5 15t6 13q79 9 221 9q140 0 209 -40q85 -51 85 -150q0 -54 -23.5 -94t-59.5 -60.5t-72 -30t-69 -9.5q-17 0 -25 1q-5 4 -6 12.5t3 12.5q124 25 124 166q0 64 -38.5 108t-104.5 44q-37 0 -44 -6t-7 -36v-437
q0 -54 5 -76.5t14.5 -28.5t36.5 -9l37 -4q5 -5 4 -15.5t-6 -13.5q-89 3 -148 3q-69 0 -129 -3q-6 3 -6.5 13.5t4.5 15.5l16 2q27 3 36.5 10t14.5 29.5t5 76.5z" />
    <glyph glyph-name="Q" unicode="Q" horiz-adv-x="792" 
d="M400 676q84 0 152 -29t110.5 -78t65 -110.5t22.5 -130.5q0 -115 -62.5 -203t-163.5 -120q-9 -6 9 -21l68.5 -59t72 -51.5t80.5 -40.5q38 -11 72 -11q24 0 50 10q4 -2 6 -9t0 -11q-40 -31 -125 -31q-97 0 -195 51t-175 133q-21 21 -37 22q-135 11 -221.5 107.5
t-86.5 226.5q0 154 100.5 254.5t257.5 100.5zM387 636q-86 0 -147.5 -69.5t-61.5 -216.5q0 -55 12.5 -109.5t38 -104.5t72 -81t107.5 -31q91 0 148.5 71.5t57.5 214.5q0 59 -13.5 115t-40 104t-71.5 77.5t-102 29.5z" />
    <glyph glyph-name="R" unicode="R" horiz-adv-x="656" 
d="M119 144v366q0 74 -7 91.5t-41 21.5l-26 3q-5 5 -5 14.5t6 13.5q95 9 230 9q128 0 190 -34q88 -47 88 -146q0 -109 -120 -158q-8 -4 0 -17l73.5 -123t52 -77t51.5 -59q33 -28 69 -31q4 -3 4 -9.5t-2 -10.5q-24 -6 -66 -6q-70 0 -116 30t-93 102q-15 23 -42 71l-37 65
q-13 22 -24.5 28t-37.5 6q-22 0 -26.5 -3t-4.5 -19v-128q0 -54 5 -76.5t14.5 -29t36.5 -9.5l22 -3q5 -5 4.5 -15.5t-6.5 -13.5q-66 3 -133 3q-66 0 -135 -3q-6 3 -7 13.5t5 15.5l22 3q27 3 36.5 9.5t14.5 29t5 76.5zM235 574v-208q0 -24 6.5 -29t41.5 -5q143 0 143 143
q0 62 -37.5 105t-100.5 43q-38 0 -45.5 -7t-7.5 -42z" />
    <glyph glyph-name="S" unicode="S" horiz-adv-x="504" 
d="M231 -16q-94 0 -164 42q-13 16 -22 60.5t-8 91.5q4 7 14.5 8t16.5 -4q8 -23 21 -47t33.5 -50.5t51 -43.5t64.5 -17q56 0 87.5 30t31.5 77q0 88 -102 145l-43 24q-141 79 -141 193q0 78 57.5 130.5t162.5 52.5q18 0 37.5 -2t32 -4.5t34 -7.5t33.5 -7q8 -16 14.5 -57.5
t6.5 -77.5q-4 -7 -14.5 -7.5t-17.5 4.5q-34 119 -135 119q-56 0 -84.5 -30.5t-28.5 -74.5q0 -72 95 -122l62 -33q137 -72 137 -197q0 -87 -62.5 -141t-169.5 -54z" />
    <glyph glyph-name="T" unicode="T" horiz-adv-x="682" 
d="M286 144v432q0 32 -4 38t-23 6h-56q-71 0 -100 -16.5t-56 -75.5q-5 -5 -17 -2.5t-15 9.5q24 77 39 151q3 4 11 4q7 0 10 -4q4 -18 18.5 -22t68.5 -4h408q38 0 52.5 4.5t23.5 21.5q8 4 12 4q10 0 13 -5q-7 -31 -12 -83t-3 -76q-4 -6 -14 -7t-17 4q-10 60 -35 78.5
t-104 18.5h-57q-19 0 -23 -6t-4 -38v-432q0 -54 5 -76.5t14.5 -28.5t36.5 -9l36 -4q5 -5 4.5 -15.5t-6.5 -13.5q-87 3 -147 3q-59 0 -155 -3q-6 3 -6.5 14t4.5 15l42 5q27 3 36.5 9t14.5 28t5 76z" />
    <glyph glyph-name="U" unicode="U" horiz-adv-x="744" 
d="M113 262v254q0 54 -5 76.5t-14.5 28.5t-36.5 11l-17 3q-5 5 -4.5 15t6.5 13q60 -3 129 -3q68 0 134 3q6 -3 6.5 -13t-4.5 -15l-22 -3q-27 -3 -36.5 -10t-14.5 -29.5t-5 -76.5v-229q0 -254 181 -254q185 0 185 251v125q0 166 -19 197q-12 20 -50 26l-20 3q-7 5 -6 15.5
t8 12.5q51 -3 111 -3q51 0 106 3q6 -4 7 -13.5t-5 -14.5l-22 -5q-37 -8 -44 -24q-14 -30 -14 -197v-119q0 -160 -66 -231q-70 -75 -196 -75q-139 0 -206 64q-66 63 -66 214z" />
    <glyph glyph-name="V" unicode="V" horiz-adv-x="650" 
d="M505 372l-56 -124q-68 -151 -104 -259q-3 -5 -17 -5q-11 0 -19 5q-24 79 -46 131l-175 421q-22 52 -35 67.5t-42 21.5l-24 5q-6 5 -5 15.5t8 12.5q59 -3 121 -3q53 0 132 3q7 -5 7.5 -14.5t-6.5 -14.5l-25 -6q-30 -7 -30 -18t49 -133l72 -178q2 -6 55 -127
q123 286 167 400q12 30 9 40t-26 15l-29 7q-5 6 -4.5 15.5t6.5 13.5q61 -3 107 -3q55 0 97 3q6 -4 6 -13.5t-4 -15.5l-25 -5q-44 -9 -62 -41q-17 -28 -102 -216z" />
    <glyph glyph-name="W" unicode="W" horiz-adv-x="968" 
d="M1016 635l-24 -5q-34 -7 -51.5 -28.5t-46.5 -84.5l-53.5 -118.5l-54 -118.5l-44.5 -101.5l-45 -107.5q-7 -17 -17 -45t-15 -38q-6 -4 -17 -4q-13 0 -18 4q-13 38 -124 277q-82 -166 -127 -277q-6 -4 -17 -4q-13 0 -18 4q-18 51 -70 160l-193 409q-17 36 -30 50t-42 21
l-28 7q-5 4 -4.5 14t7.5 14q54 -3 121 -3q50 0 122 3q6 -4 7 -14t-4 -14l-25 -6q-23 -5 -23 -16q0 -13 24 -67l119 -258q56 -122 70 -144q24 45 67 139q14 30 14 38q0 11 -9 30l-105 222q-14 29 -25.5 40t-32.5 16l-29 6q-5 5 -4.5 14.5t7.5 13.5q61 -3 108 -3q59 0 119 3
q6 -3 6.5 -13.5t-4.5 -14.5l-27 -6q-17 -3 -17 -14q0 -12 9 -33q41 -93 68 -146q17 34 49 108q22 51 22 69q0 11 -20 15l-28 7q-5 6 -4 15.5t7 12.5q40 -3 93 -3q43 0 91 3q7 -4 7.5 -14.5t-5.5 -14.5l-25 -5q-27 -5 -40.5 -19t-38.5 -59q-9 -17 -69 -139q-10 -22 -10 -28
q0 -5 8 -24l43 -93l21 -46.5l22 -49t13 -27.5l158 378q31 75 31 93q0 2 -2 3.5t-5.5 3l-7 3t-10 3t-9.5 2.5l-17 5q-7 5 -6.5 14.5t7.5 13.5q56 -3 102 -3q49 0 96 3q6 -4 7 -12.5t-4 -15.5z" />
    <glyph glyph-name="X" unicode="X" horiz-adv-x="648" 
d="M29 627l-32 7q-6 6 -5 16t8 13q68 -3 130 -3q83 0 125 3q7 -3 7 -13.5t-5 -15.5l-19 -2q-33 -3 -33 -13q0 -11 25 -50q93 -141 114 -168q20 23 132 189q12 17 13 26q-2 6 -30 13l-22 5q-7 5 -6.5 15t8.5 14q58 -3 105 -3q43 0 97 3q7 -4 7.5 -13t-4.5 -16l-29 -6
q-29 -6 -47.5 -20.5t-52.5 -56.5q-77 -94 -122 -163q-15 -22 -15 -29q0 -9 16 -34q136 -198 168 -239q21 -28 40 -39.5t49 -16.5l25 -4q5 -4 5 -14.5t-7 -14.5q-72 3 -141 3q-67 0 -142 -3q-6 3 -7 13.5t5 15.5l36 7q21 5 21 13q0 12 -29 55l-17 25l-97 143
q-70 -93 -136 -198q-13 -20 -13 -29q0 -8 26 -12l26 -4q6 -5 5.5 -16t-7.5 -13q-51 3 -116 3q-51 0 -99 -3q-15 12 -4 29l27 5q33 6 55 20t50 50l138 182q15 20 15 29t-11 25l-149 222q-23 33 -40.5 48t-40.5 20z" />
    <glyph glyph-name="Y" unicode="Y" horiz-adv-x="590" 
d="M241 144v59q0 41 -5.5 62t-26.5 62l-120 237q-17 34 -30 45.5t-45 18.5l-26 6q-5 5 -3.5 16t7.5 13q64 -3 126 -3q93 0 128 3q6 -3 7 -13.5t-5 -15.5l-30 -5q-21 -4 -21 -13q0 -12 18 -52q74 -164 116 -240l117 221q27 54 27 67q0 12 -23 15l-30 7q-6 5 -5 15t8 14
q66 -3 105 -3q47 0 95 3q7 -4 7 -13.5t-5 -15.5l-29 -6q-32 -6 -50 -26t-59 -89q-28 -47 -95 -168q-23 -40 -30 -65.5t-7 -75.5v-60q0 -54 5 -76.5t15 -28.5t38 -9l38 -4q5 -5 4.5 -15.5t-6.5 -13.5q-93 3 -151 3q-64 0 -145 -3q-6 3 -6.5 13.5t4.5 15.5l32 4q27 3 36.5 9.5
t14.5 28.5t5 76z" />
    <glyph glyph-name="Z" unicode="Z" horiz-adv-x="638" 
d="M213 660h264q81 0 113 4q11 -3 9 -16q-27 -26 -153 -216l-162 -244q-3 -5 -14 -21.5l-21 -32l-21 -33t-17.5 -29.5t-6.5 -15q0 -13 32 -15q40 -2 116 -2q133 0 173 23q42 25 73 106q7 5 18.5 2t13.5 -10q-7 -49 -21 -97t-27 -67q-82 3 -185 3h-260q-78 0 -105 -3
q-10 4 -6 15q69 87 114 155l220 332q69 105 69 114q0 7 -34 7h-121q-114 0 -148 -34q-26 -26 -46 -76q-8 -5 -18.5 -3t-13.5 10l43 168q3 3 8.5 3t8.5 -3q5 -17 24 -21t81 -4z" />
    <glyph glyph-name="bracketleft" unicode="[" horiz-adv-x="320" 
d="M101 -152v840q28 1 73 1q86 0 118 -4q4 -5 4 -12.5t-4 -11.5l-89 -11q-23 -3 -29 -15q-9 -18 -9 -150v-434q0 -133 9 -151q6 -11 29 -14l89 -11q4 -4 4 -11.5t-4 -12.5q-32 -4 -118 -4q-45 0 -73 1z" />
    <glyph glyph-name="backslash" unicode="\" horiz-adv-x="329" 
d="M108 676l191 -692h-78l-191 692h78z" />
    <glyph glyph-name="bracketright" unicode="]" horiz-adv-x="320" 
d="M219 688v-840q-28 -1 -73 -1q-86 0 -118 4q-4 5 -4 12.5t4 11.5l89 11q23 3 29 15q9 18 9 150v434q0 133 -9 151q-6 11 -29 14l-89 11q-4 4 -4 11.5t4 12.5q32 4 118 4q45 0 73 -1z" />
    <glyph glyph-name="asciicircum" unicode="^" horiz-adv-x="510" 
d="M456 244h-76l-124 289l-124 -289h-77l171 382h60z" />
    <glyph glyph-name="underscore" unicode="_" horiz-adv-x="500" 
d="M500 -75v-50h-500v50h500z" />
    <glyph glyph-name="grave" unicode="`" 
d="M200 452l-130 146q-21 29 -21 39q0 16 31 32q32 12 39 12q19 0 32 -32l75 -184q-4 -16 -26 -13z" />
    <glyph glyph-name="a" unicode="a" horiz-adv-x="420" 
d="M350 283l-7 -156q-5 -88 48 -88q7 0 15 2.5t13 5.5t6 3q4 0 7.5 -7t1.5 -13q-14 -20 -44 -32t-56 -12q-47 0 -72 28q-12 12 -16 12t-27 -14q-41 -26 -85 -26q-48 0 -75 28.5t-27 68.5q0 31 17.5 53.5t65.5 39.5l110 40q23 8 23 26l1 26q4 95 -61 95q-47 0 -53 -44
q-3 -26 -19 -36q-28 -18 -64 -18q-19 0 -19 16q0 27 39 64q25 23 71.5 43t82.5 20q130 0 124 -125zM243 89l2 72q0 17 -8 17q-13 0 -44 -12q-26 -9 -40 -23.5t-14 -43.5q0 -22 15 -40t41 -18q46 0 48 48z" />
    <glyph glyph-name="b" unicode="b" horiz-adv-x="510" 
d="M175 562v-168q0 -18 8 -18q54 32 105 32q86 0 138.5 -56.5t52.5 -141.5q0 -103 -67.5 -163.5t-169.5 -60.5q-33 0 -63 7t-48.5 13.5t-21.5 6.5q-11 0 -25 -16q-2 -1 -7 -1q-10 0 -10 7q0 1 0.5 17t1.5 38.5t1 38.5v451q0 50 -3.5 63t-19.5 24l-14 9q-5 3 -5 12t5 11
q31 9 131 48q10 2 14 -8q-3 -60 -3 -145zM175 288v-128q0 -71 22 -100q25 -34 67 -34q49 0 76.5 41t27.5 107q0 84 -38.5 132t-94.5 48q-32 0 -49 -13q-11 -7 -11 -53z" />
    <glyph glyph-name="c" unicode="c" horiz-adv-x="400" 
d="M277 408q47 0 86 -14q20 -18 20 -51q0 -21 -8.5 -34t-16.5 -13q-10 0 -19 11q-46 61 -91 61q-46 0 -81 -41.5t-35 -108.5q0 -64 39 -111t104 -47q44 0 67 13.5t41 39.5q7 1 13.5 -4t7.5 -14q-25 -56 -73.5 -82.5t-102.5 -26.5q-83 0 -139 54q-58 56 -58 144
q0 93 65.5 158.5t180.5 65.5z" />
    <glyph glyph-name="d" unicode="d" horiz-adv-x="513" 
d="M440 562v-399q0 -122 24 -122q20 0 42 9q6 -5 6.5 -18t-7.5 -18q-93 -9 -158 -38q-9 2 -12 11l2 15q3 19 -1 28l-5 1q-61 -45 -115 -45q-83 0 -134 57t-51 135q0 104 71 167t169 63q35 0 58 -7q6 1 6 16v131q0 50 -3.5 63t-19.5 24l-14 9q-5 3 -5 12t5 11q37 11 131 48
q10 2 14 -8q-3 -60 -3 -145zM335 96v190q0 30 -13 48q-25 34 -67 34q-50 0 -80.5 -43t-30.5 -108q0 -76 35.5 -123.5t89.5 -47.5q17 0 34.5 7t24.5 15q7 7 7 28z" />
    <glyph glyph-name="e" unicode="e" horiz-adv-x="409" 
d="M318 237h-173q-14 0 -17.5 -2t-3.5 -11q0 -68 42.5 -115t108.5 -47q65 0 96 50q7 2 14 -3.5t8 -12.5q-24 -56 -71 -83t-98 -27q-86 0 -139.5 56.5t-53.5 143.5q0 90 57.5 156t153.5 66q60 0 105 -36.5t45 -98.5q0 -13 -5 -23q-9 -13 -69 -13zM146 277h91q37 0 49 7
q10 7 10 21q0 28 -17.5 46.5t-48.5 18.5q-44 0 -71 -31.5t-27 -54.5q0 -7 14 -7z" />
    <glyph glyph-name="f" unicode="f" horiz-adv-x="301" 
d="M312 347h-98q-15 0 -18 -4.5t-3 -26.5v-197q0 -56 6.5 -71t32.5 -18l39 -4q5 -5 4.5 -15.5t-6.5 -13.5q-67 3 -131 3q-46 0 -108 -3q-6 3 -6.5 13.5t4.5 15.5l22 3q25 4 31.5 19t6.5 71v198q0 21 -2.5 25.5t-15.5 4.5h-36q-6 3 -7 10.5t4 12.5l43 22q14 8 14 22v18
q0 80 21 143q20 62 69.5 101t117.5 39q51 0 82.5 -20.5t31.5 -52.5q0 -20 -15 -34t-34 -14t-29 14q-46 66 -78 66q-27 0 -44 -55t-17 -163v-30q0 -23 3 -27.5t19 -4.5h105q6 -4 6 -16q0 -22 -14 -31z" />
    <glyph glyph-name="g" unicode="g" horiz-adv-x="464" 
d="M461 320h-73q5 -17 5 -43q0 -69 -46.5 -117t-136.5 -48q-12 0 -38 4q-31 -16 -31 -39q0 -39 55 -39q13 0 50 1t60 1q32 0 56.5 -4t51 -15.5t41 -37t14.5 -64.5q0 -36 -19.5 -70t-43.5 -52q-81 -66 -194 -66q-96 0 -141.5 36t-45.5 82q0 25 14 43q5 5 30 22t32 23
q7 5 9.5 12t-3.5 10q-28 9 -47 32t-19 51q0 16 16 25q18 9 41 26.5t23 26.5t-4 11q-30 12 -52 43t-22 76q0 68 51.5 113t131.5 45q59 0 101 -21q32 -15 44 -15h98q8 -6 8 -18q0 -30 -16 -34zM277 -49h-57q-52 0 -68 -12q-30 -23 -30 -56q0 -45 36.5 -73t94.5 -28
q63 0 98 24.5t35 68.5q0 37 -30 56.5t-79 19.5zM154 268q0 -55 22 -86.5t52 -31.5t48 26t18 77q0 52 -20.5 84.5t-53.5 32.5q-28 0 -47 -26.5t-19 -75.5z" />
    <glyph glyph-name="h" unicode="h" horiz-adv-x="522" 
d="M182 562v-185q0 -17 9 -17q65 48 128 48t95.5 -37.5t32.5 -102.5v-149q0 -56 6.5 -71.5t31.5 -18.5l23 -3q7 -5 6 -15.5t-8 -13.5q-63 3 -113 3q-49 0 -102 -3q-6 3 -6.5 13.5t4.5 15.5l15 2q25 4 31.5 19.5t6.5 71.5v141q0 88 -80 88q-41 0 -68 -29q-12 -13 -12 -66
v-134q0 -56 6.5 -71.5t31.5 -19.5l15 -2q5 -5 4.5 -15.5t-6.5 -13.5q-52 3 -106 3q-45 0 -108 -3q-6 3 -6.5 13.5t4.5 15.5l22 3q25 4 31.5 19t6.5 71v429q0 50 -3.5 63t-19.5 24l-14 9q-5 3 -5 12t5 11q29 8 131 48q10 2 14 -8q-3 -60 -3 -145z" />
    <glyph glyph-name="i" unicode="i" horiz-adv-x="268" 
d="M193 292v-173q0 -56 6.5 -71t31.5 -19l18 -3q5 -5 4.5 -15.5t-6.5 -13.5q-55 3 -108 3q-48 0 -105 -3q-6 3 -6.5 13.5t4.5 15.5l18 3q25 4 31.5 19t6.5 71v147q0 37 -3.5 49t-21.5 23l-12 7q-2 3 -2 11t3 12q78 23 130 54q10 -2 14 -8q-3 -49 -3 -122zM140 500
q-27 0 -44 17t-17 43t17 43t44 17t44 -17t17 -43t-17 -43t-44 -17z" />
    <glyph glyph-name="j" unicode="j" horiz-adv-x="259" 
d="M192 292v-239q0 -108 -23 -161q-44 -102 -175 -161q-8 1 -12 9.5t-1 18.5q45 24 65 54q41 62 41 219v234q0 37 -3.5 49t-21.5 23l-12 7q-2 3 -2 11t3 12q78 23 130 54q10 -2 14 -8q-3 -49 -3 -122zM138 500q-27 0 -44 17t-17 43t17 43t44 17t44 -17t17 -43t-17 -43
t-44 -17z" />
    <glyph glyph-name="k" unicode="k" horiz-adv-x="484" 
d="M76 119v429q0 51 -3.5 64t-22.5 25l-11 7q-5 3 -5 12t5 11q31 9 131 48q10 2 14 -8q-3 -60 -3 -145v-317q0 -9 4 -11.5t18 -2.5q29 0 65 38l39 43q29 32 29 39q0 9 -16 10l-27 3q-7 5 -6.5 15.5t8.5 14.5h29q85 0 156 8q7 -3 7 -13.5t-5 -16.5l-18 -3q-43 -8 -73 -34
q-75 -67 -85 -77q-8 -10 0 -20q107 -150 143 -184q25 -23 57 -27l10 -1q5 -6 4 -16t-7 -13q-49 3 -111 3q-46 0 -108 -3q-7 4 -8 14t6 15l10 1q19 4 19 12t-12 24l-82 115q-14 20 -31 20q-9 0 -12 -5.5t-3 -25.5v-48q0 -56 6.5 -71t31.5 -19l22 -3q5 -5 4.5 -15.5
t-6.5 -13.5q-63 3 -113 3q-45 0 -107 -3q-6 3 -6.5 13.5t4.5 15.5l21 3q25 4 31.5 19t6.5 71z" />
    <glyph glyph-name="l" unicode="l" horiz-adv-x="258" 
d="M78 119v429q0 51 -3.5 64t-22.5 25l-11 7q-5 3 -5 12t5 11q37 11 131 48q10 2 14 -8q-3 -60 -3 -145v-443q0 -56 6.5 -71t31.5 -19l22 -3q5 -5 4.5 -15.5t-6.5 -13.5q-62 3 -112 3q-47 0 -108 -3q-6 3 -6.5 13.5t4.5 15.5l21 3q25 4 31.5 19t6.5 71z" />
    <glyph glyph-name="m" unicode="m" horiz-adv-x="798" 
d="M88 119v147q0 37 -3.5 49t-21.5 23l-12 7q-2 3 -2 11t3 12q66 18 130 54q9 0 13 -8q-2 -19 -2 -46q0 -8 9 -10q6 3 31.5 17.5t34.5 18.5t31 9t46 5q59 0 90 -42q10 -15 16 -15q5 0 22 10q76 47 128 47q61 0 91.5 -36.5t30.5 -97.5v-155q0 -56 6.5 -71t31.5 -19l22 -3
q6 -6 5 -15.5t-5 -13.5q-65 3 -114 3t-103 -3q-6 3 -6.5 13.5t4.5 15.5l16 3q25 4 31.5 19t6.5 71v136q0 93 -81 93q-43 0 -67 -30q-12 -14 -12 -52v-147q0 -56 6.5 -71.5t31.5 -19.5l15 -2q5 -5 4.5 -15.5t-6.5 -13.5q-53 3 -105 3q-50 0 -100 -3q-6 3 -6.5 13.5t4.5 15.5
l13 2q25 4 31.5 19.5t6.5 71.5v136q0 93 -76 93q-48 0 -71 -31q-9 -12 -11 -23t-2 -41v-134q0 -56 6.5 -71.5t31.5 -19.5l15 -2q5 -5 4.5 -15.5t-6.5 -13.5q-52 3 -106 3q-47 0 -104 -3q-6 3 -6.5 13.5t4.5 15.5l18 3q25 4 31.5 19t6.5 71z" />
    <glyph glyph-name="n" unicode="n" horiz-adv-x="533" 
d="M193 253v-134q0 -56 6.5 -71.5t31.5 -19.5l15 -2q5 -5 4.5 -15.5t-6.5 -13.5q-52 3 -106 3q-45 0 -108 -3q-6 3 -6.5 13.5t4.5 15.5l22 3q25 4 31.5 19t6.5 71v147q0 37 -3.5 49t-21.5 23l-12 7q-2 3 -2 11t3 12q67 19 130 54q9 0 13 -8q-2 -19 -2 -46q0 -8 9 -10
q8 4 25.5 14.5t26 14.5t23.5 10.5t29.5 8.5t32.5 2q59 0 89 -36.5t30 -97.5v-155q0 -56 6.5 -71.5t31.5 -18.5l23 -3q5 -5 4.5 -15.5t-6.5 -13.5q-63 3 -113 3t-102 -3q-6 3 -6.5 13.5t4.5 15.5l15 2q25 4 31.5 19.5t6.5 71.5v138q0 91 -80 91q-45 0 -66 -31
q-9 -13 -11.5 -24t-2.5 -40z" />
    <glyph glyph-name="o" unicode="o" horiz-adv-x="492" 
d="M250 408q88 0 149.5 -56t61.5 -150q0 -102 -62.5 -159t-156.5 -57q-90 0 -150.5 54.5t-60.5 149.5q0 98 64 158t155 60zM149 205q0 -74 27 -126.5t78 -52.5q47 0 68 46t21 113q0 72 -26 127.5t-77 55.5q-40 0 -65.5 -41.5t-25.5 -121.5z" />
    <glyph glyph-name="p" unicode="p" horiz-adv-x="516" 
d="M76 -136v402q0 37 -3.5 48t-21.5 23l-12 8q-3 4 -3 11.5t4 11.5q29 8 68 26t62 33q13 0 16 -10q-5 -30 -5 -39q0 -11 8 -13l17 9q17 9 31 15.5t36 12.5t40 6q79 0 125.5 -52.5t46.5 -132.5q0 -105 -67.5 -171t-177.5 -66q-26 0 -44 4q-15 -3 -15 -28v-98q0 -56 6.5 -71
t32.5 -18l36 -4q5 -5 4.5 -15.5t-6.5 -13.5q-78 3 -128 3q-52 0 -112 -3q-6 3 -6.5 13.5t4.5 15.5l26 3q25 3 31.5 18.5t6.5 71.5zM181 262v-152q0 -37 32 -64q24 -20 53 -20q50 0 78.5 46t28.5 118t-34.5 116t-92.5 44q-34 0 -54 -20q-11 -12 -11 -68z" />
    <glyph glyph-name="q" unicode="q" horiz-adv-x="503" 
d="M335 -130v98q0 42 -11 43q-15 -10 -41 -17.5t-45 -7.5q-58 0 -100.5 20t-64.5 51.5t-32 63t-10 61.5q0 101 72 163.5t176 62.5q48 0 86 -12q21 -7 36 -7q13 0 30 15q13 2 17 -8q-8 -27 -8 -121v-405q0 -57 6.5 -74t31.5 -21l36 -6q5 -4 4.5 -14t-6.5 -13q-83 3 -126 3
q-44 0 -112 -3q-6 3 -6.5 13t4.5 14l25 5q25 5 31.5 22t6.5 74zM335 66v184q0 58 -18 84q-21 34 -62 34q-43 0 -75 -40t-32 -113q0 -81 41.5 -128.5t102.5 -47.5q27 0 40 13q3 4 3 14z" />
    <glyph glyph-name="r" unicode="r" horiz-adv-x="349" 
d="M89 119v147q0 37 -3.5 49t-21.5 23l-12 7q-2 3 -2 11t3 12q79 26 126 54q11 0 14 -9q-2 -38 -2 -45q0 -12 10 -12q5 4 18 13.5t20.5 14.5t18.5 11.5t21 9.5t20 3q25 0 40 -14.5t15 -34.5q0 -27 -17 -42.5t-39 -15.5q-14 0 -27 8q-28 19 -48 19q-17 0 -23 -17t-6 -55v-137
q0 -56 6.5 -71t32.5 -18l39 -4q5 -5 4.5 -15.5t-6.5 -13.5q-90 3 -131 3q-47 0 -104 -3q-6 3 -6.5 13.5t4.5 15.5l18 3q25 4 31.5 19t6.5 71z" />
    <glyph glyph-name="s" unicode="s" horiz-adv-x="346" 
d="M163 -14q-71 0 -114 32q-18 34 -14 113q4 6 13.5 6.5t14.5 -4.5q15 -47 43 -78t65 -31q24 0 40 15t16 41q0 45 -68 78q-106 51 -106 126q-1 57 42 90.5t107 33.5q58 0 93 -20q15 -32 15 -97q-2 -6 -12 -8t-15 3q-12 36 -35 60t-51 24q-24 0 -40 -15t-16 -37q0 -36 67 -68
q33 -16 54 -30.5t39 -43t18 -65.5q0 -61 -45.5 -93t-110.5 -32z" />
    <glyph glyph-name="t" unicode="t" horiz-adv-x="321" 
d="M303 350h-95q-13 0 -16 -5t-3 -29v-154q0 -56 14.5 -87.5t58.5 -31.5q22 0 48 18q16 -2 13 -20q-16 -23 -50 -39t-77 -16q-66 0 -89 32.5t-23 92.5v203q0 26 -3 31t-15 5h-35q-8 4 -9 13t6 14q45 17 79 42q37 27 55 62q7 4 15.5 2.5t12.5 -7.5v-60q0 -13 2.5 -16t16.5 -3
h99q8 -4 8 -21q-2 -19 -13 -26z" />
    <glyph glyph-name="u" unicode="u" horiz-adv-x="520" 
d="M445 314v-167q0 -53 4.5 -79.5t20.5 -26.5q19 0 43 7q7 -3 6.5 -15.5t-9.5 -18.5q-109 -12 -164 -38q-7 1 -9 10q4 25 3 37q-1 11 -10 11q-81 -48 -136 -48q-65 0 -92 33.5t-27 99.5v156q0 52 -5 66t-24 19l-14 4q-5 4 -4.5 14t6.5 12q94 2 139 18q9 -2 10 -9
q-3 -18 -3 -85v-154q0 -53 17 -83.5t65 -30.5q39 0 66 25q12 12 12 56v151q0 46 -7 58.5t-37 21.5l-16 5q-5 4 -5 14t6 13q125 2 157 18q9 -2 10 -9q-3 -29 -3 -85z" />
    <glyph glyph-name="v" unicode="v" horiz-adv-x="434" 
d="M369 283l-79 -174q-28 -62 -47 -117q-6 -6 -17 -6q-10 0 -18 6q-17 47 -38 93l-96 217q-15 33 -27 45.5t-34 16.5l-19 4q-5 5 -4.5 15t6.5 14q52 -3 105 -3q57 0 110 3q7 -3 8 -13.5t-6 -15.5l-18 -3q-25 -4 -25 -11q0 -12 8 -32q48 -127 80 -191q16 33 74 174
q14 35 14 45t-21 13l-24 5q-6 6 -5 16t9 13q45 -3 84 -3q40 0 73 3q7 -3 7.5 -13.5t-5.5 -15.5l-20 -4q-25 -5 -39 -19t-36 -62z" />
    <glyph glyph-name="w" unicode="w" horiz-adv-x="684" 
d="M468 368l-18 -4q-25 -6 -25 -13q0 -8 6 -24q8 -23 84 -194q28 56 70 173q11 32 11 42t-19 13l-34 7q-6 5 -5 15.5t7 13.5q51 -3 82 -3t79 3q7 -3 7.5 -13t-4.5 -16l-19 -5q-21 -6 -31 -16.5t-25 -45.5l-61 -139q-36 -83 -68 -170q-6 -6 -17 -6q-10 0 -18 6
q-42 102 -119 272q-93 -199 -118 -272q-6 -6 -17 -6q-10 0 -18 6q-21 56 -50 121l-94 215q-8 16 -17 23.5t-29 12.5l-17 4q-5 6 -4 16t7 13q54 -3 106 -3q58 0 99 3q6 -3 6.5 -14t-4.5 -15l-17 -5q-24 -6 -24 -14q0 -5 11 -32l26 -65q2 -4 50 -119q9 19 36 80l28 66
q13 32 10 53q-6 15 -15 20.5t-29 10.5l-19 5q-6 4 -5 15t8 14q39 -3 97 -3t108 3q7 -3 8 -14t-6 -15z" />
    <glyph glyph-name="x" unicode="x" horiz-adv-x="439" 
d="M210 368l-19 -5q-19 -4 -19 -9q0 -7 8 -19q27 -40 55 -77q48 71 53 80q6 8 6 16q0 5 -17 10l-20 4q-7 5 -6 15.5t8 13.5q45 -3 90 -3q47 0 81 3q7 -4 8 -14t-6 -15l-27 -5q-30 -5 -45.5 -15t-36.5 -36l-47 -59q-15 -20 -15 -24q0 -6 13 -24l78 -110q30 -43 45 -53t55 -16
q4 -8 3.5 -16.5t-5.5 -12.5q-50 3 -113 3q-66 0 -114 -3q-7 3 -8 13.5t5 15.5l24 5q23 4 23 10q0 7 -11 23q-53 77 -60 86q-22 -30 -56 -85q-10 -17 -10 -25q0 -7 18 -10l23 -4q6 -6 5 -16t-7 -13q-75 3 -91 3q-46 0 -81 -3q-7 4 -8 14.5t6 14.5q37 5 55 11t30 21
q52 61 77 100q16 23 16 27q0 6 -18 29l-81 108q-18 25 -32 33t-48 13q-6 4 -5.5 15t7.5 14q57 -3 105 -3q57 0 106 3q7 -2 8 -13.5t-5 -15.5z" />
    <glyph glyph-name="y" unicode="y" horiz-adv-x="448" 
d="M72 -249q-27 0 -41 15t-14 38q0 43 51 45l22 1q29 2 42 20q49 70 49 125q0 31 -17 74l-81 210q-19 49 -30.5 64t-38.5 21l-20 4q-6 6 -5.5 16t8.5 13q49 -3 111 -3q55 0 106 3q6 -3 6.5 -13.5t-4.5 -15.5l-30 -6q-17 -4 -18.5 -12t11.5 -41l44 -115q28 -74 34 -76
q5 1 32 62l30 67q36 81 36 97q0 13 -19 17l-34 7q-5 6 -4.5 15.5t6.5 13.5q54 -3 95 -3q40 0 80 3q7 -2 8 -13t-5 -16q-47 -12 -57 -22q-21 -21 -61 -101l-51 -102q-123 -246 -165 -338q-24 -54 -76 -54z" />
    <glyph glyph-name="z" unicode="z" horiz-adv-x="390" 
d="M243 0h-90q-79 0 -121 -3q-10 4 -7 13q38 52 89 142l96 169q13 22 13 28q0 5 -22 5h-49q-51 0 -67 -14q-12 -10 -40 -60q-19 -9 -27 7q16 88 33 125q3 2 9 2t9 -2q3 -13 14 -15.5t52 -2.5h165q38 0 61 3q7 -3 7 -12q-34 -47 -72 -113l-111 -194q-14 -24 -14 -31t39 -7h33
q57 0 85 24q21 19 40 60q5 5 15 3t12 -8q-4 -30 -15.5 -68.5t-21.5 -53.5q-54 3 -115 3z" />
    <glyph glyph-name="braceleft" unicode="{" horiz-adv-x="320" 
d="M223 163q0 -35 -9.5 -103.5t-9.5 -101.5q0 -78 84 -93q10 -13 -2 -23q-151 0 -151 128q0 35 8 105.5t8 103.5q0 40 -15.5 56.5t-72.5 20.5q-5 4 -5 12t5 12q57 4 72.5 20.5t15.5 56.5q0 33 -8 103.5t-8 105.5q0 128 151 128q12 -10 2 -23q-84 -15 -84 -93
q0 -33 9.5 -101.5t9.5 -103.5q0 -84 -75 -103v-4q75 -19 75 -103z" />
    <glyph glyph-name="bar" unicode="|" horiz-adv-x="255" 
d="M165 750v-1000h-75v1000h75z" />
    <glyph glyph-name="braceright" unicode="}" horiz-adv-x="320" 
d="M97 373q0 35 9.5 103.5t9.5 101.5q0 78 -84 93q-10 13 2 23q151 0 151 -128q0 -35 -8 -105.5t-8 -103.5q0 -40 15.5 -56.5t72.5 -20.5q5 -4 5 -12t-5 -12q-57 -4 -72.5 -20.5t-15.5 -56.5q0 -33 8 -103.5t8 -105.5q0 -128 -151 -128q-12 10 -2 23q84 15 84 93
q0 33 -9.5 101.5t-9.5 103.5q0 84 75 103v4q-75 19 -75 103z" />
    <glyph glyph-name="asciitilde" unicode="~" horiz-adv-x="510" 
d="M178 236h140q59 0 79 23t30 47q25 8 41 -13q-9 -23 -27 -53t-32 -43q-23 -23 -73 -23h-134q-59 0 -87 -25q-15 -13 -35 -51q-11 -5 -22 -0.5t-16 14.5q26 73 54 98q15 17 32.5 21.5t49.5 4.5z" />
    <glyph glyph-name="exclamdown" unicode="&#xa1;" horiz-adv-x="280" 
d="M156 175l44 -340q5 -43 5 -64q0 -37 -64 -37q-65 0 -65 37q0 12 6 64l44 340q16 12 30 0zM141 394q28 0 46 -18t18 -46q0 -26 -18 -44t-46 -18t-46.5 18t-18.5 44q0 28 18.5 46t46.5 18z" />
    <glyph glyph-name="cent" unicode="&#xa2;" horiz-adv-x="510" 
d="M255 179l37 308q-51 -2 -89 -43t-38 -110q0 -51 22.5 -92.5t67.5 -62.5zM331 481l-37 -314q15 -3 33 -3q60 0 106 52q17 -2 20 -15q-21 -47 -66.5 -70t-99.5 -24l-13 -103q-7 -7 -20.5 -6.5t-19.5 6.5l13 104q-86 8 -137 60t-51 138t62.5 150t175.5 70l10 86q7 4 20.5 4
t19.5 -4l-10 -85q36 -1 78 -14q22 -24 22 -57q0 -16 -6 -27t-12 -11q-9 0 -19 10q-40 44 -69 53z" />
    <glyph glyph-name="sterling" unicode="&#xa3;" horiz-adv-x="510" 
d="M-1 337h85q11 0 13.5 1.5t1.5 7.5q-1 13 -1 40q0 112 70 183t171 71q37 0 59 -15q12 -11 12 -33q0 -21 -13 -39t-23 -18q-13 0 -24 10q-48 39 -88 39q-20 0 -36 -31t-16 -95q0 -43 6 -106q1 -10 4.5 -12.5t16.5 -2.5h139q7 -7 7 -20t-7 -20h-138q-14 0 -18 -2.5t-4 -11.5
q0 -117 -95 -173l1 -2q39 5 74 -1q33 -4 99 -38q56 -29 95 -29q22 0 25 14t-9 55q-5 18 3 28t22 10q19 0 33.5 -13.5t14.5 -41.5q0 -42 -49.5 -87t-110.5 -45q-48 0 -116 43q-77 48 -112 48q-13 0 -21.5 -12.5t-10.5 -25.5q-2 -9 -26 -18t-35 -9q-19 0 -19 18q0 26 50 65
q73 59 73 214q0 6 -0.5 8t-1.5 3t-6 1.5t-9 1.5h-86q-6 5 -6 19t6 21z" />
    <glyph glyph-name="currency" unicode="&#xa4;" horiz-adv-x="510" 
d="M256 469q-59 0 -102 -45.5t-43 -108.5q0 -65 43.5 -110.5t101.5 -45.5t101.5 46t43.5 110q0 63 -43.5 108.5t-101.5 45.5zM256 528q70 0 125 -40l41 51q18 -5 32.5 -19t16.5 -29l-45 -45q46 -56 46 -132t-46 -132l45 -45q-2 -15 -16.5 -29t-32.5 -19l-41 51
q-55 -40 -125 -40t-125 40l-41 -51q-18 5 -32.5 19t-16.5 29l45 45q-46 56 -46 132t46 132l-45 45q2 15 16.5 29t32.5 19l41 -51q55 40 125 40z" />
    <glyph glyph-name="yen" unicode="&#xa5;" horiz-adv-x="510" 
d="M459 319h-149v-75h149q6 -7 6 -19t-6 -19h-149v-72q0 -63 6.5 -81.5t31.5 -21.5l38 -5q5 -4 4.5 -15t-6.5 -14q-92 3 -132 3q-28 0 -118 -3q-6 3 -6.5 14t4.5 15l38 5q25 3 31.5 21.5t6.5 81.5v72h-150q-13 19 0 38h150v75h-150q-5 7 -5 19t5 19h139l-109 181
q-23 38 -33.5 48t-37.5 14l-20 3q-5 4 -4 15t6 13q62 -3 115 -3q69 0 114 3q6 -2 6.5 -12.5t-4.5 -15.5l-28 -9q-14 -3 -14 -13q0 -11 13 -33l47 -84q27 -49 46 -79q6 8 38 70l49 94q11 21 11 37q0 6 -22 11l-31 6q-5 4 -4 14t7 14q48 -3 93 -3q41 0 78 3q7 -2 7 -12t-5 -16
l-25 -4q-18 -3 -30.5 -16.5t-33.5 -49.5l-102 -176h135q14 -20 0 -38z" />
    <glyph glyph-name="brokenbar" unicode="&#xa6;" horiz-adv-x="255" 
d="M165 675v-350h-75v350h75zM165 175v-350h-75v350h75z" />
    <glyph glyph-name="section" unicode="&#xa7;" horiz-adv-x="506" 
d="M175 158q-66 55 -102 110t-36 126q0 64 36.5 129t103 109t142.5 44q44 0 64 -17t20 -36q0 -20 -13 -31t-31 -11q-10 0 -29 14q-47 33 -78 33q-21 0 -35 -13.5t-14 -33.5q0 -30 27 -66t108 -97q131 -99 131 -238q0 -70 -34 -139t-101 -117t-150 -48q-39 0 -62.5 16
t-23.5 42q0 18 12.5 30t30.5 12q13 0 35 -16q43 -33 79 -33q53 0 53 53q0 68 -133 178zM232 232q68 -58 96.5 -111.5t25.5 -118.5q60 45 60 126q0 109 -130 215q-79 65 -105.5 107.5t-26.5 110.5q-55 -42 -55 -107q0 -21 3 -37.5t14 -45.5t41 -64t77 -75z" />
    <glyph glyph-name="dieresis" unicode="&#xa8;" 
d="M105 490q-26 0 -42.5 14.5t-17.5 41.5q0 26 17 43.5t43 17.5q23 0 39.5 -17t16.5 -39q0 -27 -16 -44t-40 -17zM278 490q-26 0 -41.5 14.5t-16.5 41.5q-1 26 16 43.5t42 17.5t41 -17t16 -39q0 -28 -15.5 -44.5t-41.5 -16.5z" />
    <glyph glyph-name="copyright" unicode="&#xa9;" horiz-adv-x="800" 
d="M400 -16q-149 0 -249.5 100.5t-100.5 245.5t100.5 245.5t249.5 100.5t249.5 -100.5t100.5 -245.5t-100.5 -245.5t-249.5 -100.5zM400 633q-121 0 -204.5 -88t-83.5 -214q0 -127 83.5 -215.5t204.5 -88.5t204.5 88.5t83.5 215.5q0 126 -83.5 214t-204.5 88zM434 522
q43 0 118 -16q0 -23 7 -93q-10 -10 -23 -1q-19 81 -102 81q-57 0 -98.5 -42t-41.5 -118t42.5 -120.5t100.5 -44.5q31 0 55 14t34 28t22 37q5 4 12.5 3.5t10.5 -6.5q-6 -55 -26 -84q-10 -2 -20 -6q-45 -15 -90 -15q-91 0 -145 37q-80 55 -80 148t66 145.5t158 52.5z" />
    <glyph glyph-name="ordfeminine" unicode="&#xaa;" horiz-adv-x="354" 
d="M204 430l1 15q2 24 -9.5 42t-36.5 18q-37 0 -40 -32q-3 -22 -17 -30q-20 -13 -51 -13q-19 0 -19 17q0 21 31 48q21 17 57 31t69 14q101 0 101 -82q0 -12 -3 -56t-3 -66q0 -55 31 -55q15 0 30 9q6 -1 9 -6t0 -12q-11 -13 -35 -22.5t-44 -9.5q-37 0 -57 19q-10 10 -16 10
q-3 0 -21 -12q-32 -17 -61 -17q-42 0 -65 21.5t-23 49.5q0 26 12 41t47 26q80 26 88 29q25 9 25 23zM199 313l2 51q0 16 -7 16q-12 0 -29 -5q-46 -13 -46 -48q0 -17 11.5 -30t31.5 -13q35 0 37 29z" />
    <glyph glyph-name="guillemotleft" unicode="&#xab;" horiz-adv-x="421" 
d="M211 367l-72 -148q-7 -13 0 -26l72 -150q-4 -11 -18 -14q-89 105 -140 160q-14 17 0 33l140 159q14 -2 18 -14zM376 367l-72 -148q-6 -13 0 -26l72 -150q-4 -11 -18 -14q-89 105 -140 160q-14 17 0 33l140 159q14 -2 18 -14z" />
    <glyph glyph-name="logicalnot" unicode="&#xac;" horiz-adv-x="510" 
d="M373 82v167h-310v63h385v-230h-75z" />
    <glyph glyph-name="registered" unicode="&#xae;" horiz-adv-x="332" 
d="M119 515v59q0 20 -13 21h-5q-1 3 -0.5 7t2.5 5q48 2 63 2q57 0 57 -36q0 -21 -21 -29q-3 -1 0 -8q20 -36 29 -41q7 -5 10 -6q1 0 1 -3.5t-1 -4.5q-6 -1 -16 -1q-26 0 -42 22q-3 5 -8.5 15t-7.5 12q-3 6 -10 6q-4 0 -4 -5v-15q0 -9 0.5 -12.5t3.5 -6t9 -3.5l4 -1
q2 -1 2 -5.5t-2 -5.5q-6 0 -16.5 0.5t-17.5 0.5t-17.5 -0.5t-15.5 -0.5q-2 1 -2.5 5.5t0.5 5.5l5 1q9 2 11 5.5t2 16.5zM153 586v-32q0 -5 1.5 -6t9.5 -1q19 0 19 21q0 26 -18 26q-12 0 -12 -8zM166 677q56 0 96 -39t40 -94t-40 -94t-96 -39t-96 39t-40 94t40 94t96 39z
M166 654q-42 0 -73 -32t-31 -78q0 -45 31 -77t73 -32q43 0 73.5 31.5t30.5 77.5t-30.5 78t-73.5 32z" />
    <glyph glyph-name="macron" unicode="&#xaf;" 
d="M309 512h-238q-7 10 -7 33t7 33h238q7 -10 7 -33t-7 -33z" />
    <glyph glyph-name="macron" unicode="&#x2c9;" 
d="M309 512h-238q-7 10 -7 33t7 33h238q7 -10 7 -33t-7 -33z" />
    <glyph glyph-name="degree" unicode="&#xb0;" horiz-adv-x="400" 
d="M200 640q59 0 100 -38t41 -98q0 -62 -40.5 -98.5t-100.5 -36.5t-100.5 36.5t-40.5 98.5q0 60 41 98t100 38zM200 599q-34 0 -55.5 -26.5t-21.5 -68.5q0 -41 21.5 -67.5t55.5 -26.5t55.5 26.5t21.5 67.5q0 42 -21.5 68.5t-55.5 26.5z" />
    <glyph glyph-name="plusminus" unicode="&#xb1;" horiz-adv-x="510" 
d="M448 63v-63h-386v63h386zM293 98h-75v141h-156v63h156v134h75v-134h155v-63h-155v-141z" />
    <glyph glyph-name="twosuperior" unicode="&#xb2;" 
d="M183 383h68q32 0 49 6t30 28q14 7 23 -4q-16 -63 -37 -100q-52 2 -102 2h-102q-43 0 -67 -2q-8 7 -5 16q36 29 99 92q84 82 84 162q0 32 -18.5 53t-47.5 21q-52 0 -85 -62q-8 -3 -15.5 1.5t-7.5 12.5q48 99 147 99q61 0 95.5 -31t34.5 -80q0 -36 -24 -69.5t-78 -77.5
l-28 -23q-33 -27 -33 -33q0 -11 20 -11z" />
    <glyph glyph-name="threesuperior" unicode="&#xb3;" 
d="M105 276q-28 0 -49 11t-21 36q0 13 10 25t28 12q6 0 11.5 -2t9 -4t7.5 -7t6 -7t5 -8l4 -5q12 -16 31 -16q28 0 56.5 30.5t28.5 78.5q0 38 -20 64t-52 26q-35 0 -66 -27q-9 5 -13.5 14.5t-0.5 16.5q2 1 16.5 6.5l21 8t21 9.5t22 12t18.5 13t16.5 15.5t10 17.5t4.5 20
q0 21 -13.5 35.5t-36.5 14.5q-45 0 -79 -54q-7 -2 -13 2t-7 12q19 39 55.5 60.5t80.5 21.5q49 0 77.5 -21.5t28.5 -53.5q0 -43 -78 -76q-7 -3 1 -7q3 -2 7 -2q42 -1 73 -27t31 -72q0 -71 -79 -124q-74 -49 -153 -49z" />
    <glyph glyph-name="acute" unicode="&#xb4;" horiz-adv-x="360" 
d="M308 594l-142 -143q-23 -2 -26 15l93 181q16 31 35 31q13 0 41 -16q25 -14 25 -32q0 -4 -2.5 -9t-5 -8t-9.5 -9.5t-9 -9.5z" />
    <glyph glyph-name="mu" unicode="&#xb5;" horiz-adv-x="522" 
d="M447 314v-167q0 -53 4.5 -80t20.5 -27q22 0 43 6q6 -4 6.5 -16t-7.5 -18q-108 -15 -166 -36q-7 1 -9 10q4 25 3 37q-1 11 -10 11q-81 -48 -135 -48q-29 0 -47 12q-12 0 -12 -22v-55q0 -32 21 -74.5t21 -49.5q0 -22 -27.5 -44t-54.5 -22q-23 0 -23 31v513q0 52 -5 66
t-24 19l-14 4q-5 4 -4.5 14t6.5 12q94 2 139 18q9 -2 10 -9q-3 -18 -3 -85v-154q0 -53 17 -83.5t66 -30.5q40 0 67 25q12 12 12 56v151q0 46 -7 58.5t-37 21.5l-16 5q-5 4 -5 14t6 13q125 2 157 18q9 -2 10 -9q-3 -29 -3 -85z" />
    <glyph glyph-name="mu" unicode="&#x3bc;" horiz-adv-x="522" 
d="M447 314v-167q0 -53 4.5 -80t20.5 -27q22 0 43 6q6 -4 6.5 -16t-7.5 -18q-108 -15 -166 -36q-7 1 -9 10q4 25 3 37q-1 11 -10 11q-81 -48 -135 -48q-29 0 -47 12q-12 0 -12 -22v-55q0 -32 21 -74.5t21 -49.5q0 -22 -27.5 -44t-54.5 -22q-23 0 -23 31v513q0 52 -5 66
t-24 19l-14 4q-5 4 -4.5 14t6.5 12q94 2 139 18q9 -2 10 -9q-3 -18 -3 -85v-154q0 -53 17 -83.5t66 -30.5q40 0 67 25q12 12 12 56v151q0 46 -7 58.5t-37 21.5l-16 5q-5 4 -5 14t6 13q125 2 157 18q9 -2 10 -9q-3 -29 -3 -85z" />
    <glyph glyph-name="paragraph" unicode="&#xb6;" horiz-adv-x="520" 
d="M387 452v-435q0 -110 -30 -166t-110 -56q-39 0 -68.5 20t-29.5 61q0 35 30 56q22 1 41 -9.5t24 -24.5q-13 -13 -13 -34q0 -14 9.5 -23.5t22.5 -9.5q26 0 49 27.5t23 97.5v143q0 36 -27 36q-103 0 -173 57t-70 147q0 103 74.5 157t197.5 54q103 0 141 -7q7 -3 7.5 -13
t-6.5 -14l-39 -6q-37 -6 -45 -15t-8 -43z" />
    <glyph glyph-name="periodcentered" unicode="&#xb7;" horiz-adv-x="255" 
d="M128 139q-28 0 -47 19t-19 47t19 47t47 19t46.5 -19t18.5 -47t-18.5 -47t-46.5 -19z" />
    <glyph glyph-name="periodcentered" unicode="&#x2219;" horiz-adv-x="255" 
d="M128 139q-28 0 -47 19t-19 47t19 47t47 19t46.5 -19t18.5 -47t-18.5 -47t-46.5 -19z" />
    <glyph glyph-name="cedilla" unicode="&#xb8;" 
d="M211 0h40l-34 -45q-4 -5 -4 -8t2.5 -5t9.5 -6q52 -28 52 -71q0 -35 -31.5 -57.5t-74.5 -22.5q-63 0 -63 38q0 12 7.5 20t19.5 8q11 0 29 -16t26 -16t15.5 8t7.5 21q0 33 -64 60l-3 6z" />
    <glyph glyph-name="onesuperior" unicode="&#xb9;" 
d="M148 405v186q0 19 -1 27.5t-8 17t-22 9.5l-30 3q-6 2 -6.5 12t4.5 13q37 5 86.5 16.5t61.5 17.5q8 2 10 -3q-2 -44 -2 -105v-194q0 -41 6 -52t32 -13l24 -2q5 -4 4.5 -13t-5.5 -12q-54 2 -107 2q-54 0 -108 -2q-5 3 -5.5 12t4.5 13l20 2q29 3 35.5 13.5t6.5 51.5z" />
    <glyph glyph-name="ordmasculine" unicode="&#xba;" horiz-adv-x="387" 
d="M196 540q70 0 114.5 -40.5t44.5 -108.5q0 -72 -46.5 -111.5t-116.5 -39.5q-68 0 -114 38t-46 105q0 73 48.5 115t115.5 42zM129 405q0 -58 18 -95.5t50 -37.5t46.5 28t14.5 70q0 138 -69 138q-27 0 -43.5 -26.5t-16.5 -76.5z" />
    <glyph glyph-name="guillemotright" unicode="&#xbb;" horiz-adv-x="421" 
d="M117 219l-72 148q4 12 18 14l140 -159q14 -16 0 -33q-51 -55 -140 -160q-14 3 -18 14l72 150q7 13 0 26zM282 219l-72 148q4 12 18 14l140 -159q14 -16 0 -33q-51 -55 -140 -160q-14 3 -18 14l72 150q6 13 0 26z" />
    <glyph glyph-name="onequarter" unicode="&#xbc;" horiz-adv-x="860" 
d="M149 337v186q0 19 -1 27.5t-8 17t-22 9.5l-30 3q-6 2 -6.5 12t4.5 13q37 5 86.5 16.5t61.5 17.5q8 2 10 -3q-2 -44 -2 -105v-194q0 -41 6 -52t32 -13l24 -2q5 -4 4.5 -13t-5.5 -12q-54 2 -107 2q-54 0 -108 -2q-5 3 -5.5 12t4.5 13l20 2q29 3 35.5 13.5t6.5 51.5z
M618 114h-149q-10 8 -7 19l207 280q10 13 20 13h26q18 0 5 -17l-194 -248q-11 -14 6 -14h86q10 0 12 3t2 15v84q0 16 18 21q52 19 63 19q12 0 12 -10v-114q0 -12 2.5 -15t12.5 -3h46q8 -4 8 -16.5t-8 -16.5h-46q-10 0 -12.5 -3t-2.5 -15v-6q0 -40 6 -50t32 -15l12 -2
q5 -4 4.5 -13t-5.5 -12q-50 2 -95 2q-44 0 -108 -2q-5 3 -5.5 12t4.5 13l20 2q29 3 35.5 13.5t6.5 51.5v6q0 12 -2 15t-12 3zM653 628l-414 -668q-15 -1 -26 6.5t-15 19.5l414 668q13 2 26.5 -6t14.5 -20z" />
    <glyph glyph-name="onehalf" unicode="&#xbd;" horiz-adv-x="860" 
d="M129 337v186q0 19 -1 27.5t-8 17t-22 9.5l-30 3q-6 2 -6.5 12t4.5 13q37 5 86.5 16.5t61.5 17.5q8 2 10 -3q-2 -44 -2 -105v-194q0 -41 6 -52t32 -13l24 -2q5 -4 4.5 -13t-5.5 -12q-54 2 -107 2q-54 0 -108 -2q-5 3 -5.5 12t4.5 13l20 2q29 3 35.5 13.5t6.5 51.5z
M628 628l-414 -668q-15 -1 -26 6.5t-15 19.5l414 668q13 2 26.5 -6t14.5 -20zM633 68h68q32 0 49 6t30 28q14 7 23 -4q-16 -63 -37 -100q-52 2 -102 2h-102q-43 0 -67 -2q-8 7 -5 16q36 29 99 92q84 82 84 162q0 32 -18.5 53t-47.5 21q-52 0 -85 -62q-8 -3 -15.5 1.5
t-7.5 12.5q48 99 147 99q61 0 95.5 -31t34.5 -80q0 -36 -24 -69.5t-78 -77.5l-28 -23q-33 -27 -33 -33q0 -11 20 -11z" />
    <glyph glyph-name="threequarters" unicode="&#xbe;" horiz-adv-x="860" 
d="M117 208q-28 0 -49 11t-21 36q0 13 10 25t28 12q6 0 11.5 -2t9 -4t7.5 -7t6 -7t5 -8l4 -5q12 -16 31 -16q28 0 56.5 30.5t28.5 78.5q0 38 -20 64t-52 26q-35 0 -66 -27q-9 5 -13.5 14.5t-0.5 16.5q2 1 16.5 6.5l21 8t21 9.5t22 12t18.5 13t16.5 15.5t10 17.5t4.5 20
q0 21 -13.5 35.5t-36.5 14.5q-45 0 -79 -54q-7 -2 -13 2t-7 12q19 39 55.5 60.5t80.5 21.5q49 0 77.5 -21.5t28.5 -53.5q0 -43 -78 -76q-7 -3 1 -7q3 -2 7 -2q42 -1 73 -27t31 -72q0 -71 -79 -124q-74 -49 -153 -49zM667 628l-414 -668q-15 -1 -26 6.5t-15 19.5l414 668
q13 2 26.5 -6t14.5 -20zM633 114h-149q-10 8 -7 19l207 280q10 13 20 13h26q18 0 5 -17l-194 -248q-11 -14 6 -14h86q10 0 12 3t2 15v84q0 16 18 21q52 19 63 19q12 0 12 -10v-114q0 -12 2.5 -15t12.5 -3h46q7 -4 7 -16.5t-7 -16.5h-46q-10 0 -12.5 -3t-2.5 -15v-6
q0 -40 6 -50t32 -15l12 -2q5 -4 4.5 -13t-5.5 -12q-50 2 -95 2q-44 0 -108 -2q-5 3 -5.5 12t4.5 13l20 2q29 3 35.5 13.5t6.5 51.5v6q0 12 -2 15t-12 3z" />
    <glyph glyph-name="questiondown" unicode="&#xbf;" horiz-adv-x="330" 
d="M230 -266q-75 0 -130 68.5t-55 140.5q0 77 64 107l54 26q47 22 47 50q0 26 -9 50q4 7 12.5 9t15.5 -3q43 -62 43 -110q0 -53 -69 -84l-56 -25q-49 -22 -49 -58q0 -39 36.5 -54.5t104.5 -15.5q14 0 30.5 -13.5t16.5 -37.5q0 -22 -15.5 -36t-40.5 -14zM204 394q28 0 47 -19
t19 -47t-19 -47t-47 -19t-46.5 19t-18.5 47t18.5 47t46.5 19z" />
    <glyph glyph-name="Agrave" unicode="&#xc0;" horiz-adv-x="627" 
d="M341 245h-133q-19 0 -23 -3t-11 -24l-41 -120q-14 -44 -11 -53t32 -14l29 -5q5 -5 4.5 -15.5t-6.5 -13.5q-11 1 -106 3q-47 0 -99 -3q-5 4 -5.5 13t4.5 16l30 5q22 4 33 13t22 33q10 21 49 122l137 356q22 58 19 73q15 3 32 15t27 23l11 10q11 0 17 -8q8 -23 22.5 -69
t22.5 -68l144 -419q17 -51 29 -63.5t50 -19.5l15 -3q6 -5 6 -15t-5 -14q-62 3 -130 3q-17 0 -122 -3q-6 4 -7 14.5t4 14.5l22 3q27 4 32 12.5t-6 40.5l-47 136q-6 19 -12.5 23t-28.5 4zM224 290h104q22 0 26 4t-2 22l-42 120q-26 76 -28 79h-2q-4 -7 -30 -79l-42 -117
q-7 -22 -4.5 -25.5t20.5 -3.5zM377 706l-194 67q-26 9 -33 24q-4 12 14 43q17 28 33 28q9 0 32 -16l161 -118q2 -7 -2.5 -17t-10.5 -11z" />
    <glyph glyph-name="Aacute" unicode="&#xc1;" horiz-adv-x="627" 
d="M341 245h-133q-19 0 -23 -3t-11 -24l-41 -120q-14 -44 -11 -53t32 -14l29 -5q5 -5 4.5 -15.5t-6.5 -13.5q-11 1 -106 3q-47 0 -99 -3q-5 4 -5.5 13t4.5 16l30 5q22 4 33 13t22 33q10 21 49 122l137 356q22 58 19 73q15 3 32 15t27 23l11 10q11 0 17 -8q8 -23 22.5 -69
t22.5 -68l144 -419q17 -51 29 -63.5t50 -19.5l15 -3q6 -5 6 -15t-5 -14q-62 3 -130 3q-17 0 -122 -3q-6 4 -7 14.5t4 14.5l22 3q27 4 32 12.5t-6 40.5l-47 136q-6 19 -12.5 23t-28.5 4zM224 290h104q22 0 26 4t-2 22l-42 120q-26 76 -28 79h-2q-4 -7 -30 -79l-42 -117
q-7 -22 -4.5 -25.5t20.5 -3.5zM463 773l-194 -67q-6 1 -10.5 10.5t-2.5 17.5l162 118q22 16 31 16q16 0 33 -28q18 -31 14 -43q-7 -15 -33 -24z" />
    <glyph glyph-name="Acircumflex" unicode="&#xc2;" horiz-adv-x="627" 
d="M341 245h-133q-19 0 -23 -3t-11 -24l-41 -120q-14 -44 -11 -53t32 -14l29 -5q5 -5 4.5 -15.5t-6.5 -13.5q-11 1 -106 3q-47 0 -99 -3q-5 4 -5.5 13t4.5 16l30 5q22 4 33 13t22 33q10 21 49 122l137 356q22 58 19 73q15 3 32 15t27 23l11 10q11 0 17 -8q8 -23 22.5 -69
t22.5 -68l144 -419q17 -51 29 -63.5t50 -19.5l15 -3q6 -5 6 -15t-5 -14q-62 3 -130 3q-17 0 -122 -3q-6 4 -7 14.5t4 14.5l22 3q27 4 32 12.5t-6 40.5l-47 136q-6 19 -12.5 23t-28.5 4zM224 290h104q22 0 26 4t-2 22l-42 120q-26 76 -28 79h-2q-4 -7 -30 -79l-42 -117
q-7 -22 -4.5 -25.5t20.5 -3.5zM345 844l135 -127q0 -6 -5.5 -15t-9.5 -10l-127 65q-17 8 -34 -1l-125 -64q-6 0 -12 9t-6 16l135 123q24 23 49 4z" />
    <glyph glyph-name="Atilde" unicode="&#xc3;" horiz-adv-x="627" 
d="M341 245h-133q-19 0 -23 -3t-11 -24l-41 -120q-14 -44 -11 -53t32 -14l29 -5q5 -5 4.5 -15.5t-6.5 -13.5q-11 1 -106 3q-47 0 -99 -3q-5 4 -5.5 13t4.5 16l30 5q22 4 33 13t22 33q10 21 49 122l137 356q22 58 19 73q15 3 32 15t27 23l11 10q11 0 17 -8q8 -23 22.5 -69
t22.5 -68l144 -419q17 -51 29 -63.5t50 -19.5l15 -3q6 -5 6 -15t-5 -14q-62 3 -130 3q-17 0 -122 -3q-6 4 -7 14.5t4 14.5l22 3q27 4 32 12.5t-6 40.5l-47 136q-6 19 -12.5 23t-28.5 4zM224 290h104q22 0 26 4t-2 22l-42 120q-26 76 -28 79h-2q-4 -7 -30 -79l-42 -117
q-7 -22 -4.5 -25.5t20.5 -3.5zM294 807h57q40 0 60 15q15 9 26 32q3 2 12 0.5t12 -4.5q-7 -25 -20.5 -53t-23.5 -38q-22 -22 -56 -22h-63q-47 0 -62 -18q-14 -9 -30 -41q-18 -2 -22 6q3 18 16 50t25 46q25 27 69 27z" />
    <glyph glyph-name="Adieresis" unicode="&#xc4;" horiz-adv-x="627" 
d="M341 245h-133q-19 0 -23 -3t-11 -24l-41 -120q-14 -44 -11 -53t32 -14l29 -5q5 -5 4.5 -15.5t-6.5 -13.5q-11 1 -106 3q-47 0 -99 -3q-5 4 -5.5 13t4.5 16l30 5q22 4 33 13t22 33q10 21 49 122l137 356q22 58 19 73q15 3 32 15t27 23l11 10q11 0 17 -8q8 -23 22.5 -69
t22.5 -68l144 -419q17 -51 29 -63.5t50 -19.5l15 -3q6 -5 6 -15t-5 -14q-62 3 -130 3q-17 0 -122 -3q-6 4 -7 14.5t4 14.5l22 3q27 4 32 12.5t-6 40.5l-47 136q-6 19 -12.5 23t-28.5 4zM224 290h104q22 0 26 4t-2 22l-42 120q-26 76 -28 79h-2q-4 -7 -30 -79l-42 -117
q-7 -22 -4.5 -25.5t20.5 -3.5zM232 705q-24 0 -40.5 14t-17.5 40q0 25 16.5 42t41.5 17q24 0 40 -16t16 -38q0 -27 -16 -43t-40 -16zM417 705q-24 0 -40.5 14t-17.5 40q0 25 16.5 42t41.5 17q23 0 39.5 -16t16.5 -38q0 -27 -16 -43t-40 -16z" />
    <glyph glyph-name="Aring" unicode="&#xc5;" horiz-adv-x="627" 
d="M341 245h-133q-19 0 -23 -3t-11 -24l-41 -120q-14 -44 -11 -53t32 -14l29 -5q5 -5 4.5 -15.5t-6.5 -13.5q-11 1 -106 3q-47 0 -99 -3q-5 4 -5.5 13t4.5 16l30 5q22 4 33 13t22 33q10 21 49 122l137 356q22 58 19 73q15 3 32 15t27 23l11 10q11 0 17 -8q8 -23 22.5 -69
t22.5 -68l144 -419q17 -51 29 -63.5t50 -19.5l15 -3q6 -5 6 -15t-5 -14q-62 3 -130 3q-17 0 -122 -3q-6 4 -7 14.5t4 14.5l22 3q27 4 32 12.5t-6 40.5l-47 136q-6 19 -12.5 23t-28.5 4zM224 290h104q22 0 26 4t-2 22l-42 120q-26 76 -28 79h-2q-4 -7 -30 -79l-42 -117
q-7 -22 -4.5 -25.5t20.5 -3.5zM226 791q0 37 27.5 65t70.5 28t70.5 -28t27.5 -65q0 -38 -27.5 -66.5t-70.5 -28.5t-70.5 28.5t-27.5 66.5zM277 791q0 -27 12.5 -44t34.5 -17t34.5 17t12.5 44q0 26 -12.5 42.5t-34.5 16.5t-34.5 -16.5t-12.5 -42.5z" />
    <glyph glyph-name="AE" unicode="&#xc6;" horiz-adv-x="846" 
d="M389 144v142q0 24 -6 29t-35 5h-94q-23 0 -29.5 -4.5t-17.5 -26.5q-77 -156 -105 -221q-13 -30 15 -34l53 -8q5 -6 4 -15.5t-7 -13.5q-54 3 -114 3q-43 0 -98 -3q-7 4 -7.5 13.5t4.5 15.5l29 5q21 4 34 16.5t33 51.5q227 426 253 479q14 28 14 35q0 8 -18 11l-57 10
q-7 5 -6.5 15t7.5 14q57 -3 142 -3h252q115 0 135 3q2 -9 7.5 -64.5t8.5 -74.5q-3 -6 -14.5 -7.5t-17.5 3.5q-12 44 -25.5 64t-37.5 27q-35 9 -80 9h-67q-32 0 -37.5 -8t-5.5 -51v-170q0 -19 3.5 -22.5t20.5 -3.5h48q68 0 86 6.5t25 37.5l7 34q6 5 17 5t15 -6
q-3 -81 -3 -100q0 -9 3 -105q-4 -5 -15 -5.5t-17 4.5l-7 40q-5 30 -24 37t-87 7h-48q-17 0 -20.5 -4t-3.5 -23v-127q0 -85 17 -104q10 -11 32 -16t81 -6q63 0 97.5 11t50.5 31.5t36 65.5q7 5 17.5 3t14.5 -9q-5 -32 -18.5 -78.5t-23.5 -66.5q-66 3 -247 3h-110
q-82 0 -150 -3q-6 3 -6.5 13.5t4.5 15.5l37 4q27 3 36.5 9t14.5 28.5t5 76.5zM262 365h86q29 0 35 5t6 29v167q0 44 -5 54h-4q-8 -10 -21 -34l-106 -205q-3 -6 -4 -9t2 -5t11 -2z" />
    <glyph glyph-name="Ccedilla" unicode="&#xc7;" horiz-adv-x="694" 
d="M346 -96l61 82q-129 4 -223 65q-142 93 -142 275q0 168 126 265q112 85 276 85q87 0 173 -22q7 -2 16.5 -4t11.5 -2q13 -147 14 -156q-5 -6 -16 -6.5t-16 4.5q-39 146 -194 146q-105 0 -180 -75.5t-75 -219.5q0 -150 78 -233.5t184 -83.5q145 0 209 149q7 6 16.5 4.5
t13.5 -8.5q-5 -46 -20 -90.5t-28 -61.5q-5 -1 -35 -9q-65 -22 -145 -23l-26 -35q-6 -8 -4.5 -11.5t13.5 -9.5q57 -31 57 -79q0 -39 -35 -64t-82 -25q-33 0 -52 11t-19 31q0 13 8.5 22t21.5 9t33 -17.5t29 -17.5t17 8.5t8 23.5q0 36 -71 67z" />
    <glyph glyph-name="Egrave" unicode="&#xc8;" horiz-adv-x="580" 
d="M119 144v372q0 54 -5 76.5t-14.5 29.5t-36.5 10l-16 2q-5 5 -4.5 15.5t6.5 13.5q57 -3 129 -3h191q116 0 135 3q2 -9 7.5 -64.5t8.5 -74.5q-3 -6 -14.5 -7.5t-17.5 3.5q-12 44 -25.5 64t-37.5 27q-35 9 -80 9h-67q-32 0 -37.5 -8t-5.5 -51v-169q0 -19 3.5 -23t20.5 -4h48
q68 0 86 6.5t25 37.5l7 34q6 5 17 5t15 -6q-3 -81 -3 -100q0 -9 3 -105q-4 -5 -15 -5.5t-17 4.5l-7 40q-5 30 -24 37t-87 7h-48q-17 0 -20.5 -4t-3.5 -23v-127q0 -85 17 -104q10 -11 32 -16t81 -6q63 0 97.5 11t50.5 31.5t36 65.5q7 5 17.5 3t14.5 -9q-5 -32 -18.5 -78.5
t-23.5 -66.5q-66 3 -247 3h-114q-83 0 -150 -3q-6 3 -6.5 13.5t4.5 15.5l37 4q27 3 36.5 9t14.5 28.5t5 76.5zM345 706l-194 67q-26 9 -33 24q-4 12 14 43q17 28 33 28q9 0 32 -16l161 -118q2 -7 -2.5 -17t-10.5 -11z" />
    <glyph glyph-name="Eacute" unicode="&#xc9;" horiz-adv-x="580" 
d="M119 144v372q0 54 -5 76.5t-14.5 29.5t-36.5 10l-16 2q-5 5 -4.5 15.5t6.5 13.5q57 -3 129 -3h191q116 0 135 3q2 -9 7.5 -64.5t8.5 -74.5q-3 -6 -14.5 -7.5t-17.5 3.5q-12 44 -25.5 64t-37.5 27q-35 9 -80 9h-67q-32 0 -37.5 -8t-5.5 -51v-169q0 -19 3.5 -23t20.5 -4h48
q68 0 86 6.5t25 37.5l7 34q6 5 17 5t15 -6q-3 -81 -3 -100q0 -9 3 -105q-4 -5 -15 -5.5t-17 4.5l-7 40q-5 30 -24 37t-87 7h-48q-17 0 -20.5 -4t-3.5 -23v-127q0 -85 17 -104q10 -11 32 -16t81 -6q63 0 97.5 11t50.5 31.5t36 65.5q7 5 17.5 3t14.5 -9q-5 -32 -18.5 -78.5
t-23.5 -66.5q-66 3 -247 3h-114q-83 0 -150 -3q-6 3 -6.5 13.5t4.5 15.5l37 4q27 3 36.5 9t14.5 28.5t5 76.5zM459 773l-194 -67q-6 1 -10.5 10.5t-2.5 17.5l162 118q22 16 31 16q16 0 33 -28q18 -31 14 -43q-7 -15 -33 -24z" />
    <glyph glyph-name="Ecircumflex" unicode="&#xca;" horiz-adv-x="580" 
d="M119 144v372q0 54 -5 76.5t-14.5 29.5t-36.5 10l-16 2q-5 5 -4.5 15.5t6.5 13.5q57 -3 129 -3h191q116 0 135 3q2 -9 7.5 -64.5t8.5 -74.5q-3 -6 -14.5 -7.5t-17.5 3.5q-12 44 -25.5 64t-37.5 27q-35 9 -80 9h-67q-32 0 -37.5 -8t-5.5 -51v-169q0 -19 3.5 -23t20.5 -4h48
q68 0 86 6.5t25 37.5l7 34q6 5 17 5t15 -6q-3 -81 -3 -100q0 -9 3 -105q-4 -5 -15 -5.5t-17 4.5l-7 40q-5 30 -24 37t-87 7h-48q-17 0 -20.5 -4t-3.5 -23v-127q0 -85 17 -104q10 -11 32 -16t81 -6q63 0 97.5 11t50.5 31.5t36 65.5q7 5 17.5 3t14.5 -9q-5 -32 -18.5 -78.5
t-23.5 -66.5q-66 3 -247 3h-114q-83 0 -150 -3q-6 3 -6.5 13.5t4.5 15.5l37 4q27 3 36.5 9t14.5 28.5t5 76.5zM331 859l135 -127q0 -6 -5 -15t-10 -10l-126 65q-18 9 -35 0l-125 -65q-6 0 -12 9t-6 16l137 127q24 22 47 0z" />
    <glyph glyph-name="Edieresis" unicode="&#xcb;" horiz-adv-x="580" 
d="M119 144v372q0 54 -5 76.5t-14.5 29.5t-36.5 10l-16 2q-5 5 -4.5 15.5t6.5 13.5q57 -3 129 -3h191q116 0 135 3q2 -9 7.5 -64.5t8.5 -74.5q-3 -6 -14.5 -7.5t-17.5 3.5q-12 44 -25.5 64t-37.5 27q-35 9 -80 9h-67q-32 0 -37.5 -8t-5.5 -51v-169q0 -19 3.5 -23t20.5 -4h48
q68 0 86 6.5t25 37.5l7 34q6 5 17 5t15 -6q-3 -81 -3 -100q0 -9 3 -105q-4 -5 -15 -5.5t-17 4.5l-7 40q-5 30 -24 37t-87 7h-48q-17 0 -20.5 -4t-3.5 -23v-127q0 -85 17 -104q10 -11 32 -16t81 -6q63 0 97.5 11t50.5 31.5t36 65.5q7 5 17.5 3t14.5 -9q-5 -32 -18.5 -78.5
t-23.5 -66.5q-66 3 -247 3h-114q-83 0 -150 -3q-6 3 -6.5 13.5t4.5 15.5l37 4q27 3 36.5 9t14.5 28.5t5 76.5zM220 705q-24 0 -40.5 14t-17.5 40q0 25 16.5 42t41.5 17q23 0 39.5 -16.5t16.5 -37.5q0 -26 -16 -42.5t-40 -16.5zM405 705q-25 0 -41 14t-17 40q0 25 16.5 42
t41.5 17q23 0 39.5 -16t16.5 -38q0 -27 -16 -43t-40 -16z" />
    <glyph glyph-name="Igrave" unicode="&#xcc;" horiz-adv-x="354" 
d="M235 516v-372q0 -54 5 -76.5t14.5 -29t36.5 -9.5l22 -3q5 -5 4.5 -15.5t-6.5 -13.5q-66 3 -133 3q-69 0 -135 -3q-6 3 -6.5 13.5t4.5 15.5l22 3q27 3 36.5 9.5t14.5 29t5 76.5v372q0 54 -5 76.5t-14.5 29t-36.5 9.5l-22 3q-5 5 -4.5 15.5t6.5 13.5q66 -3 135 -3
q67 0 133 3q6 -3 6.5 -13.5t-4.5 -15.5l-22 -3q-27 -3 -36.5 -9.5t-14.5 -29t-5 -76.5zM230 706l-194 67q-26 9 -33 24q-4 12 14 43q17 28 33 28q9 0 32 -16l161 -118q2 -7 -2.5 -17t-10.5 -11z" />
    <glyph glyph-name="Iacute" unicode="&#xcd;" horiz-adv-x="354" 
d="M235 516v-372q0 -54 5 -76.5t14.5 -29t36.5 -9.5l22 -3q5 -5 4.5 -15.5t-6.5 -13.5q-66 3 -133 3q-69 0 -135 -3q-6 3 -6.5 13.5t4.5 15.5l22 3q27 3 36.5 9.5t14.5 29t5 76.5v372q0 54 -5 76.5t-14.5 29t-36.5 9.5l-22 3q-5 5 -4.5 15.5t6.5 13.5q66 -3 135 -3
q67 0 133 3q6 -3 6.5 -13.5t-4.5 -15.5l-22 -3q-27 -3 -36.5 -9.5t-14.5 -29t-5 -76.5zM326 773l-194 -67q-6 1 -10.5 10.5t-2.5 17.5l162 118q22 16 31 16q16 0 33 -28q18 -31 14 -43q-7 -15 -33 -24z" />
    <glyph glyph-name="Icircumflex" unicode="&#xce;" horiz-adv-x="354" 
d="M235 516v-372q0 -54 5 -76.5t14.5 -29t36.5 -9.5l22 -3q5 -5 4.5 -15.5t-6.5 -13.5q-66 3 -133 3q-69 0 -135 -3q-6 3 -6.5 13.5t4.5 15.5l22 3q27 3 36.5 9.5t14.5 29t5 76.5v372q0 54 -5 76.5t-14.5 29t-36.5 9.5l-22 3q-5 5 -4.5 15.5t6.5 13.5q66 -3 135 -3
q67 0 133 3q6 -3 6.5 -13.5t-4.5 -15.5l-22 -3q-27 -3 -36.5 -9.5t-14.5 -29t-5 -76.5zM209 859l135 -127q0 -6 -5 -15t-10 -10l-126 65q-18 9 -37 -1l-123 -64q-6 0 -12 9t-6 16l137 127q24 22 47 0z" />
    <glyph glyph-name="Idieresis" unicode="&#xcf;" horiz-adv-x="354" 
d="M235 516v-372q0 -54 5 -76.5t14.5 -29t36.5 -9.5l22 -3q5 -5 4.5 -15.5t-6.5 -13.5q-66 3 -133 3q-69 0 -135 -3q-6 3 -6.5 13.5t4.5 15.5l22 3q27 3 36.5 9.5t14.5 29t5 76.5v372q0 54 -5 76.5t-14.5 29t-36.5 9.5l-22 3q-5 5 -4.5 15.5t6.5 13.5q66 -3 135 -3
q67 0 133 3q6 -3 6.5 -13.5t-4.5 -15.5l-22 -3q-27 -3 -36.5 -9.5t-14.5 -29t-5 -76.5zM95 705q-25 0 -41 14t-17 40q0 25 16.5 42t41.5 17q23 0 39.5 -16t16.5 -38q0 -27 -16 -43t-40 -16zM280 705q-24 0 -40.5 14t-17.5 40q0 25 16.5 42t41.5 17q24 0 40 -16t16 -38
q0 -27 -16 -43t-40 -16z" />
    <glyph glyph-name="Eth" unicode="&#xd0;" horiz-adv-x="790" 
d="M125 144v178h-89q-6 8 -6 22.5t6 22.5h89v143q0 75 -7 93t-41 21l-21 2q-5 4 -5 14t6 14q108 9 250 9q141 0 236 -34q93 -34 149 -112t56 -187q0 -88 -45 -165.5t-134 -122.5q-95 -48 -248 -48q-33 0 -81 3t-64 3q-61 0 -127 -3q-6 3 -6.5 13.5t4.5 15.5l22 3
q27 3 36.5 9.5t14.5 29t5 76.5zM241 535v-168h139q6 -8 6 -22.5t-6 -22.5h-139v-139q0 -83 20 -116t93 -33q128 0 193 81t65 214q0 144 -76 219t-206 75q-65 0 -81 -14q-8 -7 -8 -74z" />
    <glyph glyph-name="Ntilde" unicode="&#xd1;" horiz-adv-x="780" 
d="M669 409v-239q0 -153 3 -176q-12 -16 -34 -14q-22 28 -117 137l-234 267q-93 107 -114 126q-3 0 -3 -64v-195q0 -165 18 -197q12 -20 51 -25l22 -3q7 -5 6 -16t-8 -13q-55 3 -114 3q-51 0 -104 -3q-6 4 -7 14t5 15l22 5q37 8 44 23q13 31 13 197v237q0 64 -4.5 83
t-28.5 40q-14 12 -53 20l-15 3q-6 4 -4.5 15.5t8.5 13.5q28 -3 118 -3q33 0 69 3q11 -28 65.5 -95.5t95.5 -111.5l100 -108l51 -57l64.5 -71t29.5 -30q3 3 3 24v195q0 165 -19 197q-12 20 -50 25l-23 3q-7 5 -6 16t8 13q58 -3 115 -3q51 0 105 3q6 -4 7 -14t-5 -15l-23 -5
q-36 -8 -43 -23q-14 -31 -14 -197zM375 807h57q40 0 60 15q15 9 26 32q3 2 12 0.5t12 -4.5q-7 -25 -20.5 -53t-23.5 -38q-22 -22 -56 -22h-63q-47 0 -62 -18q-14 -9 -30 -41q-18 -2 -22 6q3 18 16 50t25 46q25 27 69 27z" />
    <glyph glyph-name="Ograve" unicode="&#xd2;" horiz-adv-x="792" 
d="M400 676q165 0 257.5 -101.5t92.5 -246.5q0 -148 -100.5 -246t-251.5 -98q-163 0 -259.5 98.5t-96.5 238.5q0 154 100.5 254.5t257.5 100.5zM387 636q-86 0 -147.5 -69.5t-61.5 -216.5q0 -55 12.5 -109.5t38 -104.5t72 -81t107.5 -31q91 0 148.5 71.5t57.5 214.5
q0 59 -13.5 115t-40 104t-71.5 77.5t-102 29.5zM444 706l-194 67q-26 9 -33 24q-4 12 14 43q17 28 33 28q9 0 32 -16l161 -118q2 -7 -2.5 -17t-10.5 -11z" />
    <glyph glyph-name="Oacute" unicode="&#xd3;" horiz-adv-x="792" 
d="M400 676q165 0 257.5 -101.5t92.5 -246.5q0 -148 -100.5 -246t-251.5 -98q-163 0 -259.5 98.5t-96.5 238.5q0 154 100.5 254.5t257.5 100.5zM387 636q-86 0 -147.5 -69.5t-61.5 -216.5q0 -55 12.5 -109.5t38 -104.5t72 -81t107.5 -31q91 0 148.5 71.5t57.5 214.5
q0 59 -13.5 115t-40 104t-71.5 77.5t-102 29.5zM535 773l-194 -67q-6 1 -10.5 10.5t-2.5 17.5l162 118q22 16 31 16q16 0 33 -28q18 -31 14 -43q-7 -15 -33 -24z" />
    <glyph glyph-name="Ocircumflex" unicode="&#xd4;" horiz-adv-x="792" 
d="M400 676q165 0 257.5 -101.5t92.5 -246.5q0 -148 -100.5 -246t-251.5 -98q-163 0 -259.5 98.5t-96.5 238.5q0 154 100.5 254.5t257.5 100.5zM387 636q-86 0 -147.5 -69.5t-61.5 -216.5q0 -55 12.5 -109.5t38 -104.5t72 -81t107.5 -31q91 0 148.5 71.5t57.5 214.5
q0 59 -13.5 115t-40 104t-71.5 77.5t-102 29.5zM432 859l135 -127q0 -6 -5 -15t-10 -10l-126 64q-18 9 -35 0l-125 -64q-6 0 -12 9t-6 16l137 127q23 22 47 0z" />
    <glyph glyph-name="Otilde" unicode="&#xd5;" horiz-adv-x="792" 
d="M400 676q165 0 257.5 -101.5t92.5 -246.5q0 -148 -100.5 -246t-251.5 -98q-163 0 -259.5 98.5t-96.5 238.5q0 154 100.5 254.5t257.5 100.5zM387 636q-86 0 -147.5 -69.5t-61.5 -216.5q0 -55 12.5 -109.5t38 -104.5t72 -81t107.5 -31q91 0 148.5 71.5t57.5 214.5
q0 59 -13.5 115t-40 104t-71.5 77.5t-102 29.5zM381 812h57q40 0 60 15q15 9 26 32q3 2 12 0.5t12 -4.5q-7 -25 -20.5 -53t-23.5 -38q-22 -22 -56 -22h-63q-47 0 -62 -18q-14 -9 -30 -41q-18 -2 -22 6q3 18 16 50t25 46q25 27 69 27z" />
    <glyph glyph-name="Odieresis" unicode="&#xd6;" horiz-adv-x="792" 
d="M400 676q165 0 257.5 -101.5t92.5 -246.5q0 -148 -100.5 -246t-251.5 -98q-163 0 -259.5 98.5t-96.5 238.5q0 154 100.5 254.5t257.5 100.5zM387 636q-86 0 -147.5 -69.5t-61.5 -216.5q0 -55 12.5 -109.5t38 -104.5t72 -81t107.5 -31q91 0 148.5 71.5t57.5 214.5
q0 59 -13.5 115t-40 104t-71.5 77.5t-102 29.5zM294 705q-24 0 -40.5 14t-17.5 40q0 25 16.5 42t41.5 17q24 0 40 -16t16 -38q0 -27 -16 -43t-40 -16zM519 705q-25 0 -41 14t-17 40q0 25 16.5 42t41.5 17q23 0 39.5 -16t16.5 -38q0 -27 -16 -43t-40 -16z" />
    <glyph glyph-name="multiply" unicode="&#xd7;" horiz-adv-x="510" 
d="M441 338l-137 -139l137 -138l-48 -50l-138 138l-137 -138l-48 50l136 137l-136 137l48 50l137 -137l138 139z" />
    <glyph glyph-name="Oslash" unicode="&#xd8;" horiz-adv-x="792" 
d="M563 523l-310 -423q61 -76 155 -76q91 0 148.5 71.5t57.5 214.5q0 126 -51 213zM227 139l310 423q-61 74 -150 74q-86 0 -147.5 -69.5t-61.5 -216.5q0 -121 49 -211zM671 668l-46 -62q61 -47 93 -120t32 -158q0 -148 -100.5 -246t-251.5 -98q-110 0 -194 49l-57 -77
q-31 4 -34 29l54 73q-60 47 -92.5 116t-32.5 147q0 154 100.5 254.5t257.5 100.5q107 0 188 -45l49 65q15 -3 25 -10t9 -18z" />
    <glyph glyph-name="Ugrave" unicode="&#xd9;" horiz-adv-x="744" 
d="M113 262v254q0 54 -5 76.5t-14.5 28.5t-36.5 11l-17 3q-5 5 -4.5 15t6.5 13q60 -3 129 -3q68 0 134 3q6 -3 6.5 -13t-4.5 -15l-22 -3q-27 -3 -36.5 -10t-14.5 -29.5t-5 -76.5v-229q0 -254 181 -254q185 0 185 251v125q0 166 -19 197q-12 20 -50 26l-20 3q-7 5 -6 15.5
t8 12.5q51 -3 111 -3q51 0 106 3q6 -4 7 -13.5t-5 -14.5l-22 -5q-37 -8 -44 -24q-14 -30 -14 -197v-119q0 -160 -66 -231q-70 -75 -196 -75q-139 0 -206 64q-66 63 -66 214zM465 706l-194 67q-26 9 -33 24q-4 12 14 43q17 28 33 28q9 0 32 -16l161 -118q2 -7 -2.5 -17
t-10.5 -11z" />
    <glyph glyph-name="Uacute" unicode="&#xda;" horiz-adv-x="744" 
d="M113 262v254q0 54 -5 76.5t-14.5 28.5t-36.5 11l-17 3q-5 5 -4.5 15t6.5 13q60 -3 129 -3q68 0 134 3q6 -3 6.5 -13t-4.5 -15l-22 -3q-27 -3 -36.5 -10t-14.5 -29.5t-5 -76.5v-229q0 -254 181 -254q185 0 185 251v125q0 166 -19 197q-12 20 -50 26l-20 3q-7 5 -6 15.5
t8 12.5q51 -3 111 -3q51 0 106 3q6 -4 7 -13.5t-5 -14.5l-22 -5q-37 -8 -44 -24q-14 -30 -14 -197v-119q0 -160 -66 -231q-70 -75 -196 -75q-139 0 -206 64q-66 63 -66 214zM541 773l-194 -67q-6 1 -10.5 10.5t-2.5 17.5l162 118q22 16 31 16q16 0 33 -28q18 -31 14 -43
q-7 -15 -33 -24z" />
    <glyph glyph-name="Ucircumflex" unicode="&#xdb;" horiz-adv-x="744" 
d="M113 262v254q0 54 -5 76.5t-14.5 28.5t-36.5 11l-17 3q-5 5 -4.5 15t6.5 13q60 -3 129 -3q68 0 134 3q6 -3 6.5 -13t-4.5 -15l-22 -3q-27 -3 -36.5 -10t-14.5 -29.5t-5 -76.5v-229q0 -254 181 -254q185 0 185 251v125q0 166 -19 197q-12 20 -50 26l-20 3q-7 5 -6 15.5
t8 12.5q51 -3 111 -3q51 0 106 3q6 -4 7 -13.5t-5 -14.5l-22 -5q-37 -8 -44 -24q-14 -30 -14 -197v-119q0 -160 -66 -231q-70 -75 -196 -75q-139 0 -206 64q-66 63 -66 214zM425 859l135 -127q0 -6 -5 -15t-10 -10l-126 69q-17 10 -35 0l-125 -69q-6 0 -12 9t-6 16l137 127
q24 22 47 0z" />
    <glyph glyph-name="Udieresis" unicode="&#xdc;" horiz-adv-x="744" 
d="M113 262v254q0 54 -5 76.5t-14.5 28.5t-36.5 11l-17 3q-5 5 -4.5 15t6.5 13q60 -3 129 -3q68 0 134 3q6 -3 6.5 -13t-4.5 -15l-22 -3q-27 -3 -36.5 -10t-14.5 -29.5t-5 -76.5v-229q0 -254 181 -254q185 0 185 251v125q0 166 -19 197q-12 20 -50 26l-20 3q-7 5 -6 15.5
t8 12.5q51 -3 111 -3q51 0 106 3q6 -4 7 -13.5t-5 -14.5l-22 -5q-37 -8 -44 -24q-14 -30 -14 -197v-119q0 -160 -66 -231q-70 -75 -196 -75q-139 0 -206 64q-66 63 -66 214zM298 705q-24 0 -40.5 14t-17.5 40q0 25 16.5 42t41.5 17q24 0 40 -16t16 -38q0 -27 -16 -43
t-40 -16zM503 705q-25 0 -41 14t-17 40q0 25 16.5 42t41.5 17q23 0 39.5 -16t16.5 -38q0 -27 -16 -43t-40 -16z" />
    <glyph glyph-name="Yacute" unicode="&#xdd;" horiz-adv-x="590" 
d="M241 144v59q0 41 -5.5 62t-26.5 62l-120 237q-17 34 -30 45.5t-45 18.5l-26 6q-5 5 -3.5 16t7.5 13q64 -3 126 -3q93 0 128 3q6 -3 7 -13.5t-5 -15.5l-30 -5q-21 -4 -21 -13q0 -12 18 -52q74 -164 116 -240l117 221q27 54 27 67q0 12 -23 15l-30 7q-6 5 -5 15t8 14
q66 -3 105 -3q47 0 95 3q7 -4 7 -13.5t-5 -15.5l-29 -6q-32 -6 -50 -26t-59 -89q-28 -47 -95 -168q-23 -40 -30 -65.5t-7 -75.5v-60q0 -54 5 -76.5t15 -28.5t38 -9l38 -4q5 -5 4.5 -15.5t-6.5 -13.5q-93 3 -151 3q-64 0 -145 -3q-6 3 -6.5 13.5t4.5 15.5l32 4q27 3 36.5 9.5
t14.5 28.5t5 76zM464 773l-194 -67q-6 1 -10.5 10.5t-2.5 17.5l162 118q22 16 31 16q16 0 33 -28q18 -31 14 -43q-7 -15 -33 -24z" />
    <glyph glyph-name="Thorn" unicode="&#xde;" horiz-adv-x="582" 
d="M235 527h89q106 0 166.5 -47.5t60.5 -129.5q0 -84 -64 -130t-153 -46h-22q-4 4 -4.5 12t3.5 13q58 12 86.5 52t28.5 96q0 62 -34 101t-101 39q-40 0 -48 -6.5t-8 -32.5v-304q0 -54 5 -76t14.5 -28.5t36.5 -9.5l34 -4q5 -5 4.5 -15.5t-6.5 -13.5q-84 3 -145 3
q-69 0 -135 -3q-6 3 -6.5 13.5t4.5 15.5l22 3q27 3 36.5 9.5t14.5 29t5 76.5v372q0 76 -9 92.5t-47 23.5l-22 4q-5 4 -4.5 14t6.5 13q66 -3 135 -3q67 0 133 3q6 -3 6.5 -13t-4.5 -14l-22 -4q-37 -6 -46.5 -21.5t-9.5 -83.5z" />
    <glyph glyph-name="germandbls" unicode="&#xdf;" horiz-adv-x="555" 
d="M193 413v-294q0 -52 8 -69t38 -22l12 -2q5 -5 4.5 -15.5t-6.5 -13.5q-37 3 -111 3q-45 0 -108 -3q-6 3 -6.5 13.5t4.5 15.5l15 2q30 4 37.5 21t7.5 70v201q0 21 -2.5 25.5t-15.5 4.5h-36q-6 3 -7 10.5t4 12.5l43 22q14 8 14 19q0 96 32 163q30 60 83 99t128 39
q82 0 125 -41t43 -99q0 -18 -2 -30.5t-11.5 -26l-12.5 -17.5t-21.5 -20t-21.5 -19l-18 -17q-36 -35 -36 -73q0 -17 11.5 -36.5t24 -32t34.5 -31.5q24 -21 38.5 -37t29 -44t14.5 -56q0 -72 -48.5 -110.5t-114.5 -38.5q-42 0 -65.5 13.5t-23.5 49.5q0 16 7.5 28t20.5 12
q8 0 35.5 -31.5t51.5 -31.5q17 0 33.5 13.5t16.5 42.5q0 42 -69 98q-83 69 -83 135q0 13 3.5 27t7.5 23t13.5 23.5l13 19.5t15.5 19.5t13 15.5q45 56 45 112q0 54 -26.5 87t-64.5 33q-53 0 -84.5 -72t-31.5 -190z" />
    <glyph glyph-name="agrave" unicode="&#xe0;" horiz-adv-x="420" 
d="M350 283l-7 -156q-5 -88 48 -88q7 0 15 2.5t13 5.5t6 3q4 0 7.5 -7t1.5 -13q-14 -20 -44 -32t-56 -12q-47 0 -72 28q-12 12 -16 12t-27 -14q-41 -26 -85 -26q-48 0 -75 28.5t-27 68.5q0 31 17.5 53.5t65.5 39.5l110 40q23 8 23 26l1 26q4 95 -61 95q-47 0 -53 -44
q-3 -26 -19 -36q-28 -18 -64 -18q-19 0 -19 16q0 27 39 64q25 23 71.5 43t82.5 20q130 0 124 -125zM243 89l2 72q0 17 -8 17q-13 0 -44 -12q-26 -9 -40 -23.5t-14 -43.5q0 -22 15 -40t41 -18q46 0 48 48zM225 447l-115 146q-22 27 -22 39q0 14 24 31q26 13 36 13
q17 0 30 -32l72 -184q-4 -16 -25 -13z" />
    <glyph glyph-name="aacute" unicode="&#xe1;" horiz-adv-x="420" 
d="M350 283l-7 -156q-5 -88 48 -88q7 0 15 2.5t13 5.5t6 3q4 0 7.5 -7t1.5 -13q-14 -20 -44 -32t-56 -12q-47 0 -72 28q-12 12 -16 12t-27 -14q-41 -26 -85 -26q-48 0 -75 28.5t-27 68.5q0 31 17.5 53.5t65.5 39.5l110 40q23 8 23 26l1 26q4 95 -61 95q-47 0 -53 -44
q-3 -26 -19 -36q-28 -18 -64 -18q-19 0 -19 16q0 27 39 64q25 23 71.5 43t82.5 20q130 0 124 -125zM243 89l2 72q0 17 -8 17q-13 0 -44 -12q-26 -9 -40 -23.5t-14 -43.5q0 -22 15 -40t41 -18q46 0 48 48zM323 584l-128 -143q-21 -2 -24 14l85 182q15 31 31 31q11 0 37 -16
q24 -17 24 -32q0 -13 -25 -36z" />
    <glyph glyph-name="acircumflex" unicode="&#xe2;" horiz-adv-x="420" 
d="M350 283l-7 -156q-5 -88 48 -88q7 0 15 2.5t13 5.5t6 3q4 0 7.5 -7t1.5 -13q-14 -20 -44 -32t-56 -12q-47 0 -72 28q-12 12 -16 12t-27 -14q-41 -26 -85 -26q-48 0 -75 28.5t-27 68.5q0 31 17.5 53.5t65.5 39.5l110 40q23 8 23 26l1 26q4 95 -61 95q-47 0 -53 -44
q-3 -26 -19 -36q-28 -18 -64 -18q-19 0 -19 16q0 27 39 64q25 23 71.5 43t82.5 20q130 0 124 -125zM243 89l2 72q0 17 -8 17q-13 0 -44 -12q-26 -9 -40 -23.5t-14 -43.5q0 -22 15 -40t41 -18q46 0 48 48zM84 458l103 206q8 13 22 13q15 0 21 -13l100 -200q-2 -18 -25 -18
l-74 92q-18 23 -24 23l-26 -29l-74 -88q-19 -2 -23 14z" />
    <glyph glyph-name="atilde" unicode="&#xe3;" horiz-adv-x="420" 
d="M350 283l-7 -156q-5 -88 48 -88q7 0 15 2.5t13 5.5t6 3q4 0 7.5 -7t1.5 -13q-14 -20 -44 -32t-56 -12q-47 0 -72 28q-12 12 -16 12t-27 -14q-41 -26 -85 -26q-48 0 -75 28.5t-27 68.5q0 31 17.5 53.5t65.5 39.5l110 40q23 8 23 26l1 26q4 95 -61 95q-47 0 -53 -44
q-3 -26 -19 -36q-28 -18 -64 -18q-19 0 -19 16q0 27 39 64q25 23 71.5 43t82.5 20q130 0 124 -125zM243 89l2 72q0 17 -8 17q-13 0 -44 -12q-26 -9 -40 -23.5t-14 -43.5q0 -22 15 -40t41 -18q46 0 48 48zM185 574h55q41 0 58 13q16 12 24 31q4 2 12 1t11 -4q-5 -23 -18 -50
t-24 -38q-20 -20 -53 -20h-61q-41 0 -59 -18q-12 -9 -30 -40q-17 -2 -21 6q4 18 16.5 48.5t24.5 44.5q24 26 65 26z" />
    <glyph glyph-name="adieresis" unicode="&#xe4;" horiz-adv-x="420" 
d="M350 283l-7 -156q-5 -88 48 -88q7 0 15 2.5t13 5.5t6 3q4 0 7.5 -7t1.5 -13q-14 -20 -44 -32t-56 -12q-47 0 -72 28q-12 12 -16 12t-27 -14q-41 -26 -85 -26q-48 0 -75 28.5t-27 68.5q0 31 17.5 53.5t65.5 39.5l110 40q23 8 23 26l1 26q4 95 -61 95q-47 0 -53 -44
q-3 -26 -19 -36q-28 -18 -64 -18q-19 0 -19 16q0 27 39 64q25 23 71.5 43t82.5 20q130 0 124 -125zM243 89l2 72q0 17 -8 17q-13 0 -44 -12q-26 -9 -40 -23.5t-14 -43.5q0 -22 15 -40t41 -18q46 0 48 48zM119 485q-26 0 -42.5 14.5t-17.5 41.5q0 26 17 43.5t43 17.5
q23 0 39.5 -17t16.5 -39q0 -27 -16 -44t-40 -17zM292 485q-26 0 -41.5 14.5t-16.5 41.5q-1 26 16 43.5t42 17.5t41 -17t16 -39q0 -28 -15.5 -44.5t-41.5 -16.5z" />
    <glyph glyph-name="aring" unicode="&#xe5;" horiz-adv-x="420" 
d="M350 283l-7 -156q-5 -88 48 -88q7 0 15 2.5t13 5.5t6 3q4 0 7.5 -7t1.5 -13q-14 -20 -44 -32t-56 -12q-47 0 -72 28q-12 12 -16 12t-27 -14q-41 -26 -85 -26q-48 0 -75 28.5t-27 68.5q0 31 17.5 53.5t65.5 39.5l110 40q23 8 23 26l1 26q4 95 -61 95q-47 0 -53 -44
q-3 -26 -19 -36q-28 -18 -64 -18q-19 0 -19 16q0 27 39 64q25 23 71.5 43t82.5 20q130 0 124 -125zM243 89l2 72q0 17 -8 17q-13 0 -44 -12q-26 -9 -40 -23.5t-14 -43.5q0 -22 15 -40t41 -18q46 0 48 48zM117 556q0 37 26 65t67 28t67 -28t26 -65q0 -38 -26 -66.5t-67 -28.5
t-67 28.5t-26 66.5zM166 556q0 -27 11.5 -44t32.5 -17t32.5 17t11.5 44q0 26 -12 42.5t-32 16.5t-32 -16.5t-12 -42.5z" />
    <glyph glyph-name="ae" unicode="&#xe6;" horiz-adv-x="615" 
d="M247 234v34q0 95 -63 95q-21 0 -36 -11t-19 -30q-5 -29 -16 -37q-27 -20 -64 -20q-16 0 -16 15q0 28 39 65q23 23 70.5 43t85.5 20q78 0 100 -47q61 47 136 47q62 0 99.5 -34t37.5 -78q0 -12 -6 -18t-24 -11l-208 -61q-20 -6 -20 -15v-10q0 -54 40 -91t92 -37
q70 0 108 52q8 2 14 -2.5t6 -11.5q-47 -105 -169 -105q-97 0 -147 68l-34 -23q-67 -45 -119 -45q-50 0 -76 28t-26 66q0 66 82 94l114 39q12 4 15.5 8t3.5 13zM368 248l107 32q33 10 33 23q0 23 -19 44t-49 21q-42 0 -69.5 -34.5t-27.5 -77.5v-6q0 -9 25 -2zM247 85v73
q0 18 -8 18q-10 0 -46 -13q-28 -10 -42 -23t-14 -39q0 -23 15 -41t43 -18q19 0 35.5 11.5t16.5 31.5z" />
    <glyph glyph-name="ccedilla" unicode="&#xe7;" horiz-adv-x="402" 
d="M186 -86l55 73q-5 -1 -13 -1q-83 0 -139 54q-58 56 -58 144q0 93 65.5 158.5t180.5 65.5q47 0 86 -14q20 -18 20 -51q0 -21 -8.5 -34t-16.5 -13q-10 0 -19 11q-46 61 -91 61q-46 0 -81 -41.5t-35 -108.5q0 -64 39 -111t104 -47q44 0 67 13.5t41 39.5q7 1 13.5 -4t7.5 -14
q-34 -78 -117 -100l-30 -40q-4 -5 -4 -8t2.5 -5t9.5 -6q52 -28 52 -71q0 -35 -31.5 -57.5t-74.5 -22.5q-63 0 -63 38q0 12 7.5 20t19.5 8q11 0 29 -16t26 -16t15.5 8t7.5 21q0 33 -64 60z" />
    <glyph glyph-name="egrave" unicode="&#xe8;" horiz-adv-x="409" 
d="M318 237h-173q-14 0 -17.5 -2t-3.5 -11q0 -68 42.5 -115t108.5 -47q65 0 96 50q7 2 14 -3.5t8 -12.5q-24 -56 -71 -83t-98 -27q-86 0 -139.5 56.5t-53.5 143.5q0 90 57.5 156t153.5 66q60 0 105 -36.5t45 -98.5q0 -13 -5 -23q-9 -13 -69 -13zM146 277h91q37 0 49 7
q10 7 10 21q0 28 -17.5 46.5t-48.5 18.5q-44 0 -71 -31.5t-27 -54.5q0 -7 14 -7zM240 447l-115 147q-23 30 -23 39q0 14 25 30q23 14 35 14q18 0 31 -33l72 -183q-4 -17 -25 -14z" />
    <glyph glyph-name="eacute" unicode="&#xe9;" horiz-adv-x="409" 
d="M318 237h-173q-14 0 -17.5 -2t-3.5 -11q0 -68 42.5 -115t108.5 -47q65 0 96 50q7 2 14 -3.5t8 -12.5q-24 -56 -71 -83t-98 -27q-86 0 -139.5 56.5t-53.5 143.5q0 90 57.5 156t153.5 66q60 0 105 -36.5t45 -98.5q0 -13 -5 -23q-9 -13 -69 -13zM146 277h91q37 0 49 7
q10 7 10 21q0 28 -17.5 46.5t-48.5 18.5q-44 0 -71 -31.5t-27 -54.5q0 -7 14 -7zM347 589l-129 -143q-21 -2 -24 15l85 181q15 32 31 32q13 0 38 -16q23 -16 23 -32q0 -9 -24 -37z" />
    <glyph glyph-name="ecircumflex" unicode="&#xea;" horiz-adv-x="409" 
d="M318 237h-173q-14 0 -17.5 -2t-3.5 -11q0 -68 42.5 -115t108.5 -47q65 0 96 50q7 2 14 -3.5t8 -12.5q-24 -56 -71 -83t-98 -27q-86 0 -139.5 56.5t-53.5 143.5q0 90 57.5 156t153.5 66q60 0 105 -36.5t45 -98.5q0 -13 -5 -23q-9 -13 -69 -13zM146 277h91q37 0 49 7
q10 7 10 21q0 28 -17.5 46.5t-48.5 18.5q-44 0 -71 -31.5t-27 -54.5q0 -7 14 -7zM108 453l99 196q7 13 21 13q11 0 20 -13l95 -191q-2 -17 -24 -17l-70 87q-18 22 -23 22q-4 0 -26 -27l-70 -84q-19 -2 -22 14z" />
    <glyph glyph-name="edieresis" unicode="&#xeb;" horiz-adv-x="409" 
d="M318 237h-173q-14 0 -17.5 -2t-3.5 -11q0 -68 42.5 -115t108.5 -47q65 0 96 50q7 2 14 -3.5t8 -12.5q-24 -56 -71 -83t-98 -27q-86 0 -139.5 56.5t-53.5 143.5q0 90 57.5 156t153.5 66q60 0 105 -36.5t45 -98.5q0 -13 -5 -23q-9 -13 -69 -13zM146 277h91q37 0 49 7
q10 7 10 21q0 28 -17.5 46.5t-48.5 18.5q-44 0 -71 -31.5t-27 -54.5q0 -7 14 -7zM139 485q-26 0 -42.5 14.5t-17.5 41.5q0 26 17 43.5t43 17.5q23 0 39.5 -17t16.5 -39q0 -27 -16 -44t-40 -17zM316 485q-26 0 -41.5 14.5t-16.5 41.5q-1 26 16 43.5t42 17.5t41 -17t16 -39
q0 -28 -15.5 -44.5t-41.5 -16.5z" />
    <glyph glyph-name="igrave" unicode="&#xec;" horiz-adv-x="268" 
d="M193 292v-173q0 -56 6.5 -71t31.5 -19l18 -3q5 -5 4.5 -15.5t-6.5 -13.5q-55 3 -108 3q-48 0 -105 -3q-6 3 -6.5 13.5t4.5 15.5l18 3q25 4 31.5 19t6.5 71v147q0 37 -3.5 49t-21.5 23l-12 7q-2 3 -2 11t3 12q78 23 130 54q10 -2 14 -8q-3 -49 -3 -122zM144 452l-115 147
q-23 30 -23 39q0 14 25 30q23 14 35 14q18 0 31 -33l72 -183q-4 -17 -25 -14z" />
    <glyph glyph-name="iacute" unicode="&#xed;" horiz-adv-x="268" 
d="M193 292v-173q0 -56 6.5 -71t31.5 -19l18 -3q5 -5 4.5 -15.5t-6.5 -13.5q-55 3 -108 3q-48 0 -105 -3q-6 3 -6.5 13.5t4.5 15.5l18 3q25 4 31.5 19t6.5 71v147q0 37 -3.5 49t-21.5 23l-12 7q-2 3 -2 11t3 12q78 23 130 54q10 -2 14 -8q-3 -49 -3 -122zM248 589l-129 -143
q-21 -2 -24 15l85 181q15 32 31 32q13 0 38 -16q23 -16 23 -32q0 -9 -24 -37z" />
    <glyph glyph-name="icircumflex" unicode="&#xee;" horiz-adv-x="268" 
d="M193 292v-173q0 -56 6.5 -71t31.5 -19l18 -3q5 -5 4.5 -15.5t-6.5 -13.5q-55 3 -108 3q-48 0 -105 -3q-6 3 -6.5 13.5t4.5 15.5l18 3q25 4 31.5 19t6.5 71v147q0 37 -3.5 49t-21.5 23l-12 7q-2 3 -2 11t3 12q78 23 130 54q10 -2 14 -8q-3 -49 -3 -122zM21 456l99 196
q7 13 21 13q11 0 20 -13l95 -191q-2 -17 -24 -17l-70 83q-18 22 -23 22q-4 0 -26 -27l-70 -80q-19 -2 -22 14z" />
    <glyph glyph-name="idieresis" unicode="&#xef;" horiz-adv-x="268" 
d="M193 292v-173q0 -56 6.5 -71t31.5 -19l18 -3q5 -5 4.5 -15.5t-6.5 -13.5q-55 3 -108 3q-48 0 -105 -3q-6 3 -6.5 13.5t4.5 15.5l18 3q25 4 31.5 19t6.5 71v147q0 37 -3.5 49t-21.5 23l-12 7q-2 3 -2 11t3 12q78 23 130 54q10 -2 14 -8q-3 -49 -3 -122zM55 485
q-26 0 -42.5 14.5t-17.5 41.5q0 26 17 43.5t43 17.5q23 0 39.5 -17t16.5 -39q0 -27 -16 -44t-40 -17zM228 485q-26 0 -41.5 14.5t-16.5 41.5q-1 26 16 43.5t42 17.5t41 -17t16 -39q0 -28 -15.5 -44.5t-41.5 -16.5z" />
    <glyph glyph-name="eth" unicode="&#xf0;" horiz-adv-x="490" 
d="M246 26q50 0 74 45t24 144q0 85 -16 115q-20 38 -67 38q-48 0 -80 -45.5t-32 -118.5q0 -72 26 -125t71 -53zM458 634l-110 -53q55 -65 83 -148.5t28 -154.5q0 -292 -228 -292q-86 0 -143 55t-57 149q0 92 65 155t158 63q42 0 76 -14q-15 82 -62 149l-140 -66q-9 3 -15 15
t-3 21l134 64q-37 46 -92 78q-49 29 -93 33q-4 4 -3 14t6 13q79 -2 147 -30q62 -25 109 -72l121 59q9 -4 15.5 -16t3.5 -22z" />
    <glyph glyph-name="ntilde" unicode="&#xf1;" horiz-adv-x="533" 
d="M193 253v-134q0 -56 6.5 -71.5t31.5 -19.5l15 -2q5 -5 4.5 -15.5t-6.5 -13.5q-52 3 -106 3q-45 0 -108 -3q-6 3 -6.5 13.5t4.5 15.5l22 3q25 4 31.5 19t6.5 71v147q0 37 -3.5 49t-21.5 23l-12 7q-2 3 -2 11t3 12q67 19 130 54q9 0 13 -8q-2 -19 -2 -46q0 -8 9 -10
q8 4 25.5 14.5t26 14.5t23.5 10.5t29.5 8.5t32.5 2q59 0 89 -36.5t30 -97.5v-155q0 -56 6.5 -71.5t31.5 -18.5l23 -3q5 -5 4.5 -15.5t-6.5 -13.5q-63 3 -113 3t-102 -3q-6 3 -6.5 13.5t4.5 15.5l15 2q25 4 31.5 19.5t6.5 71.5v138q0 91 -80 91q-45 0 -66 -31
q-9 -13 -11.5 -24t-2.5 -40zM246 578h54q41 0 58 13q16 10 24 30q4 2 12 1t11 -4q-6 -23 -18.5 -50t-22.5 -37q-20 -20 -54 -20h-60q-40 0 -59 -17q-16 -12 -29 -41q-17 -2 -21 7q4 18 16.5 48t23.5 43q25 27 65 27z" />
    <glyph glyph-name="ograve" unicode="&#xf2;" horiz-adv-x="492" 
d="M250 408q88 0 149.5 -56t61.5 -150q0 -102 -62.5 -159t-156.5 -57q-90 0 -150.5 54.5t-60.5 149.5q0 98 64 158t155 60zM149 205q0 -74 27 -126.5t78 -52.5q47 0 68 46t21 113q0 72 -26 127.5t-77 55.5q-40 0 -65.5 -41.5t-25.5 -121.5zM256 447l-115 147q-23 30 -23 39
q0 14 25 30q23 14 35 14q18 0 31 -33l72 -183q-4 -17 -25 -14z" />
    <glyph glyph-name="oacute" unicode="&#xf3;" horiz-adv-x="492" 
d="M250 408q88 0 149.5 -56t61.5 -150q0 -102 -62.5 -159t-156.5 -57q-90 0 -150.5 54.5t-60.5 149.5q0 98 64 158t155 60zM149 205q0 -74 27 -126.5t78 -52.5q47 0 68 46t21 113q0 72 -26 127.5t-77 55.5q-40 0 -65.5 -41.5t-25.5 -121.5zM360 589l-129 -143q-21 -2 -24 15
l85 181q15 32 31 32q13 0 38 -16q23 -16 23 -32q0 -9 -24 -37z" />
    <glyph glyph-name="ocircumflex" unicode="&#xf4;" horiz-adv-x="492" 
d="M250 408q88 0 149.5 -56t61.5 -150q0 -102 -62.5 -159t-156.5 -57q-90 0 -150.5 54.5t-60.5 149.5q0 98 64 158t155 60zM149 205q0 -74 27 -126.5t78 -52.5q47 0 68 46t21 113q0 72 -26 127.5t-77 55.5q-40 0 -65.5 -41.5t-25.5 -121.5zM129 454l99 196q7 13 21 13
q11 0 20 -13l95 -191q-2 -17 -24 -17l-70 82q-18 22 -23 22q-1 0 -26 -27l-70 -79q-19 -2 -22 14z" />
    <glyph glyph-name="otilde" unicode="&#xf5;" horiz-adv-x="492" 
d="M250 408q88 0 149.5 -56t61.5 -150q0 -102 -62.5 -159t-156.5 -57q-90 0 -150.5 54.5t-60.5 149.5q0 98 64 158t155 60zM149 205q0 -74 27 -126.5t78 -52.5q47 0 68 46t21 113q0 72 -26 127.5t-77 55.5q-40 0 -65.5 -41.5t-25.5 -121.5zM221 574h55q41 0 58 13
q16 12 24 31q4 2 12 1t11 -4q-5 -23 -18 -50t-24 -38q-20 -20 -53 -20h-61q-41 0 -59 -18q-12 -9 -30 -40q-17 -2 -21 6q4 18 16.5 48.5t24.5 44.5q24 26 65 26z" />
    <glyph glyph-name="odieresis" unicode="&#xf6;" horiz-adv-x="492" 
d="M250 408q88 0 149.5 -56t61.5 -150q0 -102 -62.5 -159t-156.5 -57q-90 0 -150.5 54.5t-60.5 149.5q0 98 64 158t155 60zM149 205q0 -74 27 -126.5t78 -52.5q47 0 68 46t21 113q0 72 -26 127.5t-77 55.5q-40 0 -65.5 -41.5t-25.5 -121.5zM159 485q-26 0 -42.5 14.5
t-17.5 41.5q0 26 17 43.5t43 17.5q23 0 39.5 -17t16.5 -39q0 -27 -16 -44t-40 -17zM342 485q-26 0 -41.5 14.5t-16.5 41.5q-1 26 16 43.5t42 17.5t41 -17t16 -39q0 -28 -15.5 -44.5t-41.5 -16.5z" />
    <glyph glyph-name="divide" unicode="&#xf7;" horiz-adv-x="510" 
d="M253 21q-23 0 -38.5 15.5t-15.5 38.5q0 21 16 36.5t38 15.5q21 0 36.5 -16t15.5 -36q0 -22 -15.5 -38t-36.5 -16zM253 284q-23 0 -38.5 16t-15.5 38q0 21 16 36.5t38 15.5q21 0 36.5 -16t15.5 -36q0 -22 -15.5 -38t-36.5 -16zM448 237v-63h-385v63h385z" />
    <glyph glyph-name="oslash" unicode="&#xf8;" horiz-adv-x="496" 
d="M161 103l155 223q-27 42 -73 42q-45 0 -71.5 -41t-26.5 -122q0 -57 16 -102zM335 287l-154 -221q27 -40 74 -40q52 0 74 45.5t22 113.5q0 58 -16 102zM418 408l-30 -44q77 -57 77 -160q0 -104 -62.5 -161t-157.5 -57q-58 0 -104 23l-37 -53q-9 -2 -19 6.5t-9 17.5l33 48
q-78 54 -78 162q0 98 64.5 158t156.5 60q59 0 104 -24l31 45q10 2 20 -5t11 -16z" />
    <glyph glyph-name="ugrave" unicode="&#xf9;" horiz-adv-x="520" 
d="M445 314v-167q0 -53 4.5 -79.5t20.5 -26.5q19 0 43 7q7 -3 6.5 -15.5t-9.5 -18.5q-109 -12 -164 -38q-7 1 -9 10q4 25 3 37q-1 11 -10 11q-81 -48 -136 -48q-65 0 -92 33.5t-27 99.5v156q0 52 -5 66t-24 19l-14 4q-5 4 -4.5 14t6.5 12q94 2 139 18q9 -2 10 -9
q-3 -18 -3 -85v-154q0 -53 17 -83.5t65 -30.5q39 0 66 25q12 12 12 56v151q0 46 -7 58.5t-37 21.5l-16 5q-5 4 -5 14t6 13q125 2 157 18q9 -2 10 -9q-3 -29 -3 -85zM270 448l-115 147q-23 30 -23 39q0 14 25 30q23 14 35 14q17 0 31 -33l72 -183q-4 -17 -25 -14z" />
    <glyph glyph-name="uacute" unicode="&#xfa;" horiz-adv-x="520" 
d="M445 314v-167q0 -53 4.5 -79.5t20.5 -26.5q19 0 43 7q7 -3 6.5 -15.5t-9.5 -18.5q-109 -12 -164 -38q-7 1 -9 10q4 25 3 37q-1 11 -10 11q-81 -48 -136 -48q-65 0 -92 33.5t-27 99.5v156q0 52 -5 66t-24 19l-14 4q-5 4 -4.5 14t6.5 12q94 2 139 18q9 -2 10 -9
q-3 -18 -3 -85v-154q0 -53 17 -83.5t65 -30.5q39 0 66 25q12 12 12 56v151q0 46 -7 58.5t-37 21.5l-16 5q-5 4 -5 14t6 13q125 2 157 18q9 -2 10 -9q-3 -29 -3 -85zM369 590l-129 -143q-21 -2 -24 15l85 181q15 32 31 32q13 0 38 -16q23 -16 23 -32q0 -9 -24 -37z" />
    <glyph glyph-name="ucircumflex" unicode="&#xfb;" horiz-adv-x="520" 
d="M445 314v-167q0 -53 4.5 -79.5t20.5 -26.5q19 0 43 7q7 -3 6.5 -15.5t-9.5 -18.5q-109 -12 -164 -38q-7 1 -9 10q4 25 3 37q-1 11 -10 11q-81 -48 -136 -48q-65 0 -92 33.5t-27 99.5v156q0 52 -5 66t-24 19l-14 4q-5 4 -4.5 14t6.5 12q94 2 139 18q9 -2 10 -9
q-3 -18 -3 -85v-154q0 -53 17 -83.5t65 -30.5q39 0 66 25q12 12 12 56v151q0 46 -7 58.5t-37 21.5l-16 5q-5 4 -5 14t6 13q125 2 157 18q9 -2 10 -9q-3 -29 -3 -85zM138 453l99 196q7 13 21 13q11 0 20 -13l95 -191q-2 -17 -24 -17l-70 87q-18 22 -23 22q-4 0 -26 -27
l-70 -84q-19 -2 -22 14z" />
    <glyph glyph-name="udieresis" unicode="&#xfc;" horiz-adv-x="520" 
d="M445 314v-167q0 -53 4.5 -79.5t20.5 -26.5q19 0 43 7q7 -3 6.5 -15.5t-9.5 -18.5q-109 -12 -164 -38q-7 1 -9 10q4 25 3 37q-1 11 -10 11q-81 -48 -136 -48q-65 0 -92 33.5t-27 99.5v156q0 52 -5 66t-24 19l-14 4q-5 4 -4.5 14t6.5 12q94 2 139 18q9 -2 10 -9
q-3 -18 -3 -85v-154q0 -53 17 -83.5t65 -30.5q39 0 66 25q12 12 12 56v151q0 46 -7 58.5t-37 21.5l-16 5q-5 4 -5 14t6 13q125 2 157 18q9 -2 10 -9q-3 -29 -3 -85zM169 485q-26 0 -42.5 14.5t-17.5 41.5q0 26 17 43.5t43 17.5q23 0 39.5 -17t16.5 -39q0 -27 -16 -44
t-40 -17zM346 485q-26 0 -41.5 14.5t-16.5 41.5q-1 26 16 43.5t42 17.5t41 -17t16 -39q0 -28 -15.5 -44.5t-41.5 -16.5z" />
    <glyph glyph-name="yacute" unicode="&#xfd;" horiz-adv-x="448" 
d="M72 -249q-27 0 -41 15t-14 38q0 43 51 45l22 1q29 2 42 20q49 70 49 125q0 31 -17 74l-81 210q-19 49 -30.5 64t-38.5 21l-20 4q-6 6 -5.5 16t8.5 13q49 -3 111 -3q55 0 106 3q6 -3 6.5 -13.5t-4.5 -15.5l-30 -6q-17 -4 -18.5 -12t11.5 -41l44 -115q28 -74 34 -76
q5 1 32 62l30 67q36 81 36 97q0 13 -19 17l-34 7q-5 6 -4.5 15.5t6.5 13.5q54 -3 95 -3q40 0 80 3q7 -2 8 -13t-5 -16q-47 -12 -57 -22q-21 -21 -61 -101l-51 -102q-123 -246 -165 -338q-24 -54 -76 -54zM353 594l-129 -143q-21 -2 -24 15l85 181q15 32 31 32q13 0 38 -16
q23 -16 23 -32q0 -9 -24 -37z" />
    <glyph glyph-name="thorn" unicode="&#xfe;" horiz-adv-x="522" 
d="M80 -136v664q0 51 -3.5 64t-22.5 25l-11 7q-5 3 -5 12t5 11q31 9 131 48q10 2 14 -8q-3 -60 -3 -145v-164q0 -11 8 -13l12.5 6.5l22 11t27 12t32.5 10t32 3.5q79 0 125.5 -52.5t46.5 -132.5q0 -105 -68 -171t-178 -66q-27 0 -45 4q-15 -3 -15 -28v-98q0 -56 6.5 -71
t32.5 -18l36 -4q5 -5 4.5 -15.5t-6.5 -13.5q-78 3 -128 3q-52 0 -112 -3q-6 3 -6.5 13.5t4.5 15.5l26 3q25 3 31.5 18.5t6.5 71.5zM185 262v-153q0 -38 31 -64q24 -19 55 -19q51 0 79 46t28 118q0 71 -35 115.5t-93 44.5q-34 0 -54 -20q-11 -12 -11 -68z" />
    <glyph glyph-name="ydieresis" unicode="&#xff;" horiz-adv-x="448" 
d="M72 -249q-27 0 -41 15t-14 38q0 43 51 45l22 1q29 2 42 20q49 70 49 125q0 31 -17 74l-81 210q-19 49 -30.5 64t-38.5 21l-20 4q-6 6 -5.5 16t8.5 13q49 -3 111 -3q55 0 106 3q6 -3 6.5 -13.5t-4.5 -15.5l-30 -6q-17 -4 -18.5 -12t11.5 -41l44 -115q28 -74 34 -76
q5 1 32 62l30 67q36 81 36 97q0 13 -19 17l-34 7q-5 6 -4.5 15.5t6.5 13.5q54 -3 95 -3q40 0 80 3q7 -2 8 -13t-5 -16q-47 -12 -57 -22q-21 -21 -61 -101l-51 -102q-123 -246 -165 -338q-24 -54 -76 -54zM160 485q-26 0 -42.5 14.5t-17.5 41.5q0 26 17 43.5t43 17.5
q23 0 39.5 -17t16.5 -39q0 -27 -16 -44t-40 -17zM338 485q-26 0 -41.5 14.5t-16.5 41.5q-1 26 16 43.5t42 17.5t41 -17t16 -39q0 -28 -15.5 -44.5t-41.5 -16.5z" />
    <glyph glyph-name="Amacron" unicode="&#x100;" horiz-adv-x="627" 
d="M341 245h-133q-19 0 -23 -3t-11 -24l-41 -120q-14 -44 -11 -53t32 -14l29 -5q5 -5 4.5 -15.5t-6.5 -13.5q-11 1 -106 3q-47 0 -99 -3q-5 4 -5.5 13t4.5 16l30 5q22 4 33 13t22 33q10 21 49 122l137 356q22 58 19 73q15 3 32 15t27 23l11 10q11 0 17 -8q8 -23 22.5 -69
t22.5 -68l144 -419q17 -51 29 -63.5t50 -19.5l15 -3q6 -5 6 -15t-5 -14q-62 3 -130 3q-17 0 -122 -3q-6 4 -7 14.5t4 14.5l22 3q27 4 32 12.5t-6 40.5l-47 136q-6 19 -12.5 23t-28.5 4zM224 290h104q22 0 26 4t-2 22l-42 120q-26 76 -28 79h-2q-4 -7 -30 -79l-42 -117
q-7 -22 -4.5 -25.5t20.5 -3.5zM449 736h-257q-9 11 -9 34.5t9 34.5h257q10 -11 10 -34.5t-10 -34.5z" />
    <glyph glyph-name="amacron" unicode="&#x101;" horiz-adv-x="420" 
d="M350 283l-7 -156q-5 -88 48 -88q7 0 15 2.5t13 5.5t6 3q4 0 7.5 -7t1.5 -13q-14 -20 -44 -32t-56 -12q-47 0 -72 28q-12 12 -16 12t-27 -14q-41 -26 -85 -26q-48 0 -75 28.5t-27 68.5q0 31 17.5 53.5t65.5 39.5l110 40q23 8 23 26l1 26q4 95 -61 95q-47 0 -53 -44
q-3 -26 -19 -36q-28 -18 -64 -18q-19 0 -19 16q0 27 39 64q25 23 71.5 43t82.5 20q130 0 124 -125zM243 89l2 72q0 17 -8 17q-13 0 -44 -12q-26 -9 -40 -23.5t-14 -43.5q0 -22 15 -40t41 -18q46 0 48 48zM330 504h-238q-8 10 -8 33t8 33h238q8 -10 8 -33t-8 -33z" />
    <glyph glyph-name="Abreve" unicode="&#x102;" horiz-adv-x="627" 
d="M341 245h-133q-19 0 -23 -3t-11 -24l-41 -120q-14 -44 -11 -53t32 -14l29 -5q5 -5 4.5 -15.5t-6.5 -13.5q-11 1 -106 3q-47 0 -99 -3q-5 4 -5.5 13t4.5 16l30 5q22 4 33 13t22 33q10 21 49 122l137 356q22 58 19 73q15 3 32 15t27 23l11 10q11 0 17 -8q8 -23 22.5 -69
t22.5 -68l144 -419q17 -51 29 -63.5t50 -19.5l15 -3q6 -5 6 -15t-5 -14q-62 3 -130 3q-17 0 -122 -3q-6 4 -7 14.5t4 14.5l22 3q27 4 32 12.5t-6 40.5l-47 136q-6 19 -12.5 23t-28.5 4zM224 290h104q22 0 26 4t-2 22l-42 120q-26 76 -28 79h-2q-4 -7 -30 -79l-42 -117
q-7 -22 -4.5 -25.5t20.5 -3.5zM320 715q-130 0 -130 133q16 14 28 5q27 -70 102 -70q43 0 64.5 17.5t34.5 52.5q5 4 15.5 2.5t15.5 -7.5q0 -60 -32.5 -96.5t-97.5 -36.5z" />
    <glyph glyph-name="abreve" unicode="&#x103;" horiz-adv-x="420" 
d="M350 283l-7 -156q-5 -88 48 -88q7 0 15 2.5t13 5.5t6 3q4 0 7.5 -7t1.5 -13q-14 -20 -44 -32t-56 -12q-47 0 -72 28q-12 12 -16 12t-27 -14q-41 -26 -85 -26q-48 0 -75 28.5t-27 68.5q0 31 17.5 53.5t65.5 39.5l110 40q23 8 23 26l1 26q4 95 -61 95q-47 0 -53 -44
q-3 -26 -19 -36q-28 -18 -64 -18q-19 0 -19 16q0 27 39 64q25 23 71.5 43t82.5 20q130 0 124 -125zM243 89l2 72q0 17 -8 17q-13 0 -44 -12q-26 -9 -40 -23.5t-14 -43.5q0 -22 15 -40t41 -18q46 0 48 48zM210 475q-58 0 -90 39.5t-29 114.5q13 7 26 0q10 -42 35 -63.5
t58 -21.5t58 21.5t36 63.5q12 8 25 0q2 -74 -31.5 -114t-87.5 -40z" />
    <glyph glyph-name="Aogonek" unicode="&#x104;" horiz-adv-x="627" 
d="M224 290h104q22 0 26 4t-2 22l-42 120q-26 76 -28 79h-2q-4 -7 -30 -79l-42 -117q-7 -22 -4.5 -25.5t20.5 -3.5zM341 245h-133q-19 0 -23 -3t-11 -24l-41 -120q-14 -44 -11 -53t32 -14l29 -5q5 -5 4.5 -15.5t-6.5 -13.5q-11 1 -106 3q-47 0 -99 -3q-5 4 -5.5 13t4.5 16
l30 5q22 4 33 13t22 33q10 21 49 122l137 356q22 58 19 73q15 3 32 15t27 23l11 10q11 0 17 -8q8 -23 22.5 -69t22.5 -68l144 -419q17 -51 29 -63.5t50 -19.5l15 -3q6 -5 6 -15t-5 -14q-62 3 -120 3q-46 -57 -46 -120q0 -22 14 -37.5t37 -15.5q25 0 43 11q9 -3 9 -15
q-30 -47 -100 -47q-42 0 -61.5 24t-19.5 59q0 53 80 140q-28 0 -48 -0.5t-28 -1t-12 -0.5q-6 4 -7 14.5t4 14.5l22 3q27 4 32 12.5t-6 40.5l-47 136q-6 19 -12.5 23t-28.5 4z" />
    <glyph glyph-name="aogonek" unicode="&#x105;" horiz-adv-x="420" 
d="M243 89l2 72q0 17 -8 17q-13 0 -44 -12q-26 -9 -40 -23.5t-14 -43.5q0 -22 15 -40t41 -18q46 0 48 48zM115 176l110 40q23 8 23 26l1 26q4 95 -61 95q-47 0 -53 -44q-3 -26 -19 -36q-28 -18 -64 -18q-19 0 -19 16q0 27 39 64q25 23 71.5 43t82.5 20q130 0 124 -125
l-7 -156q-5 -88 48 -88q7 0 15 2.5t13 5.5t6 3q4 0 7.5 -7t1.5 -13q-5 -7 -20 -20q-62 -62 -62 -123q0 -53 46 -53q26 0 43 13q9 -3 9 -15q-30 -47 -97 -47q-41 0 -60 21t-19 52q0 56 87 133q-6 -1 -21 -4q-6 -1 -16 -1q-41 0 -63 27q-10 13 -15 13q-4 0 -27 -14
q-41 -26 -85 -26q-48 0 -75 28.5t-27 68.5q0 31 17.5 53.5t65.5 39.5z" />
    <glyph glyph-name="Cacute" unicode="&#x106;" horiz-adv-x="694" 
d="M645 648q13 -147 14 -156q-5 -6 -16 -6.5t-16 4.5q-39 146 -194 146q-105 0 -180 -75.5t-75 -219.5q0 -150 78 -233.5t184 -83.5q145 0 209 149q7 6 16.5 4.5t13.5 -8.5q-5 -46 -20 -90.5t-28 -61.5q-5 -1 -35 -9q-75 -24 -156 -24q-153 0 -256 67q-142 93 -142 275
q0 168 126 265q112 85 276 85q87 0 173 -22q7 -2 16.5 -4t11.5 -2zM556 773l-194 -67q-6 1 -10.5 10.5t-2.5 17.5l162 118q22 16 31 16q16 0 33 -28q18 -31 14 -43q-7 -15 -33 -24z" />
    <glyph glyph-name="cacute" unicode="&#x107;" horiz-adv-x="400" 
d="M277 408q47 0 86 -14q20 -18 20 -51q0 -21 -8.5 -34t-16.5 -13q-10 0 -19 11q-46 61 -91 61q-46 0 -81 -41.5t-35 -108.5q0 -64 39 -111t104 -47q44 0 67 13.5t41 39.5q7 1 13.5 -4t7.5 -14q-25 -56 -73.5 -82.5t-102.5 -26.5q-83 0 -139 54q-58 56 -58 144
q0 93 65.5 158.5t180.5 65.5zM368 588l-142 -143q-23 -2 -26 15l93 181q16 31 35 31q13 0 41 -16q25 -14 25 -32q0 -4 -2.5 -9t-5 -8t-9.5 -9.5t-9 -9.5z" />
    <glyph glyph-name="Ccaron" unicode="&#x10c;" horiz-adv-x="694" 
d="M645 648q13 -147 14 -156q-5 -6 -16 -6.5t-16 4.5q-39 146 -194 146q-105 0 -180 -75.5t-75 -219.5q0 -150 78 -233.5t184 -83.5q145 0 209 149q7 6 16.5 4.5t13.5 -8.5q-5 -46 -20 -90.5t-28 -61.5q-5 -1 -35 -9q-75 -24 -156 -24q-153 0 -256 67q-142 93 -142 275
q0 168 126 265q112 85 276 85q87 0 173 -22q7 -2 16.5 -4t11.5 -2zM584 848l-136 -127q-23 -22 -46 0l-138 127q0 8 5.5 16t12.5 8l125 -64q17 -12 34 0l127 64q5 -1 10.5 -9t5.5 -15z" />
    <glyph glyph-name="ccaron" unicode="&#x10d;" horiz-adv-x="400" 
d="M277 408q47 0 86 -14q20 -18 20 -51q0 -21 -8.5 -34t-16.5 -13q-10 0 -19 11q-46 61 -91 61q-46 0 -81 -41.5t-35 -108.5q0 -64 39 -111t104 -47q44 0 67 13.5t41 39.5q7 1 13.5 -4t7.5 -14q-25 -56 -73.5 -82.5t-102.5 -26.5q-83 0 -139 54q-58 56 -58 144
q0 93 65.5 158.5t180.5 65.5zM218 458l-96 192q1 6 8.5 11t14.5 5l71 -83q18 -23 25 -23q3 0 25 27l66 81q8 1 15.5 -3.5t9.5 -10.5l-99 -196q-7 -13 -20 -13q-14 0 -20 13z" />
    <glyph glyph-name="Dcaron" unicode="&#x10e;" horiz-adv-x="784" 
d="M119 144v366q0 75 -7 93t-41 21l-21 2q-5 4 -5 14t6 14q108 9 250 9q141 0 236 -34q93 -34 149 -112t56 -187q0 -88 -45 -165.5t-134 -122.5q-95 -48 -248 -48q-33 0 -81 3t-64 3q-61 0 -127 -3q-6 3 -6.5 13.5t4.5 15.5l22 3q27 3 36.5 9.5t14.5 29t5 76.5zM235 535
v-352q0 -83 20 -116t93 -33q128 0 193 81t65 214q0 144 -76 219t-206 75q-65 0 -81 -14q-8 -7 -8 -74zM508 848l-136 -127q-23 -21 -47 0l-137 127q0 8 5.5 16t11.5 8l126 -64q17 -12 34 0l126 64q5 -1 11 -9t6 -15z" />
    <glyph glyph-name="dcaron" unicode="&#x10f;" horiz-adv-x="513" 
d="M440 562v-399q0 -122 24 -122q20 0 42 9q6 -5 6.5 -18t-7.5 -18q-93 -9 -158 -38q-9 2 -12 11l2 15q3 19 -1 28l-5 1q-61 -45 -115 -45q-83 0 -134 57t-51 135q0 104 71 167t169 63q35 0 58 -7q6 1 6 16v131q0 50 -3.5 63t-19.5 24l-14 9q-5 3 -5 12t5 11q37 11 131 48
q10 2 14 -8q-3 -60 -3 -145zM335 96v190q0 30 -13 48q-25 34 -67 34q-50 0 -80.5 -43t-30.5 -108q0 -76 35.5 -123.5t89.5 -47.5q17 0 34.5 7t24.5 15q7 7 7 28zM529 715q28 0 49 -27.5t21 -64.5q0 -47 -32 -83t-76 -50q-11 11 -6 24q58 39 58 81q0 19 -11 30.5t-25 13.5
q-10 2 -17.5 10t-7.5 20q0 18 11 32t36 14z" />
    <glyph glyph-name="Dcroat" unicode="&#x110;" horiz-adv-x="790" 
d="M125 144v178h-89q-6 8 -6 22.5t6 22.5h89v143q0 75 -7 93t-41 21l-21 2q-5 4 -5 14t6 14q108 9 250 9q141 0 236 -34q93 -34 149 -112t56 -187q0 -88 -45 -165.5t-134 -122.5q-95 -48 -248 -48q-33 0 -81 3t-64 3q-61 0 -127 -3q-6 3 -6.5 13.5t4.5 15.5l22 3
q27 3 36.5 9.5t14.5 29t5 76.5zM241 535v-168h139q6 -8 6 -22.5t-6 -22.5h-139v-139q0 -83 20 -116t93 -33q128 0 193 81t65 214q0 144 -76 219t-206 75q-65 0 -81 -14q-8 -7 -8 -74z" />
    <glyph glyph-name="dcroat" unicode="&#x111;" horiz-adv-x="513" 
d="M335 96v190q0 30 -13 48q-25 34 -67 34q-50 0 -80.5 -43t-30.5 -108q0 -76 35.5 -123.5t89.5 -47.5q17 0 34.5 7t24.5 15q7 7 7 28zM509 568v-48h-69v-357q0 -122 24 -122q20 0 42 9q6 -5 6.5 -18t-7.5 -18q-93 -9 -158 -38q-9 2 -12 11l2 15q3 19 -1 28l-5 1
q-61 -45 -115 -45q-83 0 -134 57t-51 135q0 104 71 167t169 63q35 0 58 -7q6 1 6 16v103h-106v48h106q-1 35 -5 46.5t-18 20.5l-14 9q-5 3 -5 12t5 11q37 11 131 48q10 2 14 -8q-3 -55 -3 -139h69z" />
    <glyph glyph-name="Emacron" unicode="&#x112;" horiz-adv-x="580" 
d="M119 144v372q0 54 -5 76.5t-14.5 29.5t-36.5 10l-16 2q-5 5 -4.5 15.5t6.5 13.5q57 -3 129 -3h191q116 0 135 3q2 -9 7.5 -64.5t8.5 -74.5q-3 -6 -14.5 -7.5t-17.5 3.5q-12 44 -25.5 64t-37.5 27q-35 9 -80 9h-67q-32 0 -37.5 -8t-5.5 -51v-169q0 -19 3.5 -23t20.5 -4h48
q68 0 86 6.5t25 37.5l7 34q6 5 17 5t15 -6q-3 -81 -3 -100q0 -9 3 -105q-4 -5 -15 -5.5t-17 4.5l-7 40q-5 30 -24 37t-87 7h-48q-17 0 -20.5 -4t-3.5 -23v-127q0 -85 17 -104q10 -11 32 -16t81 -6q63 0 97.5 11t50.5 31.5t36 65.5q7 5 17.5 3t14.5 -9q-5 -32 -18.5 -78.5
t-23.5 -66.5q-66 3 -247 3h-114q-83 0 -150 -3q-6 3 -6.5 13.5t4.5 15.5l37 4q27 3 36.5 9t14.5 28.5t5 76.5zM435 741h-257q-9 11 -9 35t9 34h257q10 -10 10 -34t-10 -35z" />
    <glyph glyph-name="emacron" unicode="&#x113;" horiz-adv-x="409" 
d="M318 237h-173q-14 0 -17.5 -2t-3.5 -11q0 -68 42.5 -115t108.5 -47q65 0 96 50q7 2 14 -3.5t8 -12.5q-24 -56 -71 -83t-98 -27q-86 0 -139.5 56.5t-53.5 143.5q0 90 57.5 156t153.5 66q60 0 105 -36.5t45 -98.5q0 -13 -5 -23q-9 -13 -69 -13zM146 277h91q37 0 49 7
q10 7 10 21q0 28 -17.5 46.5t-48.5 18.5q-44 0 -71 -31.5t-27 -54.5q0 -7 14 -7zM338 497h-226q-7 9 -7 30.5t7 29.5h226q7 -8 7 -29.5t-7 -30.5z" />
    <glyph glyph-name="Edotaccent" unicode="&#x116;" horiz-adv-x="580" 
d="M119 144v372q0 54 -5 76.5t-14.5 29.5t-36.5 10l-16 2q-5 5 -4.5 15.5t6.5 13.5q57 -3 129 -3h191q116 0 135 3q2 -9 7.5 -64.5t8.5 -74.5q-3 -6 -14.5 -7.5t-17.5 3.5q-12 44 -25.5 64t-37.5 27q-35 9 -80 9h-67q-32 0 -37.5 -8t-5.5 -51v-169q0 -19 3.5 -23t20.5 -4h48
q68 0 86 6.5t25 37.5l7 34q6 5 17 5t15 -6q-3 -81 -3 -100q0 -9 3 -105q-4 -5 -15 -5.5t-17 4.5l-7 40q-5 30 -24 37t-87 7h-48q-17 0 -20.5 -4t-3.5 -23v-127q0 -85 17 -104q10 -11 32 -16t81 -6q63 0 97.5 11t50.5 31.5t36 65.5q7 5 17.5 3t14.5 -9q-5 -32 -18.5 -78.5
t-23.5 -66.5q-66 3 -247 3h-114q-83 0 -150 -3q-6 3 -6.5 13.5t4.5 15.5l37 4q27 3 36.5 9t14.5 28.5t5 76.5zM316 705q-27 0 -43 15t-17 43q0 27 16.5 44.5t43.5 17.5q25 0 42 -17.5t17 -40.5q0 -28 -16.5 -45t-42.5 -17z" />
    <glyph glyph-name="edotaccent" unicode="&#x117;" horiz-adv-x="409" 
d="M318 237h-173q-14 0 -17.5 -2t-3.5 -11q0 -68 42.5 -115t108.5 -47q65 0 96 50q7 2 14 -3.5t8 -12.5q-24 -56 -71 -83t-98 -27q-86 0 -139.5 56.5t-53.5 143.5q0 90 57.5 156t153.5 66q60 0 105 -36.5t45 -98.5q0 -13 -5 -23q-9 -13 -69 -13zM146 277h91q37 0 49 7
q10 7 10 21q0 28 -17.5 46.5t-48.5 18.5q-44 0 -71 -31.5t-27 -54.5q0 -7 14 -7zM230 485q-27 0 -44 17t-17 43t17 43t44 17t44 -17t17 -43t-17 -43t-44 -17z" />
    <glyph glyph-name="Eogonek" unicode="&#x118;" horiz-adv-x="580" 
d="M292 0h-114q-83 0 -150 -3q-6 3 -6.5 13.5t4.5 15.5l37 4q27 3 36.5 9t14.5 28.5t5 76.5v372q0 54 -5 76.5t-14.5 29.5t-36.5 10l-16 2q-5 5 -4.5 15.5t6.5 13.5q38 -2 62 -2q22 -1 67 -1h191q116 0 135 3q2 -9 7.5 -64.5t8.5 -74.5q-3 -6 -14.5 -7.5t-17.5 3.5
q-12 44 -25.5 64t-37.5 27q-35 9 -80 9h-67q-32 0 -37.5 -8t-5.5 -51v-169q0 -19 3.5 -23t20.5 -4h48q68 0 86 6.5t25 37.5l7 34q6 5 17 5t15 -6q-3 -81 -3 -100q0 -9 3 -105q-4 -5 -15 -5.5t-17 4.5l-7 40q-5 30 -24 37t-87 7h-48q-17 0 -20.5 -4t-3.5 -23v-127
q0 -85 17 -104q10 -11 32 -16t81 -6q63 0 97.5 11t50.5 31.5t36 65.5q7 5 17.5 3t14.5 -9q-5 -32 -18.5 -78.5t-23.5 -66.5h-22q-55 -59 -55 -120q0 -24 13 -38.5t33 -14.5q26 0 43 13q9 -3 9 -15q-30 -50 -92 -50q-44 0 -64 23.5t-20 57.5q0 67 91 145q-10 1 -37 1
q-37 1 -146 1z" />
    <glyph glyph-name="eogonek" unicode="&#x119;" horiz-adv-x="409" 
d="M146 277h91q37 0 49 7q10 7 10 21q0 28 -17.5 46.5t-48.5 18.5q-44 0 -71 -31.5t-27 -54.5q0 -7 14 -7zM242 408q60 0 105 -36.5t45 -98.5q0 -13 -5 -23q-9 -13 -69 -13h-173q-14 0 -17.5 -2t-3.5 -11q0 -68 42.5 -115t108.5 -47q60 0 96 50q7 2 14 -3.5t8 -12.5
q-17 -29 -69 -81q-67 -65 -67 -128q0 -23 14.5 -38t31.5 -15q31 0 48 13q9 -3 9 -15q-16 -24 -43 -37.5t-54 -13.5q-40 0 -62 23.5t-22 54.5q0 50 80 131l-18 -3q-6 -1 -17 -1q-86 0 -139.5 56.5t-53.5 143.5q0 90 57.5 156t153.5 66z" />
    <glyph glyph-name="Ecaron" unicode="&#x11a;" horiz-adv-x="580" 
d="M119 144v372q0 54 -5 76.5t-14.5 29.5t-36.5 10l-16 2q-5 5 -4.5 15.5t6.5 13.5q57 -3 129 -3h191q116 0 135 3q2 -9 7.5 -64.5t8.5 -74.5q-3 -6 -14.5 -7.5t-17.5 3.5q-12 44 -25.5 64t-37.5 27q-35 9 -80 9h-67q-32 0 -37.5 -8t-5.5 -51v-169q0 -19 3.5 -23t20.5 -4h48
q68 0 86 6.5t25 37.5l7 34q6 5 17 5t15 -6q-3 -81 -3 -100q0 -9 3 -105q-4 -5 -15 -5.5t-17 4.5l-7 40q-5 30 -24 37t-87 7h-48q-17 0 -20.5 -4t-3.5 -23v-127q0 -85 17 -104q10 -11 32 -16t81 -6q63 0 97.5 11t50.5 31.5t36 65.5q7 5 17.5 3t14.5 -9q-5 -32 -18.5 -78.5
t-23.5 -66.5q-66 3 -247 3h-114q-83 0 -150 -3q-6 3 -6.5 13.5t4.5 15.5l37 4q27 3 36.5 9t14.5 28.5t5 76.5zM467 848l-136 -127q-23 -22 -46 0l-138 127q0 8 5.5 16t12.5 8l125 -64q17 -12 34 0l127 64q5 -1 10.5 -9t5.5 -15z" />
    <glyph glyph-name="ecaron" unicode="&#x11b;" horiz-adv-x="409" 
d="M318 237h-173q-14 0 -17.5 -2t-3.5 -11q0 -68 42.5 -115t108.5 -47q65 0 96 50q7 2 14 -3.5t8 -12.5q-24 -56 -71 -83t-98 -27q-86 0 -139.5 56.5t-53.5 143.5q0 90 57.5 156t153.5 66q60 0 105 -36.5t45 -98.5q0 -13 -5 -23q-9 -13 -69 -13zM146 277h91q37 0 49 7
q10 7 10 21q0 28 -17.5 46.5t-48.5 18.5q-44 0 -71 -31.5t-27 -54.5q0 -7 14 -7zM204 462l-95 192q1 7 8 11.5t15 4.5l70 -87q18 -23 25 -23q4 0 25 27l67 85q8 1 16 -3.5t9 -10.5l-100 -196q-6 -13 -20 -13t-20 13z" />
    <glyph glyph-name="Gbreve" unicode="&#x11e;" horiz-adv-x="743" 
d="M657 162v-58q0 -59 24 -70q2 -3 2 -8t-3 -7q-10 0 -48 -8q-112 -27 -194 -27q-202 0 -308 110q-88 91 -88 229q0 140 92 235q112 118 319 118q58 0 133 -15q41 -9 64 -9q0 -14 5 -66t8 -93q-4 -7 -16 -8t-16 6q-16 72 -66 108.5t-126 36.5q-127 0 -194 -82t-67 -215
q0 -145 72 -230q37 -44 89.5 -64.5t103.5 -20.5q71 0 89 23q9 14 9 63v36q0 54 -9.5 67t-58.5 21l-36 6q-5 5 -5 15t6 14q59 -3 156 -3q58 0 122 3q7 -4 8 -14t-6 -15l-18 -3q-28 -5 -35.5 -17.5t-7.5 -57.5zM430 720q-130 0 -130 133q16 14 28 5q27 -70 102 -70
q43 0 64.5 17.5t34.5 52.5q5 4 15.5 2.5t15.5 -7.5q0 -60 -32.5 -96.5t-97.5 -36.5z" />
    <glyph glyph-name="gbreve" unicode="&#x11f;" horiz-adv-x="464" 
d="M461 320h-73q5 -17 5 -43q0 -69 -46.5 -117t-136.5 -48q-12 0 -38 4q-31 -16 -31 -39q0 -39 55 -39q13 0 50 1t60 1q32 0 56.5 -4t51 -15.5t41 -37t14.5 -64.5q0 -36 -19.5 -70t-43.5 -52q-81 -66 -194 -66q-96 0 -141.5 36t-45.5 82q0 25 14 43q5 5 30 22t32 23
q7 5 9.5 12t-3.5 10q-28 9 -47 32t-19 51q0 16 16 25q18 9 41 26.5t23 26.5t-4 11q-30 12 -52 43t-22 76q0 68 51.5 113t131.5 45q59 0 101 -21q32 -15 44 -15h98q8 -6 8 -18q0 -30 -16 -34zM277 -49h-57q-52 0 -68 -12q-30 -23 -30 -56q0 -45 36.5 -73t94.5 -28
q63 0 98 24.5t35 68.5q0 37 -30 56.5t-79 19.5zM154 268q0 -55 22 -86.5t52 -31.5t48 26t18 77q0 52 -20.5 84.5t-53.5 32.5q-28 0 -47 -26.5t-19 -75.5zM232 475q-58 0 -90 39.5t-29 114.5q13 7 26 0q10 -42 35 -63.5t58 -21.5t58 21.5t36 63.5q12 8 25 0q2 -74 -31.5 -114
t-87.5 -40z" />
    <glyph glyph-name="Gcommaaccent" unicode="&#x122;" horiz-adv-x="743" 
d="M657 162v-58q0 -59 24 -70q2 -3 2 -8t-3 -7q-10 0 -48 -8q-112 -27 -194 -27q-202 0 -308 110q-88 91 -88 229q0 140 92 235q112 118 319 118q58 0 133 -15q41 -9 64 -9q0 -14 5 -66t8 -93q-4 -7 -16 -8t-16 6q-16 72 -66 108.5t-126 36.5q-127 0 -194 -82t-67 -215
q0 -145 72 -230q37 -44 89.5 -64.5t103.5 -20.5q71 0 89 23q9 14 9 63v36q0 54 -9.5 67t-58.5 21l-36 6q-5 5 -5 15t6 14q59 -3 156 -3q58 0 122 3q7 -4 8 -14t-6 -15l-18 -3q-28 -5 -35.5 -17.5t-7.5 -57.5zM491 -145q0 -54 -36 -88t-92 -49q-10 3 -12.5 12.5t2.5 17.5
q26 8 49 28.5t23 44.5q0 7 -2 13t-6 11t-7.5 8.5t-9.5 7l-8.5 5t-7.5 3.5l-6 2q-19 9 -19 30q0 19 14.5 31.5t40.5 12.5q29 0 53 -24t24 -66z" />
    <glyph glyph-name="gcommaaccent" unicode="&#x123;" horiz-adv-x="464" 
d="M461 320h-73q5 -17 5 -43q0 -69 -46.5 -117t-136.5 -48q-12 0 -38 4q-31 -16 -31 -39q0 -39 55 -39q13 0 50 1t60 1q32 0 56.5 -4t51 -15.5t41 -37t14.5 -64.5q0 -36 -19.5 -70t-43.5 -52q-81 -66 -194 -66q-96 0 -141.5 36t-45.5 82q0 25 14 43q5 5 30 22t32 23
q7 5 9.5 12t-3.5 10q-28 9 -47 32t-19 51q0 16 16 25q18 9 41 26.5t23 26.5t-4 11q-30 12 -52 43t-22 76q0 68 51.5 113t131.5 45q59 0 101 -21q32 -15 44 -15h98q8 -6 8 -18q0 -30 -16 -34zM277 -49h-57q-52 0 -68 -12q-30 -23 -30 -56q0 -45 36.5 -73t94.5 -28
q63 0 98 24.5t35 68.5q0 37 -30 56.5t-79 19.5zM154 268q0 -55 22 -86.5t52 -31.5t48 26t18 77q0 52 -20.5 84.5t-53.5 32.5q-28 0 -47 -26.5t-19 -75.5zM250 475q-33 0 -56.5 27.5t-23.5 64.5q0 47 36.5 83t87.5 50q11 -11 6 -24q-66 -39 -66 -81q0 -19 12.5 -30.5
t28.5 -13.5q11 -2 19.5 -10t8.5 -20q0 -18 -12.5 -32t-40.5 -14z" />
    <glyph glyph-name="Imacron" unicode="&#x12a;" horiz-adv-x="354" 
d="M235 516v-372q0 -54 5 -76.5t14.5 -29t36.5 -9.5l22 -3q5 -5 4.5 -15.5t-6.5 -13.5q-66 3 -133 3q-69 0 -135 -3q-6 3 -6.5 13.5t4.5 15.5l22 3q27 3 36.5 9.5t14.5 29t5 76.5v372q0 54 -5 76.5t-14.5 29t-36.5 9.5l-22 3q-5 5 -4.5 15.5t6.5 13.5q66 -3 135 -3
q67 0 133 3q6 -3 6.5 -13.5t-4.5 -15.5l-22 -3q-27 -3 -36.5 -9.5t-14.5 -29t-5 -76.5zM312 741h-257q-9 11 -9 35t9 34h257q10 -10 10 -34t-10 -35z" />
    <glyph glyph-name="imacron" unicode="&#x12b;" horiz-adv-x="268" 
d="M193 292v-173q0 -56 6.5 -71t31.5 -19l18 -3q5 -5 4.5 -15.5t-6.5 -13.5q-55 3 -108 3q-48 0 -105 -3q-6 3 -6.5 13.5t4.5 15.5l18 3q25 4 31.5 19t6.5 71v147q0 37 -3.5 49t-21.5 23l-12 7q-2 3 -2 11t3 12q78 23 130 54q10 -2 14 -8q-3 -49 -3 -122zM242 504h-216
q-7 10 -7 35.5t7 35.5h216q7 -10 7 -35.5t-7 -35.5z" />
    <glyph glyph-name="Iogonek" unicode="&#x12e;" horiz-adv-x="354" 
d="M235 516v-372q0 -54 5 -76.5t14.5 -29t36.5 -9.5l22 -3q5 -5 4.5 -15.5t-6.5 -13.5q-55 3 -114 3q-21 -51 -21 -87q0 -35 20 -55.5t47 -20.5q17 0 43 10q12 -2 9 -19q-39 -47 -106 -47q-41 0 -65 25.5t-24 65.5q0 42 58 128q-49 0 -115 -3q-6 3 -6.5 13.5t4.5 15.5l22 3
q27 3 36.5 9.5t14.5 29t5 76.5v372q0 54 -5 76.5t-14.5 29t-36.5 9.5l-22 3q-5 5 -4.5 15.5t6.5 13.5q66 -3 135 -3q67 0 133 3q6 -3 6.5 -13.5t-4.5 -15.5l-22 -3q-27 -3 -36.5 -9.5t-14.5 -29t-5 -76.5z" />
    <glyph glyph-name="iogonek" unicode="&#x12f;" horiz-adv-x="268" 
d="M88 119v147q0 37 -3.5 49t-21.5 23l-12 7q-2 3 -2 11t3 12q78 23 130 54q10 -2 14 -8q-3 -49 -3 -122v-173q0 -56 6.5 -71t31.5 -19l18 -3q5 -5 4.5 -15.5t-6.5 -13.5q-47 3 -91 3q-16 -42 -16 -87q0 -35 20 -55.5t47 -20.5q28 0 43 8q9 -5 9 -17q-40 -43 -106 -43
q-41 0 -65 24t-24 63q0 47 62 128q-41 0 -92 -3q-6 3 -6.5 13.5t4.5 15.5l18 3q25 4 31.5 19t6.5 71zM140 500q-27 0 -44 17t-17 43t17 43t44 17t44 -17t17 -43t-17 -43t-44 -17z" />
    <glyph glyph-name="Idotaccent" unicode="&#x130;" horiz-adv-x="354" 
d="M235 516v-372q0 -54 5 -76.5t14.5 -29t36.5 -9.5l22 -3q5 -5 4.5 -15.5t-6.5 -13.5q-66 3 -133 3q-69 0 -135 -3q-6 3 -6.5 13.5t4.5 15.5l22 3q27 3 36.5 9.5t14.5 29t5 76.5v372q0 54 -5 76.5t-14.5 29t-36.5 9.5l-22 3q-5 5 -4.5 15.5t6.5 13.5q66 -3 135 -3
q67 0 133 3q6 -3 6.5 -13.5t-4.5 -15.5l-22 -3q-27 -3 -36.5 -9.5t-14.5 -29t-5 -76.5zM184 705q-27 0 -43 15t-17 43q0 27 16.5 44.5t43.5 17.5q25 0 42 -17.5t17 -40.5q0 -28 -16.5 -45t-42.5 -17z" />
    <glyph glyph-name="dotlessi" unicode="&#x131;" horiz-adv-x="268" 
d="M193 292v-173q0 -56 6.5 -71t31.5 -19l18 -3q5 -5 4.5 -15.5t-6.5 -13.5q-55 3 -108 3q-48 0 -105 -3q-6 3 -6.5 13.5t4.5 15.5l18 3q25 4 31.5 19t6.5 71v147q0 37 -3.5 49t-21.5 23l-12 7q-2 3 -2 11t3 12q78 23 130 54q10 -2 14 -8q-3 -49 -3 -122z" />
    <glyph glyph-name="Kcommaaccent" unicode="&#x136;" horiz-adv-x="684" 
d="M235 516v-111q0 -24 3 -34.5t14 -10.5q21 0 75 59l102 110q30 30 54 62q23 30 7 34l-31 9q-14 13 2 29q63 -3 112 -3q2 0 110 3q8 -2 9.5 -13.5t-6.5 -15.5q-65 -9 -98.5 -29t-90.5 -75l-122 -123q-16 -16 -3 -33q134 -176 246 -307q27 -32 74 -38l24 -3q5 -4 4.5 -15.5
t-6.5 -13.5q-52 3 -128 3q-72 0 -138 -3q-8 3 -8.5 14t6.5 15l27 4q26 3 7 27l-91.5 119.5t-106.5 132.5q-15 15 -24 15q-11 0 -16.5 -7.5t-6 -15t-0.5 -24.5v-6v-127q0 -54 5 -76.5t14.5 -29t36.5 -9.5l25 -3q5 -4 4.5 -15t-6.5 -14q-70 3 -136 3q-73 0 -127 -3
q-6 3 -6.5 14t4.5 15l14 2q27 4 36.5 10.5t14.5 29t5 76.5v372q0 54 -5 76.5t-14.5 28.5t-36.5 10l-19 3q-5 5 -4.5 15.5t6.5 13.5q61 -3 132 -3q70 0 128 3q6 -3 6.5 -14t-4.5 -15l-17 -3q-38 -6 -47 -22.5t-9 -92.5zM419 -125q0 -54 -35.5 -88t-92.5 -49q-9 3 -12 12.5
t3 17.5q26 8 49 28.5t23 44.5q0 7 -2 13t-6 11t-7.5 8.5t-9.5 7l-8.5 5t-8.5 3.5l-5 2q-20 9 -20 30q0 19 14.5 31.5t40.5 12.5q29 0 53 -24t24 -66z" />
    <glyph glyph-name="kcommaaccent" unicode="&#x137;" horiz-adv-x="484" 
d="M76 119v429q0 51 -3.5 64t-22.5 25l-11 7q-5 3 -5 12t5 11q31 9 131 48q10 2 14 -8q-3 -60 -3 -145v-317q0 -9 4 -11.5t18 -2.5q29 0 65 38l39 43q29 32 29 39q0 9 -16 10l-27 3q-7 5 -6.5 15.5t8.5 14.5h29q85 0 156 8q7 -3 7 -13.5t-5 -16.5l-18 -3q-43 -8 -73 -34
q-75 -67 -85 -77q-8 -10 0 -20q107 -150 143 -184q25 -23 57 -27l10 -1q5 -6 4 -16t-7 -13q-49 3 -111 3q-46 0 -108 -3q-7 4 -8 14t6 15l10 1q19 4 19 12t-12 24l-82 115q-14 20 -31 20q-9 0 -12 -5.5t-3 -25.5v-48q0 -56 6.5 -71t31.5 -19l22 -3q5 -5 4.5 -15.5
t-6.5 -13.5q-63 3 -113 3q-45 0 -107 -3q-6 3 -6.5 13.5t4.5 15.5l21 3q25 4 31.5 19t6.5 71zM313 -125q0 -54 -36 -88t-92 -49q-10 3 -12.5 12.5t2.5 17.5q25 7 46 28t21 45q0 31 -42 50q-19 9 -19 30q0 19 14.5 31.5t40.5 12.5q29 0 53 -24t24 -66z" />
    <glyph glyph-name="Lacute" unicode="&#x139;" horiz-adv-x="560" 
d="M235 516v-351q0 -84 17 -103q10 -12 31 -17t77 -5q85 0 112 16t61 92q7 4 17 2t14 -8q-17 -88 -42 -145q-63 3 -240 3h-104q-80 0 -143 -3q-6 3 -7 14t5 15l30 5q38 6 47 22.5t9 90.5v372q0 53 -5 75t-14.5 28.5t-36.5 10.5l-28 4q-5 4 -5 15t7 14q75 -3 141 -3
q67 0 133 3q7 -3 7.5 -14t-5.5 -15l-22 -4q-27 -5 -36.5 -11t-14.5 -28t-5 -75zM359 773l-194 -67q-6 1 -10.5 10.5t-2.5 17.5l162 118q22 16 31 16q16 0 33 -28q18 -31 14 -43q-7 -15 -33 -24z" />
    <glyph glyph-name="lacute" unicode="&#x13a;" horiz-adv-x="258" 
d="M78 119v429q0 51 -3.5 64t-22.5 25l-11 7q-5 3 -5 12t5 11q37 11 131 48q10 2 14 -8q-3 -60 -3 -145v-443q0 -56 6.5 -71t31.5 -19l22 -3q5 -5 4.5 -15.5t-6.5 -13.5q-62 3 -112 3q-47 0 -108 -3q-6 3 -6.5 13.5t4.5 15.5l21 3q25 4 31.5 19t6.5 71zM255 787l-176 -61
q-5 2 -9 10t-3 15l147 108q20 14 29 14q16 0 30 -25q17 -27 12 -39q-5 -14 -30 -22z" />
    <glyph glyph-name="Lcommaaccent" unicode="&#x13b;" horiz-adv-x="560" 
d="M235 516v-351q0 -84 17 -103q10 -12 31 -17t77 -5q85 0 112 16t61 92q7 4 17 2t14 -8q-17 -88 -42 -145q-63 3 -240 3h-104q-80 0 -143 -3q-6 3 -7 14t5 15l30 5q38 6 47 22.5t9 90.5v372q0 53 -5 75t-14.5 28.5t-36.5 10.5l-28 4q-5 4 -5 15t7 14q75 -3 141 -3
q67 0 133 3q7 -3 7.5 -14t-5.5 -15l-22 -4q-27 -5 -36.5 -11t-14.5 -28t-5 -75zM371 -125q0 -54 -36 -88t-92 -49q-10 3 -12.5 12.5t2.5 17.5q26 8 49 28.5t23 44.5q0 7 -2 13t-6 11t-7.5 8.5t-9.5 7l-8.5 5t-7.5 3.5l-6 2q-19 9 -19 30q0 19 14.5 31.5t40.5 12.5
q29 0 53 -24t24 -66z" />
    <glyph glyph-name="lcommaaccent" unicode="&#x13c;" horiz-adv-x="258" 
d="M78 119v429q0 51 -3.5 64t-22.5 25l-11 7q-5 3 -5 12t5 11q37 11 131 48q10 2 14 -8q-3 -60 -3 -145v-443q0 -56 6.5 -71t31.5 -19l22 -3q5 -5 4.5 -15.5t-6.5 -13.5q-62 3 -112 3q-47 0 -108 -3q-6 3 -6.5 13.5t4.5 15.5l21 3q25 4 31.5 19t6.5 71zM200 -125
q0 -54 -36 -88t-92 -49q-10 3 -12.5 12.5t2.5 17.5q26 7 47.5 28t21.5 45q0 5 -1 10t-3.5 9.5t-5 8t-6 6.5l-6 5t-7 4t-6.5 3l-6 3l-3 1q-19 9 -19 30q0 19 14.5 31.5t40.5 12.5q29 0 53 -24t24 -66z" />
    <glyph glyph-name="Lcaron" unicode="&#x13d;" horiz-adv-x="560" 
d="M235 516v-351q0 -84 17 -103q10 -12 31 -17t77 -5q85 0 112 16t61 92q7 4 17 2t14 -8q-17 -88 -42 -145q-63 3 -240 3h-104q-80 0 -143 -3q-6 3 -7 14t5 15l30 5q38 6 47 22.5t9 90.5v372q0 53 -5 75t-14.5 28.5t-36.5 10.5l-28 4q-5 4 -5 15t7 14q75 -3 141 -3
q67 0 133 3q7 -3 7.5 -14t-5.5 -15l-22 -4q-27 -5 -36.5 -11t-14.5 -28t-5 -75zM429 690q38 0 64.5 -27.5t26.5 -65.5q0 -51 -39.5 -88t-95.5 -50q-14 10 -7 28q72 28 72 82q0 20 -14 32t-33 14q-12 2 -20.5 10.5t-8.5 22.5q0 15 13 28.5t42 13.5z" />
    <glyph glyph-name="lcaron" unicode="&#x13e;" horiz-adv-x="258" 
d="M78 119v429q0 51 -3.5 64t-22.5 25l-11 7q-5 3 -5 12t5 11q37 11 131 48q10 2 14 -8q-3 -60 -3 -145v-443q0 -56 6.5 -71t31.5 -19l22 -3q5 -5 4.5 -15.5t-6.5 -13.5q-62 3 -112 3q-47 0 -108 -3q-6 3 -6.5 13.5t4.5 15.5l21 3q25 4 31.5 19t6.5 71zM264 715
q28 0 49 -27.5t21 -64.5q0 -47 -32 -83t-76 -50q-11 11 -6 24q58 39 58 81q0 19 -11 30.5t-25 13.5q-10 2 -17.5 10t-7.5 20q0 18 11 32t36 14z" />
    <glyph glyph-name="Lslash" unicode="&#x141;" horiz-adv-x="566" 
d="M241 516v-150l112 73q11 -5 17.5 -16t3.5 -21l-133 -87v-150q0 -84 17 -103q10 -12 31 -17t77 -5q85 0 112 16t61 92q7 4 17 2t14 -8q-17 -88 -42 -145q-63 3 -240 3h-104q-80 0 -143 -3q-6 3 -7 14t5 15l30 5q38 6 47 22.5t9 90.5v97l-86 -56q-11 2 -16.5 15.5
t-1.5 24.5l104 67v224q0 53 -5 75t-14.5 28.5t-36.5 10.5l-28 4q-5 4 -5 15t7 14q75 -3 141 -3q67 0 133 3q7 -3 7.5 -14t-5.5 -15l-22 -4q-27 -5 -36.5 -11t-14.5 -28t-5 -75z" />
    <glyph glyph-name="lslash" unicode="&#x142;" horiz-adv-x="275" 
d="M296 408l-104 -81v-208q0 -56 6.5 -71t31.5 -19l22 -3q5 -5 4.5 -15.5t-6.5 -13.5q-62 3 -112 3q-46 0 -108 -3q-6 3 -6.5 13.5t4.5 15.5l21 3q25 4 31.5 19t6.5 71v126l-74 -58q-21 10 -18 36l92 72v253q0 51 -3.5 64t-22.5 25l-11 7q-5 3 -5 12t5 11q37 11 131 48
q10 2 14 -8q-3 -60 -3 -145v-185l84 66q11 -2 17 -12.5t3 -22.5z" />
    <glyph glyph-name="Nacute" unicode="&#x143;" horiz-adv-x="780" 
d="M669 409v-239q0 -153 3 -176q-12 -16 -34 -14q-22 28 -117 137l-234 267q-93 107 -114 126q-3 0 -3 -64v-195q0 -165 18 -197q12 -20 51 -25l22 -3q7 -5 6 -16t-8 -13q-55 3 -114 3q-51 0 -104 -3q-6 4 -7 14t5 15l22 5q37 8 44 23q13 31 13 197v237q0 64 -4.5 83
t-28.5 40q-14 12 -53 20l-15 3q-6 4 -4.5 15.5t8.5 13.5q28 -3 118 -3q33 0 69 3q11 -28 65.5 -95.5t95.5 -111.5l100 -108l51 -57l64.5 -71t29.5 -30q3 3 3 24v195q0 165 -19 197q-12 20 -50 25l-23 3q-7 5 -6 16t8 13q58 -3 115 -3q51 0 105 3q6 -4 7 -14t-5 -15l-23 -5
q-36 -8 -43 -23q-14 -31 -14 -197zM534 773l-194 -67q-6 1 -10.5 10.5t-2.5 17.5l162 118q22 16 31 16q16 0 33 -28q18 -31 14 -43q-7 -15 -33 -24z" />
    <glyph glyph-name="nacute" unicode="&#x144;" horiz-adv-x="533" 
d="M193 253v-134q0 -56 6.5 -71.5t31.5 -19.5l15 -2q5 -5 4.5 -15.5t-6.5 -13.5q-52 3 -106 3q-45 0 -108 -3q-6 3 -6.5 13.5t4.5 15.5l22 3q25 4 31.5 19t6.5 71v147q0 37 -3.5 49t-21.5 23l-12 7q-2 3 -2 11t3 12q67 19 130 54q9 0 13 -8q-2 -19 -2 -46q0 -8 9 -10
q8 4 25.5 14.5t26 14.5t23.5 10.5t29.5 8.5t32.5 2q59 0 89 -36.5t30 -97.5v-155q0 -56 6.5 -71.5t31.5 -18.5l23 -3q5 -5 4.5 -15.5t-6.5 -13.5q-63 3 -113 3t-102 -3q-6 3 -6.5 13.5t4.5 15.5l15 2q25 4 31.5 19.5t6.5 71.5v138q0 91 -80 91q-45 0 -66 -31
q-9 -13 -11.5 -24t-2.5 -40zM386 596l-129 -143q-21 -2 -24 15l85 181q15 32 31 32q13 0 38 -16q23 -16 23 -32q0 -9 -24 -37z" />
    <glyph glyph-name="Ncommaaccent" unicode="&#x145;" horiz-adv-x="780" 
d="M669 409v-239q0 -153 3 -176q-12 -16 -34 -14q-22 28 -117 137l-234 267q-93 107 -114 126q-3 0 -3 -64v-195q0 -165 18 -197q12 -20 51 -25l22 -3q7 -5 6 -16t-8 -13q-55 3 -114 3q-51 0 -104 -3q-6 4 -7 14t5 15l22 5q37 8 44 23q13 31 13 197v237q0 64 -4.5 83
t-28.5 40q-14 12 -53 20l-15 3q-6 4 -4.5 15.5t8.5 13.5q28 -3 118 -3q33 0 69 3q11 -28 65.5 -95.5t95.5 -111.5l100 -108l51 -57l64.5 -71t29.5 -30q3 3 3 24v195q0 165 -19 197q-12 20 -50 25l-23 3q-7 5 -6 16t8 13q58 -3 115 -3q51 0 105 3q6 -4 7 -14t-5 -15l-23 -5
q-36 -8 -43 -23q-14 -31 -14 -197zM471 -125q0 -54 -36 -88t-92 -49q-10 3 -12.5 12.5t2.5 17.5q26 8 49 28.5t23 44.5q0 7 -2 13t-6 11t-7.5 8.5t-9.5 7l-8.5 5t-7.5 3.5l-6 2q-19 9 -19 30q0 19 14.5 31.5t40.5 12.5q29 0 53 -24t24 -66z" />
    <glyph glyph-name="ncommaaccent" unicode="&#x146;" horiz-adv-x="533" 
d="M193 253v-134q0 -56 6.5 -71.5t31.5 -19.5l15 -2q5 -5 4.5 -15.5t-6.5 -13.5q-52 3 -106 3q-45 0 -108 -3q-6 3 -6.5 13.5t4.5 15.5l22 3q25 4 31.5 19t6.5 71v147q0 37 -3.5 49t-21.5 23l-12 7q-2 3 -2 11t3 12q67 19 130 54q9 0 13 -8q-2 -19 -2 -46q0 -8 9 -10
q8 4 25.5 14.5t26 14.5t23.5 10.5t29.5 8.5t32.5 2q59 0 89 -36.5t30 -97.5v-155q0 -56 6.5 -71.5t31.5 -18.5l23 -3q5 -5 4.5 -15.5t-6.5 -13.5q-63 3 -113 3t-102 -3q-6 3 -6.5 13.5t4.5 15.5l15 2q25 4 31.5 19.5t6.5 71.5v138q0 91 -80 91q-45 0 -66 -31
q-9 -13 -11.5 -24t-2.5 -40zM338 -125q0 -54 -36 -88t-92 -49q-10 3 -12.5 12.5t2.5 17.5q26 7 47.5 28t21.5 45q0 5 -1 10t-3.5 9.5t-5 8t-6 6.5l-6 5t-7 4t-6.5 3l-6 3l-3 1q-19 9 -19 30q0 19 14.5 31.5t40.5 12.5q29 0 53 -24t24 -66z" />
    <glyph glyph-name="Ncaron" unicode="&#x147;" horiz-adv-x="780" 
d="M669 409v-239q0 -153 3 -176q-12 -16 -34 -14q-22 28 -117 137l-234 267q-93 107 -114 126q-3 0 -3 -64v-195q0 -165 18 -197q12 -20 51 -25l22 -3q7 -5 6 -16t-8 -13q-55 3 -114 3q-51 0 -104 -3q-6 4 -7 14t5 15l22 5q37 8 44 23q13 31 13 197v237q0 64 -4.5 83
t-28.5 40q-14 12 -53 20l-15 3q-6 4 -4.5 15.5t8.5 13.5q28 -3 118 -3q33 0 69 3q11 -28 65.5 -95.5t95.5 -111.5l100 -108l51 -57l64.5 -71t29.5 -30q3 3 3 24v195q0 165 -19 197q-12 20 -50 25l-23 3q-7 5 -6 16t8 13q58 -3 115 -3q51 0 105 3q6 -4 7 -14t-5 -15l-23 -5
q-36 -8 -43 -23q-14 -31 -14 -197zM548 838l-136 -127q-23 -21 -47 0l-137 127q0 8 5.5 16t11.5 8l126 -68q17 -12 34 0l126 68q5 -1 11 -9t6 -15z" />
    <glyph glyph-name="ncaron" unicode="&#x148;" horiz-adv-x="533" 
d="M193 253v-134q0 -56 6.5 -71.5t31.5 -19.5l15 -2q5 -5 4.5 -15.5t-6.5 -13.5q-52 3 -106 3q-45 0 -108 -3q-6 3 -6.5 13.5t4.5 15.5l22 3q25 4 31.5 19t6.5 71v147q0 37 -3.5 49t-21.5 23l-12 7q-2 3 -2 11t3 12q67 19 130 54q9 0 13 -8q-2 -19 -2 -46q0 -8 9 -10
q8 4 25.5 14.5t26 14.5t23.5 10.5t29.5 8.5t32.5 2q59 0 89 -36.5t30 -97.5v-155q0 -56 6.5 -71.5t31.5 -18.5l23 -3q5 -5 4.5 -15.5t-6.5 -13.5q-63 3 -113 3t-102 -3q-6 3 -6.5 13.5t4.5 15.5l15 2q25 4 31.5 19.5t6.5 71.5v138q0 91 -80 91q-45 0 -66 -31
q-9 -13 -11.5 -24t-2.5 -40zM245 464l-96 192q1 6 8.5 11t14.5 5l71 -87q18 -23 25 -23q3 0 25 27l66 85q8 1 15.5 -3.5t9.5 -10.5l-99 -196q-7 -13 -20 -13t-20 13z" />
    <glyph glyph-name="Omacron" unicode="&#x14c;" horiz-adv-x="792" 
d="M400 676q165 0 257.5 -101.5t92.5 -246.5q0 -148 -100.5 -246t-251.5 -98q-163 0 -259.5 98.5t-96.5 238.5q0 154 100.5 254.5t257.5 100.5zM387 636q-86 0 -147.5 -69.5t-61.5 -216.5q0 -55 12.5 -109.5t38 -104.5t72 -81t107.5 -31q91 0 148.5 71.5t57.5 214.5
q0 59 -13.5 115t-40 104t-71.5 77.5t-102 29.5zM531 741h-257q-9 11 -9 33t9 36h257q10 -14 10 -36t-10 -33z" />
    <glyph glyph-name="omacron" unicode="&#x14d;" horiz-adv-x="492" 
d="M250 408q88 0 149.5 -56t61.5 -150q0 -102 -62.5 -159t-156.5 -57q-90 0 -150.5 54.5t-60.5 149.5q0 98 64 158t155 60zM149 205q0 -74 27 -126.5t78 -52.5q47 0 68 46t21 113q0 72 -26 127.5t-77 55.5q-40 0 -65.5 -41.5t-25.5 -121.5zM370 497h-238q-8 11 -8 35.5
t8 34.5h238q8 -10 8 -34.5t-8 -35.5z" />
    <glyph glyph-name="Ohungarumlaut" unicode="&#x150;" horiz-adv-x="792" 
d="M400 676q165 0 257.5 -101.5t92.5 -246.5q0 -148 -100.5 -246t-251.5 -98q-163 0 -259.5 98.5t-96.5 238.5q0 154 100.5 254.5t257.5 100.5zM387 636q-86 0 -147.5 -69.5t-61.5 -216.5q0 -55 12.5 -109.5t38 -104.5t72 -81t107.5 -31q91 0 148.5 71.5t57.5 214.5
q0 59 -13.5 115t-40 104t-71.5 77.5t-102 29.5zM456 726l80 135q9 16 27 16q16 0 38 -20q20 -20 20 -34q0 -17 -33 -40l-108 -77q-21 5 -24 20zM296 726l80 135q9 16 27 16q16 0 38 -20q20 -20 20 -34q0 -17 -33 -40l-108 -77q-21 5 -24 20z" />
    <glyph glyph-name="ohungarumlaut" unicode="&#x151;" horiz-adv-x="492" 
d="M250 408q88 0 149.5 -56t61.5 -150q0 -102 -62.5 -159t-156.5 -57q-90 0 -150.5 54.5t-60.5 149.5q0 98 64 158t155 60zM149 205q0 -74 27 -126.5t78 -52.5q47 0 68 46t21 113q0 72 -26 127.5t-77 55.5q-40 0 -65.5 -41.5t-25.5 -121.5zM298 462l62 184q9 25 28 25
q12 0 34 -13q21 -15 21 -26t-23 -45l-99 -141q-22 -2 -23 16zM151 462l62 184q9 25 26 25q14 0 36 -13q21 -15 21 -26t-23 -45l-99 -141q-22 -2 -23 16z" />
    <glyph glyph-name="OE" unicode="&#x152;" horiz-adv-x="1016" 
d="M620 660h185q115 0 135 3q2 -9 7.5 -64.5t8.5 -74.5q-3 -6 -14.5 -7.5t-17.5 3.5q-12 44 -25.5 64t-37.5 27q-34 9 -80 9h-67q-32 0 -37.5 -8t-5.5 -51v-170q0 -19 3.5 -22.5t20.5 -3.5h48q68 0 86 6.5t25 37.5l7 34q6 5 17 5t15 -6q-3 -81 -3 -100q0 -9 3 -105
q-4 -5 -15 -5.5t-17 4.5l-7 40q-5 30 -24 37t-87 7h-48q-17 0 -20.5 -4t-3.5 -23v-127q0 -85 17 -104q10 -11 32 -16t81 -6q63 0 97.5 11t50.5 31.5t36 65.5q7 5 17.5 3t14.5 -9q-5 -32 -18.5 -78.5t-23.5 -66.5q-66 3 -247 3h-104q-41 0 -98.5 -3t-80.5 -3
q-194 0 -298.5 90.5t-104.5 236.5q0 147 109 244.5t303 97.5q22 0 78.5 -1.5t87.5 -1.5zM555 108v438q0 42 -19 60t-83 18q-137 0 -206 -82t-69 -211q0 -125 67.5 -211t190.5 -86q54 0 89 19q30 17 30 55z" />
    <glyph glyph-name="oe" unicode="&#x153;" horiz-adv-x="730" 
d="M466 277h76q54 0 66 7q10 5 10 18q0 29 -18 48.5t-50 19.5q-44 0 -71 -31.5t-27 -54.5q0 -7 14 -7zM638 237h-174q-14 0 -17.5 -2t-3.5 -11q0 -72 42 -117t113 -45q64 0 95 50q7 2 14 -3.5t8 -12.5q-24 -56 -70.5 -83t-96.5 -27q-95 0 -153 70q-51 -70 -156 -70
q-88 0 -148 54.5t-60 149.5q0 98 64.5 158t156.5 60q99 0 150 -72q26 32 67.5 52t87.5 20q63 0 109 -36t46 -99q0 -13 -5 -23q-9 -13 -69 -13zM243 368q-42 0 -68 -41.5t-26 -121.5q0 -75 27 -127t79 -52q49 0 70.5 46t21.5 113q0 73 -26 128t-78 55z" />
    <glyph glyph-name="Racute" unicode="&#x154;" horiz-adv-x="656" 
d="M119 144v366q0 74 -7 91.5t-41 21.5l-26 3q-5 5 -5 14.5t6 13.5q95 9 230 9q128 0 190 -34q88 -47 88 -146q0 -109 -120 -158q-8 -4 0 -17l73.5 -123t52 -77t51.5 -59q33 -28 69 -31q4 -3 4 -9.5t-2 -10.5q-24 -6 -66 -6q-70 0 -116 30t-93 102q-15 23 -42 71l-37 65
q-13 22 -24.5 28t-37.5 6q-22 0 -26.5 -3t-4.5 -19v-128q0 -54 5 -76.5t14.5 -29t36.5 -9.5l22 -3q5 -5 4.5 -15.5t-6.5 -13.5q-66 3 -133 3q-66 0 -135 -3q-6 3 -7 13.5t5 15.5l22 3q27 3 36.5 9.5t14.5 29t5 76.5zM235 574v-208q0 -24 6.5 -29t41.5 -5q143 0 143 143
q0 62 -37.5 105t-100.5 43q-38 0 -45.5 -7t-7.5 -42zM453 773l-194 -67q-6 1 -10.5 10.5t-2.5 17.5l162 118q22 16 31 16q16 0 33 -28q18 -31 14 -43q-7 -15 -33 -24z" />
    <glyph glyph-name="racute" unicode="&#x155;" horiz-adv-x="349" 
d="M89 119v147q0 37 -3.5 49t-21.5 23l-12 7q-2 3 -2 11t3 12q79 26 126 54q11 0 14 -9q-2 -38 -2 -45q0 -12 10 -12q5 4 18 13.5t20.5 14.5t18.5 11.5t21 9.5t20 3q25 0 40 -14.5t15 -34.5q0 -27 -17 -42.5t-39 -15.5q-14 0 -27 8q-28 19 -48 19q-17 0 -23 -17t-6 -55v-137
q0 -56 6.5 -71t32.5 -18l39 -4q5 -5 4.5 -15.5t-6.5 -13.5q-90 3 -131 3q-47 0 -104 -3q-6 3 -6.5 13.5t4.5 15.5l18 3q25 4 31.5 19t6.5 71zM309 594l-129 -143q-21 -2 -24 15l85 181q15 32 31 32q13 0 38 -16q23 -16 23 -32q0 -9 -24 -37z" />
    <glyph glyph-name="Rcommaaccent" unicode="&#x156;" horiz-adv-x="656" 
d="M119 144v366q0 74 -7 91.5t-41 21.5l-26 3q-5 5 -5 14.5t6 13.5q95 9 230 9q128 0 190 -34q88 -47 88 -146q0 -109 -120 -158q-8 -4 0 -17l73.5 -123t52 -77t51.5 -59q33 -28 69 -31q4 -3 4 -9.5t-2 -10.5q-24 -6 -66 -6q-70 0 -116 30t-93 102q-15 23 -42 71l-37 65
q-13 22 -24.5 28t-37.5 6q-22 0 -26.5 -3t-4.5 -19v-128q0 -54 5 -76.5t14.5 -29t36.5 -9.5l22 -3q5 -5 4.5 -15.5t-6.5 -13.5q-66 3 -133 3q-66 0 -135 -3q-6 3 -7 13.5t5 15.5l22 3q27 3 36.5 9.5t14.5 29t5 76.5zM235 574v-208q0 -24 6.5 -29t41.5 -5q143 0 143 143
q0 62 -37.5 105t-100.5 43q-38 0 -45.5 -7t-7.5 -42zM433 -125q0 -54 -35.5 -88t-92.5 -49q-9 3 -12 12.5t3 17.5q26 8 49 28.5t23 44.5q0 7 -2 13t-6 11t-7.5 8.5t-9.5 7l-8.5 5t-8.5 3.5l-5 2q-20 9 -20 30q0 19 14.5 31.5t40.5 12.5q29 0 53 -24t24 -66z" />
    <glyph glyph-name="rcommaaccent" unicode="&#x157;" horiz-adv-x="349" 
d="M89 119v147q0 37 -3.5 49t-21.5 23l-12 7q-2 3 -2 11t3 12q79 26 126 54q11 0 14 -9q-2 -38 -2 -45q0 -12 10 -12q5 4 18 13.5t20.5 14.5t18.5 11.5t21 9.5t20 3q25 0 40 -14.5t15 -34.5q0 -27 -17 -42.5t-39 -15.5q-14 0 -27 8q-28 19 -48 19q-17 0 -23 -17t-6 -55v-137
q0 -56 6.5 -71t32.5 -18l39 -4q5 -5 4.5 -15.5t-6.5 -13.5q-90 3 -131 3q-47 0 -104 -3q-6 3 -6.5 13.5t4.5 15.5l18 3q25 4 31.5 19t6.5 71zM205 -125q0 -54 -32.5 -88t-83.5 -49q-9 3 -11.5 12.5t2.5 17.5q25 8 47.5 29t22.5 44q0 8 -3 15t-7 12t-10.5 9.5t-10.5 6.5
t-9.5 4.5t-6.5 2.5q-18 9 -18 30q0 19 13.5 31.5t36.5 12.5q26 0 48 -24t22 -66z" />
    <glyph glyph-name="Rcaron" unicode="&#x158;" horiz-adv-x="656" 
d="M119 144v366q0 74 -7 91.5t-41 21.5l-26 3q-5 5 -5 14.5t6 13.5q95 9 230 9q128 0 190 -34q88 -47 88 -146q0 -109 -120 -158q-8 -4 0 -17l73.5 -123t52 -77t51.5 -59q33 -28 69 -31q4 -3 4 -9.5t-2 -10.5q-24 -6 -66 -6q-70 0 -116 30t-93 102q-15 23 -42 71l-37 65
q-13 22 -24.5 28t-37.5 6q-22 0 -26.5 -3t-4.5 -19v-128q0 -54 5 -76.5t14.5 -29t36.5 -9.5l22 -3q5 -5 4.5 -15.5t-6.5 -13.5q-66 3 -133 3q-66 0 -135 -3q-6 3 -7 13.5t5 15.5l22 3q27 3 36.5 9.5t14.5 29t5 76.5zM235 574v-208q0 -24 6.5 -29t41.5 -5q143 0 143 143
q0 62 -37.5 105t-100.5 43q-38 0 -45.5 -7t-7.5 -42zM471 848l-136 -127q-23 -21 -47 0l-137 127q0 8 5.5 16t11.5 8l126 -63q17 -11 35 -1l125 64q5 -1 11 -9t6 -15z" />
    <glyph glyph-name="rcaron" unicode="&#x159;" horiz-adv-x="349" 
d="M89 119v147q0 37 -3.5 49t-21.5 23l-12 7q-2 3 -2 11t3 12q79 26 126 54q11 0 14 -9q-2 -38 -2 -45q0 -12 10 -12q5 4 18 13.5t20.5 14.5t18.5 11.5t21 9.5t20 3q25 0 40 -14.5t15 -34.5q0 -27 -17 -42.5t-39 -15.5q-14 0 -27 8q-28 19 -48 19q-17 0 -23 -17t-6 -55v-137
q0 -56 6.5 -71t32.5 -18l39 -4q5 -5 4.5 -15.5t-6.5 -13.5q-90 3 -131 3q-47 0 -104 -3q-6 3 -6.5 13.5t4.5 15.5l18 3q25 4 31.5 19t6.5 71zM178 468l-95 192q1 7 8 11.5t15 4.5l70 -87q18 -23 25 -23q4 0 26 27l66 85q8 1 16 -3.5t9 -10.5l-100 -196q-6 -13 -20 -13
t-20 13z" />
    <glyph glyph-name="Sacute" unicode="&#x15a;" horiz-adv-x="504" 
d="M231 -16q-94 0 -164 42q-13 16 -22 60.5t-8 91.5q4 7 14.5 8t16.5 -4q8 -23 21 -47t33.5 -50.5t51 -43.5t64.5 -17q56 0 87.5 30t31.5 77q0 88 -102 145l-43 24q-141 79 -141 193q0 78 57.5 130.5t162.5 52.5q18 0 37.5 -2t32 -4.5t34 -7.5t33.5 -7q8 -16 14.5 -57.5
t6.5 -77.5q-4 -7 -14.5 -7.5t-17.5 4.5q-34 119 -135 119q-56 0 -84.5 -30.5t-28.5 -74.5q0 -72 95 -122l62 -33q137 -72 137 -197q0 -87 -62.5 -141t-169.5 -54zM421 773l-194 -67q-6 1 -10.5 10.5t-2.5 17.5l162 118q22 16 31 16q16 0 33 -28q18 -31 14 -43
q-7 -15 -33 -24z" />
    <glyph glyph-name="sacute" unicode="&#x15b;" horiz-adv-x="346" 
d="M163 -14q-71 0 -114 32q-18 34 -14 113q4 6 13.5 6.5t14.5 -4.5q15 -47 43 -78t65 -31q24 0 40 15t16 41q0 45 -68 78q-106 51 -106 126q-1 57 42 90.5t107 33.5q58 0 93 -20q15 -32 15 -97q-2 -6 -12 -8t-15 3q-12 36 -35 60t-51 24q-24 0 -40 -15t-16 -37q0 -36 67 -68
q33 -16 54 -30.5t39 -43t18 -65.5q0 -61 -45.5 -93t-110.5 -32zM297 589l-129 -143q-21 -2 -24 15l85 181q15 32 31 32q13 0 38 -16q23 -16 23 -32q0 -9 -24 -37z" />
    <glyph glyph-name="Scedilla" unicode="&#x15e;" horiz-adv-x="504" 
d="M191 -96l61 82q-6 -2 -21 -2q-94 0 -164 42q-13 16 -22 60.5t-8 91.5q4 7 14.5 8t16.5 -4q8 -23 21 -47t33.5 -50.5t51 -43.5t64.5 -17q56 0 87.5 30t31.5 77q0 88 -102 145l-43 24q-141 79 -141 193q0 78 57.5 130.5t162.5 52.5q18 0 37.5 -2t32 -4.5t34 -7.5t33.5 -7
q8 -16 14.5 -57.5t6.5 -77.5q-4 -7 -14.5 -7.5t-17.5 4.5q-34 119 -135 119q-56 0 -84.5 -30.5t-28.5 -74.5q0 -72 95 -122l62 -33q137 -72 137 -197q0 -70 -42.5 -120t-118.5 -66l-32 -43q-6 -8 -4.5 -11.5t13.5 -9.5q57 -31 57 -79q0 -39 -35 -64t-82 -25q-33 0 -52 11
t-19 31q0 13 8.5 22t21.5 9t33 -17.5t29 -17.5t17 8.5t8 23.5q0 36 -71 67z" />
    <glyph glyph-name="Scedilla" unicode="&#xf6c1;" horiz-adv-x="504" 
d="M191 -96l61 82q-6 -2 -21 -2q-94 0 -164 42q-13 16 -22 60.5t-8 91.5q4 7 14.5 8t16.5 -4q8 -23 21 -47t33.5 -50.5t51 -43.5t64.5 -17q56 0 87.5 30t31.5 77q0 88 -102 145l-43 24q-141 79 -141 193q0 78 57.5 130.5t162.5 52.5q18 0 37.5 -2t32 -4.5t34 -7.5t33.5 -7
q8 -16 14.5 -57.5t6.5 -77.5q-4 -7 -14.5 -7.5t-17.5 4.5q-34 119 -135 119q-56 0 -84.5 -30.5t-28.5 -74.5q0 -72 95 -122l62 -33q137 -72 137 -197q0 -70 -42.5 -120t-118.5 -66l-32 -43q-6 -8 -4.5 -11.5t13.5 -9.5q57 -31 57 -79q0 -39 -35 -64t-82 -25q-33 0 -52 11
t-19 31q0 13 8.5 22t21.5 9t33 -17.5t29 -17.5t17 8.5t8 23.5q0 36 -71 67z" />
    <glyph glyph-name="scedilla" unicode="&#x15f;" horiz-adv-x="346" 
d="M112 -86l55 72h-4q-71 0 -114 32q-18 34 -14 113q4 6 13.5 6.5t14.5 -4.5q15 -47 43 -78t65 -31q24 0 40 15t16 41q0 45 -68 78q-106 51 -106 126q-1 57 42 90.5t107 33.5q58 0 93 -20q15 -32 15 -97q-2 -6 -12 -8t-15 3q-12 36 -35 60t-51 24q-24 0 -40 -15t-16 -37
q0 -36 67 -68q33 -16 54 -30.5t39 -43t18 -65.5q0 -49 -30 -79.5t-79 -40.5l-27 -36q-4 -5 -4 -8t2.5 -5t9.5 -6q52 -28 52 -71q0 -35 -31.5 -57.5t-74.5 -22.5q-63 0 -63 38q0 12 7.5 20t19.5 8t29.5 -16t25.5 -16t15.5 8t7.5 21q0 33 -64 60z" />
    <glyph glyph-name="scedilla" unicode="&#xf6c2;" horiz-adv-x="346" 
d="M112 -86l55 72h-4q-71 0 -114 32q-18 34 -14 113q4 6 13.5 6.5t14.5 -4.5q15 -47 43 -78t65 -31q24 0 40 15t16 41q0 45 -68 78q-106 51 -106 126q-1 57 42 90.5t107 33.5q58 0 93 -20q15 -32 15 -97q-2 -6 -12 -8t-15 3q-12 36 -35 60t-51 24q-24 0 -40 -15t-16 -37
q0 -36 67 -68q33 -16 54 -30.5t39 -43t18 -65.5q0 -49 -30 -79.5t-79 -40.5l-27 -36q-4 -5 -4 -8t2.5 -5t9.5 -6q52 -28 52 -71q0 -35 -31.5 -57.5t-74.5 -22.5q-63 0 -63 38q0 12 7.5 20t19.5 8t29.5 -16t25.5 -16t15.5 8t7.5 21q0 33 -64 60z" />
    <glyph glyph-name="Scaron" unicode="&#x160;" horiz-adv-x="504" 
d="M231 -16q-94 0 -164 42q-13 16 -22 60.5t-8 91.5q4 7 14.5 8t16.5 -4q8 -23 21 -47t33.5 -50.5t51 -43.5t64.5 -17q56 0 87.5 30t31.5 77q0 88 -102 145l-43 24q-141 79 -141 193q0 78 57.5 130.5t162.5 52.5q18 0 37.5 -2t32 -4.5t34 -7.5t33.5 -7q8 -16 14.5 -57.5
t6.5 -77.5q-4 -7 -14.5 -7.5t-17.5 4.5q-34 119 -135 119q-56 0 -84.5 -30.5t-28.5 -74.5q0 -72 95 -122l62 -33q137 -72 137 -197q0 -87 -62.5 -141t-169.5 -54zM434 848l-136 -127q-23 -22 -46 0l-138 127q0 8 5.5 16t12.5 8l125 -68q17 -12 34 0l127 68q5 -1 10.5 -9
t5.5 -15z" />
    <glyph glyph-name="scaron" unicode="&#x161;" horiz-adv-x="346" 
d="M163 -14q-71 0 -114 32q-18 34 -14 113q4 6 13.5 6.5t14.5 -4.5q15 -47 43 -78t65 -31q24 0 40 15t16 41q0 45 -68 78q-106 51 -106 126q-1 57 42 90.5t107 33.5q58 0 93 -20q15 -32 15 -97q-2 -6 -12 -8t-15 3q-12 36 -35 60t-51 24q-24 0 -40 -15t-16 -37q0 -36 67 -68
q33 -16 54 -30.5t39 -43t18 -65.5q0 -61 -45.5 -93t-110.5 -32zM166 460l-95 192q1 7 8 11.5t15 4.5l70 -87q18 -23 25 -23q4 0 26 27l66 85q8 1 16 -3.5t9 -10.5l-100 -196q-6 -13 -20 -13t-20 13z" />
    <glyph glyph-name="Tcommaaccent" unicode="&#x162;" horiz-adv-x="682" 
d="M286 144v432q0 32 -4 38t-23 6h-56q-71 0 -100 -16.5t-56 -75.5q-5 -5 -17 -2.5t-15 9.5q24 77 39 151q3 4 11 4q7 0 10 -4q4 -18 18.5 -22t68.5 -4h408q38 0 52.5 4.5t23.5 21.5q8 4 12 4q10 0 13 -5q-7 -31 -12 -83t-3 -76q-4 -6 -14 -7t-17 4q-10 60 -35 78.5
t-104 18.5h-57q-19 0 -23 -6t-4 -38v-432q0 -54 5 -76.5t14.5 -28.5t36.5 -9l36 -4q5 -5 4.5 -15.5t-6.5 -13.5q-87 3 -147 3q-59 0 -155 -3q-6 3 -6.5 14t4.5 15l42 5q27 3 36.5 9t14.5 28t5 76zM413 -125q0 -54 -35.5 -88t-92.5 -49q-9 3 -12 12.5t3 17.5q26 8 49 28.5
t23 44.5q0 7 -2 13t-6 11t-7.5 8.5t-9.5 7l-8.5 5t-8.5 3.5l-5 2q-20 9 -20 30q0 19 14.5 31.5t40.5 12.5q29 0 53 -24t24 -66z" />
    <glyph glyph-name="Tcommaaccent" unicode="&#x21a;" horiz-adv-x="682" 
d="M286 144v432q0 32 -4 38t-23 6h-56q-71 0 -100 -16.5t-56 -75.5q-5 -5 -17 -2.5t-15 9.5q24 77 39 151q3 4 11 4q7 0 10 -4q4 -18 18.5 -22t68.5 -4h408q38 0 52.5 4.5t23.5 21.5q8 4 12 4q10 0 13 -5q-7 -31 -12 -83t-3 -76q-4 -6 -14 -7t-17 4q-10 60 -35 78.5
t-104 18.5h-57q-19 0 -23 -6t-4 -38v-432q0 -54 5 -76.5t14.5 -28.5t36.5 -9l36 -4q5 -5 4.5 -15.5t-6.5 -13.5q-87 3 -147 3q-59 0 -155 -3q-6 3 -6.5 14t4.5 15l42 5q27 3 36.5 9t14.5 28t5 76zM413 -125q0 -54 -35.5 -88t-92.5 -49q-9 3 -12 12.5t3 17.5q26 8 49 28.5
t23 44.5q0 7 -2 13t-6 11t-7.5 8.5t-9.5 7l-8.5 5t-8.5 3.5l-5 2q-20 9 -20 30q0 19 14.5 31.5t40.5 12.5q29 0 53 -24t24 -66z" />
    <glyph glyph-name="tcommaaccent" unicode="&#x163;" horiz-adv-x="321" 
d="M303 350h-95q-13 0 -16 -5t-3 -29v-154q0 -56 14.5 -87.5t58.5 -31.5q22 0 48 18q16 -2 13 -20q-16 -23 -50 -39t-77 -16q-66 0 -89 32.5t-23 92.5v203q0 26 -3 31t-15 5h-35q-8 4 -9 13t6 14q45 17 79 42q37 27 55 62q7 4 15.5 2.5t12.5 -7.5v-60q0 -13 2.5 -16t16.5 -3
h99q8 -4 8 -21q-2 -19 -13 -26zM252 -140q0 -53 -34.5 -87t-85.5 -50q-10 3 -12.5 12.5t2.5 17.5q23 9 46 29.5t23 43.5q0 8 -3.5 15t-8 12t-11.5 9.5t-11.5 6.5t-10.5 5l-7 2q-19 9 -19 30q0 19 14.5 31.5t40.5 12.5q29 0 53 -24t24 -66z" />
    <glyph glyph-name="tcommaaccent" unicode="&#x21b;" horiz-adv-x="321" 
d="M303 350h-95q-13 0 -16 -5t-3 -29v-154q0 -56 14.5 -87.5t58.5 -31.5q22 0 48 18q16 -2 13 -20q-16 -23 -50 -39t-77 -16q-66 0 -89 32.5t-23 92.5v203q0 26 -3 31t-15 5h-35q-8 4 -9 13t6 14q45 17 79 42q37 27 55 62q7 4 15.5 2.5t12.5 -7.5v-60q0 -13 2.5 -16t16.5 -3
h99q8 -4 8 -21q-2 -19 -13 -26zM252 -140q0 -53 -34.5 -87t-85.5 -50q-10 3 -12.5 12.5t2.5 17.5q23 9 46 29.5t23 43.5q0 8 -3.5 15t-8 12t-11.5 9.5t-11.5 6.5t-10.5 5l-7 2q-19 9 -19 30q0 19 14.5 31.5t40.5 12.5q29 0 53 -24t24 -66z" />
    <glyph glyph-name="Tcaron" unicode="&#x164;" horiz-adv-x="682" 
d="M286 144v432q0 32 -4 38t-23 6h-56q-71 0 -100 -16.5t-56 -75.5q-5 -5 -17 -2.5t-15 9.5q24 77 39 151q3 4 11 4q7 0 10 -4q4 -18 18.5 -22t68.5 -4h408q38 0 52.5 4.5t23.5 21.5q8 4 12 4q10 0 13 -5q-7 -31 -12 -83t-3 -76q-4 -6 -14 -7t-17 4q-10 60 -35 78.5
t-104 18.5h-57q-19 0 -23 -6t-4 -38v-432q0 -54 5 -76.5t14.5 -28.5t36.5 -9l36 -4q5 -5 4.5 -15.5t-6.5 -13.5q-87 3 -147 3q-59 0 -155 -3q-6 3 -6.5 14t4.5 15l42 5q27 3 36.5 9t14.5 28t5 76zM507 848l-136 -127q-23 -21 -47 0l-137 127q0 8 5.5 16t11.5 8l126 -68
q17 -12 34 0l126 68q5 -1 11 -9t6 -15z" />
    <glyph glyph-name="tcaron" unicode="&#x165;" horiz-adv-x="321" 
d="M303 350h-95q-13 0 -16 -5t-3 -29v-154q0 -56 14.5 -87.5t58.5 -31.5q22 0 48 18q16 -2 13 -20q-16 -23 -50 -39t-77 -16q-66 0 -89 32.5t-23 92.5v203q0 26 -3 31t-15 5h-35q-8 4 -9 13t6 14q45 17 79 42q37 27 55 62q7 4 15.5 2.5t12.5 -7.5v-60q0 -13 2.5 -16t16.5 -3
h99q8 -4 8 -21q-2 -19 -13 -26zM279 715q31 0 54 -27.5t23 -64.5q0 -47 -35.5 -83t-83.5 -50q-13 11 -7 24q59 42 59 81q0 20 -10 31t-25 13q-11 2 -19 10t-8 20q0 18 12 32t40 14z" />
    <glyph glyph-name="Umacron" unicode="&#x16a;" horiz-adv-x="744" 
d="M113 262v254q0 54 -5 76.5t-14.5 28.5t-36.5 11l-17 3q-5 5 -4.5 15t6.5 13q60 -3 129 -3q68 0 134 3q6 -3 6.5 -13t-4.5 -15l-22 -3q-27 -3 -36.5 -10t-14.5 -29.5t-5 -76.5v-229q0 -254 181 -254q185 0 185 251v125q0 166 -19 197q-12 20 -50 26l-20 3q-7 5 -6 15.5
t8 12.5q51 -3 111 -3q51 0 106 3q6 -4 7 -13.5t-5 -14.5l-22 -5q-37 -8 -44 -24q-14 -30 -14 -197v-119q0 -160 -66 -231q-70 -75 -196 -75q-139 0 -206 64q-66 63 -66 214zM522 741h-257q-9 11 -9 35t9 34h257q10 -10 10 -34t-10 -35z" />
    <glyph glyph-name="umacron" unicode="&#x16b;" horiz-adv-x="520" 
d="M445 314v-167q0 -53 4.5 -79.5t20.5 -26.5q19 0 43 7q7 -3 6.5 -15.5t-9.5 -18.5q-109 -12 -164 -38q-7 1 -9 10q4 25 3 37q-1 11 -10 11q-81 -48 -136 -48q-65 0 -92 33.5t-27 99.5v156q0 52 -5 66t-24 19l-14 4q-5 4 -4.5 14t6.5 12q94 2 139 18q9 -2 10 -9
q-3 -18 -3 -85v-154q0 -53 17 -83.5t65 -30.5q39 0 66 25q12 12 12 56v151q0 46 -7 58.5t-37 21.5l-16 5q-5 4 -5 14t6 13q125 2 157 18q9 -2 10 -9q-3 -29 -3 -85zM375 497h-238q-7 11 -7 36t7 35h238q7 -10 7 -35t-7 -36z" />
    <glyph glyph-name="Uring" unicode="&#x16e;" horiz-adv-x="744" 
d="M113 262v254q0 54 -5 76.5t-14.5 28.5t-36.5 11l-17 3q-5 5 -4.5 15t6.5 13q60 -3 129 -3q68 0 134 3q6 -3 6.5 -13t-4.5 -15l-22 -3q-27 -3 -36.5 -10t-14.5 -29.5t-5 -76.5v-229q0 -254 181 -254q185 0 185 251v125q0 166 -19 197q-12 20 -50 26l-20 3q-7 5 -6 15.5
t8 12.5q51 -3 111 -3q51 0 106 3q6 -4 7 -13.5t-5 -14.5l-22 -5q-37 -8 -44 -24q-14 -30 -14 -197v-119q0 -160 -66 -231q-70 -75 -196 -75q-139 0 -206 64q-66 63 -66 214zM304 791q0 37 27.5 65t70.5 28t70.5 -28t27.5 -65q0 -38 -27.5 -66.5t-70.5 -28.5t-70.5 28.5
t-27.5 66.5zM355 791q0 -27 12.5 -44t34.5 -17t34.5 17t12.5 44q0 26 -12.5 42.5t-34.5 16.5t-34.5 -16.5t-12.5 -42.5z" />
    <glyph glyph-name="uring" unicode="&#x16f;" horiz-adv-x="520" 
d="M445 314v-167q0 -53 4.5 -79.5t20.5 -26.5q19 0 43 7q7 -3 6.5 -15.5t-9.5 -18.5q-109 -12 -164 -38q-7 1 -9 10q4 25 3 37q-1 11 -10 11q-81 -48 -136 -48q-65 0 -92 33.5t-27 99.5v156q0 52 -5 66t-24 19l-14 4q-5 4 -4.5 14t6.5 12q94 2 139 18q9 -2 10 -9
q-3 -18 -3 -85v-154q0 -53 17 -83.5t65 -30.5q39 0 66 25q12 12 12 56v151q0 46 -7 58.5t-37 21.5l-16 5q-5 4 -5 14t6 13q125 2 157 18q9 -2 10 -9q-3 -29 -3 -85zM161 545q0 37 26 65t67 28t67 -28t26 -65q0 -38 -26 -66.5t-67 -28.5t-67 28.5t-26 66.5zM210 545
q0 -27 11.5 -44t32.5 -17t32.5 17t11.5 44q0 26 -12 42.5t-32 16.5t-32 -16.5t-12 -42.5z" />
    <glyph glyph-name="Uhungarumlaut" unicode="&#x170;" horiz-adv-x="744" 
d="M113 262v254q0 54 -5 76.5t-14.5 28.5t-36.5 11l-17 3q-5 5 -4.5 15t6.5 13q60 -3 129 -3q68 0 134 3q6 -3 6.5 -13t-4.5 -15l-22 -3q-27 -3 -36.5 -10t-14.5 -29.5t-5 -76.5v-229q0 -254 181 -254q185 0 185 251v125q0 166 -19 197q-12 20 -50 26l-20 3q-7 5 -6 15.5
t8 12.5q51 -3 111 -3q51 0 106 3q6 -4 7 -13.5t-5 -14.5l-22 -5q-37 -8 -44 -24q-14 -30 -14 -197v-119q0 -160 -66 -231q-70 -75 -196 -75q-139 0 -206 64q-66 63 -66 214zM448 726l80 135q8 15 26 15q19 0 39 -19q20 -20 20 -35t-33 -39l-108 -77q-21 5 -24 20zM277 726
l80 135q9 16 27 16q16 0 38 -20q20 -20 20 -34q0 -17 -33 -40l-108 -77q-21 5 -24 20z" />
    <glyph glyph-name="uhungarumlaut" unicode="&#x171;" horiz-adv-x="520" 
d="M445 314v-167q0 -53 4.5 -79.5t20.5 -26.5q19 0 43 7q7 -3 6.5 -15.5t-9.5 -18.5q-109 -12 -164 -38q-7 1 -9 10q4 25 3 37q-1 11 -10 11q-81 -48 -136 -48q-65 0 -92 33.5t-27 99.5v156q0 52 -5 66t-24 19l-14 4q-5 4 -4.5 14t6.5 12q94 2 139 18q9 -2 10 -9
q-3 -18 -3 -85v-154q0 -53 17 -83.5t65 -30.5q39 0 66 25q12 12 12 56v151q0 46 -7 58.5t-37 21.5l-16 5q-5 4 -5 14t6 13q125 2 157 18q9 -2 10 -9q-3 -29 -3 -85zM305 466l62 184q9 25 28 25q12 0 34 -13q21 -15 21 -26t-23 -45l-99 -141q-22 -2 -23 16zM158 466l62 184
q9 25 26 25q14 0 36 -13q21 -15 21 -26t-23 -45l-99 -141q-22 -2 -23 16z" />
    <glyph glyph-name="Uogonek" unicode="&#x172;" horiz-adv-x="744" 
d="M113 262v254q0 54 -5 76.5t-14.5 28.5t-36.5 11l-17 3q-5 5 -4.5 15t6.5 13q60 -3 129 -3q68 0 134 3q6 -3 6.5 -13t-4.5 -15l-22 -3q-27 -3 -36.5 -10t-14.5 -29.5t-5 -76.5v-229q0 -254 181 -254q185 0 185 251v125q0 166 -19 197q-12 20 -50 26l-20 3q-7 5 -6 15.5
t8 12.5q51 -3 111 -3q51 0 106 3q6 -4 7 -13.5t-5 -14.5l-22 -5q-37 -8 -44 -24q-14 -30 -14 -197v-119q0 -160 -66 -231q-51 -56 -135 -69q-57 -67 -57 -113q0 -24 14 -38.5t37 -14.5q26 0 43 13q9 -3 9 -15q-16 -24 -43 -37.5t-54 -13.5q-44 0 -64 23.5t-20 58.5
q0 57 85 132q-3 -1 -11 -1q-139 0 -206 64q-66 63 -66 214z" />
    <glyph glyph-name="uogonek" unicode="&#x173;" horiz-adv-x="520" 
d="M445 314v-167q0 -53 4.5 -79.5t20.5 -26.5q19 0 43 7q7 -3 6.5 -15.5t-9.5 -18.5q-3 0 -11 -2q-69 -66 -69 -125q0 -24 14 -38.5t37 -14.5t43 9q9 -3 9 -19q-32 -43 -96 -43q-44 0 -64.5 25t-20.5 58q0 62 96 140q-63 -11 -102 -28q-7 1 -9 10q4 25 3 37q-1 11 -10 11
q-81 -48 -136 -48q-65 0 -92 33.5t-27 99.5v156q0 52 -5 66t-24 19l-14 4q-5 4 -4.5 14t6.5 12q94 2 139 18q9 -2 10 -9q-3 -18 -3 -85v-154q0 -53 17 -83.5t65 -30.5q39 0 66 25q12 12 12 56v151q0 46 -7 58.5t-37 21.5l-16 5q-5 4 -5 14t6 13q125 2 157 18q9 -2 10 -9
q-3 -29 -3 -85z" />
    <glyph glyph-name="Ydieresis" unicode="&#x178;" horiz-adv-x="590" 
d="M241 144v59q0 41 -5.5 62t-26.5 62l-120 237q-17 34 -30 45.5t-45 18.5l-26 6q-5 5 -3.5 16t7.5 13q64 -3 126 -3q93 0 128 3q6 -3 7 -13.5t-5 -15.5l-30 -5q-21 -4 -21 -13q0 -12 18 -52q74 -164 116 -240l117 221q27 54 27 67q0 12 -23 15l-30 7q-6 5 -5 15t8 14
q66 -3 105 -3q47 0 95 3q7 -4 7 -13.5t-5 -15.5l-29 -6q-32 -6 -50 -26t-59 -89q-28 -47 -95 -168q-23 -40 -30 -65.5t-7 -75.5v-60q0 -54 5 -76.5t15 -28.5t38 -9l38 -4q5 -5 4.5 -15.5t-6.5 -13.5q-93 3 -151 3q-64 0 -145 -3q-6 3 -6.5 13.5t4.5 15.5l32 4q27 3 36.5 9.5
t14.5 28.5t5 76zM233 705q-24 0 -40.5 14t-17.5 40q0 25 16.5 42t41.5 17q23 0 39.5 -16t16.5 -38q0 -27 -16 -43t-40 -16zM418 705q-24 0 -40.5 14t-17.5 40q0 25 16.5 42t41.5 17q24 0 40 -16t16 -38q0 -27 -16 -43t-40 -16z" />
    <glyph glyph-name="Zacute" unicode="&#x179;" horiz-adv-x="638" 
d="M213 660h264q81 0 113 4q11 -3 9 -16q-27 -26 -153 -216l-162 -244q-3 -5 -14 -21.5l-21 -32l-21 -33t-17.5 -29.5t-6.5 -15q0 -13 32 -15q40 -2 116 -2q133 0 173 23q42 25 73 106q7 5 18.5 2t13.5 -10q-7 -49 -21 -97t-27 -67q-82 3 -185 3h-260q-78 0 -105 -3
q-10 4 -6 15q69 87 114 155l220 332q69 105 69 114q0 7 -34 7h-121q-114 0 -148 -34q-26 -26 -46 -76q-8 -5 -18.5 -3t-13.5 10l43 168q3 3 8.5 3t8.5 -3q5 -17 24 -21t81 -4zM478 773l-194 -67q-6 1 -10.5 10.5t-2.5 17.5l162 118q22 16 31 16q16 0 33 -28q18 -31 14 -43
q-7 -15 -33 -24z" />
    <glyph glyph-name="zacute" unicode="&#x17a;" horiz-adv-x="390" 
d="M243 0h-90q-79 0 -121 -3q-10 4 -7 13q38 52 89 142l96 169q13 22 13 28q0 5 -22 5h-49q-51 0 -67 -14q-12 -10 -40 -60q-19 -9 -27 7q16 88 33 125q3 2 9 2t9 -2q3 -13 14 -15.5t52 -2.5h165q38 0 61 3q7 -3 7 -12q-34 -47 -72 -113l-111 -194q-14 -24 -14 -31t39 -7h33
q57 0 85 24q21 19 40 60q5 5 15 3t12 -8q-4 -30 -15.5 -68.5t-21.5 -53.5q-54 3 -115 3zM326 584l-129 -143q-21 -2 -24 15l85 181q15 32 31 32q13 0 38 -16q23 -16 23 -32q0 -9 -24 -37z" />
    <glyph glyph-name="Zdotaccent" unicode="&#x17b;" horiz-adv-x="638" 
d="M213 660h264q81 0 113 4q11 -3 9 -16q-27 -26 -153 -216l-162 -244q-3 -5 -14 -21.5l-21 -32l-21 -33t-17.5 -29.5t-6.5 -15q0 -13 32 -15q40 -2 116 -2q133 0 173 23q42 25 73 106q7 5 18.5 2t13.5 -10q-7 -49 -21 -97t-27 -67q-82 3 -185 3h-260q-78 0 -105 -3
q-10 4 -6 15q69 87 114 155l220 332q69 105 69 114q0 7 -34 7h-121q-114 0 -148 -34q-26 -26 -46 -76q-8 -5 -18.5 -3t-13.5 10l43 168q3 3 8.5 3t8.5 -3q5 -17 24 -21t81 -4zM330 705q-26 0 -41 14t-16 41q0 26 16 42.5t41 16.5q24 0 40 -16.5t16 -38.5q0 -27 -15.5 -43
t-40.5 -16z" />
    <glyph glyph-name="zdotaccent" unicode="&#x17c;" horiz-adv-x="390" 
d="M243 0h-90q-79 0 -121 -3q-10 4 -7 13q38 52 89 142l96 169q13 22 13 28q0 5 -22 5h-49q-51 0 -67 -14q-12 -10 -40 -60q-19 -9 -27 7q16 88 33 125q3 2 9 2t9 -2q3 -13 14 -15.5t52 -2.5h165q38 0 61 3q7 -3 7 -12q-34 -47 -72 -113l-111 -194q-14 -24 -14 -31t39 -7h33
q57 0 85 24q21 19 40 60q5 5 15 3t12 -8q-4 -30 -15.5 -68.5t-21.5 -53.5q-54 3 -115 3zM215 485q-27 0 -44 17t-17 43t17 43t44 17t44 -17t17 -43t-17 -43t-44 -17z" />
    <glyph glyph-name="Zcaron" unicode="&#x17d;" horiz-adv-x="638" 
d="M213 660h264q81 0 113 4q11 -3 9 -16q-27 -26 -153 -216l-162 -244q-3 -5 -14 -21.5l-21 -32l-21 -33t-17.5 -29.5t-6.5 -15q0 -13 32 -15q40 -2 116 -2q133 0 173 23q42 25 73 106q7 5 18.5 2t13.5 -10q-7 -49 -21 -97t-27 -67q-82 3 -185 3h-260q-78 0 -105 -3
q-10 4 -6 15q69 87 114 155l220 332q69 105 69 114q0 7 -34 7h-121q-114 0 -148 -34q-26 -26 -46 -76q-8 -5 -18.5 -3t-13.5 10l43 168q3 3 8.5 3t8.5 -3q5 -17 24 -21t81 -4zM501 848l-136 -127q-23 -22 -46 0l-138 127q0 8 5.5 16t12.5 8l125 -68q17 -12 34 0l127 68
q5 -1 10.5 -9t5.5 -15z" />
    <glyph glyph-name="zcaron" unicode="&#x17e;" horiz-adv-x="390" 
d="M243 0h-90q-79 0 -121 -3q-10 4 -7 13q38 52 89 142l96 169q13 22 13 28q0 5 -22 5h-49q-51 0 -67 -14q-12 -10 -40 -60q-19 -9 -27 7q16 88 33 125q3 2 9 2t9 -2q3 -13 14 -15.5t52 -2.5h165q38 0 61 3q7 -3 7 -12q-34 -47 -72 -113l-111 -194q-14 -24 -14 -31t39 -7h33
q57 0 85 24q21 19 40 60q5 5 15 3t12 -8q-4 -30 -15.5 -68.5t-21.5 -53.5q-54 3 -115 3zM188 458l-95 192q1 7 8 11.5t15 4.5l70 -87q18 -23 25 -23q4 0 26 27l66 85q8 1 16 -3.5t9 -10.5l-100 -196q-6 -13 -20 -13t-20 13z" />
    <glyph glyph-name="florin" unicode="&#x192;" horiz-adv-x="510" 
d="M95 427h85q16 82 44 137q23 48 74.5 90.5t112.5 42.5q37 0 56.5 -14t19.5 -33q0 -23 -17 -41.5t-37 -18.5q-15 0 -25 18q-23 41 -42 41q-37 0 -73 -222h111q7 -4 4 -19.5t-14 -20.5h-109q-9 -36 -28 -150q-24 -148 -48.5 -208t-66.5 -99q-57 -52 -118 -52
q-28 0 -44.5 19.5t-16.5 49.5q0 16 7 31.5t16 15.5q13 0 28 -20q43 -45 62 -45q14 0 20 21.5t22 116.5l13.5 81l21 121.5l20.5 117.5h-88q-6 4 -2.5 20t12.5 20z" />
    <glyph glyph-name="Scommaaccent" unicode="&#x218;" horiz-adv-x="504" 
d="M231 -16q-94 0 -164 42q-13 16 -22 60.5t-8 91.5q4 7 14.5 8t16.5 -4q8 -23 21 -47t33.5 -50.5t51 -43.5t64.5 -17q56 0 87.5 30t31.5 77q0 88 -102 145l-43 24q-141 79 -141 193q0 78 57.5 130.5t162.5 52.5q18 0 37.5 -2t32 -4.5t34 -7.5t33.5 -7q8 -16 14.5 -57.5
t6.5 -77.5q-4 -7 -14.5 -7.5t-17.5 4.5q-34 119 -135 119q-56 0 -84.5 -30.5t-28.5 -74.5q0 -72 95 -122l62 -33q137 -72 137 -197q0 -87 -62.5 -141t-169.5 -54zM323 -135q0 -54 -36 -88t-92 -49q-10 3 -12.5 12.5t2.5 17.5q26 8 49 28.5t23 44.5q0 7 -2 13t-6 11t-7.5 8.5
t-9.5 7l-8.5 5t-7.5 3.5l-6 2q-19 9 -19 30q0 19 14.5 31.5t40.5 12.5q29 0 53 -24t24 -66z" />
    <glyph glyph-name="scommaaccent" unicode="&#x219;" horiz-adv-x="346" 
d="M163 -14q-71 0 -114 32q-18 34 -14 113q4 6 13.5 6.5t14.5 -4.5q15 -47 43 -78t65 -31q24 0 40 15t16 41q0 45 -68 78q-106 51 -106 126q-1 57 42 90.5t107 33.5q58 0 93 -20q15 -32 15 -97q-2 -6 -12 -8t-15 3q-12 36 -35 60t-51 24q-24 0 -40 -15t-16 -37q0 -36 67 -68
q33 -16 54 -30.5t39 -43t18 -65.5q0 -61 -45.5 -93t-110.5 -32zM238 -125q0 -54 -32.5 -88t-83.5 -49q-9 3 -11.5 12.5t2.5 17.5q25 8 47.5 29t22.5 44q0 8 -3 15t-7 12t-10.5 9.5t-10.5 6.5t-9.5 4.5t-6.5 2.5q-18 9 -18 30q0 19 13.5 31.5t36.5 12.5q26 0 48 -24t22 -66z
" />
    <glyph glyph-name="circumflex" unicode="&#x2c6;" 
d="M67 463l103 206q8 13 22 13t21 -13l100 -200q-2 -18 -25 -18l-74 92q-18 23 -24 23l-26 -29l-74 -88q-19 -2 -23 14z" />
    <glyph glyph-name="caron" unicode="&#x2c7;" 
d="M169 467l-91 183q2 15 22 15l67 -82q18 -22 24 -22q4 0 24 25l63 81q20 2 24 -13l-95 -187q-6 -12 -19 -12q-12 0 -19 12z" />
    <glyph glyph-name="breve" unicode="&#x2d8;" 
d="M190 485q-58 0 -90 39.5t-29 114.5q13 7 26 0q10 -39 35.5 -59.5t57.5 -20.5t57.5 20.5t36.5 59.5q12 8 25 0q2 -74 -31.5 -114t-87.5 -40z" />
    <glyph glyph-name="dotaccent" unicode="&#x2d9;" 
d="M190 490q-27 0 -44 17t-17 43t17 43t44 17t44 -17t17 -43t-17 -43t-44 -17z" />
    <glyph glyph-name="ring" unicode="&#x2da;" 
d="M97 553q0 37 26 65t67 28t67 -28t26 -65q0 -38 -26 -66.5t-67 -28.5t-67 28.5t-26 66.5zM146 553q0 -27 11.5 -44t32.5 -17t32.5 17t11.5 44q0 26 -12 42.5t-32 16.5t-32 -16.5t-12 -42.5z" />
    <glyph glyph-name="ogonek" unicode="&#x2db;" 
d="M213 20h41q-82 -75 -82 -133q0 -24 14.5 -38.5t41.5 -14.5q26 0 43 13q9 -3 9 -15q-30 -47 -92 -47q-44 0 -64 23t-20 55q0 73 109 157z" />
    <glyph glyph-name="tilde" unicode="&#x2dc;" 
d="M163 579h55q41 0 58 13q16 12 24 31q4 2 12 1t11 -4q-5 -23 -18 -50t-24 -38q-20 -20 -53 -20h-61q-41 0 -59 -18q-12 -9 -30 -40q-17 -2 -21 6q4 18 16.5 48.5t24.5 44.5q24 26 65 26z" />
    <glyph glyph-name="hungarumlaut" unicode="&#x2dd;" 
d="M248 470l71 192q10 27 33 27q15 0 38 -14q25 -16 25 -27q0 -12 -27 -47l-114 -148q-25 -2 -26 17zM70 470l71 192q10 27 30 27t42 -14q24 -16 24 -27q0 -12 -27 -47l-114 -148q-25 -2 -26 17z" />
    <glyph glyph-name="Delta" unicode="&#x394;" horiz-adv-x="660" 
d="M622 0h-583q-6 0 -8 6t-0.5 14t3.5 15.5t4 12.5l113 249l114 261q24 53 21 70q33 7 71 48q15 0 18 -9l53 -134l195 -487q6 -16 6 -31t-7 -15zM150 57h304q39 0 27 29l-142 380q-15 43 -26 64h-7q-9 -15 -25 -55l-165 -402q-13 -13 10 -15q9 -1 24 -1z" />
    <glyph glyph-name="Delta" unicode="&#x2206;" horiz-adv-x="660" 
d="M622 0h-583q-6 0 -8 6t-0.5 14t3.5 15.5t4 12.5l113 249l114 261q24 53 21 70q33 7 71 48q15 0 18 -9l53 -134l195 -487q6 -16 6 -31t-7 -15zM150 57h304q39 0 27 29l-142 380q-15 43 -26 64h-7q-9 -15 -25 -55l-165 -402q-13 -13 10 -15q9 -1 24 -1z" />
    <glyph glyph-name="Omega" unicode="&#x3a9;" horiz-adv-x="813" 
d="M406 676q145 0 242.5 -82t94.5 -222q-1 -43 -13.5 -81t-26.5 -62.5t-45 -55t-46.5 -43l-52.5 -40.5h66q38 0 63 8t37 19t27 33q4 8 16.5 8t14.5 -8q-6 -18 -34 -157q-80 7 -100 7h-195v20q47 56 77 101t55.5 114.5t25.5 141.5q0 112 -55 185.5t-149 73.5
q-93 0 -149.5 -79t-57.5 -194q-1 -98 41 -178t117 -165v-20h-195q-18 0 -49.5 -3t-50.5 -4q-28 139 -34 157q2 8 14.5 8t16.5 -8q15 -22 27 -33t37 -19t63 -8h66q-185 125 -184 273q1 143 98 228t238 85z" />
    <glyph glyph-name="Omega" unicode="&#x2126;" horiz-adv-x="813" 
d="M406 676q145 0 242.5 -82t94.5 -222q-1 -43 -13.5 -81t-26.5 -62.5t-45 -55t-46.5 -43l-52.5 -40.5h66q38 0 63 8t37 19t27 33q4 8 16.5 8t14.5 -8q-6 -18 -34 -157q-80 7 -100 7h-195v20q47 56 77 101t55.5 114.5t25.5 141.5q0 112 -55 185.5t-149 73.5
q-93 0 -149.5 -79t-57.5 -194q-1 -98 41 -178t117 -165v-20h-195q-18 0 -49.5 -3t-50.5 -4q-28 139 -34 157q2 8 14.5 8t16.5 -8q15 -22 27 -33t37 -19t63 -8h66q-185 125 -184 273q1 143 98 228t238 85z" />
    <glyph glyph-name="pi" unicode="&#x3c0;" horiz-adv-x="510" 
d="M330 324h-128q-24 -173 -41 -247q-23 -91 -71 -91q-20 0 -33 13.5t-12 39.5q0 18 20 32q63 44 94 253q-45 0 -75.5 -13.5t-55.5 -47.5q-3 -3 -8.5 -4t-9.5 0.5t-3 5.5q16 85 73 113q32 16 77 16h207q95 0 116 10q6 3 9.5 -2.5t0.5 -10.5q-16 -52 -29 -62q-22 -9 -84 -7
q-26 -75 -26 -169q0 -39 14 -64.5t35 -25.5q29 0 64 42q10 12 19.5 7.5t4.5 -22.5q-16 -52 -52 -78t-83 -26t-67 37t-20 80q0 23 7.5 55t14 52t22.5 62z" />
    <glyph glyph-name="figuredash" unicode="&#x2012;" horiz-adv-x="510" 
d="M473 285h-436v61h436v-61z" />
    <glyph glyph-name="endash" unicode="&#x2013;" horiz-adv-x="500" 
d="M0 236h500v-61h-500v61z" />
    <glyph glyph-name="emdash" unicode="&#x2014;" horiz-adv-x="1000" 
d="M0 236h1000v-61h-1000v61z" />
    <glyph glyph-name="quoteleft" unicode="&#x2018;" horiz-adv-x="248" 
d="M141 453q-37 0 -64 31t-27 72q0 54 40.5 94.5t96.5 54.5q13 -10 7 -26q-81 -34 -81 -91q0 -23 16.5 -36t37.5 -16q12 -2 21.5 -11.5t9.5 -24.5q0 -17 -13.5 -32t-43.5 -15z" />
    <glyph glyph-name="quoteright" unicode="&#x2019;" horiz-adv-x="248" 
d="M107 700q37 0 64 -31t27 -72q0 -54 -40.5 -94.5t-96.5 -54.5q-13 10 -7 26q81 34 81 91q0 23 -16.5 36t-37.5 16q-12 2 -21.5 11.5t-9.5 24.5q0 17 13.5 32t43.5 15z" />
    <glyph glyph-name="quotesinglbase" unicode="&#x201a;" horiz-adv-x="248" 
d="M107 110q37 0 64 -31t27 -72q0 -54 -40.5 -94.5t-96.5 -54.5q-13 10 -7 26q81 34 81 91q0 23 -16.5 36t-37.5 16q-12 2 -21.5 11.5t-9.5 24.5q0 17 13.5 32t43.5 15z" />
    <glyph glyph-name="quotedblleft" unicode="&#x201c;" horiz-adv-x="438" 
d="M331 453q-37 0 -64 31t-27 72q0 54 40.5 94.5t96.5 54.5q13 -10 7 -26q-81 -34 -81 -91q0 -23 16.5 -36t37.5 -16q12 -2 21.5 -11.5t9.5 -24.5q0 -17 -13.5 -32t-43.5 -15zM141 453q-37 0 -64 31t-27 72q0 54 40.5 94.5t96.5 54.5q13 -10 7 -26q-81 -34 -81 -91
q0 -23 16.5 -36t37.5 -16q12 -2 21.5 -11.5t9.5 -24.5q0 -17 -13.5 -32t-43.5 -15z" />
    <glyph glyph-name="quotedblright" unicode="&#x201d;" horiz-adv-x="438" 
d="M297 700q37 0 64 -31t27 -72q0 -54 -40.5 -94.5t-96.5 -54.5q-13 10 -7 26q81 34 81 91q0 23 -16.5 36t-37.5 16q-12 2 -21.5 11.5t-9.5 24.5q0 17 13.5 32t43.5 15zM107 700q37 0 64 -31t27 -72q0 -54 -40.5 -94.5t-96.5 -54.5q-13 10 -7 26q81 34 81 91q0 23 -16.5 36
t-37.5 16q-12 2 -21.5 11.5t-9.5 24.5q0 17 13.5 32t43.5 15z" />
    <glyph glyph-name="quotedblbase" unicode="&#x201e;" horiz-adv-x="438" 
d="M297 110q37 0 64 -31t27 -72q0 -54 -40.5 -94.5t-96.5 -54.5q-13 10 -7 26q81 34 81 91q0 23 -16.5 36t-37.5 16q-12 2 -21.5 11.5t-9.5 24.5q0 17 13.5 32t43.5 15zM107 110q37 0 64 -31t27 -72q0 -54 -40.5 -94.5t-96.5 -54.5q-13 10 -7 26q81 34 81 91q0 23 -16.5 36
t-37.5 16q-12 2 -21.5 11.5t-9.5 24.5q0 17 13.5 32t43.5 15z" />
    <glyph glyph-name="dagger" unicode="&#x2020;" horiz-adv-x="486" 
d="M267 -127h-48v137q0 121 -39 252q23 28 31 65.5t8 104.5q-32 0 -70.5 -16t-51.5 -16q-24 0 -38 14t-14 36q0 21 14 35t38 14q13 0 51.5 -16t70.5 -16q0 49 -18 92t-18 56q0 27 15.5 44t44.5 17t44.5 -17t15.5 -44q0 -13 -18 -56t-18 -92q32 0 71 16t52 16q23 0 37 -14
t14 -35q0 -22 -14 -36t-37 -14q-13 0 -52 16t-71 16q0 -67 8 -104.5t31 -65.5q-39 -131 -39 -252v-137z" />
    <glyph glyph-name="daggerdbl" unicode="&#x2021;" horiz-adv-x="486" 
d="M243 -124q-28 0 -43.5 16.5t-15.5 41.5q0 10 17.5 60t18.5 107q-36 0 -76.5 -15t-51.5 -15q-22 0 -34.5 13.5t-12.5 33.5t12.5 33.5t34.5 13.5q11 0 51.5 -15t76.5 -15q-1 117 -40 152q40 40 40 151q-36 0 -76.5 -15t-51.5 -15q-22 0 -34.5 13.5t-12.5 33.5t12.5 33.5
t34.5 13.5q11 0 51.5 -15t76.5 -15q-1 53 -18.5 96.5t-17.5 50.5q0 21 14.5 39t44.5 18t44.5 -18t14.5 -39q0 -7 -17.5 -50.5t-18.5 -96.5q35 0 74.5 15t52.5 15q22 0 35 -13.5t13 -33.5q0 -19 -13 -33t-35 -14q-13 0 -52.5 15t-74.5 15q0 -111 40 -151q-39 -35 -40 -152
q35 0 74.5 15t52.5 15q22 0 35 -13.5t13 -33.5q0 -19 -13 -33t-35 -14q-13 0 -52.5 15t-74.5 15q1 -57 18.5 -107t17.5 -60q0 -25 -15.5 -41.5t-43.5 -16.5z" />
    <glyph glyph-name="bullet" unicode="&#x2022;" horiz-adv-x="398" 
d="M199 485q62 0 105.5 -43t43.5 -106t-43 -105.5t-106 -42.5t-106 42.5t-43 105.5t43.5 106t105.5 43z" />
    <glyph glyph-name="onedotenleader" unicode="&#x2024;" horiz-adv-x="500" 
d="M251 -14q-28 0 -47 19t-19 47t19 47t47 19t46.5 -19t18.5 -47t-18.5 -47t-46.5 -19z" />
    <glyph glyph-name="twodotenleader" unicode="&#x2025;" horiz-adv-x="500" 
d="M126 -14q-28 0 -47 19t-19 47t19 47t47 19t46.5 -19t18.5 -47t-18.5 -47t-46.5 -19zM375 -14q-28 0 -47 19t-19 47t19 47t47 19t46.5 -19t18.5 -47t-18.5 -47t-46.5 -19z" />
    <glyph glyph-name="ellipsis" unicode="&#x2026;" horiz-adv-x="1000" 
d="M500 -14q-28 0 -47 19t-19 47t19 47t47 19t46.5 -19t18.5 -47t-18.5 -47t-46.5 -19zM833 -14q-28 0 -47 19t-19 47t19 47t47 19t46.5 -19t18.5 -47t-18.5 -47t-46.5 -19zM167 -14q-28 0 -47 19t-19 47t19 47t47 19t46.5 -19t18.5 -47t-18.5 -47t-46.5 -19z" />
    <glyph glyph-name="perthousand" unicode="&#x2030;" horiz-adv-x="1174" 
d="M623 355q50 0 85.5 -30.5t50 -71t14.5 -83.5q0 -69 -38.5 -126.5t-111.5 -57.5t-111.5 57.5t-38.5 126.5q0 43 14.5 83.5t50 71t85.5 30.5zM554 170q0 -31 4.5 -61.5t21 -59.5t43.5 -29t43.5 29t21 59.5t4.5 61.5q0 32 -4.5 62.5t-21 59.5t-43.5 29t-43.5 -29t-21 -59.5
t-4.5 -62.5zM201 640q50 0 85.5 -30.5t50 -71t14.5 -83.5q0 -69 -38.5 -126.5t-111.5 -57.5t-111.5 57.5t-38.5 126.5q0 43 14.5 83.5t50 71t85.5 30.5zM132 455q0 -31 4.5 -61.5t21 -59.5t43.5 -29t43.5 29t21 59.5t4.5 61.5q0 32 -4.5 62.5t-21 59.5t-43.5 29t-43.5 -29
t-21 -59.5t-4.5 -62.5zM973 355q50 0 85.5 -30.5t50 -71t14.5 -83.5q0 -69 -38.5 -126.5t-111.5 -57.5t-111.5 57.5t-38.5 126.5q0 43 14.5 83.5t50 71t85.5 30.5zM904 170q0 -31 4.5 -61.5t21 -59.5t43.5 -29t43.5 29t21 59.5t4.5 61.5q0 32 -4.5 62.5t-21 59.5t-43.5 29
t-43.5 -29t-21 -59.5t-4.5 -62.5zM627 632l-406 -672q-26 -2 -35 22l404 670q9 2 21 -4.5t16 -15.5z" />
    <glyph glyph-name="guilsinglleft" unicode="&#x2039;" horiz-adv-x="256" 
d="M139 193l72 -150q-4 -11 -18 -14q-89 105 -140 160q-14 17 0 33l140 159q14 -2 18 -14l-72 -148q-7 -13 0 -26z" />
    <glyph glyph-name="guilsinglright" unicode="&#x203a;" horiz-adv-x="256" 
d="M45 43l72 150q7 13 0 26l-72 148q4 12 18 14l140 -159q14 -16 0 -33q-51 -55 -140 -160q-14 3 -18 14z" />
    <glyph glyph-name="fraction" unicode="&#x2044;" horiz-adv-x="100" 
d="M278 628l-414 -668q-15 -1 -26 6.5t-15 19.5l414 668q13 2 26.5 -6t14.5 -20z" />
    <glyph glyph-name="fraction" unicode="&#x2215;" horiz-adv-x="100" 
d="M278 628l-414 -668q-15 -1 -26 6.5t-15 19.5l414 668q13 2 26.5 -6t14.5 -20z" />
    <glyph glyph-name="zerosuperior" unicode="&#x2070;" 
d="M190 708q75 0 114.5 -60t39.5 -139q0 -83 -39.5 -142t-114.5 -59t-114.5 59t-39.5 142q0 79 39.5 139t114.5 60zM135 509q0 -62 12 -116.5t43 -54.5q55 0 55 171q0 169 -55 169q-31 0 -43 -54t-12 -115z" />
    <glyph glyph-name="foursuperior" unicode="&#x2074;" 
d="M183 429h-149q-10 8 -7 19l207 280q10 13 20 13h26q18 0 5 -17l-194 -248q-11 -14 6 -14h86q10 0 12 3t2 15v84q0 16 18 21q52 19 63 19q12 0 12 -10v-114q0 -12 2.5 -15t12.5 -3h46q7 -4 7 -16.5t-7 -16.5h-46q-10 0 -12.5 -3t-2.5 -15v-6q0 -40 6 -50t32 -15l12 -2
q5 -4 4.5 -13t-5.5 -12q-50 2 -95 2q-44 0 -108 -2q-5 3 -5.5 12t4.5 13l20 2q29 3 35.5 13.5t6.5 51.5v6q0 12 -2 15t-12 3z" />
    <glyph glyph-name="fivesuperior" unicode="&#x2075;" 
d="M63 533l40 141q3 9 8.5 12t20.5 5l173 20q9 -2 10 -9q-11 -34 -39 -64l-149 -16q-11 -1 -14 -15l-2 -8q-5 -18 12 -18q77 -2 133 -27q74 -33 74 -106q0 -58 -44.5 -98t-102 -55t-121.5 -17q-9 3 -11 14.5t6 16.5q40 1 79 10.5t72.5 35t34.5 62.5q1 30 -13.5 50t-44.5 29
t-49 12t-53 5q-26 1 -20 20z" />
    <glyph glyph-name="sixsuperior" unicode="&#x2076;" 
d="M134 478q0 -56 18 -98t53 -42q28 0 40 21t12 50q0 40 -17.5 75.5t-52.5 35.5q-14 0 -23 -3q-9 5 -5 14q30 28 72 28q55 0 86.5 -34.5t31.5 -80.5q0 -61 -42.5 -98.5t-113.5 -37.5q-74 0 -116 45t-42 113q0 106 84 182q39 35 97.5 58.5t116.5 24.5q13 -8 3 -24
q-101 -24 -152 -84q-50 -57 -50 -145z" />
    <glyph glyph-name="sevensuperior" unicode="&#x2077;" 
d="M122 701h129q88 0 97 2q8 -2 6 -10q-39 -56 -66 -101l-191 -312q-13 -2 -22.5 3.5t-8.5 15.5l177 291q14 23 14 34q0 9 -18 9h-116q-37 0 -50.5 -5.5t-24.5 -28.5q-4 -5 -12.5 -3.5t-10.5 7.5q20 57 27 100q28 -2 70 -2z" />
    <glyph glyph-name="eightsuperior" unicode="&#x2078;" 
d="M195 708q61 0 97 -27.5t36 -73.5q0 -27 -21.5 -48t-52.5 -33q86 -47 86 -113q0 -47 -39 -76t-116 -29q-60 0 -102 26.5t-42 74.5q0 33 23.5 58t60.5 37q-33 15 -52.5 40t-19.5 54q0 49 38 79.5t104 30.5zM159 485q-33 -29 -33 -75q0 -30 18.5 -51t50.5 -21
q22 0 37.5 14.5t15.5 38.5q0 60 -89 94zM191 678q-21 0 -37 -15.5t-16 -38.5q0 -45 84 -80q29 26 29 71q0 28 -17 45.5t-43 17.5z" />
    <glyph glyph-name="ninesuperior" unicode="&#x2079;" 
d="M54 280q-7 4 -8 12.5t4 12.5q94 22 144 87t50 153q0 27 -5.5 55.5t-21.5 53t-40 24.5q-25 0 -38 -21t-13 -55q0 -45 19 -74t49 -29q6 0 18 2q6 -6 4 -15q-20 -24 -65 -24q-50 0 -83.5 30t-33.5 81q0 58 44 96.5t109 38.5q72 0 114 -47t42 -120q0 -103 -89 -177
q-42 -34 -100.5 -58.5t-99.5 -25.5z" />
    <glyph glyph-name="parenleftsuperior" unicode="&#x207d;" horiz-adv-x="228" 
d="M40 508q0 85 43.5 154t121.5 106q6 -1 10.5 -6.5t1.5 -11.5q-92 -102 -92 -242t92 -242q3 -6 -1.5 -11.5t-10.5 -6.5q-78 37 -121.5 106t-43.5 154z" />
    <glyph glyph-name="parenrightsuperior" unicode="&#x207e;" horiz-adv-x="228" 
d="M188 508q0 -85 -43.5 -154t-121.5 -106q-6 1 -10.5 6.5t-1.5 11.5q92 102 92 242t-92 242q-3 6 1.5 11.5t10.5 6.5q78 -37 121.5 -106t43.5 -154z" />
    <glyph glyph-name="nsuperior" unicode="&#x207f;" horiz-adv-x="437" 
d="M165 492v-91q0 -37 4 -48t18 -13l11 -2q5 -3 4.5 -13t-5.5 -12q-27 2 -83 2q-52 0 -84 -2q-7 2 -7 11.5t5 13.5l17 2q20 2 25 13t5 48v105q0 23 -3 31.5t-17 16.5l-9 5q-8 11 1 20q34 9 110 39q6 0 10 -6q-2 -13 -2 -33q0 -6 7 -7q64 36 102 36q47 0 70 -26t23 -70v-111
q0 -37 5 -48t24 -13l18 -2q5 -2 4.5 -12.5t-5.5 -12.5q-34 2 -89 2q-52 0 -79 -2q-6 2 -7 11.5t4 13.5l13 2q14 2 18 13.5t4 47.5v100q0 59 -55 59q-26 0 -47 -21q-10 -8 -10 -47z" />
    <glyph glyph-name="zeroinferior" unicode="&#x2080;" 
d="M190 229q75 0 114.5 -60t39.5 -139q0 -83 -39.5 -142t-114.5 -59t-114.5 59t-39.5 142q0 79 39.5 139t114.5 60zM135 30q0 -62 12 -116.5t43 -54.5q55 0 55 171q0 169 -55 169q-31 0 -43 -54t-12 -115z" />
    <glyph glyph-name="oneinferior" unicode="&#x2081;" 
d="M148 -74v186q0 19 -1 27.5t-8 17t-22 9.5l-30 3q-6 2 -6.5 12t4.5 13q37 5 86.5 16.5t61.5 17.5q8 2 10 -3q-2 -44 -2 -105v-194q0 -41 6 -52t32 -13l24 -2q5 -4 4.5 -13t-5.5 -12q-54 2 -107 2q-54 0 -108 -2q-5 3 -5.5 12t4.5 13l20 2q29 3 35.5 13.5t6.5 51.5z" />
    <glyph glyph-name="twoinferior" unicode="&#x2082;" 
d="M183 -96h68q32 0 49 6t30 28q14 7 23 -4q-16 -63 -37 -100q-52 2 -102 2h-102q-43 0 -67 -2q-8 7 -5 16q36 29 99 92q84 82 84 162q0 32 -18.5 53t-47.5 21q-52 0 -85 -62q-8 -3 -15.5 1.5t-7.5 12.5q48 99 147 99q61 0 95.5 -31t34.5 -80q0 -36 -24 -69.5t-78 -77.5
l-28 -23q-33 -27 -33 -33q0 -11 20 -11z" />
    <glyph glyph-name="threeinferior" unicode="&#x2083;" 
d="M105 -203q-28 0 -49 11t-21 36q0 13 10 25t28 12q6 0 11.5 -2t9 -4t7.5 -7t6 -7t5 -7l4 -6q12 -16 31 -16q28 0 56.5 30.5t28.5 78.5q0 38 -20 64t-52 26q-35 0 -66 -27q-9 5 -13.5 14.5t-0.5 16.5q2 1 16.5 6.5l21 8t21 9.5t22 12t18.5 13t16.5 15.5t10 17.5t4.5 20
q0 21 -13.5 35.5t-36.5 14.5q-45 0 -79 -54q-7 -2 -13 2t-7 12q19 39 55.5 60.5t80.5 21.5q49 0 77.5 -21.5t28.5 -53.5q0 -43 -78 -76q-7 -3 1 -7q3 -2 7 -2q42 -1 73 -27t31 -72q0 -71 -79 -124q-74 -49 -153 -49z" />
    <glyph glyph-name="fourinferior" unicode="&#x2084;" 
d="M183 -50h-149q-10 8 -7 19l207 280q10 13 20 13h26q18 0 5 -17l-194 -248q-11 -14 6 -14h86q10 0 12 3t2 15v84q0 16 18 21q52 19 63 19q12 0 12 -10v-114q0 -12 2.5 -15t12.5 -3h46q7 -4 7 -16.5t-7 -16.5h-46q-10 0 -12.5 -3t-2.5 -15v-6q0 -40 6 -50t32 -15l12 -2
q5 -4 4.5 -13t-5.5 -12q-50 2 -95 2q-44 0 -108 -2q-5 3 -5.5 12t4.5 13l20 2q29 3 35.5 13.5t6.5 51.5v6q0 12 -2 15t-12 3z" />
    <glyph glyph-name="fiveinferior" unicode="&#x2085;" 
d="M63 54l40 141q3 9 8.5 12t20.5 5l173 20q9 -2 10 -9q-11 -34 -39 -64l-149 -16q-11 -1 -14 -15l-2 -8q-5 -18 12 -18q77 -2 133 -27q74 -33 74 -106q0 -58 -44.5 -98t-102 -55t-121.5 -17q-9 3 -11 14.5t6 16.5q40 1 79 10.5t72.5 35t34.5 62.5q1 30 -13.5 50t-44.5 29
t-49 12t-53 5q-26 1 -20 20z" />
    <glyph glyph-name="sixinferior" unicode="&#x2086;" 
d="M134 -1q0 -56 18 -98t53 -42q28 0 40 21t12 50q0 40 -17.5 75.5t-52.5 35.5q-14 0 -23 -3q-9 5 -5 14q30 28 72 28q55 0 86.5 -34.5t31.5 -80.5q0 -61 -42.5 -98.5t-113.5 -37.5q-74 0 -116 45t-42 113q0 106 84 182q39 35 97.5 58.5t116.5 24.5q13 -8 3 -24
q-101 -24 -152 -84q-50 -57 -50 -145z" />
    <glyph glyph-name="seveninferior" unicode="&#x2087;" 
d="M122 222h129q88 0 97 2q8 -2 6 -10q-39 -56 -66 -101l-191 -312q-13 -2 -22.5 3.5t-8.5 15.5l177 291q14 23 14 34q0 9 -18 9h-116q-37 0 -50.5 -5.5t-24.5 -28.5q-4 -5 -12.5 -3.5t-10.5 7.5q20 57 27 100q28 -2 70 -2z" />
    <glyph glyph-name="eightinferior" unicode="&#x2088;" 
d="M195 229q61 0 97 -27.5t36 -73.5q0 -27 -21.5 -48t-52.5 -33q86 -47 86 -113q0 -47 -39 -76t-116 -29q-60 0 -102 26.5t-42 74.5q0 33 23.5 58t60.5 37q-33 15 -52.5 40t-19.5 54q0 49 38 79.5t104 30.5zM159 6q-33 -29 -33 -75q0 -30 18.5 -51t50.5 -21q22 0 37.5 14.5
t15.5 38.5q0 60 -89 94zM191 199q-21 0 -37 -15.5t-16 -38.5q0 -45 84 -80q29 26 29 71q0 28 -17 45.5t-43 17.5z" />
    <glyph glyph-name="nineinferior" unicode="&#x2089;" 
d="M54 -199q-7 4 -8 12.5t4 12.5q94 22 144 87t50 153q0 27 -5.5 55.5t-21.5 53t-40 24.5q-25 0 -38 -21t-13 -55q0 -45 19 -74t49 -29q6 0 18 2q6 -6 4 -15q-20 -24 -65 -24q-50 0 -83.5 30t-33.5 81q0 58 44 96.5t109 38.5q72 0 114 -47t42 -120q0 -103 -89 -177
q-42 -34 -100.5 -58.5t-99.5 -25.5z" />
    <glyph glyph-name="parenleftinferior" unicode="&#x208d;" horiz-adv-x="228" 
d="M40 29q0 85 43.5 154t121.5 106q6 -1 10.5 -6.5t1.5 -11.5q-92 -102 -92 -242t92 -242q3 -6 -1.5 -11.5t-10.5 -6.5q-78 37 -121.5 106t-43.5 154z" />
    <glyph glyph-name="parenrightinferior" unicode="&#x208e;" horiz-adv-x="228" 
d="M188 29q0 -85 -43.5 -154t-121.5 -106q-6 1 -10.5 6.5t-1.5 11.5q92 102 92 242t-92 242q-3 6 1.5 11.5t10.5 6.5q78 -37 121.5 -106t43.5 -154z" />
    <glyph glyph-name="colonmonetary" unicode="&#x20a1;" horiz-adv-x="604" 
d="M380 588l-139 -499q22 -22 55 -32l144 521q-32 11 -60 10zM211 121l129 467q-78 -11 -127.5 -81t-51.5 -195q-1 -121 50 -191zM474 560l-143 -516q15 -4 38 -4q70 0 110.5 36.5t67.5 93.5q5 6 12.5 4t11.5 -8q-18 -96 -45 -137q-7 -1 -29 -8q-59 -21 -129 -21
q-15 0 -49 2l-20 -72q-7 -8 -19.5 -8t-18.5 8l22 78q-31 4 -60 17l-26 -95q-5 -8 -18.5 -8t-20.5 8l31 111q-14 6 -32 19q-53 37 -84 101t-30 143q3 156 114 247q79 64 193 71l20 71q8 8 20 8t18 -8l-19 -69q30 0 63 -5l20 74q7 8 20 8t18 -8l-22 -80q10 -2 29.5 -6.5
t29.5 -6.5q0 -29 12 -139q-4 -5 -12.5 -5.5t-12.5 4.5q-19 73 -60 100z" />
    <glyph glyph-name="franc" unicode="&#x20a3;" horiz-adv-x="510" 
d="M16 210h86v280q0 51 -5 72.5t-14 27.5t-34 10l-13 2q-5 4 -4 14t6 13q51 -3 118 -3h180q104 0 134 3q0 -92 2 -136q-3 -6 -13.5 -7.5t-17.5 3.5q-7 42 -21 63.5t-40 28.5q-25 7 -79 7h-49q-30 0 -35 -7t-5 -48v-150q0 -17 3.5 -21t19.5 -4h56q65 0 83 6.5t27 34.5l4 13
q4 5 14.5 5t14.5 -6l-3 -75q0 -17 1.5 -40.5t1.5 -33.5q-4 -5 -14.5 -5.5t-14.5 4.5l-7 22q-7 22 -25 27t-82 5h-56q-16 0 -19.5 -4t-3.5 -21v-80h178q6 -4 6 -17t-6 -23h-178v-33q0 -51 5 -72.5t14 -27.5t34 -8l40 -4q5 -5 4.5 -15t-6.5 -13q-90 3 -145 3q-64 0 -128 -3
q-6 3 -6.5 13t4.5 15l21 3q25 3 34 9t14 27.5t5 72.5v33h-86q-6 4 -6 20t6 20z" />
    <glyph glyph-name="lira" unicode="&#x20a4;" horiz-adv-x="510" 
d="M13 370h81q11 0 13.5 1.5t1.5 7.5l-1 15q-7 105 66 175.5t175 70.5q37 0 59 -15q12 -11 12 -33q0 -21 -13 -39t-23 -18q-13 0 -24 10q-48 39 -88 39q-20 0 -36 -31t-16 -95q0 -45 5 -73q2 -10 5.5 -12.5t16.5 -2.5h144q3 -7 2 -20.5t-7 -19.5h-138q-13 0 -16.5 -2.5
t-3.5 -11.5v-32q0 -10 3.5 -12.5t15.5 -2.5h144q6 -8 4 -20.5t-9 -19.5h-138q-14 0 -18.5 -2.5t-5.5 -11.5q-11 -60 -88 -105l1 -2q36 4 69 -1q33 -4 99 -38q56 -29 95 -29q22 0 25 14t-9 55q-5 18 3 28t22 10q19 0 33.5 -13.5t14.5 -41.5q0 -42 -49.5 -87t-110.5 -45
q-48 0 -116 43q-77 48 -112 48q-13 0 -21.5 -12.5t-10.5 -25.5q-2 -9 -26 -18t-35 -9q-19 0 -19 18q0 26 50 65q75 77 76 146q0 6 -0.5 8t-1.5 3t-6 1.5t-9 1.5h-89q-13 20 3 40h85l6 2l4.5 1.5t2.5 1t1.5 2t0.5 3v5.5v32q0 6 -0.5 8t-1.5 3t-6 1.5t-9 1.5h-86
q-6 4 -4.5 18.5t8.5 21.5z" />
    <glyph glyph-name="peseta" unicode="&#x20a7;" horiz-adv-x="510" 
d="M184 470h171q-6 53 -40.5 88t-87.5 35q-31 0 -37 -6t-6 -34v-83zM-8 470h87v15q0 65 -8 84t-37 23l-33 4q-5 4 -5 14t5 12q75 9 209 9q119 0 182 -38q70 -41 79 -123h43q7 -4 7 -20t-7 -20h-44q-7 -60 -44.5 -99t-78 -52t-81.5 -13h-23q-5 4 -6 12t3 12q109 22 116 140
h-172v-293q0 -73 8.5 -88.5t44.5 -19.5l35 -4q4 -5 3 -15t-5 -13q-84 3 -140 3q-65 0 -122 -3q-5 3 -6 13t4 15l15 2q26 3 36 9t16 28.5t6 72.5v293h-87q-6 5 -6 20.5t6 19.5z" />
    <glyph glyph-name="Euro" unicode="&#x20ac;" horiz-adv-x="510" 
d="M53 383h32q24 112 104.5 184t200.5 72q55 0 135 -20q5 -1 9 -2l8 -2t7 -2q1 -6 2 -30t3 -51.5t6 -51.5q-4 -6 -13.5 -6.5t-13.5 4.5q-15 47 -50 85t-99 38t-115 -55.5t-65 -162.5h297q3 -4 0.5 -20t-10.5 -20h-292q-2 -11 -2 -53h280q5 -4 1.5 -20t-11.5 -20h-266
q9 -106 62 -167t124 -61q31 0 57 11.5t47 34t31.5 37t25.5 38.5q6 6 14 4.5t12 -8.5q-20 -88 -42 -125q-8 -2 -30 -8q-60 -22 -130 -22q-125 0 -201.5 70.5t-90.5 195.5h-57q-5 5 -0.5 20t10.5 20h45q-1 20 1 53h-36q-5 5 -0.5 20t10.5 20z" />
    <glyph glyph-name="afii61289" unicode="&#x2113;" horiz-adv-x="430" 
d="M109 256v167q0 116 44.5 185t124.5 69q52 0 82 -36t30 -101q0 -42 -16.5 -81.5t-49.5 -75.5t-53.5 -55t-55.5 -47v-117q0 -120 60 -120t101 76q5 4 14.5 -1.5t9.5 -12.5q-45 -120 -158 -120q-73 0 -103 46t-30 130v39q-48 -33 -70 -45q-5 0 -11.5 11.5t-4.5 19.5
q45 32 86 69zM215 509v-168q118 109 118 205q0 38 -15 65t-46 27q-26 0 -41.5 -33t-15.5 -96z" />
    <glyph glyph-name="trademark" unicode="&#x2122;" horiz-adv-x="610" 
d="M110 531v92q0 8 -1.5 9.5t-9.5 1.5h-7q-31 0 -43 -33q-2 -5 -10 -4t-9 7q7 41 13 67q1 4 7 4t8 -4q6 -8 10.5 -9.5t18.5 -1.5h121q17 0 28 11q2 4 7.5 4t6.5 -4q-6 -32 -4 -70q-1 -6 -9 -6.5t-9 4.5q-4 18 -12 26.5t-25 8.5h-13q-5 0 -6 -1.5t-1 -9.5v-95q0 -24 3 -32
t14 -10l15 -3q3 -2 2.5 -10t-3.5 -9q-21 1 -68 1q-38 0 -56 -1q-2 2 -2 9t2 10l15 3q11 2 14 12t3 33zM495 510l-2 93q0 10 -2 10t-18 -40l-18 -42q-20 -45 -27 -67q-14 -5 -24 1q-1 4 -22 57l-21 53q-17 41 -22 44q-1 -3 -4 -49v-18.5v-23v-16.5q1 -16 4.5 -21.5t14.5 -6.5
l9 -1q2 -7 0 -19q-10 1 -45 1q-34 0 -45 -1q-2 1 -2.5 8.5t1.5 10.5l6 1q23 4 24 23q8 70 8 106q0 24 -23 27l-7 2q-6 2 -5.5 10t6.5 9q9 0 21 -0.5t17 -0.5q28 0 63 1q0 -11 21 -53l18 -35q7 -15 12 -15t11 12l16 35q18 40 22 56q30 -1 46 -1q36 0 47 1q4 -1 4.5 -9.5
t-3.5 -9.5l-9 -2q-11 -1 -14.5 -6t-3.5 -17q0 -63 3 -102q1 -16 3 -21t10 -7l14 -4q5 -1 5 -9t-5 -10q-13 1 -58 1q-38 0 -52 -1q-2 2 -2.5 9.5t2.5 9.5l14 4q8 2 10 6.5t2 16.5z" />
    <glyph glyph-name="estimated" unicode="&#x212e;" horiz-adv-x="814" 
d="M772 306h-591q-5 0 -5 -5v-178q0 -11 8 -21q91 -96 224 -96q69 0 130 28.5t105 79.5h53q-51 -59 -126.5 -93.5t-162.5 -34.5q-151 0 -258 96t-107 232t107 232.5t258 96.5t258 -96.5t107 -232.5v-8zM638 329v180q0 12 -9 21q-91 93 -221 93q-131 0 -223 -95q-9 -9 -9 -23
v-176q0 -5 5 -5h453q4 0 4 5z" />
    <glyph glyph-name="onethird" unicode="&#x2153;" horiz-adv-x="860" 
d="M121 337v186q0 19 -1 27.5t-8 17t-22 9.5l-30 3q-6 2 -6.5 12t4.5 13q37 5 86.5 16.5t61.5 17.5q8 2 10 -3q-2 -44 -2 -105v-194q0 -41 6 -52t32 -13l24 -2q5 -4 4.5 -13t-5.5 -12q-54 2 -107 2q-54 0 -108 -2q-5 3 -5.5 12t4.5 13l20 2q29 3 35.5 13.5t6.5 51.5z
M650 628l-414 -668q-15 -1 -26 6.5t-15 19.5l414 668q13 2 26.5 -6t14.5 -20zM580 -39q-28 0 -49 11t-21 36q0 13 10 25t28 12q6 0 11.5 -2t9 -4t7.5 -7t6 -7t6 -7l3 -6q12 -16 31 -16q28 0 56.5 30.5t28.5 78.5q0 38 -20 64t-52 26q-35 0 -66 -27q-9 5 -13.5 14.5
t-0.5 16.5q2 1 16.5 6.5l21 8t21 9.5t22 12t18.5 13t16.5 15.5t10 17.5t4.5 20q0 21 -13.5 35.5t-36.5 14.5q-45 0 -79 -54q-7 -2 -13 2t-7 12q19 39 55.5 60.5t80.5 21.5q49 0 77.5 -21.5t28.5 -53.5q0 -43 -78 -76q-7 -3 1 -7q3 -2 7 -2q42 -1 73 -27t31 -72
q0 -71 -79 -124q-73 -49 -153 -49z" />
    <glyph glyph-name="twothirds" unicode="&#x2154;" horiz-adv-x="860" 
d="M183 315h68q32 0 49 6t30 28q14 7 23 -4q-16 -63 -37 -100q-52 2 -102 2h-102q-43 0 -67 -2q-8 7 -5 16q36 29 99 92q84 82 84 162q0 32 -18.5 53t-47.5 21q-52 0 -85 -62q-8 -3 -15.5 1.5t-7.5 12.5q48 99 147 99q61 0 95.5 -31t34.5 -80q0 -36 -24 -69.5t-78 -77.5
l-28 -23q-33 -27 -33 -33q0 -11 20 -11zM680 628l-414 -668q-15 -1 -26 6.5t-15 19.5l414 668q13 2 26.5 -6t14.5 -20zM595 -39q-28 0 -49 11t-21 36q0 13 10 25t28 12q6 0 11.5 -2t9 -4t7.5 -7t6 -7t5 -7l4 -6q12 -16 31 -16q28 0 56.5 30.5t28.5 78.5q0 38 -20 64t-52 26
q-35 0 -66 -27q-9 5 -13.5 14.5t-0.5 16.5q2 1 16.5 6.5l21 8t21 9.5t22 12t18.5 13t16.5 15.5t10 17.5t4.5 20q0 21 -13.5 35.5t-36.5 14.5q-45 0 -79 -54q-7 -2 -13 2t-7 12q19 39 55.5 60.5t80.5 21.5q49 0 77.5 -21.5t28.5 -53.5q0 -43 -78 -76q-7 -3 1 -7q3 -2 7 -2
q42 -1 73 -27t31 -72q0 -71 -79 -124q-74 -49 -153 -49z" />
    <glyph glyph-name="oneeighth" unicode="&#x215b;" horiz-adv-x="860" 
d="M660 393q61 0 97 -27.5t36 -73.5q0 -27 -21.5 -48t-52.5 -33q86 -47 86 -113q0 -47 -39 -76t-116 -29q-60 0 -102 26.5t-42 74.5q0 33 23.5 58t60.5 37q-33 15 -52.5 40t-19.5 54q0 49 38 79.5t104 30.5zM624 170q-33 -29 -33 -75q0 -30 18.5 -51t50.5 -21
q22 0 37.5 14.5t15.5 38.5q0 60 -89 94zM656 363q-21 0 -37 -15.5t-16 -38.5q0 -45 84 -80q29 26 29 71q0 28 -17 45.5t-43 17.5zM125 337v186q0 19 -1 27.5t-8 17t-22 9.5l-30 3q-6 2 -6.5 12t4.5 13q37 5 86.5 16.5t61.5 17.5q8 2 10 -3q-2 -44 -2 -105v-194q0 -41 6 -52
t32 -13l24 -2q5 -4 4.5 -13t-5.5 -12q-54 2 -107 2q-54 0 -108 -2q-5 3 -5.5 12t4.5 13l20 2q29 3 35.5 13.5t6.5 51.5zM633 628l-414 -668q-15 -1 -26 6.5t-15 19.5l414 668q13 2 26.5 -6t14.5 -20z" />
    <glyph glyph-name="threeeighths" unicode="&#x215c;" horiz-adv-x="860" 
d="M664 393q61 0 97 -27.5t36 -73.5q0 -27 -21.5 -48t-52.5 -33q86 -47 86 -113q0 -47 -39 -76t-116 -29q-60 0 -102 26.5t-42 74.5q0 33 23.5 58t60.5 37q-33 15 -52.5 40t-19.5 54q0 49 38 79.5t104 30.5zM628 170q-33 -29 -33 -75q0 -30 18.5 -51t50.5 -21
q22 0 37.5 14.5t15.5 38.5q0 60 -89 94zM660 363q-21 0 -37 -15.5t-16 -38.5q0 -45 84 -80q29 26 29 71q0 28 -17 45.5t-43 17.5zM103 208q-28 0 -49 11t-21 36q0 13 10 25t28 12q6 0 11.5 -2t9 -4t7.5 -7t6 -7t5 -8l4 -5q12 -16 31 -16q28 0 56.5 30.5t28.5 78.5
q0 38 -20 64t-52 26q-35 0 -66 -27q-9 5 -13.5 14.5t-0.5 16.5q2 1 16.5 6.5l21 8t21 9.5t22 12t18.5 13t16.5 15.5t10 17.5t4.5 20q0 21 -13.5 35.5t-36.5 14.5q-45 0 -79 -54q-7 -2 -13 2t-7 12q19 39 55.5 60.5t80.5 21.5q49 0 77.5 -21.5t28.5 -53.5q0 -43 -78 -76
q-7 -3 1 -7q3 -2 7 -2q42 -1 73 -27t31 -72q0 -71 -79 -124q-74 -49 -153 -49zM641 628l-414 -668q-15 -1 -26 6.5t-15 19.5l414 668q13 2 26.5 -6t14.5 -20z" />
    <glyph glyph-name="fiveeighths" unicode="&#x215d;" horiz-adv-x="860" 
d="M664 393q61 0 97 -27.5t36 -73.5q0 -27 -21.5 -48t-52.5 -33q86 -47 86 -113q0 -47 -39 -76t-116 -29q-60 0 -102 26.5t-42 74.5q0 33 23.5 58t60.5 37q-33 15 -52.5 40t-19.5 54q0 49 38 79.5t104 30.5zM628 170q-33 -29 -33 -75q0 -30 18.5 -51t50.5 -21
q22 0 37.5 14.5t15.5 38.5q0 60 -89 94zM660 363q-21 0 -37 -15.5t-16 -38.5q0 -45 84 -80q29 26 29 71q0 28 -17 45.5t-43 17.5zM59 465l40 141q3 9 8.5 12t20.5 5l173 20q9 -2 10 -9q-11 -34 -39 -64l-149 -16q-11 -1 -14 -15l-2 -8q-5 -18 12 -18q77 -2 133 -27
q74 -33 74 -106q0 -58 -44.5 -98t-102 -55t-121.5 -17q-9 3 -11 14.5t6 16.5q40 1 79 10.5t72.5 35t34.5 62.5q1 30 -13.5 50t-44.5 29t-49 12t-53 5q-26 1 -20 20zM637 628l-414 -668q-15 -1 -26 6.5t-15 19.5l414 668q13 2 26.5 -6t14.5 -20z" />
    <glyph glyph-name="seveneighths" unicode="&#x215e;" horiz-adv-x="860" 
d="M659 393q61 0 97 -27.5t36 -73.5q0 -27 -21.5 -48t-52.5 -33q86 -47 86 -113q0 -47 -39 -76t-116 -29q-60 0 -102 26.5t-42 74.5q0 33 23.5 58t60.5 37q-33 15 -52.5 40t-19.5 54q0 49 38 79.5t104 30.5zM623 170q-33 -29 -33 -75q0 -30 18.5 -51t50.5 -21
q22 0 37.5 14.5t15.5 38.5q0 60 -89 94zM655 363q-21 0 -37 -15.5t-16 -38.5q0 -45 84 -80q29 26 29 71q0 28 -17 45.5t-43 17.5zM154 633h129q88 0 97 2q8 -2 6 -10q-39 -56 -66 -101l-191 -312q-13 -2 -22.5 3.5t-8.5 15.5l177 291q14 23 14 34q0 9 -18 9h-116
q-37 0 -50.5 -5.5t-24.5 -28.5q-4 -5 -12.5 -3.5t-10.5 7.5q20 57 27 100q28 -2 70 -2zM621 628l-414 -668q-15 -1 -26 6.5t-15 19.5l414 668q13 2 26.5 -6t14.5 -20z" />
    <glyph glyph-name="partialdiff" unicode="&#x2202;" horiz-adv-x="509" 
d="M236 407q40 0 65.5 -12.5t71.5 -51.5q8 39 9 85q2 99 -31.5 166t-101.5 67q-24 0 -51 -11.5t-79 -41.5q-9 -7 -15 -4.5t-9.5 5t-5 11.5t-2 14.5t-0.5 13.5q0 34 29 48q36 18 89 18q86 0 150 -53.5t93 -128t29 -153.5q0 -153 -50 -254q-29 -59 -80.5 -99t-119.5 -40
q-89 0 -142 58t-53 145q0 86 58 152t146 66zM263 358q-53 0 -86 -65t-33 -144q0 -52 21 -89.5t55 -37.5q98 0 145 275l-14.5 14.5t-18.5 17t-18.5 13.5t-24 12t-26.5 4z" />
    <glyph glyph-name="product" unicode="&#x220f;" horiz-adv-x="797" 
d="M513 660h-229q-36 0 -43 -4.5t-7 -27.5v-594q0 -54 5 -76.5t14.5 -29t36.5 -9.5l22 -3q5 -5 4.5 -15.5t-6.5 -13.5q-66 3 -133 3q-69 0 -135 -3q-6 3 -6.5 13.5t4.5 15.5l22 3q27 3 36.5 9.5t14.5 29t5 76.5v522q0 54 -5 76.5t-14.5 29t-36.5 9.5l-22 3q-5 5 -4.5 15.5
t6.5 13.5q66 -3 133 -3h447q67 0 133 3q6 -3 6.5 -13.5t-4.5 -15.5l-22 -3q-27 -3 -36.5 -9.5t-14.5 -29t-5 -76.5v-522q0 -54 5 -76.5t14.5 -29t36.5 -9.5l22 -3q5 -5 4.5 -15.5t-6.5 -13.5q-66 3 -133 3q-69 0 -135 -3q-6 3 -6.5 13.5t4.5 15.5l22 3q27 3 36.5 9.5
t14.5 29t5 76.5v594q0 23 -7 27.5t-43 4.5z" />
    <glyph glyph-name="summation" unicode="&#x2211;" horiz-adv-x="680" 
d="M580 700l6 -143q-2 -7 -13 -7t-13 7q-8 30 -14 43.5t-21.5 30.5t-43.5 23t-73 6h-220l229 -328q14 -21 1 -36l-262 -305h332q63 0 87 13.5t47 65.5q4 8 15.5 8t13.5 -8q-7 -27 -39 -187q-5 0 -31 3.5t-39 3.5h-459q-18 0 -54 -2q-6 -1 -8 6t4 15l284 336q14 16 1 33
l-279 405q-5 7 -1.5 13t9.5 6q24 -2 88 -2h453z" />
    <glyph glyph-name="minus" unicode="&#x2212;" horiz-adv-x="510" 
d="M448 237v-63h-385v63h385z" />
    <glyph glyph-name="radical" unicode="&#x221a;" horiz-adv-x="549" 
d="M29 421l-19 39l166 82l179 -377l114 728l45 -8l-148 -926l-245 507z" />
    <glyph glyph-name="infinity" unicode="&#x221e;" horiz-adv-x="764" 
d="M190 374q11 0 23 -2t21.5 -4t21.5 -8l19.5 -9.5t20 -12l18 -12.5t19 -15l17 -14l18 -15.5t16.5 -14.5l57.5 52t57.5 35.5t75 19.5q57 0 100.5 -43t43.5 -105q0 -68 -39.5 -109.5t-107.5 -41.5q-36 0 -70.5 14.5t-53 29.5t-40.5 37t-24 23q-3 -2 -17.5 -18t-28.5 -28
t-35 -26.5t-48 -23t-56 -8.5q-70 0 -111 45t-41 109q0 63 43 104t101 41zM195 312q-42 0 -65.5 -27t-23.5 -56q0 -44 27 -70.5t64 -26.5q30 0 59.5 14t47 29t43.5 41q-27 28 -44 43.5t-49 34t-59 18.5zM570 311q-13 0 -28 -4.5t-26 -10t-27 -17t-23.5 -17.5l-23.5 -19.5
t-19 -16.5l15 -15.5l16.5 -17t16 -15t18 -15.5t17.5 -12t20.5 -10.5t20 -5.5t22.5 -3q37 0 63 25t26 64q0 36 -24 63t-64 27z" />
    <glyph glyph-name="integral" unicode="&#x222b;" horiz-adv-x="310" 
d="M108 410v84q0 116 33 192q17 40 48 65.5t63 25.5q24 0 39.5 -13.5t15.5 -37.5q0 -17 -15 -29t-33 -12q-19 0 -33 12q-17 14 -26 9.5t-10 -18.5q-1 -11 5 -60t12 -136t5 -182l-1 -115q-1 -169 -41 -256t-112 -87q-22 0 -39 11.5t-21 26.5q-11 36 20 51q28 15 62 -17
q33 -32 39 32q2 17 1 40q-12 388 -12 414z" />
    <glyph glyph-name="approxequal" unicode="&#x2248;" horiz-adv-x="510" 
d="M430 411l40 -43q-37 -53 -81 -69.5t-86 -1.5l-100 35q-16 6 -30.5 7.5t-25.5 -1.5t-19.5 -6.5t-16.5 -11t-11.5 -11.5t-9 -11.5t-6.5 -8.5l-43 41q71 107 173 72l103 -35q63 -22 113 44zM430 236l40 -43q-34 -50 -80 -67t-87 -3l-100 36q-16 6 -30.5 7.5t-26 -1.5
t-19.5 -6t-16 -11t-11.5 -12t-9.5 -12l-6 -9l-43 42q71 107 173 72l103 -36q31 -11 60.5 1t52.5 42z" />
    <glyph glyph-name="notequal" unicode="&#x2260;" horiz-adv-x="510" 
d="M63 312h224l55 84l60 -20l-42 -64h88v-63h-130l-57 -87h187v-63h-229l-59 -89l-60 20l45 69h-82v63h124l58 87h-182v63z" />
    <glyph glyph-name="lessequal" unicode="&#x2264;" horiz-adv-x="510" 
d="M448 56v-63h-385v63h385zM61 329l389 185v-75l-297 -131v-2l297 -132v-74l-389 184v45z" />
    <glyph glyph-name="greaterequal" unicode="&#x2265;" horiz-adv-x="510" 
d="M448 56v-63h-385v63h385zM61 514l389 -185v-45l-389 -184v74l297 132v2l-297 131v75z" />
    <glyph glyph-name="lozenge" unicode="&#x25ca;" horiz-adv-x="557" 
d="M311 -45h-65l-196 385l196 375h65l196 -375zM426 340l-148 286l-147 -286l147 -295z" />
    <glyph glyph-name="Euro.oldstyle" unicode="&#xe000;" horiz-adv-x="545" 
d="M60 314h35q20 87 89 142.5t174 55.5q48 0 110 -17q5 -2 11.5 -3t8.5 -2q4 -73 10 -106q-1 -7 -10.5 -9.5t-16.5 1.5q-32 97 -125 97q-46 0 -88 -40t-53 -119h245q1 -7 -1 -22t-8 -18h-241q-3 -14 0 -42h229q5 -4 2.5 -20.5t-9.5 -20.5h-217q10 -81 50.5 -124t97.5 -43
q25 0 47 9t39.5 28.5t25.5 29.5t21 31q5 4 14 1.5t12 -8.5q-16 -78 -34 -104q-12 -3 -25 -7q-58 -18 -109 -18q-109 0 -174.5 54t-79.5 151h-53q-4 4 -1 20.5t8 20.5h43q-4 21 2 42h-37q-4 4 -0.5 20t8.5 20z" />
    <glyph glyph-name="orn.001" unicode="&#xe006;" horiz-adv-x="850" 
d="M90 175q0 77 49 140t139 77q-1 62 -22.5 104t-56.5 42q-23 0 -29 -31q-1 -4 -5 -8q-10 -5 -19 -5q-19 0 -31 11.5t-12 30.5q0 20 16.5 35.5t43.5 15.5q66 0 110 -60t47 -131h2q71 0 123 -36l2 2q-62 52 -62 113q0 32 27 54t67 22q6 0 29.5 -1.5t30.5 -1.5q26 0 49.5 16
t23.5 48q0 25 -26 46q-6 5 -3.5 8.5t8.5 2.5q38 -6 65.5 -36.5t27.5 -74.5q0 -60 -58 -98q-18 -12 -90 -47q-37 -18 -37 -51q0 -8 4 -16q39 46 98 46q47 0 101 -48q38 -35 65 -35q38 0 59 37q3 5 7 5.5t5 -4.5q2 -6 2 -19q0 -47 -38.5 -90.5t-94.5 -43.5q-34 0 -64.5 14
t-72.5 56l-31 28.5t-21 15t-24 7.5q-10 -7 -10 -23q0 -5 1 -10.5t4 -12.5l5 -11.5t8 -13.5t8.5 -13.5t10.5 -15.5t11 -16q30 -44 40 -63.5t10 -43.5q0 -34 -27.5 -63t-60.5 -29q-7 0 -17 2q-14 3 -2 12q28 18 28 41q0 19 -12 31t-57 39q-75 46 -75 108q0 30 23.5 58.5
t58.5 45.5q-46 24 -109 24q-10 0 -13 -1q-6 -82 -54 -133t-120 -64q2 -32 14.5 -54.5t25.5 -29.5q9 -5 34 -5q2 -1 2.5 -5t-0.5 -6q-36 -34 -68 -34q-13 0 -25 15q-38 48 -38 131zM144 186q62 18 97 66q29 42 36 102q-60 -12 -96 -56q-36 -45 -37 -112z" />
    <glyph glyph-name="orn.002" unicode="&#xe007;" horiz-adv-x="1141" 
d="M282 57q-106 -3 -174 74t-68 178q0 117 70.5 184t144.5 67q53 0 100 -30t47 -85q0 -34 -22.5 -55t-48.5 -21q-33 -1 -55.5 17.5t-22.5 44.5q0 13 7 22.5t27 23.5q18 17 18 30q0 25 -65 23q-52 -1 -93.5 -44.5t-41.5 -90.5q0 -19 3.5 -35.5t12 -29t16.5 -22.5t21.5 -18.5
l22.5 -14t25 -10.5l22.5 -7t22 -5.5t17.5 -4.5q48 -13 48 -55q0 -28 -8 -45q-9 -21 -9 -35t28 -14q83 0 199 165q-15 19 -17 45q-1 28 19.5 49.5t48.5 22.5q15 0 28 -5q69 98 125.5 140t136.5 44q98 2 166 -69t68 -184q0 -116 -62.5 -182t-144.5 -68q-54 -1 -96.5 25
t-42.5 73q0 31 21 55t50 24q37 0 53.5 -20t16.5 -43q0 -21 -14 -33q-13 -10 -13 -24q0 -9 11.5 -17.5t30.5 -7.5q43 1 87 38t44 102q0 62 -26.5 89t-100.5 48q-77 21 -77 61q0 12 10 47q6 22 6 30q0 16 -27 16q-49 -1 -93 -43t-100 -122q15 -17 17 -43q1 -30 -19.5 -51
t-50.5 -23q-14 0 -25 4q-65 -89 -128 -135.5t-146 -49.5z" />
    <glyph glyph-name="orn.003" unicode="&#xe008;" horiz-adv-x="583" 
d="M298 693q48 1 73 -27t25 -62q0 -45 -32 -84q-17 -17 -17 -30q0 -4 4.5 -8.5t10.5 -4.5q2 0 14 6.5t31 13t39 6.5q36 1 66.5 -23.5t30.5 -73.5q0 -36 -22.5 -69t-74.5 -34q-62 -2 -97 53q-12 17 -26 17q-4 0 -13 -12.5t-16 -33.5t-7 -39q2 -60 110 -124q91 -53 92 -126
q1 -48 -37 -89t-98 -41q-62 0 -156 76q-44 37 -66 35q-26 0 -49 -56q-16 0 -16 14q8 46 31.5 67t48.5 22q12 0 24 -2.5t20.5 -5.5t21.5 -11.5l19.5 -13t23 -17.5t23.5 -18q63 -46 104 -46q24 0 40.5 18t16.5 46q0 8 -1.5 16t-6.5 16t-8 13.5t-11.5 13t-11.5 11t-14.5 11
t-14 9.5t-15.5 10t-14 9q-104 66 -104 128q0 40 26 84q12 19 12 28q0 7 -10 7q-12 0 -25 -16q-10 -13 -41.5 -32.5t-59.5 -20.5q-50 -1 -75.5 30.5t-25.5 70.5q0 49 30 73t70 25q16 0 32.5 -4t28 -8t13.5 -4q6 0 10 5.5t4 9.5q0 7 -16.5 35.5t-16.5 57.5q0 44 28 71t75 28z
M284 493q-20 0 -33 -15t-13 -34t14 -32.5t32 -13.5q21 0 34.5 13.5t13.5 34.5q0 18 -14 32.5t-34 14.5z" />
    <glyph glyph-name="uniEFED" unicode="&#xefed;" horiz-adv-x="360" 
d="M191 705q-27 0 -43 15t-17 43q0 27 16.5 44.5t43.5 17.5q25 0 42 -17.5t17 -40.5q0 -28 -16.5 -45t-42.5 -17z" />
    <glyph glyph-name="uniEFEE" unicode="&#xefee;" horiz-adv-x="360" 
d="M180 715q-130 0 -130 133q16 14 28 5q27 -70 102 -70q43 0 64.5 17.5t34.5 52.5q5 4 15.5 2.5t15.5 -7.5q0 -60 -32.5 -96.5t-97.5 -36.5z" />
    <glyph glyph-name="uniEFF1" unicode="&#xeff1;" horiz-adv-x="360" 
d="M213 10h41q-82 -75 -82 -133q0 -24 14.5 -38.5t41.5 -14.5q26 0 43 13q9 -3 9 -15q-30 -47 -92 -47q-44 0 -64 23t-20 55q0 73 109 157z" />
    <glyph glyph-name="uniEFF2" unicode="&#xeff2;" horiz-adv-x="360" 
d="M211 0h44l-37 -50q-6 -8 -4.5 -11.5t13.5 -9.5q57 -31 57 -79q0 -39 -35 -64t-82 -25q-33 0 -52 11t-19 31q0 13 8.5 22t21.5 9t33 -17.5t29 -17.5t17 8.5t8 23.5q0 36 -71 67l-3 6z" />
    <glyph glyph-name="uniEFF3" unicode="&#xeff3;" horiz-adv-x="360" 
d="M92 791q0 37 27.5 65t70.5 28t70.5 -28t27.5 -65q0 -38 -27.5 -66.5t-70.5 -28.5t-70.5 28.5t-27.5 66.5zM143 791q0 -27 12.5 -44t34.5 -17t34.5 17t12.5 44q0 26 -12.5 42.5t-34.5 16.5t-34.5 -16.5t-12.5 -42.5z" />
    <glyph glyph-name="uniEFF5" unicode="&#xeff5;" horiz-adv-x="360" 
d="M151 807h57q39 0 61 15q16 10 25 32q4 2 12.5 0.5t11.5 -4.5q-6 -25 -19.5 -53.5t-24.5 -37.5q-20 -22 -56 -22h-62q-47 0 -62 -18q-12 -8 -31 -41q-18 -2 -22 6q16 67 42 96q25 27 68 27z" />
    <glyph glyph-name="uniEFF7" unicode="&#xeff7;" horiz-adv-x="360" 
d="M205 859l135 -127q0 -6 -5.5 -15t-9.5 -10l-127 65q-17 8 -34 -1l-125 -64q-6 0 -12 9t-6 16l135 123q24 23 49 4z" />
    <glyph glyph-name="uniF628" unicode="&#xf628;" horiz-adv-x="1140" 
d="M942 300q73 0 110.5 -48.5t37.5 -108.5q0 -59 -37.5 -108t-110.5 -49t-110.5 49t-37.5 108q0 60 37.5 108.5t110.5 48.5zM942 269q-26 0 -41.5 -24t-19.5 -49t-4 -51q0 -28 4 -53.5t19.5 -50t41.5 -24.5t41.5 24.5t19.5 50t4 53.5q0 26 -4 51t-19.5 49t-41.5 24zM612 300
q73 0 110.5 -48.5t37.5 -108.5q0 -59 -37.5 -108t-110.5 -49t-110.5 49t-37.5 108q0 60 37.5 108.5t110.5 48.5zM612 269q-26 0 -41.5 -24t-19.5 -49t-4 -51q0 -28 4 -53.5t19.5 -50t41.5 -24.5t41.5 24.5t19.5 50t4 53.5q0 26 -4 51t-19.5 49t-41.5 24zM598 509l-362 -544
q-11 -1 -21.5 6t-12.5 16l361 542q8 2 19 -5t16 -15zM198 516q73 0 110.5 -48.5t37.5 -108.5t-37.5 -109t-110.5 -49t-110.5 49t-37.5 109t37.5 108.5t110.5 48.5zM198 484q-26 0 -41.5 -24t-19.5 -48.5t-4 -50.5q0 -29 4 -54.5t19.5 -49.5t41.5 -24t42 24t20 49.5t4 54.5
q0 18 -2.5 36.5t-9 39.5t-20.5 34t-34 13z" />
    <glyph glyph-name="uniF629" unicode="&#xf629;" 
d="M196 74l43 260h-5q-48 0 -76 -41t-28 -91q0 -45 17.5 -79t48.5 -49zM271 326l-43 -263q14 -3 26 -3q60 0 99 52q18 0 18 -16q-48 -84 -152 -85l-11 -66q-5 -6 -17 -6t-16 6l11 69q-69 8 -109.5 54t-40.5 111q0 88 59.5 137t148.5 51l10 61q5 7 17 7t17 -7l-10 -62
q36 -2 64 -11q15 -11 15 -40q0 -18 -6 -30t-13 -12q-6 0 -10 4q-26 33 -46 45q-8 4 -11 4z" />
    <glyph glyph-name="uniF62A" unicode="&#xf62a;" 
d="M208 152l-20 -124q35 1 53.5 17.5t18.5 41.5q0 42 -52 65zM176 164l-20 7q-102 36 -102 107q0 54 41 84t117 31l7 47q5 7 17 7t17 -7l-7 -50q40 -3 71 -13q11 -37 11 -87q-3 -6 -12 -6.5t-14 4.5q-17 51 -62 66l-19 -121l16 -5q48 -15 75 -45t27 -71q0 -53 -41 -84.5
t-115 -32.5l-9 -57q-4 -7 -16.5 -7t-17.5 7l9 58q-61 6 -89 26q-20 20 -20 95q4 6 12.5 6.5t12.5 -4.5q7 -27 31 -53.5t59 -34.5zM189 245l18 115h-5q-33 0 -53 -15.5t-20 -41.5q0 -37 60 -58z" />
    <glyph glyph-name="uniF62B" unicode="&#xf62b;" horiz-adv-x="290" 
d="M250 171h-209q-11 8 -11 30t11 28h209q10 -6 10 -28t-10 -30z" />
    <glyph glyph-name="uniF62C" unicode="&#xf62c;" horiz-adv-x="228" 
d="M40 193q0 85 43.5 154t121.5 106q6 -1 10.5 -6.5t1.5 -11.5q-92 -102 -92 -242t92 -242q3 -6 -1.5 -11.5t-10.5 -6.5q-78 37 -121.5 106t-43.5 154z" />
    <glyph glyph-name="uniF62D" unicode="&#xf62d;" horiz-adv-x="228" 
d="M180 193q0 -85 -43.5 -154t-121.5 -106q-6 1 -10.5 6.5t-1.5 11.5q92 102 92 242t-92 242q-3 6 1.5 11.5t10.5 6.5q78 -37 121.5 -106t43.5 -154z" />
    <glyph glyph-name="uniF62E" unicode="&#xf62e;" 
d="M196 321l43 260h-5q-48 0 -76 -41t-28 -91q0 -45 17.5 -79t48.5 -49zM271 573l-43 -263q13 -3 26 -3q60 0 99 52q18 0 18 -16q-48 -84 -152 -85l-11 -66q-5 -6 -17 -6t-16 6l11 69q-69 8 -109.5 54t-40.5 111q0 88 59.5 137t148.5 51l10 61q5 7 17 7t17 -7l-10 -62
q36 -2 64 -11q15 -11 15 -40q0 -18 -6 -30t-13 -12q-6 0 -10 4q-26 33 -46 45q-8 4 -11 4z" />
    <glyph glyph-name="uniF62F" unicode="&#xf62f;" 
d="M208 399l-20 -124q35 1 53.5 17.5t18.5 41.5q0 42 -52 65zM176 411l-20 7q-102 36 -102 107q0 54 41 84t117 31l7 47q5 7 17 7t17 -7l-7 -50q40 -3 71 -13q11 -37 11 -87q-3 -6 -12 -6.5t-14 4.5q-17 51 -62 66l-19 -121l16 -5q48 -15 75 -45t27 -71q0 -53 -41 -84.5
t-115 -32.5l-9 -57q-4 -7 -16.5 -7t-17.5 7l9 58q-61 6 -89 26q-20 20 -20 95q4 6 12.5 6.5t12.5 -4.5q7 -27 31 -53.5t59 -34.5zM189 492l18 115h-5q-33 0 -53 -15.5t-20 -41.5q0 -37 60 -58z" />
    <glyph glyph-name="uniF630" unicode="&#xf630;" horiz-adv-x="290" 
d="M250 418h-209q-11 8 -11 30t11 28h209q10 -6 10 -28t-10 -30z" />
    <glyph glyph-name="uniF631" unicode="&#xf631;" horiz-adv-x="228" 
d="M40 440q0 85 43.5 154t121.5 106q6 -1 10.5 -6.5t1.5 -11.5q-92 -102 -92 -242t92 -242q3 -6 -1.5 -11.5t-10.5 -6.5q-78 37 -121.5 106t-43.5 154z" />
    <glyph glyph-name="uniF632" unicode="&#xf632;" horiz-adv-x="228" 
d="M188 440q0 -85 -43.5 -154t-121.5 -106q-6 1 -10.5 6.5t-1.5 11.5q92 102 92 242t-92 242q-3 6 1.5 11.5t10.5 6.5q78 -37 121.5 -106t43.5 -154z" />
    <glyph glyph-name="uniF633" unicode="&#xf633;" horiz-adv-x="781" 
d="M448 637q-138 0 -225 -103t-87 -243q0 -48 13.5 -92t43.5 -86t88 -67.5t136 -25.5q77 0 158 33q13 -7 9 -22q-84 -46 -195 -46q-65 0 -124.5 19.5t-107.5 56.5t-76.5 98t-28.5 138q0 113 56.5 201t146 133t193.5 45q136 0 214.5 -78.5t78.5 -191.5q0 -100 -68.5 -165
t-182.5 -65q-73 0 -73 28q0 12 7 33l24 54l-2 1q-45 -47 -102 -81.5t-88 -34.5q-21 0 -32.5 13t-11.5 31q0 20 19 63.5t58 91.5q101 125 202 125q28 0 36 -22l24 51q27 9 56 -12q-6 -15 -57 -134t-58 -137t-3.5 -25t19.5 -9q70 -7 128 49t58 141q0 107 -70 171t-176 64z
M299 238q0 -14 6 -14q25 0 80 49q34 31 71 84t46 79q-9 27 -41 27q-28 0 -60 -28q-39 -35 -70.5 -97t-31.5 -100z" />
    <glyph glyph-name="uniF634" unicode="&#xf634;" horiz-adv-x="250" 
d="M190 -125q0 -54 -32.5 -88t-83.5 -49q-9 3 -11.5 12.5t2.5 17.5q25 8 47.5 29t22.5 44q0 8 -3 15t-7 12t-10.5 9.5t-10.5 6.5t-9.5 4.5t-6.5 2.5q-18 9 -18 30q0 19 13.5 31.5t36.5 12.5q26 0 48 -24t22 -66z" />
    <glyph glyph-name="uniF635" unicode="&#xf635;" horiz-adv-x="250" 
d="M189 -135q0 -52 -32.5 -85.5t-83.5 -48.5q-19 11 -9 29q70 28 70 71q0 10 -4 18.5t-10.5 14t-12 8.5t-13.5 6l-7 3q-18 7 -18 30q0 19 13.5 31.5t36.5 12.5q26 0 48 -24t22 -66z" />
    <glyph glyph-name="uniF637" unicode="&#xf637;" horiz-adv-x="437" 
d="M165 492v-91q0 -37 4 -48t18 -13l11 -2q5 -3 4.5 -13t-5.5 -12q-27 2 -83 2q-52 0 -84 -2q-7 2 -7 11.5t5 13.5l17 2q20 2 25 13t5 48v271q0 34 -3 42.5t-17 15.5l-12 6q-4 2 -4 7.5t4 7.5q32 7 113 32q8 2 12 -5q-3 -40 -3 -96v-95q0 -14 7 -15q64 36 102 36
q47 0 70 -26t23 -70v-111q0 -37 5 -48t24 -13l18 -2q5 -2 4.5 -12.5t-5.5 -12.5q-34 2 -89 2q-52 0 -79 -2q-6 2 -7 11.5t4 13.5l13 2q14 2 18 13.5t4 47.5v100q0 59 -55 59q-26 0 -47 -21q-10 -8 -10 -47z" />
    <glyph glyph-name="uniF638" unicode="&#xf638;" horiz-adv-x="510" 
d="M360 605l23 52l39 -15l-30 -68q78 -94 78 -261q0 -84 -20.5 -155t-71 -121.5t-123.5 -50.5q-64 0 -111 39l-28 -61l-37 20l33 73q-72 94 -72 256q0 81 20.5 152.5t71 123t123.5 51.5q59 0 105 -35zM164 167l164 372q-29 61 -73 61q-31 0 -53 -30.5t-32.5 -79t-15 -92
t-4.5 -85.5q0 -82 14 -146zM345 475l-165 -374q27 -75 75 -75q32 0 54 30.5t32.5 79t14.5 91.5t4 86q0 93 -15 162z" />
    <glyph glyph-name="uniF639" unicode="&#xf639;" horiz-adv-x="510" 
d="M255 640q73 0 123.5 -51.5t71 -123t20.5 -152.5q0 -84 -20.5 -155t-71 -121.5t-123.5 -50.5t-123.5 50.5t-71 121.5t-20.5 155q0 81 20.5 152.5t71 123t123.5 51.5zM255 600q-31 0 -51.5 -30t-29.5 -80t-12.5 -91t-3.5 -86t3.5 -86t12.5 -91t29.5 -80t51.5 -30t51.5 30
t29.5 80t12.5 91t3.5 86t-3.5 86t-12.5 91t-29.5 80t-51.5 30z" />
    <glyph glyph-name="uniF63A" unicode="&#xf63a;" horiz-adv-x="510" 
d="M216 86h117q54 0 75.5 11t44.5 52q5 3 13.5 1.5t11.5 -7.5q-20 -108 -49 -146q-59 3 -126 3h-165q-78 0 -110 -3q-10 7 -6 18q90 80 150 143q145 149 145 280q0 61 -32.5 99.5t-86.5 38.5q-71 0 -123 -88q-23 -4 -26 15q27 65 82.5 101t126.5 36q79 0 126.5 -47
t47.5 -119q0 -50 -26.5 -102t-91.5 -121l-82 -86q-47 -49 -47 -65q0 -14 31 -14z" />
    <glyph glyph-name="uniF63B" unicode="&#xf63b;" horiz-adv-x="510" 
d="M256 640q68 0 108.5 -32t40.5 -81q0 -36 -22 -66t-85 -61q-11 -13 12 -15q62 -6 103.5 -46.5t41.5 -110.5q0 -77 -49.5 -144t-123.5 -103.5t-150 -36.5q-39 0 -69 17t-30 48q0 20 13.5 33.5t33.5 13.5q25 0 55 -37q26 -32 55 -32q44 0 96.5 55t52.5 137q0 66 -33 109
t-94 43q-52 0 -97 -41q-12 2 -19.5 15t-2.5 26q8 3 36.5 15t44.5 19.5t41.5 22.5t39.5 29.5t25 36.5t11 46q0 40 -22 62.5t-56 22.5q-69 0 -123 -83q-7 -4 -13.5 1.5t-8.5 14.5q25 55 76 88.5t112 33.5z" />
    <glyph glyph-name="uniF63C" unicode="&#xf63c;" horiz-adv-x="510" 
d="M473 189h-62q-18 0 -21.5 -4t-3.5 -21v-45q0 -55 6.5 -71t31.5 -19l25 -3q5 -4 4.5 -15t-6.5 -14q-67 3 -116 3q-71 0 -134 -3q-6 3 -6.5 13.5t4.5 15.5l48 6q25 3 31.5 18.5t6.5 68.5v42q0 21 -3.5 24.5t-20.5 3.5h-229q-8 2 -12.5 11t-2.5 17l333 476q9 12 22 13h27
q27 0 12 -19l-311 -431q-9 -12 -0.5 -17t32.5 -5h125q20 0 24 3.5t4 23.5v165q0 20 12 27q9 5 38.5 15t39.5 10q7 0 10.5 -4t4 -9.5t0.5 -17.5v-189q0 -18 3 -21t22 -3h62q8 -6 8 -22.5t-8 -22.5z" />
    <glyph glyph-name="uniF63D" unicode="&#xf63d;" horiz-adv-x="510" 
d="M152 620l260 34q9 -2 9 -9q-11 -50 -39 -82l-207 -27q-21 -3 -26 -7t-10 -21l-10 -36q-2 -8 2 -12.5t18 -6.5l70 -12q224 -40 224 -213q0 -52 -23.5 -99t-62 -81t-87.5 -60.5t-101 -40t-101 -15.5q-9 5 -11.5 15.5t4.5 18.5q118 14 201 72t83 154q0 50 -23.5 86t-64 54
t-81 26t-87.5 9q-16 1 -19 6t2 25l54 195q6 25 26 27z" />
    <glyph glyph-name="uniF63E" unicode="&#xf63e;" horiz-adv-x="510" 
d="M481 197q-2 -94 -62.5 -152.5t-153.5 -58.5q-107 0 -166.5 71.5t-59.5 183.5q0 180 133 311q67 66 152 99.5t155 41.5q5 -3 6.5 -12t-2.5 -15q-150 -51 -217 -125q-53 -58 -78.5 -134.5t-27.5 -150.5q-2 -97 29 -163.5t88 -66.5q47 0 70.5 36.5t23.5 90.5q0 76 -31 129
t-84 53q-16 0 -33 -6q-13 4 -7 20q44 38 106 38q72 0 116.5 -53t42.5 -137z" />
    <glyph glyph-name="uniF63F" unicode="&#xf63f;" horiz-adv-x="510" 
d="M167 626h189q119 0 131 3q7 -3 7 -12q-50 -79 -98 -173l-260 -506q-14 -2 -28 4.5t-15 18.5l256 486q33 63 33 83q0 10 -23 10h-203q-42 0 -65.5 -9t-38.5 -37q-5 -4 -14 -2t-11 9q14 45 34 128q30 -3 106 -3z" />
    <glyph glyph-name="uniF640" unicode="&#xf640;" horiz-adv-x="510" 
d="M264 640q77 0 127.5 -40t50.5 -111q0 -34 -18.5 -63t-36 -42.5t-48.5 -33.5q-5 -3 -8 -5q131 -72 131 -186q0 -83 -61.5 -128t-149.5 -45q-82 0 -142.5 40t-60.5 119q0 29 9.5 53t31 44.5t40 33.5t51.5 34q-46 24 -80 64.5t-34 91.5q0 77 55.5 125.5t142.5 48.5zM256 26
q42 0 70.5 27t28.5 71q0 55 -36 95t-104 73q-71 -59 -71 -137q0 -57 31.5 -93t80.5 -36zM257 600q-43 0 -67.5 -29.5t-24.5 -72.5q0 -24 11 -44.5t35.5 -38t38.5 -25.5t46 -24q57 46 57 123q0 45 -26 78t-70 33z" />
    </font>
</defs>
</svg>
