<?xml version="1.0" standalone="no"?>
<!DOCTYPE svg PUBLIC "-//W3C//DTD SVG 1.1//EN" "http://www.w3.org/Graphics/SVG/1.1/DTD/svg11.dtd" >
<svg>
<metadata>
Created by FontForge 20090622 at Thu Mar  7 14:57:58 2019
 By deploy user
Copyright (c) 1991, 1998 Adobe Systems Incorporated. All Rights Reserved.Berthold Akzidenz-Grotesk is either a registered trademark or trademark of Berthold Types Limited in the United States and/or other countries.
</metadata>
<defs>
<font id="AkzidenzGroteskBE-Bold" horiz-adv-x="604" >
  <font-face 
    font-family="Akzidenz Grotesk BE Bold"
    font-weight="700"
    font-stretch="normal"
    units-per-em="1000"
    panose-1="2 11 8 0 0 0 0 0 0 0"
    ascent="750"
    descent="-250"
    x-height="522"
    cap-height="706"
    bbox="-166 -250 1222 927"
    underline-thickness="50"
    underline-position="-50"
    unicode-range="U+0020-U+FB02"
  />
<missing-glyph horiz-adv-x="271" 
 />
    <glyph glyph-name=".notdef" horiz-adv-x="271" 
 />
    <glyph glyph-name=".null" horiz-adv-x="0" 
 />
    <glyph glyph-name="nonmarkingreturn" horiz-adv-x="333" 
 />
    <glyph glyph-name="space" unicode=" " horiz-adv-x="271" 
 />
    <glyph glyph-name="space" unicode="&#xa0;" horiz-adv-x="271" 
 />
    <glyph glyph-name="exclam" unicode="!" horiz-adv-x="292" 
d="M90 495v211h160v-204l-48 -259h-67zM90 0v170h160v-170h-160z" />
    <glyph glyph-name="quotedbl" unicode="&#x22;" horiz-adv-x="396" 
d="M288 408l-55 250q-2 9 -2 24q0 32 22.5 49.5t52.5 17.5q28 0 47.5 -16.5t19.5 -45.5q0 -12 -1 -18l-53 -261h-31zM79 408l-54 250q-2 9 -2 24q0 32 22.5 49.5t51.5 17.5q28 0 48 -16.5t20 -45.5q0 -12 -1 -18l-53 -261h-32z" />
    <glyph glyph-name="numbersign" unicode="#" horiz-adv-x="667" 
d="M485 186l-26 -186h-125l26 186h-99l-26 -186h-123l24 186h-94v123h112l13 96h-100v124h117l25 177h125l-26 -177h100l24 177h125l-24 -177h91v-124h-108l-13 -96h98v-123h-116zM278 309h99l14 96h-99z" />
    <glyph glyph-name="dollar" unicode="$" horiz-adv-x="667" 
d="M295 690v115h81v-115q111 -11 223 -81l-88 -102q-48 24 -70.5 32t-64.5 17v-133q53 -12 81 -20t63 -24.5t56 -38.5q47 -49 47 -123q0 -31 -9 -62q-22 -80 -91 -123q-52 -31 -147 -42v-120h-80v120q-78 8 -139.5 27t-129.5 65l91 104q96 -54 178 -60v154q-139 26 -186 68
q-55 48 -55 126q0 113 89 173q55 36 151 43zM296 437v120q-28 -4 -39 -9q-42 -18 -42 -56q0 -18 13.5 -30t27 -16t40.5 -9zM376 265v-137q87 14 87 76q0 21 -15 34.5t-31 18t-41 8.5z" />
    <glyph glyph-name="percent" unicode="%" horiz-adv-x="875" 
d="M209 0l376 720l80 -42l-376 -719zM692 454q70 -1 111 -58q44 -61 44 -175q0 -109 -47 -173q-36 -54 -113 -54q-45 0 -77.5 21t-49.5 56.5t-24.5 72.5t-7.5 77q0 101 40.5 167.5t123.5 65.5zM683 367q-24 -2 -35 -31q-17 -37 -17 -120q0 -137 59 -137q56 0 56 143
q0 152 -63 145zM161 686q18 2 27 2q71 0 114 -59.5t43 -173.5q0 -109 -47 -173q-42 -54 -116 -54q-58 0 -94.5 37.5t-49 86t-12.5 106.5q0 100 37 160q35 57 98 68zM181 601q-25 -2 -36 -31q-17 -37 -17 -120q0 -137 59 -137q56 0 56 143q0 22 -2 42.5t-7 47.5t-19 42
t-34 13z" />
    <glyph glyph-name="ampersand" unicode="&#x26;" horiz-adv-x="688" 
d="M662 0h-79q-48 0 -71.5 9.5t-52.5 37.5q-91 -54 -188 -54q-115 0 -178.5 64.5t-63.5 153.5q0 39 15 80q13 31 32 55.5t43.5 41.5t40.5 25.5t42 20.5q-46 78 -46 121q0 68 47.5 111.5t133.5 43.5q80 0 126 -44t46 -108q0 -59 -38.5 -100.5t-93.5 -64.5q45 -69 96 -140
q22 48 34 105l125 -46q-19 -59 -31.5 -87t-44.5 -81q9 -11 15.5 -16.5t22.5 -11t38 -5.5q5 0 15 0.5t15 0.5v-112zM318 485q65 34 65 75q0 19 -13.5 31t-35.5 12q-20 0 -35 -11.5t-15 -30.5q0 -21 34 -76zM385 145l-121 186q-23 -15 -36.5 -25.5t-29.5 -35.5t-16 -53
q0 -36 27 -70.5t78 -34.5q38 0 98 33z" />
    <glyph glyph-name="quotesingle" unicode="'" horiz-adv-x="208" 
d="M90 408l-55 250q-2 9 -2 24q0 32 22.5 49.5t52.5 17.5q28 0 47.5 -16.5t19.5 -45.5q0 -12 -1 -18l-53 -261h-31z" />
    <glyph glyph-name="parenleft" unicode="(" horiz-adv-x="354" 
d="M338 -86l-51 -59q-48 37 -81.5 68.5t-77 87t-67 127.5t-23.5 156q0 159 96 295q58 83 153 154l53 -50l-31.5 -30.5t-28 -35t-34.5 -55.5q-67 -122 -67 -270q0 -169 78 -293q26 -42 81 -95z" />
    <glyph glyph-name="parenright" unicode=")" horiz-adv-x="354" 
d="M16 691l51 59q37 -28 63.5 -51t64.5 -66t62 -86t41.5 -105.5t17.5 -130.5q0 -159 -96 -295q-56 -81 -152 -154l-53 50q61 61 93 121q67 122 67 271q0 167 -77 292q-27 42 -82 95z" />
    <glyph glyph-name="asterisk" unicode="*" horiz-adv-x="354" 
d="M135 615v91h80v-90l-17 -38l29 30l87 29l25 -75l-87 -27l-41 4l38 -21l54 -73l-65 -47l-52 74l-9 42l-7 -42l-53 -74l-64 46l53 76l34 19l-38 -9l-88 25l23 78l85 -26l33 -28z" />
    <glyph glyph-name="plus" unicode="+" horiz-adv-x="667" 
d="M398 228v-228h-127v228h-229v127h229v228h127v-228h227v-127h-227z" />
    <glyph glyph-name="comma" unicode="," horiz-adv-x="250" 
d="M45 0v168h160v-128q0 -77 -20 -117q-12 -23 -29 -40.5t-39 -28.5t-35 -15.5t-35 -11.5v71q32 13 44 36t15 66h-61z" />
    <glyph glyph-name="hyphen" unicode="-" horiz-adv-x="354" 
d="M52 223v143h248v-143h-248z" />
    <glyph glyph-name="hyphen" unicode="&#xad;" horiz-adv-x="354" 
d="M52 223v143h248v-143h-248z" />
    <glyph glyph-name="period" unicode="." horiz-adv-x="250" 
d="M45 0v167h158v-167h-158z" />
    <glyph glyph-name="slash" unicode="/" horiz-adv-x="479" 
d="M16 0l304 706h142l-304 -706h-142z" />
    <glyph glyph-name="zero" unicode="0" horiz-adv-x="562" 
d="M272 689q54 2 96.5 -16t68.5 -51t44 -69.5t26 -80.5t11 -75t3 -61q0 -63 -11.5 -120.5t-37.5 -111.5t-76.5 -86.5t-120.5 -32.5q-111 0 -175 94q-60 87 -60 265q0 145 54 236q63 105 178 109zM276 564q-48 -2 -68 -66.5t-20 -186.5q0 -202 93 -202q47 0 68 56
q22 62 22 169q0 134 -32 190q-23 41 -63 40z" />
    <glyph glyph-name="one" unicode="1" horiz-adv-x="562" 
d="M88 473v104q75 6 112 25q45 23 70 76h122v-678h-161v495q-30 -13 -52 -17t-91 -5z" />
    <glyph glyph-name="two" unicode="2" horiz-adv-x="562" 
d="M193 426l-161 9q-2 74 16 121q51 134 222 134q72 0 126 -27q104 -52 104 -180q0 -76 -42.5 -147t-145.5 -155q-10 -9 -74 -57l264 4v-128h-465v118l157 128q72 63 105 112t33 122q0 93 -69 93q-38 0 -59 -27q-15 -21 -15 -67q0 -11 4 -53z" />
    <glyph glyph-name="three" unicode="3" horiz-adv-x="562" 
d="M202 471l-158 14q12 105 75 157q59 48 162 48q105 0 160 -47q61 -50 61 -135q0 -77 -51 -118q-17 -15 -61 -33q26 -6 39 -11q43 -17 66.5 -56.5t23.5 -87.5q0 -74 -47 -130q-68 -84 -210 -84q-120 0 -183 74q-48 57 -48 166l156 13q0 -5 -0.5 -14.5t-0.5 -14.5
q0 -46 23.5 -73t59.5 -27q40 0 64.5 26.5t24.5 73.5q0 32 -13.5 52.5t-33 26t-40 8t-35.5 -0.5v115q34 -2 50 2q58 14 58 77q0 38 -22.5 57.5t-50.5 19.5q-69 0 -69 -98z" />
    <glyph glyph-name="four" unicode="4" horiz-adv-x="562" 
d="M293 677h151v-410h90v-111h-90v-156h-158v156h-274l1 122zM287 366l6 161l-24 -46q-6 -11 -18 -29t-16 -25l-109 -160h161v99z" />
    <glyph glyph-name="five" unicode="5" horiz-adv-x="562" 
d="M55 321l41 355h390l-10 -128h-256l-16 -124q48 35 107 35q95 0 149.5 -64t54.5 -160q0 -46 -15 -89t-44.5 -79t-80 -58t-115.5 -22q-107 0 -169 62q-26 25 -40.5 59t-17.5 53.5t-5 51.5l159 6q-2 -31 6 -56q17 -55 74 -55q84 0 84 126q0 59 -24.5 88t-61.5 29
q-19 0 -34 -7q-25 -12 -37 -46z" />
    <glyph glyph-name="six" unicode="6" horiz-adv-x="562" 
d="M515 507l-160 -18q0 26 -2 33q-5 22 -21.5 35t-38.5 13q-40 0 -64 -35q-30 -45 -35 -179q18 34 51 53q43 26 96 26q72 0 129.5 -52.5t57.5 -155.5q0 -111 -67 -174.5t-176 -63.5q-73 0 -127 36q-116 76 -116 298q0 60 6 109.5t23.5 99t46 83.5t76.5 55t112 21
q67 0 118 -30q71 -45 91 -154zM289 320q-34 -2 -54.5 -29t-20.5 -75q0 -24 4.5 -45.5t23 -42.5t50.5 -21q83 0 83 109q0 64 -33 89q-21 17 -53 15z" />
    <glyph glyph-name="seven" unicode="7" horiz-adv-x="562" 
d="M34 547v131h479v-122q-72 -87 -114.5 -163.5t-73.5 -172.5q-34 -105 -47 -220h-186q10 44 17.5 73.5t29.5 95.5t48 120t71 125t99 133h-323z" />
    <glyph glyph-name="eight" unicode="8" horiz-adv-x="562" 
d="M395 357q26 -11 39.5 -18.5t37 -26t35.5 -49t12 -70.5q0 -55 -22.5 -96.5t-59 -64t-76.5 -33t-82 -10.5q-109 0 -173 54q-30 25 -48.5 66t-18.5 85q0 39 13 68q12 29 33.5 49.5t36 28t38.5 16.5q-93 55 -93 153q0 72 53 126.5t161 54.5q92 0 151 -49t59 -137
q0 -35 -9.5 -62t-27.5 -44t-29 -24.5t-30 -16.5zM277 572q-30 -2 -45.5 -24.5t-15.5 -54.5q0 -19 4 -36t19.5 -33.5t41.5 -16.5q27 0 45 19t18 58q0 13 -2 25.5t-8 29t-21 25.5t-36 8zM287 303q-35 3 -60.5 -22t-25.5 -74t22.5 -73.5t54.5 -24.5q43 0 64 31q15 21 15 67
q0 52 -22.5 73t-47.5 23z" />
    <glyph glyph-name="nine" unicode="9" horiz-adv-x="562" 
d="M46 172l160 17q0 -22 2 -33q5 -22 21.5 -35t38.5 -13q40 0 63 35q30 45 35 179q-24 -44 -66.5 -61.5t-80.5 -17.5q-71 0 -129 52t-58 156q0 111 67 174.5t176 63.5q74 0 127 -36q116 -76 116 -298q0 -61 -6 -110.5t-23.5 -99t-46 -83t-76 -54.5t-111.5 -21q-70 0 -118 30
q-74 47 -91 155zM271 358q34 2 54.5 29t20.5 75q0 24 -4.5 45.5t-23 42.5t-50.5 21q-83 0 -83 -109q0 -64 33 -89q21 -17 53 -15z" />
    <glyph glyph-name="colon" unicode=":" horiz-adv-x="292" 
d="M86 354v168h160v-168h-160zM86 0v170h160v-170h-160z" />
    <glyph glyph-name="semicolon" unicode=";" horiz-adv-x="292" 
d="M86 354v170h160v-170h-160zM86 171h160v-159q-2 -24 -4 -37t-12.5 -38.5t-28.5 -46.5q-17 -20 -38.5 -32.5t-35 -17t-41.5 -11.5v70q33 12 45.5 32.5t15.5 68.5h-61v171z" />
    <glyph glyph-name="less" unicode="&#x3c;" horiz-adv-x="667" 
d="M667 136v-139l-667 292v124l667 296v-139l-489 -219z" />
    <glyph glyph-name="equal" unicode="=" horiz-adv-x="667" 
d="M667 251v-127h-667v127h667zM667 459v-126h-667v126h667z" />
    <glyph glyph-name="greater" unicode="&#x3e;" horiz-adv-x="667" 
d="M667 289l-667 -292v139l489 215l-489 219v139l667 -296v-124z" />
    <glyph glyph-name="question" unicode="?" 
d="M204 488l-143 46q12 32 19 49t27 43t47 45q68 49 181 49q117 0 183 -50q67 -51 67 -137q0 -31 -8 -57t-24.5 -45.5t-25.5 -28.5t-26 -22l-54.5 -39t-59.5 -43q-20 -16 -26 -25.5t-10 -29.5h-127q2 40 9 63t33 49q15 16 85 64q66 47 66 97q0 45 -27 68q-24 22 -66 22
q-63 0 -98 -47q-20 -28 -22 -71zM210 0v170h158v-170h-158z" />
    <glyph glyph-name="at" unicode="@" horiz-adv-x="896" 
d="M779 101l47 -61q-173 -164 -367 -164q-49 0 -99 10t-103.5 36t-94 65.5t-67 104.5t-26.5 146q0 126 59.5 234.5t166 174t234.5 65.5q137 0 217.5 -81.5t80.5 -210.5q0 -89 -33 -171t-88.5 -132.5t-116.5 -50.5q-75 0 -90 68q-57 -68 -126 -68q-60 0 -99.5 44t-39.5 126
q0 70 27 135.5t78 108.5t112 43q31 0 55 -12.5t31.5 -21.5t19.5 -26l9 39h91l-34 -158q-27 -143 -27 -163q0 -30 19 -30q22 0 51.5 35.5t53 99t23.5 130.5q0 58 -19.5 101.5t-53 68t-71 36t-79.5 11.5q-145 0 -257 -117.5t-112 -278.5q0 -63 20 -113.5t51 -81.5t72.5 -51
t81 -28t78.5 -8q142 0 266 93q38 30 59 53zM524 349q-1 39 -20 61.5t-48 22.5q-51 0 -84.5 -62.5t-33.5 -129.5q0 -28 8 -47.5t20 -26.5t20 -9.5t15 -2.5q41 0 77 48q23 30 35 72t11 74z" />
    <glyph glyph-name="A" unicode="A" horiz-adv-x="708" 
d="M261 706h184l260 -706h-188l-35 113h-260l-35 -113h-188zM442 240l-92 298l-29 -109q-9 -31 -31.5 -102.5t-26.5 -86.5h179z" />
    <glyph glyph-name="B" unicode="B" horiz-adv-x="708" 
d="M68 0v706h273q132 0 184 -17q62 -20 92 -64.5t30 -99.5q0 -38 -13 -68q-11 -25 -28.5 -43.5t-39.5 -28.5t-35.5 -14t-34.5 -8q100 -16 139 -60q39 -42 39 -106q0 -48 -28.5 -96t-88.5 -75q-60 -26 -191 -26h-298zM381 574h-145v-147h133q17 0 27 1t26.5 5.5t26.5 11.5
t17.5 22t7.5 36q0 71 -93 71zM389 299h-153v-171h123q24 0 37.5 1t35 5.5t33.5 13t21 25t9 39.5q0 30 -10.5 49t-30.5 26.5t-32 9t-33 2.5z" />
    <glyph glyph-name="C" unicode="C" horiz-adv-x="688" 
d="M542 232l139 -71l-28 -42.5t-31.5 -37t-47.5 -40.5q-89 -62 -197 -62q-145 0 -241.5 100.5t-96.5 274.5q0 158 97 266t245 108q118 0 206 -70q50 -40 92 -113l-140 -70q-20 45 -53 73q-44 35 -97 35q-82 0 -128 -65t-46 -159q0 -111 49.5 -171.5t124.5 -60.5q32 0 58 9.5
t45 29t28 32t22 34.5z" />
    <glyph glyph-name="D" unicode="D" horiz-adv-x="729" 
d="M67 0v706h225q45 -1 74 -2.5t75 -9t85.5 -25.5t71.5 -46q101 -91 101 -264q0 -76 -18 -136q-13 -45 -35.5 -81t-46 -58.5t-55 -39t-56 -25t-56.5 -13t-48 -5.5t-39 -1h-278zM316 557h-71v-415h54q27 1 42.5 1.5t42.5 5.5t43.5 12.5t36.5 23t31.5 37t19.5 55t8 75.5
q0 91 -37 142q-22 30 -55.5 44.5t-54.5 16.5t-60 2z" />
    <glyph glyph-name="E" unicode="E" horiz-adv-x="646" 
d="M68 0v706h522v-137h-346v-128h323v-134h-323v-168h377v-139h-553z" />
    <glyph glyph-name="F" unicode="F" horiz-adv-x="625" 
d="M67 706h542v-136h-366v-148h337v-137h-337v-285h-176v706z" />
    <glyph glyph-name="G" unicode="G" horiz-adv-x="750" 
d="M566 0v66q-88 -82 -208 -82q-145 0 -231.5 104t-86.5 264q0 169 98 273.5t250 104.5q53 0 101.5 -13.5t79 -30.5t61 -44t42 -40.5t27.5 -34.5l-134 -81q-13 20 -23 32.5t-30.5 30.5t-48 27.5t-62.5 9.5q-94 0 -139.5 -65.5t-45.5 -163.5q0 -122 56 -180q47 -51 129 -51
q56 0 97 27q21 14 34 33.5t16.5 33.5t6.5 38h-158v134h307v-392h-138z" />
    <glyph glyph-name="H" unicode="H" horiz-adv-x="750" 
d="M504 706h177v-706h-177v301h-258v-301h-178v706h178v-255h258v255z" />
    <glyph glyph-name="I" unicode="I" horiz-adv-x="313" 
d="M67 706h176v-706h-176v706z" />
    <glyph glyph-name="J" unicode="J" horiz-adv-x="396" 
d="M154 216v490h177v-509q0 -41 -1 -60.5t-9 -44t-25 -43.5q-43 -49 -162 -49h-118v143h30q71 0 89.5 13t18.5 60z" />
    <glyph glyph-name="K" unicode="K" horiz-adv-x="708" 
d="M68 0v706h168v-288l264 288h212l-250 -262l270 -444h-199l-189 320l-108 -113v-207h-168z" />
    <glyph glyph-name="L" unicode="L" horiz-adv-x="542" 
d="M68 0v707h176v-558h276v-149h-452z" />
    <glyph glyph-name="M" unicode="M" horiz-adv-x="917" 
d="M591 706h257v-706h-169l11 503l2 71l-6 -25q-11 -48 -18 -75l-133 -474h-152l-128 454l-31 126q1 -25 2 -42.5t2 -42.5l2 -50l9 -445h-171v706h258l108 -396l25 -113q11 55 19 87z" />
    <glyph glyph-name="N" unicode="N" horiz-adv-x="729" 
d="M67 0v706h173l153 -260l106 -193l-8 453h169v-706h-173l-132 223q-69 113 -124 221l5 -444h-169z" />
    <glyph glyph-name="O" unicode="O" horiz-adv-x="792" 
d="M615 54q-90 -74 -222 -74q-162 0 -256.5 108t-94.5 268q0 98 38.5 181t119.5 137t190 54q69 0 129 -21q61 -21 106.5 -62t68 -82t36 -89.5t16.5 -75.5t3 -49q0 -89 -37 -167.5t-97 -127.5zM572 337q5 125 -57 192q-49 52 -124 52q-79 0 -127 -62.5t-48 -159.5
q0 -116 53 -173t124 -57q70 0 123 52.5t56 155.5z" />
    <glyph glyph-name="P" unicode="P" horiz-adv-x="688" 
d="M67 0v706h284q46 0 69 -0.5t60.5 -5t60.5 -13.5t48 -26.5t43 -43.5q40 -59 40 -145q0 -60 -24 -110q-17 -36 -45 -61.5t-53.5 -38.5t-64.5 -20t-61.5 -8.5t-62.5 -2.5h-117v-231h-177zM356 576h-112v-214h106q26 0 41.5 1t38 7t35 17t22 33t9.5 53q0 29 -10.5 50
t-23.5 31t-35.5 15.5t-35.5 6t-35 0.5z" />
    <glyph glyph-name="Q" unicode="Q" horiz-adv-x="792" 
d="M817 61l-51 -125q-59 11 -93 26.5t-101 66.5q-37 -18 -56.5 -26t-53 -15.5t-68.5 -7.5q-71 0 -136 25t-111 70q-55 54 -80 129t-25 152q0 159 96 265t255 106q163 0 260 -107t97 -261q0 -56 -13.5 -106.5t-24.5 -72.5t-32 -56q32 -29 58.5 -41.5t78.5 -21.5zM384 578
q-86 -5 -126 -70.5t-40 -150.5q0 -105 49.5 -166.5t130.5 -61.5q85 0 131 65t46 162q0 88 -40 149q-50 78 -151 73z" />
    <glyph glyph-name="R" unicode="R" horiz-adv-x="708" 
d="M67 0v706h318q38 -1 60 -2.5t57 -7.5t63 -21.5t51 -40.5q56 -63 56 -157q0 -40 -11.5 -73t-25 -51.5t-37.5 -35t-36.5 -22t-34.5 -13.5l163 -282h-195l-140 252h-111v-252h-177zM394 574h-150v-191h146q106 4 106 97q0 32 -10 52.5t-28.5 28.5t-31 10t-32.5 3z" />
    <glyph glyph-name="S" unicode="S" horiz-adv-x="688" 
d="M9 127l134 85q32 -35 68 -55q64 -34 136 -34q54 0 92 23t38 59q0 20 -10.5 33.5t-33 21t-37 10.5t-42.5 7q-78 10 -116 18q-190 40 -190 192q0 65 26.5 113t70.5 73.5t90.5 37.5t96.5 12q58 0 107 -12t89.5 -36t62 -40.5t53.5 -45.5l-130 -93q-40 40 -70 57
q-55 31 -115 31q-49 0 -77 -23t-28 -51q0 -25 18.5 -40.5t33.5 -19t38 -6.5q146 -18 216 -42q60 -22 91 -67t31 -106q0 -85 -56 -150q-82 -95 -265 -95q-57 0 -106 11t-80 24t-61.5 36.5t-43 36.5t-31.5 35z" />
    <glyph glyph-name="T" unicode="T" horiz-adv-x="562" 
d="M7 567v140h544v-140h-183v-567h-177v567h-184z" />
    <glyph glyph-name="U" unicode="U" horiz-adv-x="729" 
d="M488 706h177v-394q-1 -45 -2.5 -70t-11 -62.5t-27.5 -67.5q-26 -42 -67 -70.5t-83.5 -39.5t-67.5 -14.5t-45 -3.5q-91 0 -164 38q-33 17 -57.5 38.5t-38.5 47.5t-23 48.5t-12 54t-3.5 50.5t-0.5 51v394h178v-440q0 -64 13 -88q29 -48 114 -48q34 0 58.5 10t36 21.5t18 34
t7.5 35t1 36.5v439z" />
    <glyph glyph-name="V" unicode="V" horiz-adv-x="667" 
d="M333 204l145 502h188l-245 -706h-180l-242 706h188z" />
    <glyph glyph-name="W" unicode="W" horiz-adv-x="979" 
d="M409 706h156q42 -152 65 -228q32 -111 42 -154.5t26 -140.5q22 145 58 308l46 215h175l-179 -706h-182l-66 233q-41 142 -61 234q-18 -88 -60 -229l-68 -238h-182l-179 706h176q58 -257 74 -334.5t31 -190.5q26 142 70 307z" />
    <glyph glyph-name="X" unicode="X" horiz-adv-x="771" 
d="M383 493l138 213h205l-233 -323l275 -383h-202l-181 267l-183 -267h-202l273 383l-235 323h209z" />
    <glyph glyph-name="Y" unicode="Y" horiz-adv-x="708" 
d="M267 329l-265 377h203l152 -242q10 23 29 53l121 189h201l-267 -372v-334h-174v329z" />
    <glyph glyph-name="Z" unicode="Z" horiz-adv-x="625" 
d="M38 568v138h570v-138l-385 -429h383v-139h-601v132l391 436h-358z" />
    <glyph glyph-name="bracketleft" unicode="[" horiz-adv-x="354" 
d="M68 -104v810h266v-80h-136v-648h135v-82h-265z" />
    <glyph glyph-name="backslash" unicode="\" horiz-adv-x="479" 
d="M462 0h-142l-304 706h142z" />
    <glyph glyph-name="bracketright" unicode="]" horiz-adv-x="354" 
d="M22 625v81h265v-810h-266v81h136v648h-135z" />
    <glyph glyph-name="asciicircum" unicode="^" horiz-adv-x="667" 
d="M383 706l187 -382h-118l-116 245l-122 -245h-117l195 382h91z" />
    <glyph glyph-name="underscore" unicode="_" horiz-adv-x="500" 
d="M510 -75v-50h-520v50h520z" />
    <glyph glyph-name="grave" unicode="`" horiz-adv-x="271" 
d="M6 720h185l74 -133h-101z" />
    <glyph glyph-name="a" unicode="a" horiz-adv-x="583" 
d="M220 374h-154q6 78 55 116q58 46 171 46q31 0 62 -5t70 -19t63 -46.5t24 -79.5v-304q0 -40 2.5 -54t12.5 -28h-151v48q-27 -20 -43 -30t-48.5 -21t-68.5 -11q-83 0 -127 48.5t-44 110.5q0 56 34 94t76 56q41 18 206 48v28q-1 14 -2.5 21t-7 19t-18 18t-31.5 6
q-24 0 -40.5 -6t-24.5 -18t-11 -19t-5 -18zM360 250l-99 -33q-19 -7 -30 -12.5t-23.5 -20t-12.5 -32.5q0 -20 16 -36.5t42 -16.5t53 17q34 22 43.5 52t10.5 82z" />
    <glyph glyph-name="b" unicode="b" horiz-adv-x="625" 
d="M69 707h150v-232q60 63 150 63q35 0 70.5 -13t71 -41t58 -83t22.5 -129q0 -97 -32 -161q-23 -51 -73 -88t-122 -37q-91 0 -153 69l6 -55h-148v707zM328 425q-113 -6 -113 -159q0 -76 24 -117q31 -49 91 -49q48 0 80 39q31 41 31 128q0 71 -26.5 116t-86.5 42z" />
    <glyph glyph-name="c" unicode="c" horiz-adv-x="500" 
d="M408 183l116 -60q-40 -63 -82 -93q-67 -47 -150 -47q-32 0 -65.5 7.5t-69 27.5t-62.5 49.5t-44.5 78.5t-17.5 110q0 120 68.5 200t193.5 80q147 0 223 -125l-114 -65q-17 35 -44 55q-27 18 -58 18q-56 0 -83.5 -50t-27.5 -108q0 -60 29.5 -108t86.5 -48q46 0 78 36
q15 17 23 42z" />
    <glyph glyph-name="d" unicode="d" 
d="M387 706h149v-706h-140v49q-63 -63 -141 -63q-85 0 -147 60q-76 73 -76 212q0 137 64.5 207.5t152.5 70.5q32 0 61.5 -10t42.5 -18.5t34 -24.5v223zM336 115q54 37 54 146q0 89 -33 129q-24 31 -60 31q-31 0 -53 -15t-32.5 -34t-16.5 -45.5t-6.5 -39t-0.5 -26.5
q0 -66 22.5 -114t75.5 -48q26 0 50 16z" />
    <glyph glyph-name="e" unicode="e" horiz-adv-x="583" 
d="M440 192l116 -59q-34 -51 -63 -78q-79 -74 -197 -74t-191 72t-73 198q0 40 8 78.5t27.5 77t49 67.5t77 47t106.5 18q118 0 188 -75q69 -74 74 -234h-373q-1 -53 30 -91.5t89 -38.5q39 0 68 17t39.5 33t24.5 42zM190 326h213q-7 51 -29 74q-29 29 -75 29t-78 -34
q-20 -22 -31 -69z" />
    <glyph glyph-name="f" unicode="f" horiz-adv-x="354" 
d="M93 510v64q0 58 22 89q39 53 134 53q25 0 92 -9v-115h-37q-42 0 -51.5 -14t-8.5 -68h103v-94h-102v-416h-153v416h-82v94h83z" />
    <glyph glyph-name="g" unicode="g" 
d="M385 13v56q-66 -44 -138 -44q-69 0 -119 34q-97 62 -97 216q0 34 6 67t22.5 68t40.5 61.5t63.5 43t89.5 16.5q37 0 67.5 -11t43 -20.5t29.5 -25.5v49h144v-502q-1 -29 -3 -45.5t-9 -42t-24 -45t-44 -35.5q-66 -40 -178 -40q-71 0 -123 19.5t-77 45.5q-40 40 -40 122h159
q1 -17 3 -26.5t12.5 -24.5t29.5 -24q20 -10 49 -10q27 0 45.5 6.5t27.5 15t14 24t5.5 25t0.5 27.5zM281 416q-91 -4 -91 -140q0 -135 98 -135q54 0 75 36t21 99q0 74 -19 102q-26 41 -84 38z" />
    <glyph glyph-name="h" unicode="h" 
d="M68 707h154v-240q69 69 150 69q67 0 111 -37q32 -27 43 -63t11 -93v-343h-153v273q0 59 -7 80q-17 52 -72 52q-40 0 -63 -30q-20 -27 -20 -115v-260h-154v707z" />
    <glyph glyph-name="i" unicode="i" horiz-adv-x="292" 
d="M70 588v119h152v-119h-152zM70 0v523h152v-523h-152z" />
    <glyph glyph-name="j" unicode="j" horiz-adv-x="292" 
d="M69 706h152v-118h-152v118zM69 19v503h152v-516q0 -35 -1 -54t-9 -48t-23 -44t-44.5 -26.5t-72.5 -11.5l-71 1v122q48 -2 58.5 12t10.5 62z" />
    <glyph glyph-name="k" unicode="k" horiz-adv-x="583" 
d="M67 0v706h151v-363l169 179h185l-180 -186l203 -336h-178l-134 225l-66 -62v-163h-150z" />
    <glyph glyph-name="l" unicode="l" horiz-adv-x="292" 
d="M68 706h154v-706h-154v706z" />
    <glyph glyph-name="m" unicode="m" horiz-adv-x="896" 
d="M219 521v-54q58 68 148 68q40 0 70.5 -10.5t43 -20.5t31.5 -30q22 18 36 28t47.5 21.5t71.5 11.5q58 0 94.5 -22.5t51.5 -52.5q14 -30 14 -120v-340h-152v274q0 69 -6 89q-15 47 -67 47q-30 0 -50 -16t-24.5 -38t-4.5 -72v-284h-152v309q0 53 -15 74q-20 27 -60 27
q-23 0 -42 -12q-16 -11 -24 -29.5t-9.5 -33t-1.5 -38.5v-297h-152v521h152z" />
    <glyph glyph-name="n" unicode="n" 
d="M225 521v-46q27 29 52 41q46 19 95 19q55 0 93 -21q40 -21 54.5 -57t14.5 -100v-357h-153v294q0 62 -7 78q-17 40 -69 40q-23 0 -39.5 -8t-24.5 -18t-12 -30.5t-4.5 -34t-0.5 -39.5v-282h-154v521h155z" />
    <glyph glyph-name="o" unicode="o" horiz-adv-x="625" 
d="M333 538q75 -4 129.5 -34t81 -74t38 -85.5t11.5 -82.5q0 -52 -15.5 -99.5t-47.5 -88t-88 -65t-129 -24.5q-57 0 -106.5 16.5t-89 49t-62.5 87t-23 124.5q0 126 78.5 205t222.5 71zM304 416q-61 -4 -91 -51q-26 -41 -26 -102q0 -67 32.5 -111.5t93.5 -44.5q60 0 92 42
t32 107q0 89 -43 131q-36 34 -90 29z" />
    <glyph glyph-name="p" unicode="p" 
d="M201 520v-49q10 12 15 17q48 46 131 46q99 0 163 -72t64 -199q0 -45 -11 -88.5t-34.5 -87t-70.5 -70.5t-110 -27q-27 0 -51.5 7t-37.5 14t-40 23v-215h-155v701h137zM344 422q-10 3 -21 3q-48 0 -79 -42q-32 -42 -32 -123q0 -88 37 -129q28 -30 69 -30q53 0 80.5 48
t27.5 115q0 137 -82 158z" />
    <glyph glyph-name="q" unicode="q" 
d="M382 -180v217q-65 -48 -135 -48q-87 0 -151.5 68t-64.5 198q0 132 64.5 206.5t161.5 74.5q33 0 61.5 -10.5t42.5 -20.5t35 -28v44h140v-701h-154zM288 103q44 0 75 42t31 122q0 76 -29 117.5t-75 41.5q-14 0 -29.5 -6t-34.5 -22t-31 -51t-12 -84q0 -69 30.5 -114.5
t74.5 -45.5z" />
    <glyph glyph-name="r" unicode="r" horiz-adv-x="375" 
d="M216 523v-55q60 51 151 60v-136l-51 -8q-58 -10 -77 -26t-19 -64v-294h-154v523h150z" />
    <glyph glyph-name="s" unicode="s" horiz-adv-x="521" 
d="M-2 88l97 88q74 -72 152 -72q35 0 64 12.5t29 38.5q0 19 -20 30q-15 8 -89 20q-41 7 -70 16q-58 16 -87 45q-39 39 -39 98q0 70 58.5 122.5t161.5 52.5q121 0 233 -78l-95 -88q-67 52 -131 52q-40 0 -57 -12t-17 -27q0 -11 5 -18.5t18.5 -12.5t24.5 -7.5t35 -6.5
q39 -7 65 -13t59.5 -19.5t53.5 -30.5t34.5 -44.5t14.5 -63.5q0 -87 -73.5 -135t-173.5 -48q-145 0 -253 101z" />
    <glyph glyph-name="t" unicode="t" horiz-adv-x="354" 
d="M87 511v162h153v-163h101v-94h-102v-235q-1 -20 0.5 -30.5t11 -19.5t28.5 -9l55 2v-120q-53 -8 -81 -8q-51 0 -86.5 9.5t-57.5 41.5t-22 118v252h-76v94h76z" />
    <glyph glyph-name="u" unicode="u" 
d="M380 197v325h154v-522h-154v50q-24 -27 -52 -41q-46 -24 -99 -24q-93 0 -133 55q-20 28 -26 58.5t-6 95.5v328h155v-324q0 -46 12 -62q19 -26 61 -26q30 0 53 13q22 13 28 30t7 44z" />
    <glyph glyph-name="v" unicode="v" horiz-adv-x="500" 
d="M169 0l-169 522h162q47 -170 63 -236.5t29 -143.5q22 120 55 252l32 128h158l-169 -522h-161z" />
    <glyph glyph-name="w" unicode="w" horiz-adv-x="792" 
d="M0 522h162l73 -365l79 365h164l71 -368l82 368h159l-156 -522h-167l-77 348l-78 -348h-169z" />
    <glyph glyph-name="x" unicode="x" horiz-adv-x="521" 
d="M336 522h165l-158 -244l177 -278h-164l-99 162l-87 -162h-170l177 283l-158 239h174l69 -133z" />
    <glyph glyph-name="y" unicode="y" horiz-adv-x="500" 
d="M336 522h164l-184 -564q-23 -67 -49 -95q-17 -18 -37 -27.5t-34.5 -11.5t-39.5 -3h-111v122h54q15 1 21.5 1.5t19 4t18 11.5t5.5 21q0 11 -7 37l-156 504h164l86 -374z" />
    <glyph glyph-name="z" unicode="z" horiz-adv-x="542" 
d="M64 404v118h447v-118l-278 -284h278v-120h-477v116l282 288h-252z" />
    <glyph glyph-name="braceleft" unicode="{" horiz-adv-x="354" 
d="M35 273v53q28 6 45 21.5t23.5 42t8 45t1.5 52.5v45q0 73 6 105.5t30 58.5q29 32 70 39.5t133 7.5v-54q-46 -10 -65 -24q-21 -14 -30.5 -36t-11 -41.5t-2.5 -66.5v-23q-1 -64 -2.5 -83t-9.5 -40q-7 -20 -18.5 -34.5t-27.5 -23t-23.5 -11.5t-23.5 -7q70 -19 92 -71
q13 -29 14 -126v-25q0 -68 8 -92q8 -25 24 -40.5t30 -21t46 -14.5v-54q-87 0 -131.5 8.5t-73.5 41.5q-16 17 -23.5 42.5t-8.5 45t-1 59.5v49q-1 75 -5 93q-17 62 -74 79z" />
    <glyph glyph-name="bar" unicode="|" horiz-adv-x="229" 
d="M178 750v-1000h-127v1000h127z" />
    <glyph glyph-name="braceright" unicode="}" horiz-adv-x="354" 
d="M335 325v-53q-28 -6 -45 -21.5t-23.5 -42t-8 -45t-1.5 -52.5v-45q0 -73 -6 -105.5t-30 -58.5q-29 -32 -70 -39.5t-133 -7.5v54q46 10 65 24q21 14 30.5 36t11 41.5t2.5 66.5v23q1 64 2.5 83t9.5 40q7 20 18.5 34.5t27.5 23t23.5 11.5t23.5 7q-70 19 -92 71
q-13 29 -14 126v25q0 68 -8 92q-8 25 -24 40.5t-30 21t-46 14.5v54q87 0 131.5 -8.5t73.5 -41.5q16 -17 23.5 -42.5t8.5 -45t1 -59.5v-49q1 -75 5 -93q17 -62 74 -79z" />
    <glyph glyph-name="asciitilde" unicode="~" horiz-adv-x="667" 
d="M539 377l46 -89q-21 -22 -34.5 -34.5t-46.5 -29.5t-66 -17q-36 0 -103 32l-29 14q-50 23 -77 23q-28 0 -45.5 -13t-53.5 -55l-48 87q61 89 145 89q38 0 107 -32l34 -16q49 -21 73 -21q46 0 98 62z" />
    <glyph glyph-name="exclamdown" unicode="&#xa1;" horiz-adv-x="292" 
d="M41 706h159v-168h-159v168zM41 205l47 260h67l45 -253v-212h-159v205z" />
    <glyph glyph-name="cent" unicode="&#xa2;" horiz-adv-x="542" 
d="M267 533v112h77v-113q38 -6 68.5 -19.5t53 -34t34 -33.5t26.5 -34l-114 -66q-20 35 -33.5 47.5t-34.5 18.5v-302q25 6 39.5 22t32.5 51l114 -59q-15 -24 -25.5 -38t-32.5 -37t-54.5 -38t-73.5 -23v-119h-77v117q-43 4 -81.5 20.5t-74.5 46.5t-57.5 83t-21.5 122
q0 122 67 196t168 80zM267 113v298q-39 -17 -57.5 -60.5t-18.5 -89.5q0 -106 76 -148z" />
    <glyph glyph-name="sterling" unicode="&#xa3;" horiz-adv-x="688" 
d="M58 397h77q-36 55 -36 113q0 48 30.5 92.5t91.5 69.5q61 23 158 23q145 0 202 -68q42 -49 46 -161l-153 -11q-1 29 -4.5 45.5t-13 35.5t-31 27.5t-54.5 8.5q-13 0 -24.5 -1.5t-32.5 -8t-34 -24.5t-13 -46q0 -39 44 -95h156v-98h-90q26 -45 26 -96q0 -20 -4 -43
q7 -5 17.5 -13.5t16 -12t14.5 -7t18 -3.5q16 0 25.5 7.5t14.5 24.5t7 33.5t3 47.5l146 -11q-3 -44 -5.5 -69.5t-12 -58t-25.5 -54.5q-37 -50 -101 -50q-29 0 -59.5 11.5t-51 24t-55.5 36.5q-67 -81 -177 -81q-64 0 -111 31.5t-47 89.5q0 53 44.5 90t121.5 37q18 0 62 -6
q-19 41 -41 72h-145v98zM249 133q-40 19 -68 19q-27 0 -41.5 -12.5t-14.5 -28.5q0 -18 13.5 -28.5t32.5 -10.5q15 0 32 7q27 13 46 54z" />
    <glyph glyph-name="currency" unicode="&#xa4;" horiz-adv-x="667" 
d="M661 570l-82 -80q43 -72 43 -151t-43 -152l81 -82l-96 -95l-80 82q-75 -42 -150 -42q-78 0 -152 43l-81 -81l-95 95l82 81q-43 70 -43 151q0 80 42 151l-79 80l94 95l80 -80q74 43 152 43q76 0 151 -43l80 80zM497 339q1 74 -48.5 119.5t-114.5 45.5t-114.5 -45
t-49.5 -120t50 -120t115 -45q68 0 114.5 46.5t47.5 118.5z" />
    <glyph glyph-name="yen" unicode="&#xa5;" horiz-adv-x="708" 
d="M205 692l151 -236l151 236h201l-173 -236h85v-108h-164l-15 -21v-48h179v-108h-179v-171h-174v171h-180v108h180v43l-18 26h-162v108h84l-169 236h203z" />
    <glyph glyph-name="brokenbar" unicode="&#xa6;" horiz-adv-x="229" 
d="M51 -175v350h127v-350h-127zM178 325h-127v350h127v-350z" />
    <glyph glyph-name="section" unicode="&#xa7;" 
d="M53 -50l97 79q101 -59 170 -59q15 0 26.5 3t17 7t8.5 9.5t3.5 8t0.5 4.5q0 6 -2.5 10.5t-19.5 16.5t-50 28l-81 38q-74 33 -105 52q-97 62 -97 149q0 30 13 61q10 23 26.5 42t27.5 27t34 23q-14 17 -20 26t-12 26t-6 36q0 30 15 62q45 91 181 91q53 0 107.5 -15t86 -30
t79.5 -42l-98 -78q-99 53 -168 53q-54 0 -54 -29q0 -9 7 -19q6 -10 58 -34l16 -8l102 -46q88 -41 130 -83t42 -103q0 -40 -19.5 -76t-36.5 -51t-43 -35q34 -49 34 -85q0 -61 -53 -106.5t-136 -45.5q-75 0 -162 32q-53 19 -119 61zM204 391l-20.5 -16t-16 -21t-8.5 -32
q0 -25 20 -46q11 -11 28 -20t94 -44q44 -21 106 -55q41 39 41 72q0 29 -25.5 49t-87.5 48z" />
    <glyph glyph-name="dieresis" unicode="&#xa8;" horiz-adv-x="271" 
d="M183 721h157v-124h-157v124zM-68 721h157v-124h-157v124z" />
    <glyph glyph-name="copyright" unicode="&#xa9;" horiz-adv-x="833" 
d="M773 351q-1 -148 -104 -251t-253 -103q-143 0 -249 101t-106 255q0 151 105 253.5t251 102.5q153 0 255 -105t101 -253zM741 351q1 135 -92 230.5t-230 95.5t-231.5 -95t-94.5 -229q0 -136 95 -230t229 -94q136 0 229.5 94t94.5 228zM534 270l87 -80q-80 -84 -196 -84
q-118 0 -184 71t-66 176q0 106 67.5 178.5t182.5 72.5q114 0 196 -85l-87 -84q-51 49 -110 49q-62 0 -93.5 -38t-31.5 -92q0 -58 34.5 -93.5t92.5 -35.5q60 0 108 45z" />
    <glyph glyph-name="ordfeminine" unicode="&#xaa;" horiz-adv-x="333" 
d="M133 626h-85q2 34 18 54q27 35 100 35q65 0 97 -27q23 -21 23 -55v-173q1 -16 10 -28h-85q-1 10 -1 24q-39 -29 -78 -29q-44 0 -69.5 23.5t-25.5 59.5q0 26 12 45t31 28.5t31 13t24 5.5q9 2 26 5t26 5l19 5q0 40 -36 40q-31 0 -37 -31zM205 561q-54 -15 -69 -22.5
t-15 -24.5q0 -4 1 -8t8 -10t19 -6q24 0 39 15q17 17 17 56z" />
    <glyph glyph-name="guillemotleft" unicode="&#xab;" horiz-adv-x="417" 
d="M378 237v-137l-158 130v125l158 134v-138l-68 -57zM192 237v-137l-160 131v124l160 134v-138l-65 -57z" />
    <glyph glyph-name="logicalnot" unicode="&#xac;" horiz-adv-x="667" 
d="M540 0v227h-539v127h666v-354h-127z" />
    <glyph glyph-name="registered" unicode="&#xae;" horiz-adv-x="833" 
d="M251 586h163q74 0 108 -11q40 -13 60.5 -45t20.5 -68q0 -31 -15.5 -54.5t-29.5 -32t-35 -18.5q23 -15 33.5 -30.5t17.5 -55.5q16 -102 39 -143h-126q-14 29 -25 99q-9 65 -20.5 78.5t-61.5 14.5h-19v-192h-110v458zM361 502v-95h48q49 0 64 9q20 11 20 40q0 30 -24 41
q-13 5 -75 5h-33zM773 352q-1 -149 -104 -252t-253 -103q-143 0 -249 101t-106 255q0 152 105 254t251 102q153 0 255 -104.5t101 -252.5zM741 352q1 134 -92 229.5t-230 95.5t-231.5 -95t-94.5 -229q0 -136 95 -230t229 -94q136 0 229.5 94t94.5 229z" />
    <glyph glyph-name="macron" unicode="&#xaf;" horiz-adv-x="271" 
d="M-68 698h408v-101h-408v101z" />
    <glyph glyph-name="macron" unicode="&#x2c9;" horiz-adv-x="271" 
d="M-68 698h408v-101h-408v101z" />
    <glyph glyph-name="degree" unicode="&#xb0;" horiz-adv-x="354" 
d="M5 574q0 71 50.5 121.5t121.5 50.5t121.5 -50.5t50.5 -121.5t-50.5 -121.5t-121.5 -50.5t-121.5 50.5t-50.5 121.5zM121 574q0 -23 16.5 -39.5t39.5 -16.5t39.5 16.5t16.5 39.5t-16.5 39.5t-39.5 16.5t-39.5 -16.5t-16.5 -39.5z" />
    <glyph glyph-name="plusminus" unicode="&#xb1;" horiz-adv-x="667" 
d="M398 371v-209h-127v209h-229v127h229v208h127v-208h227v-127h-227zM625 127v-127h-583v127h583z" />
    <glyph glyph-name="twosuperior" unicode="&#xb2;" horiz-adv-x="375" 
d="M133 512l-110 6q0 63 17 97q36 73 133 73q43 0 74 -13q45 -17 65.5 -54.5t20.5 -77.5q0 -52 -29 -95.5t-87 -88.5q-30 -24 -46 -35h164v-88h-307v82q113 88 153 133t40 97q0 24 -12 40t-33 16q-23 0 -35 -18.5t-12 -41.5q0 -10 4 -32z" />
    <glyph glyph-name="threesuperior" unicode="&#xb3;" horiz-adv-x="375" 
d="M138 540l-107 10q4 22 7 34.5t14 35t26.5 35.5t44 23t67.5 10q67 0 105.5 -33t38.5 -84q0 -74 -68 -98q82 -27 82 -104q0 -58 -41.5 -99.5t-124.5 -41.5q-39 0 -68.5 8.5t-46 24t-27 30.5t-14 37t-4 33t-0.5 28l106 9q0 -4 -0.5 -10t-0.5 -10q0 -30 15.5 -48t38.5 -18
q24 0 40 17t16 42t-13 39q-18 23 -68 21v79q4 0 11 -0.5t10 -0.5q23 0 36.5 13t13.5 35t-13.5 35t-32.5 13q-43 0 -43 -65z" />
    <glyph glyph-name="acute" unicode="&#xb4;" horiz-adv-x="271" 
d="M8 586l73 133h182l-153 -133h-102z" />
    <glyph glyph-name="mu" unicode="&#xb5;" 
d="M380 0v50q-7 -13 -12.5 -20.5t-17 -19.5t-28 -18t-37.5 -6q-33 0 -66 25v-223h-155v734h155v-318q0 -43 15 -64q21 -30 65 -30q26 0 44 11t25 27.5t9.5 28t2.5 20.5v324h154v-521h-154z" />
    <glyph glyph-name="mu" unicode="&#x3bc;" 
d="M380 0v50q-7 -13 -12.5 -20.5t-17 -19.5t-28 -18t-37.5 -6q-33 0 -66 25v-223h-155v734h155v-318q0 -43 15 -64q21 -30 65 -30q26 0 44 11t25 27.5t9.5 28t2.5 20.5v324h154v-521h-154z" />
    <glyph glyph-name="paragraph" unicode="&#xb6;" horiz-adv-x="667" 
d="M355 706h250v-78h-36v-795h-84v795h-118v-795h-84v459q-56 17 -83 38q-71 56 -71 161q0 101 66 161q26 24 59 36.5t52 14.5t49 3z" />
    <glyph glyph-name="periodcentered" unicode="&#xb7;" horiz-adv-x="250" 
d="M45 209v167h158v-167h-158z" />
    <glyph glyph-name="periodcentered" unicode="&#x2219;" horiz-adv-x="250" 
d="M45 209v167h158v-167h-158z" />
    <glyph glyph-name="cedilla" unicode="&#xb8;" horiz-adv-x="271" 
d="M60 -68l32 59h47l-21 -44q36 3 39 3q31 0 49.5 -13.5t22.5 -26.5t4 -25q0 -34 -28.5 -58t-67.5 -24q-56 0 -99 52l28 23q25 -32 54 -32q14 0 24.5 9t10.5 22q0 17 -15.5 28.5t-40.5 11.5l-27 -3z" />
    <glyph glyph-name="onesuperior" unicode="&#xb9;" horiz-adv-x="375" 
d="M48 540v73q61 1 87 15.5t45 48.5h85v-441h-110v317q-39 -13 -107 -13z" />
    <glyph glyph-name="ordmasculine" unicode="&#xba;" horiz-adv-x="354" 
d="M171 716q44 1 76 -14.5t47 -40t21.5 -47t6.5 -43.5q0 -56 -27 -94q-39 -54 -120 -54q-59 0 -102 35.5t-43 112.5q0 61 36 102.5t105 42.5zM173 648q-32 -2 -47 -26q-12 -20 -12 -53q0 -32 15.5 -55t47.5 -23q18 0 29 6q31 18 31 72q0 34 -15.5 57t-48.5 22z" />
    <glyph glyph-name="guillemotright" unicode="&#xbb;" horiz-adv-x="417" 
d="M36 349v136l158 -129v-125l-158 -135v138l68 58zM223 349v136l159 -131v-123l-159 -135v138l64 58z" />
    <glyph glyph-name="onequarter" unicode="&#xbc;" horiz-adv-x="875" 
d="M210 0l375 721l80 -42l-376 -720zM48 540v73q61 1 87 15.5t45 48.5h85v-442h-110v318q-39 -13 -107 -13zM511 182l185 260h104v-266h58v-78h-59v-98h-106v98h-182v84zM694 176v150l-39 -63q-19 -29 -61 -87h100z" />
    <glyph glyph-name="onehalf" unicode="&#xbd;" horiz-adv-x="875" 
d="M186 0l375 721l80 -42l-376 -720zM48 540v73q61 1 87 15.5t45 48.5h85v-442h-110v318q-39 -13 -107 -13zM633 276l-110 6q0 63 17 97q36 73 133 73q43 0 74 -13q45 -17 65.5 -54.5t20.5 -77.5q0 -52 -29 -95.5t-87 -88.5q-30 -24 -46 -35h164v-88h-307v82q113 88 153 133
t40 97q0 24 -12 40t-33 16q-23 0 -35 -18.5t-12 -41.5q0 -10 4 -32z" />
    <glyph glyph-name="threequarters" unicode="&#xbe;" horiz-adv-x="875" 
d="M240 0l375 720l80 -42l-376 -719zM512 182l184 259h104v-265h58v-78h-59v-98h-106v98h-181v84zM694 176v149l-12 -20l-14.5 -23.5l-12.5 -19.5l-61 -86h100zM139 540l-108 10q4 22 7 34.5t14 35t26.5 35.5t44 23t67.5 10q67 0 105.5 -33t38.5 -84q0 -73 -67 -98
q82 -27 82 -104q0 -58 -41.5 -99.5t-124.5 -41.5q-39 0 -68.5 8.5t-46.5 24t-27.5 30.5t-14 37t-4 33t-0.5 28l106 9q0 -4 -0.5 -10t-0.5 -10q0 -30 16 -48t39 -18q24 0 40 17t16 42t-13 39q-19 23 -68 21v79q3 0 9.5 -0.5t10.5 -0.5q23 0 36.5 13t13.5 35t-13.5 35
t-32.5 13q-46 0 -42 -65z" />
    <glyph glyph-name="questiondown" unicode="&#xbf;" 
d="M400 221l143 -46q-12 -32 -19 -49t-27 -43t-47 -45q-68 -49 -181 -49q-117 0 -183 50q-67 51 -67 137q0 31 8 57t24.5 45.5t25.5 28.5t26 22l54.5 39t59.5 43q20 16 26 25.5t10 29.5h127q-1 -28 -3 -41.5t-11 -32.5t-28 -38q-11 -12 -25.5 -22.5l-32.5 -22.5t-27 -19
q-66 -47 -66 -97q0 -39 23 -64q23 -26 70 -26q64 0 98 47q20 28 22 71zM394 706v-167h-158v167h158z" />
    <glyph glyph-name="Agrave" unicode="&#xc0;" horiz-adv-x="708" 
d="M261 706h184l260 -706h-188l-35 113h-260l-35 -113h-188zM442 240l-92 298l-29 -109q-9 -31 -31.5 -102.5t-26.5 -86.5h179zM194 898h184l63 -115h-101z" />
    <glyph glyph-name="Aacute" unicode="&#xc1;" horiz-adv-x="708" 
d="M261 706h184l260 -706h-188l-35 113h-260l-35 -113h-188zM442 240l-92 298l-29 -109q-9 -31 -31.5 -102.5t-26.5 -86.5h179zM269 782l61 115h180l-145 -115h-96z" />
    <glyph glyph-name="Acircumflex" unicode="&#xc2;" horiz-adv-x="708" 
d="M261 706h184l260 -706h-188l-35 113h-260l-35 -113h-188zM442 240l-92 298l-29 -109q-9 -31 -31.5 -102.5t-26.5 -86.5h179zM199 779l90 115h132l88 -115h-116l-40 51l-38 -51h-116z" />
    <glyph glyph-name="Atilde" unicode="&#xc3;" horiz-adv-x="708" 
d="M261 706h184l260 -706h-188l-35 113h-260l-35 -113h-188zM442 240l-92 298l-29 -109q-9 -31 -31.5 -102.5t-26.5 -86.5h179zM251 774h-68q10 72 39 100q27 27 65 27q33 0 76 -20q51 -23 65 -23q26 0 41 39h68q-6 -62 -25 -89q-30 -39 -71 -39q-32 0 -89 26q-45 21 -64 21
q-29 0 -37 -42z" />
    <glyph glyph-name="Adieresis" unicode="&#xc4;" horiz-adv-x="708" 
d="M261 706h184l260 -706h-188l-35 113h-260l-35 -113h-188zM442 240l-92 298l-29 -109q-9 -31 -31.5 -102.5t-26.5 -86.5h179zM381 896h161v-116h-161v116zM159 779v117h160v-117h-160z" />
    <glyph glyph-name="Aring" unicode="&#xc5;" horiz-adv-x="708" 
d="M261 706h184l260 -706h-188l-35 113h-260l-35 -113h-188zM442 240l-92 298l-29 -109q-9 -31 -31.5 -102.5t-26.5 -86.5h179zM321 801q13 -11 28 -11q16 0 27.5 11.5t11.5 27.5q0 17 -11 28t-28 11t-28 -11t-11 -28q0 -15 11 -28zM280 760q-29 29 -29 69t29 69t69 29
q41 0 69.5 -28.5t28.5 -69.5q0 -40 -29 -69t-69 -29t-69 29z" />
    <glyph glyph-name="AE" unicode="&#xc6;" horiz-adv-x="1125" 
d="M412 706h660v-135h-361v-130h337v-135h-336v-168h394v-138h-571v171h-247l-95 -171h-198zM535 301v315l-176 -315h176z" />
    <glyph glyph-name="Ccedilla" unicode="&#xc7;" horiz-adv-x="688" 
d="M542 232l139 -71l-28 -42.5t-31.5 -37t-47.5 -40.5q-92 -64 -204 -62l-15 -32q4 0 12 1t14.5 1.5t12.5 0.5q43 0 59.5 -21t16.5 -44q0 -34 -28.5 -58t-67.5 -24q-56 0 -99 52l28 23q25 -32 53 -32q16 0 26 8.5t10 22.5q0 17 -15.5 28.5t-40.5 11.5l-27 -3l-13 18l29 51
q-65 11 -116 39.5t-82.5 66t-51.5 85t-28 91.5t-8 89q0 159 96.5 266.5t245.5 107.5q116 0 206 -70q50 -40 92 -113l-140 -70q-23 48 -53 73q-44 35 -97 35q-81 0 -127.5 -65t-46.5 -159q0 -111 49 -171.5t125 -60.5q42 0 75.5 19.5t47 38t30.5 47.5z" />
    <glyph glyph-name="Egrave" unicode="&#xc8;" horiz-adv-x="646" 
d="M68 0v706h522v-137h-346v-128h323v-134h-323v-168h377v-139h-553zM163 898h184l63 -115h-101z" />
    <glyph glyph-name="Eacute" unicode="&#xc9;" horiz-adv-x="646" 
d="M68 0v706h522v-137h-346v-128h323v-134h-323v-168h377v-139h-553zM238 782l61 115h180l-145 -115h-96z" />
    <glyph glyph-name="Ecircumflex" unicode="&#xca;" horiz-adv-x="646" 
d="M68 0v706h522v-137h-346v-128h323v-134h-323v-168h377v-139h-553zM168 779l90 115h132l88 -115h-116l-40 51l-38 -51h-116z" />
    <glyph glyph-name="Edieresis" unicode="&#xcb;" horiz-adv-x="646" 
d="M68 0v706h522v-137h-346v-128h323v-134h-323v-168h377v-139h-553zM353 898h161v-116h-161v116zM131 781v117h160v-117h-160z" />
    <glyph glyph-name="Igrave" unicode="&#xcc;" horiz-adv-x="313" 
d="M67 706h176v-706h-176v706zM-4 898h184l63 -115h-101z" />
    <glyph glyph-name="Iacute" unicode="&#xcd;" horiz-adv-x="313" 
d="M67 706h176v-706h-176v706zM71 782l61 115h180l-145 -115h-96z" />
    <glyph glyph-name="Icircumflex" unicode="&#xce;" horiz-adv-x="313" 
d="M67 706h176v-706h-176v706zM1 779l90 115h132l88 -115h-116l-40 51l-38 -51h-116z" />
    <glyph glyph-name="Idieresis" unicode="&#xcf;" horiz-adv-x="313" 
d="M67 706h176v-706h-176v706zM186 898h161v-116h-161v116zM-36 781v117h160v-117h-160z" />
    <glyph glyph-name="Eth" unicode="&#xd0;" horiz-adv-x="729" 
d="M67 0v341h-67v79h67v286h225q45 -1 74 -2.5t75 -9t85.5 -25.5t71.5 -46q101 -91 101 -264q0 -76 -18 -136q-13 -45 -35.5 -81t-46 -58.5t-55 -39t-56 -25t-56.5 -13t-48 -5.5t-39 -1h-278zM245 557v-137h174v-79h-174v-199h54q27 1 42.5 2t42.5 5.5t43.5 12t36.5 23.5
t31.5 37.5t19.5 55t8 75.5q0 90 -37 141q-22 30 -55.5 44.5t-54.5 16.5t-60 2h-71z" />
    <glyph glyph-name="Ntilde" unicode="&#xd1;" horiz-adv-x="729" 
d="M67 0v706h173l153 -260l106 -193l-8 453h169v-706h-173l-132 223q-69 113 -124 221l5 -444h-169zM262 774h-68q10 72 39 100q27 27 65 27q33 0 76 -20q51 -23 65 -23q26 0 41 39h68q-6 -62 -25 -89q-30 -39 -71 -39q-32 0 -89 26q-45 21 -64 21q-29 0 -37 -42z" />
    <glyph glyph-name="Ograve" unicode="&#xd2;" horiz-adv-x="792" 
d="M615 54q-90 -74 -222 -74q-162 0 -256.5 108t-94.5 268q0 98 38.5 181t119.5 137t190 54q69 0 129 -21q61 -21 106.5 -62t68 -82t36 -89.5t16.5 -75.5t3 -49q0 -89 -37 -167.5t-97 -127.5zM572 337q5 125 -57 192q-49 52 -124 52q-79 0 -127 -62.5t-48 -159.5
q0 -116 53 -173t124 -57q70 0 123 52.5t56 155.5zM236 898h184l63 -115h-101z" />
    <glyph glyph-name="Oacute" unicode="&#xd3;" horiz-adv-x="792" 
d="M615 54q-90 -74 -222 -74q-162 0 -256.5 108t-94.5 268q0 98 38.5 181t119.5 137t190 54q69 0 129 -21q61 -21 106.5 -62t68 -82t36 -89.5t16.5 -75.5t3 -49q0 -89 -37 -167.5t-97 -127.5zM572 337q5 125 -57 192q-49 52 -124 52q-79 0 -127 -62.5t-48 -159.5
q0 -116 53 -173t124 -57q70 0 123 52.5t56 155.5zM311 782l61 115h180l-145 -115h-96z" />
    <glyph glyph-name="Ocircumflex" unicode="&#xd4;" horiz-adv-x="792" 
d="M615 54q-90 -74 -222 -74q-162 0 -256.5 108t-94.5 268q0 98 38.5 181t119.5 137t190 54q69 0 129 -21q61 -21 106.5 -62t68 -82t36 -89.5t16.5 -75.5t3 -49q0 -89 -37 -167.5t-97 -127.5zM572 337q5 125 -57 192q-49 52 -124 52q-79 0 -127 -62.5t-48 -159.5
q0 -116 53 -173t124 -57q70 0 123 52.5t56 155.5zM241 779l90 115h132l88 -115h-116l-40 51l-38 -51h-116z" />
    <glyph glyph-name="Otilde" unicode="&#xd5;" horiz-adv-x="792" 
d="M615 54q-90 -74 -222 -74q-162 0 -256.5 108t-94.5 268q0 98 38.5 181t119.5 137t190 54q69 0 129 -21q61 -21 106.5 -62t68 -82t36 -89.5t16.5 -75.5t3 -49q0 -89 -37 -167.5t-97 -127.5zM572 337q5 125 -57 192q-49 52 -124 52q-79 0 -127 -62.5t-48 -159.5
q0 -116 53 -173t124 -57q70 0 123 52.5t56 155.5zM293 774h-68q10 72 39 100q27 27 65 27q33 0 76 -20q51 -23 65 -23q26 0 41 39h68q-6 -62 -25 -89q-30 -39 -71 -39q-32 0 -89 26q-45 21 -64 21q-29 0 -37 -42z" />
    <glyph glyph-name="Odieresis" unicode="&#xd6;" horiz-adv-x="792" 
d="M615 54q-90 -74 -222 -74q-162 0 -256.5 108t-94.5 268q0 98 38.5 181t119.5 137t190 54q69 0 129 -21q61 -21 106.5 -62t68 -82t36 -89.5t16.5 -75.5t3 -49q0 -89 -37 -167.5t-97 -127.5zM572 337q5 125 -57 192q-49 52 -124 52q-79 0 -127 -62.5t-48 -159.5
q0 -116 53 -173t124 -57q70 0 123 52.5t56 155.5zM427 896h161v-116h-161v116zM205 779v117h160v-117h-160z" />
    <glyph glyph-name="multiply" unicode="&#xd7;" horiz-adv-x="667" 
d="M605 110l-89 -91l-183 182l-182 -182l-90 91l182 181l-182 183l90 88l182 -180l183 180l89 -88l-181 -183z" />
    <glyph glyph-name="Oslash" unicode="&#xd8;" horiz-adv-x="771" 
d="M-3 54l97 88q-56 96 -56 213q0 135 72 235q101 137 282 137q74 0 129.5 -24.5t107.5 -74.5l88 80l54 -59l-94 -85q16 -28 25.5 -49t19 -64.5t9.5 -94.5q0 -182 -115 -289q-95 -87 -233 -87q-80 0 -133.5 26t-105.5 72l-93 -84zM220 257l293 267q-57 63 -125 63
q-70 0 -117 -49q-63 -63 -63 -181q0 -42 12 -100zM550 448l-290 -265q8 -10 14 -16q23 -21 56.5 -32t62.5 -11q70 0 121 61t51 162q0 37 -15 101z" />
    <glyph glyph-name="Ugrave" unicode="&#xd9;" horiz-adv-x="729" 
d="M488 706h177v-394q-1 -45 -2.5 -70t-11 -62.5t-27.5 -67.5q-26 -42 -67 -70.5t-83.5 -39.5t-67.5 -14.5t-45 -3.5q-91 0 -164 38q-33 17 -57.5 38.5t-38.5 47.5t-23 48.5t-12 54t-3.5 50.5t-0.5 51v394h178v-440q0 -64 13 -88q29 -48 114 -48q34 0 58.5 10t36 21.5t18 34
t7.5 35t1 36.5v439zM205 898h184l63 -115h-101z" />
    <glyph glyph-name="Uacute" unicode="&#xda;" horiz-adv-x="729" 
d="M488 706h177v-394q-1 -45 -2.5 -70t-11 -62.5t-27.5 -67.5q-26 -42 -67 -70.5t-83.5 -39.5t-67.5 -14.5t-45 -3.5q-91 0 -164 38q-33 17 -57.5 38.5t-38.5 47.5t-23 48.5t-12 54t-3.5 50.5t-0.5 51v394h178v-440q0 -64 13 -88q29 -48 114 -48q34 0 58.5 10t36 21.5t18 34
t7.5 35t1 36.5v439zM280 782l61 115h180l-145 -115h-96z" />
    <glyph glyph-name="Ucircumflex" unicode="&#xdb;" horiz-adv-x="729" 
d="M488 706h177v-394q-1 -45 -2.5 -70t-11 -62.5t-27.5 -67.5q-26 -42 -67 -70.5t-83.5 -39.5t-67.5 -14.5t-45 -3.5q-91 0 -164 38q-33 17 -57.5 38.5t-38.5 47.5t-23 48.5t-12 54t-3.5 50.5t-0.5 51v394h178v-440q0 -64 13 -88q29 -48 114 -48q34 0 58.5 10t36 21.5t18 34
t7.5 35t1 36.5v439zM210 779l90 115h132l88 -115h-116l-40 51l-38 -51h-116z" />
    <glyph glyph-name="Udieresis" unicode="&#xdc;" horiz-adv-x="729" 
d="M488 706h177v-394q-1 -45 -2.5 -70t-11 -62.5t-27.5 -67.5q-26 -42 -67 -70.5t-83.5 -39.5t-67.5 -14.5t-45 -3.5q-91 0 -164 38q-33 17 -57.5 38.5t-38.5 47.5t-23 48.5t-12 54t-3.5 50.5t-0.5 51v394h178v-440q0 -64 13 -88q29 -48 114 -48q34 0 58.5 10t36 21.5t18 34
t7.5 35t1 36.5v439zM394 896h161v-116h-161v116zM172 779v117h160v-117h-160z" />
    <glyph glyph-name="Yacute" unicode="&#xdd;" horiz-adv-x="708" 
d="M267 329l-265 377h203l152 -242q10 23 29 53l121 189h201l-267 -372v-334h-174v329zM269 782l61 115h180l-145 -115h-96z" />
    <glyph glyph-name="Thorn" unicode="&#xde;" horiz-adv-x="688" 
d="M67 0v706h177v-103h107q46 0 69 -0.5t60.5 -5t60.5 -13.5t48 -26.5t43 -43.5q40 -59 40 -145q0 -61 -24 -110q-17 -36 -45 -61.5t-53.5 -38.5t-64.5 -20t-61.5 -8.5t-62.5 -2.5h-117v-128h-177zM356 473h-112v-214h106q25 0 41 1t38.5 7t35 17t22 33t9.5 53
q0 29 -10.5 50t-23.5 31t-35.5 15.5t-35.5 6t-35 0.5z" />
    <glyph glyph-name="germandbls" unicode="&#xdf;" 
d="M67 0v469q4 79 16 116q45 136 218 136q67 0 114.5 -18.5t70 -49t32 -59t9.5 -57.5q0 -76 -53 -108q-10 -6 -38 -14q20 -3 22 -3q114 -20 114 -184q0 -38 -8 -75.5t-27.5 -76.5t-59.5 -63t-95 -24q-52 0 -98 17v113q30 -15 51 -15q45 0 66 33t21 85q0 56 -17 89
q-13 25 -32.5 37.5t-33.5 14t-39 1.5h-27v92h25q22 1 34 3.5t26 10t20.5 24t6.5 41.5q0 54 -38 74q-16 9 -42 9q-57 0 -77 -49q-9 -24 -9 -97v-472h-152z" />
    <glyph glyph-name="agrave" unicode="&#xe0;" horiz-adv-x="583" 
d="M220 374h-154q6 78 55 116q58 46 171 46q31 0 62 -5t70 -19t63 -46.5t24 -79.5v-304q0 -40 2.5 -54t12.5 -28h-151v48q-27 -20 -43 -30t-48.5 -21t-68.5 -11q-83 0 -127 48.5t-44 110.5q0 56 34 94t76 56q41 18 206 48v28q-1 14 -2.5 21t-7 19t-18 18t-31.5 6
q-24 0 -40.5 -6t-24.5 -18t-11 -19t-5 -18zM360 250l-99 -33q-19 -7 -30 -12.5t-23.5 -20t-12.5 -32.5q0 -20 16 -36.5t42 -16.5t53 17q34 22 43.5 52t10.5 82zM130 720h185l74 -133h-101z" />
    <glyph glyph-name="aacute" unicode="&#xe1;" horiz-adv-x="583" 
d="M220 374h-154q6 78 55 116q58 46 171 46q31 0 62 -5t70 -19t63 -46.5t24 -79.5v-304q0 -40 2.5 -54t12.5 -28h-151v48q-27 -20 -43 -30t-48.5 -21t-68.5 -11q-83 0 -127 48.5t-44 110.5q0 56 34 94t76 56q41 18 206 48v28q-1 14 -2.5 21t-7 19t-18 18t-31.5 6
q-24 0 -40.5 -6t-24.5 -18t-11 -19t-5 -18zM360 250l-99 -33q-19 -7 -30 -12.5t-23.5 -20t-12.5 -32.5q0 -20 16 -36.5t42 -16.5t53 17q34 22 43.5 52t10.5 82zM228 586l73 133h182l-153 -133h-102z" />
    <glyph glyph-name="acircumflex" unicode="&#xe2;" horiz-adv-x="583" 
d="M220 374h-154q6 78 55 116q58 46 171 46q31 0 62 -5t70 -19t63 -46.5t24 -79.5v-304q0 -40 2.5 -54t12.5 -28h-151v48q-27 -20 -43 -30t-48.5 -21t-68.5 -11q-83 0 -127 48.5t-44 110.5q0 56 34 94t76 56q41 18 206 48v28q-1 14 -2.5 21t-7 19t-18 18t-31.5 6
q-24 0 -40.5 -6t-24.5 -18t-11 -19t-5 -18zM360 250l-99 -33q-19 -7 -30 -12.5t-23.5 -20t-12.5 -32.5q0 -20 16 -36.5t42 -16.5t53 17q34 22 43.5 52t10.5 82zM129 588l101 132h127l103 -131h-118l-49 62l-46 -63h-118z" />
    <glyph glyph-name="atilde" unicode="&#xe3;" horiz-adv-x="583" 
d="M220 374h-154q6 78 55 116q58 46 171 46q31 0 62 -5t70 -19t63 -46.5t24 -79.5v-304q0 -40 2.5 -54t12.5 -28h-151v48q-27 -20 -43 -30t-48.5 -21t-68.5 -11q-83 0 -127 48.5t-44 110.5q0 56 34 94t76 56q41 18 206 48v28q-1 14 -2.5 21t-7 19t-18 18t-31.5 6
q-24 0 -40.5 -6t-24.5 -18t-11 -19t-5 -18zM360 250l-99 -33q-19 -7 -30 -12.5t-23.5 -20t-12.5 -32.5q0 -20 16 -36.5t42 -16.5t53 17q34 22 43.5 52t10.5 82zM347 680l10 -1q33 0 40 41h69q-4 -30 -7.5 -47.5t-13 -42t-27.5 -36.5t-45 -12q-31 0 -86 25q-44 21 -64 21
q-33 0 -39 -46h-72q6 69 29.5 105.5t70.5 36.5q26 0 62 -15q7 -3 22 -10.5t27 -12t24 -6.5z" />
    <glyph glyph-name="adieresis" unicode="&#xe4;" horiz-adv-x="583" 
d="M220 374h-154q6 78 55 116q58 46 171 46q31 0 62 -5t70 -19t63 -46.5t24 -79.5v-304q0 -40 2.5 -54t12.5 -28h-151v48q-27 -20 -43 -30t-48.5 -21t-68.5 -11q-83 0 -127 48.5t-44 110.5q0 56 34 94t76 56q41 18 206 48v28q-1 14 -2.5 21t-7 19t-18 18t-31.5 6
q-24 0 -40.5 -6t-24.5 -18t-11 -19t-5 -18zM360 250l-99 -33q-19 -7 -30 -12.5t-23.5 -20t-12.5 -32.5q0 -20 16 -36.5t42 -16.5t53 17q34 22 43.5 52t10.5 82zM353 720h157v-124h-157v124zM102 720h157v-124h-157v124z" />
    <glyph glyph-name="aring" unicode="&#xe5;" horiz-adv-x="583" 
d="M220 374h-154q6 78 55 116q58 46 171 46q31 0 62 -5t70 -19t63 -46.5t24 -79.5v-304q0 -40 2.5 -54t12.5 -28h-151v48q-27 -20 -43 -30t-48.5 -21t-68.5 -11q-83 0 -127 48.5t-44 110.5q0 56 34 94t76 56q41 18 206 48v28q-1 14 -2.5 21t-7 19t-18 18t-31.5 6
q-24 0 -40.5 -6t-24.5 -18t-11 -19t-5 -18zM360 250l-99 -33q-19 -7 -30 -12.5t-23.5 -20t-12.5 -32.5q0 -20 16 -36.5t42 -16.5t53 17q34 22 43.5 52t10.5 82zM208 652q0 40 29 69t69 29t69 -29t29 -69t-29 -69t-69 -29t-69 29t-29 69zM266 652q0 -16 12 -28t28 -12t28 12
t12 28t-12 28t-28 12t-28 -12t-12 -28z" />
    <glyph glyph-name="ae" unicode="&#xe6;" horiz-adv-x="875" 
d="M203 375h-157q3 24 6 37.5t10.5 33t22.5 35.5t37 29q50 29 126 29q46 0 83 -9t55.5 -18.5t49.5 -28.5q22 17 38 26.5t50 19.5t74 10q102 0 170 -64q28 -27 46 -59.5t25.5 -68t10 -57t3.5 -53.5h-348q4 -57 33 -89q37 -39 83 -39q23 0 42.5 8t33.5 23.5t21.5 26.5t16.5 28
l119 -60q-29 -49 -53 -71q-80 -76 -189 -76q-112 0 -188 79q-26 -22 -43 -34q-70 -46 -162 -46q-86 0 -140 47.5t-54 120.5q0 26 8 51q19 58 64 84.5t116 38.5q9 2 61 9t60 8l17 4q0 19 -1.5 28.5t-7.5 24.5t-23 22t-44 7q-24 0 -39.5 -5.5t-21.5 -16t-8 -17t-3 -18.5z
M505 332h189q-4 19 -7.5 30.5t-13.5 29.5t-28 27.5t-44 9.5q-36 0 -63 -24t-33 -73zM350 259q-26 -10 -75 -21q-98 -22 -98 -77q0 -58 67 -58q57 0 87 52q19 32 19 104z" />
    <glyph glyph-name="ccedilla" unicode="&#xe7;" horiz-adv-x="500" 
d="M408 184l115 -61q-13 -20 -22 -32.5t-32.5 -36t-47 -37.5t-61.5 -24.5t-81 -8.5l-18 -37q4 0 12 1t14.5 1.5t12.5 0.5q43 0 59.5 -21t16.5 -44q0 -34 -28.5 -58t-67.5 -24q-54 0 -99 52l28 23q27 -32 53 -32q16 0 26 8.5t10 22.5q0 17 -15.5 28.5t-39.5 11.5q-1 0 -28 -3
l-12 18l32 58q-106 24 -154 97t-48 170q0 120 68.5 200t193.5 80q146 0 222 -125l-114 -65q-19 38 -44 55q-26 18 -57 18q-56 0 -83.5 -50t-27.5 -108q0 -60 29.5 -108t86.5 -48q45 0 77 36q14 15 24 42z" />
    <glyph glyph-name="egrave" unicode="&#xe8;" horiz-adv-x="583" 
d="M440 192l116 -59q-34 -51 -63 -78q-79 -74 -197 -74t-191 72t-73 198q0 40 8 78.5t27.5 77t49 67.5t77 47t106.5 18q118 0 188 -75q69 -74 74 -234h-373q-1 -53 30 -91.5t89 -38.5q39 0 68 17t39.5 33t24.5 42zM190 326h213q-7 51 -29 74q-29 29 -75 29t-78 -34
q-20 -22 -31 -69zM99 720h185l74 -133h-101z" />
    <glyph glyph-name="eacute" unicode="&#xe9;" horiz-adv-x="583" 
d="M440 192l116 -59q-34 -51 -63 -78q-79 -74 -197 -74t-191 72t-73 198q0 40 8 78.5t27.5 77t49 67.5t77 47t106.5 18q118 0 188 -75q69 -74 74 -234h-373q-1 -53 30 -91.5t89 -38.5q39 0 68 17t39.5 33t24.5 42zM190 326h213q-7 51 -29 74q-29 29 -75 29t-78 -34
q-20 -22 -31 -69zM228 586l73 133h182l-153 -133h-102z" />
    <glyph glyph-name="ecircumflex" unicode="&#xea;" horiz-adv-x="583" 
d="M440 192l116 -59q-34 -51 -63 -78q-79 -74 -197 -74t-191 72t-73 198q0 40 8 78.5t27.5 77t49 67.5t77 47t106.5 18q118 0 188 -75q69 -74 74 -234h-373q-1 -53 30 -91.5t89 -38.5q39 0 68 17t39.5 33t24.5 42zM190 326h213q-7 51 -29 74q-29 29 -75 29t-78 -34
q-20 -22 -31 -69zM129 588l101 132h127l103 -131h-118l-49 62l-46 -63h-118z" />
    <glyph glyph-name="edieresis" unicode="&#xeb;" horiz-adv-x="583" 
d="M440 192l116 -59q-34 -51 -63 -78q-79 -74 -197 -74t-191 72t-73 198q0 40 8 78.5t27.5 77t49 67.5t77 47t106.5 18q118 0 188 -75q69 -74 74 -234h-373q-1 -53 30 -91.5t89 -38.5q39 0 68 17t39.5 33t24.5 42zM190 326h213q-7 51 -29 74q-29 29 -75 29t-78 -34
q-20 -22 -31 -69zM339 721h157v-124h-157v124zM88 721h157v-124h-157v124z" />
    <glyph glyph-name="igrave" unicode="&#xec;" horiz-adv-x="292" 
d="M69 0v522h152v-522h-152zM-46 720h185l74 -133h-101z" />
    <glyph glyph-name="iacute" unicode="&#xed;" horiz-adv-x="292" 
d="M69 0v522h152v-522h-152zM83 586l73 133h182l-153 -133h-102z" />
    <glyph glyph-name="icircumflex" unicode="&#xee;" horiz-adv-x="292" 
d="M69 0v522h152v-522h-152zM-16 588l101 132h127l103 -131h-118l-49 62l-46 -63h-118z" />
    <glyph glyph-name="idieresis" unicode="&#xef;" horiz-adv-x="292" 
d="M69 0v522h152v-522h-152zM194 721h157v-124h-157v124zM-57 721h157v-124h-157v124z" />
    <glyph glyph-name="eth" unicode="&#xf0;" horiz-adv-x="625" 
d="M535 651l-76 -21q134 -174 134 -363q0 -54 -15 -102.5t-47 -90t-88 -66t-131 -24.5q-135 0 -208 79.5t-73 196.5q0 132 76.5 205t175.5 73q63 0 114 -48q-30 59 -66 105l-157 -43l-18 51l136 37l-41 40l120 47l50 -52l92 25zM303 416q-62 -5 -91 -51q-26 -41 -26 -102
q0 -67 33 -112t92 -45q61 0 93.5 42.5t32.5 108.5q0 89 -44 130q-35 34 -90 29z" />
    <glyph glyph-name="ntilde" unicode="&#xf1;" 
d="M225 521v-46q27 29 52 41q46 19 95 19q55 0 93 -21q40 -21 54.5 -57t14.5 -100v-357h-153v294q0 62 -7 78q-17 40 -69 40q-23 0 -39.5 -8t-24.5 -18t-12 -30.5t-4.5 -34t-0.5 -39.5v-282h-154v521h155zM358 680l10 -1q33 0 40 41h69q-4 -30 -7.5 -47.5t-13 -42
t-27.5 -36.5t-45 -12q-31 0 -86 25q-44 21 -64 21q-33 0 -39 -46h-72q6 69 29.5 105.5t70.5 36.5q26 0 62 -15q7 -3 22 -10.5t27 -12t24 -6.5z" />
    <glyph glyph-name="ograve" unicode="&#xf2;" horiz-adv-x="625" 
d="M333 538q75 -4 129.5 -34t81 -74t38 -85.5t11.5 -82.5q0 -52 -15.5 -99.5t-47.5 -88t-88 -65t-129 -24.5q-57 0 -106.5 16.5t-89 49t-62.5 87t-23 124.5q0 126 78.5 205t222.5 71zM304 416q-61 -4 -91 -51q-26 -41 -26 -102q0 -67 32.5 -111.5t93.5 -44.5q60 0 92 42
t32 107q0 89 -43 131q-36 34 -90 29zM119 720h185l74 -133h-101z" />
    <glyph glyph-name="oacute" unicode="&#xf3;" horiz-adv-x="625" 
d="M333 538q75 -4 129.5 -34t81 -74t38 -85.5t11.5 -82.5q0 -52 -15.5 -99.5t-47.5 -88t-88 -65t-129 -24.5q-57 0 -106.5 16.5t-89 49t-62.5 87t-23 124.5q0 126 78.5 205t222.5 71zM304 416q-61 -4 -91 -51q-26 -41 -26 -102q0 -67 32.5 -111.5t93.5 -44.5q60 0 92 42
t32 107q0 89 -43 131q-36 34 -90 29zM248 586l73 133h182l-153 -133h-102z" />
    <glyph glyph-name="ocircumflex" unicode="&#xf4;" horiz-adv-x="625" 
d="M333 538q75 -4 129.5 -34t81 -74t38 -85.5t11.5 -82.5q0 -52 -15.5 -99.5t-47.5 -88t-88 -65t-129 -24.5q-57 0 -106.5 16.5t-89 49t-62.5 87t-23 124.5q0 126 78.5 205t222.5 71zM304 416q-61 -4 -91 -51q-26 -41 -26 -102q0 -67 32.5 -111.5t93.5 -44.5q60 0 92 42
t32 107q0 89 -43 131q-36 34 -90 29zM149 588l101 132h127l103 -131h-118l-49 62l-46 -63h-118z" />
    <glyph glyph-name="otilde" unicode="&#xf5;" horiz-adv-x="625" 
d="M333 538q75 -4 129.5 -34t81 -74t38 -85.5t11.5 -82.5q0 -52 -15.5 -99.5t-47.5 -88t-88 -65t-129 -24.5q-57 0 -106.5 16.5t-89 49t-62.5 87t-23 124.5q0 126 78.5 205t222.5 71zM304 416q-61 -4 -91 -51q-26 -41 -26 -102q0 -67 32.5 -111.5t93.5 -44.5q60 0 92 42
t32 107q0 89 -43 131q-36 34 -90 29zM367 680l10 -1q33 0 40 41h69q-4 -30 -7.5 -47.5t-13 -42t-27.5 -36.5t-45 -12q-31 0 -86 25q-44 21 -64 21q-33 0 -39 -46h-72q6 69 29.5 105.5t70.5 36.5q26 0 62 -15q7 -3 22 -10.5t27 -12t24 -6.5z" />
    <glyph glyph-name="odieresis" unicode="&#xf6;" horiz-adv-x="625" 
d="M333 538q75 -4 129.5 -34t81 -74t38 -85.5t11.5 -82.5q0 -52 -15.5 -99.5t-47.5 -88t-88 -65t-129 -24.5q-57 0 -106.5 16.5t-89 49t-62.5 87t-23 124.5q0 126 78.5 205t222.5 71zM304 416q-61 -4 -91 -51q-26 -41 -26 -102q0 -67 32.5 -111.5t93.5 -44.5q60 0 92 42
t32 107q0 89 -43 131q-36 34 -90 29zM362 719h157v-124h-157v124zM111 719h157v-124h-157v124z" />
    <glyph glyph-name="divide" unicode="&#xf7;" horiz-adv-x="667" 
d="M253 469q0 33 23.5 56.5t56.5 23.5t56.5 -23.5t23.5 -56.5t-23.5 -56.5t-56.5 -23.5t-56.5 23.5t-23.5 56.5zM667 354v-127h-666v127h666zM253 112q0 33 23.5 56.5t56.5 23.5t56.5 -23.5t23.5 -56.5t-23.5 -56.5t-56.5 -23.5t-56.5 23.5t-23.5 56.5z" />
    <glyph glyph-name="oslash" unicode="&#xf8;" horiz-adv-x="625" 
d="M496 473l75 68l40 -46l-74 -67q55 -84 55 -171q0 -123 -79.5 -197t-200.5 -74q-48 0 -88 13t-57 24.5t-40 30.5l-76 -70l-40 46l75 69q-53 75 -53 167q0 117 72 194.5t200 77.5q109 0 191 -65zM191 195l208 190q-41 36 -89 36q-21 0 -40.5 -6.5t-40.5 -22t-34 -49
t-13 -80.5q0 -30 9 -68zM431 331l-207 -190q12 -12 19.5 -18t26.5 -12.5t43 -6.5q64 0 95.5 45.5t31.5 116.5q0 25 -9 65z" />
    <glyph glyph-name="ugrave" unicode="&#xf9;" 
d="M380 197v325h154v-522h-154v50q-24 -27 -52 -41q-46 -24 -99 -24q-93 0 -133 55q-20 28 -26 58.5t-6 95.5v328h155v-324q0 -46 12 -62q19 -26 61 -26q30 0 53 13q22 13 28 30t7 44zM110 720h185l74 -133h-101z" />
    <glyph glyph-name="uacute" unicode="&#xfa;" 
d="M380 197v325h154v-522h-154v50q-24 -27 -52 -41q-46 -24 -99 -24q-93 0 -133 55q-20 28 -26 58.5t-6 95.5v328h155v-324q0 -46 12 -62q19 -26 61 -26q30 0 53 13q22 13 28 30t7 44zM239 586l73 133h182l-153 -133h-102z" />
    <glyph glyph-name="ucircumflex" unicode="&#xfb;" 
d="M380 197v325h154v-522h-154v50q-24 -27 -52 -41q-46 -24 -99 -24q-93 0 -133 55q-20 28 -26 58.5t-6 95.5v328h155v-324q0 -46 12 -62q19 -26 61 -26q30 0 53 13q22 13 28 30t7 44zM140 588l101 132h127l103 -131h-118l-49 62l-46 -63h-118z" />
    <glyph glyph-name="udieresis" unicode="&#xfc;" 
d="M380 197v325h154v-522h-154v50q-24 -27 -52 -41q-46 -24 -99 -24q-93 0 -133 55q-20 28 -26 58.5t-6 95.5v328h155v-324q0 -46 12 -62q19 -26 61 -26q30 0 53 13q22 13 28 30t7 44zM348 721h157v-124h-157v124zM97 721h157v-124h-157v124z" />
    <glyph glyph-name="yacute" unicode="&#xfd;" horiz-adv-x="500" 
d="M336 522h164l-184 -564q-23 -67 -49 -95q-17 -18 -37 -27.5t-34.5 -11.5t-39.5 -3h-111v122h54q15 1 21.5 1.5t19 4t18 11.5t5.5 21q0 11 -7 37l-156 504h164l86 -374zM187 586l73 133h182l-153 -133h-102z" />
    <glyph glyph-name="thorn" unicode="&#xfe;" 
d="M201 706v-235q5 6 16 17q46 46 130 46q99 0 163 -72t64 -199q0 -45 -11 -88.5t-34.5 -87t-70.5 -70.5t-110 -27q-27 0 -51.5 7t-37.5 14t-40 23v-215h-155v887h137zM344 422q-10 3 -21 3q-49 0 -79 -42q-32 -44 -32 -123q0 -88 37 -129q28 -30 69 -30q53 0 80.5 48
t27.5 115q0 137 -82 158z" />
    <glyph glyph-name="ydieresis" unicode="&#xff;" horiz-adv-x="500" 
d="M336 522h164l-184 -564q-23 -67 -49 -95q-17 -18 -37 -27.5t-34.5 -11.5t-39.5 -3h-111v122h54q15 1 21.5 1.5t19 4t18 11.5t5.5 21q0 11 -7 37l-156 504h164l86 -374zM298 721h157v-124h-157v124zM47 721h157v-124h-157v124z" />
    <glyph glyph-name="dotlessi" unicode="&#x131;" horiz-adv-x="292" 
d="M69 0v522h152v-522h-152z" />
    <glyph glyph-name="Lslash" unicode="&#x141;" horiz-adv-x="542" 
d="M244 707v-282l191 133v-85l-191 -133v-191h276v-149h-452v218l-68 -47v85l68 47v404h176z" />
    <glyph glyph-name="lslash" unicode="&#x142;" horiz-adv-x="292" 
d="M222 706v-246l69 50v-79l-69 -50v-381h-154v270l-68 -50v79l68 50v357h154z" />
    <glyph glyph-name="OE" unicode="&#x152;" horiz-adv-x="1104" 
d="M514 0v15q-83 -29 -154 -29q-63 0 -119 22.5t-101 66t-71.5 115.5t-26.5 164q0 188 109 289q84 80 214 80q35 0 65.5 -6t45 -12t40.5 -18v19h532v-138h-356v-129h335v-137h-335v-162h390v-140h-568zM516 155v397q-54 35 -113 35q-68 0 -114 -39q-69 -59 -69 -193
q0 -76 23 -129q20 -45 59.5 -74.5t97.5 -29.5q50 0 116 33z" />
    <glyph glyph-name="oe" unicode="&#x153;" horiz-adv-x="938" 
d="M798 192l119 -61q-35 -58 -63 -82q-75 -64 -187 -64q-64 0 -125 30q-32 16 -68 48q-36 -34 -64 -47q-58 -29 -124 -29q-63 0 -124.5 31t-95.5 93q-34 63 -34 150q0 129 73 202t187 73q46 0 85 -13.5t56.5 -25.5t38.5 -31q77 70 189 70q87 0 148 -45q35 -25 58 -59.5
t33.5 -76t14 -66t5.5 -60.5h-373q6 -45 23 -71q34 -52 103 -52q32 0 55.5 9t37.5 25.5t19.5 26t12.5 25.5zM549 324h212q-6 45 -33.5 71t-74.5 26q-50 0 -74.5 -29.5t-29.5 -67.5zM291 418q-52 -1 -79 -46q-28 -45 -28 -109q0 -58 15 -90q28 -64 98 -64q47 0 75.5 42
t28.5 111q0 68 -22 108q-28 50 -88 48z" />
    <glyph glyph-name="Scaron" unicode="&#x160;" horiz-adv-x="688" 
d="M9 127l134 85q32 -35 68 -55q64 -34 136 -34q54 0 92 23t38 59q0 20 -10.5 33.5t-33 21t-37 10.5t-42.5 7q-78 10 -116 18q-190 40 -190 192q0 65 26.5 113t70.5 73.5t90.5 37.5t96.5 12q58 0 107 -12t89.5 -36t62 -40.5t53.5 -45.5l-130 -93q-40 40 -70 57
q-55 31 -115 31q-49 0 -77 -23t-28 -51q0 -25 18.5 -40.5t33.5 -19t38 -6.5q146 -18 216 -42q60 -22 91 -67t31 -106q0 -85 -56 -150q-82 -95 -265 -95q-57 0 -106 11t-80 24t-61.5 36.5t-43 36.5t-31.5 35zM346 848l38 50h116l-89 -115h-133l-90 115h117z" />
    <glyph glyph-name="scaron" unicode="&#x161;" horiz-adv-x="521" 
d="M-2 88l97 88q74 -72 152 -72q35 0 64 12.5t29 38.5q0 19 -20 30q-15 8 -89 20q-41 7 -70 16q-58 16 -87 45q-39 39 -39 98q0 70 58.5 122.5t161.5 52.5q121 0 233 -78l-95 -88q-67 52 -131 52q-40 0 -57 -12t-17 -27q0 -11 5 -18.5t18.5 -12.5t24.5 -7.5t35 -6.5
q39 -7 65 -13t59.5 -19.5t53.5 -30.5t34.5 -44.5t14.5 -63.5q0 -87 -73.5 -135t-173.5 -48q-145 0 -253 101zM262 657l45 63h119l-102 -131h-126l-103 131h119z" />
    <glyph glyph-name="Ydieresis" unicode="&#x178;" horiz-adv-x="708" 
d="M267 329l-265 377h203l152 -242q10 23 29 53l121 189h201l-267 -372v-334h-174v329zM384 898h161v-116h-161v116zM162 781v117h160v-117h-160z" />
    <glyph glyph-name="Zcaron" unicode="&#x17d;" horiz-adv-x="625" 
d="M38 568v138h570v-138l-385 -429h383v-139h-601v132l391 436h-358zM314 848l38 50h116l-89 -115h-133l-90 115h117z" />
    <glyph glyph-name="zcaron" unicode="&#x17e;" horiz-adv-x="542" 
d="M64 404v118h447v-118l-278 -284h278v-120h-477v116l282 288h-252zM274 657l45 63h119l-102 -131h-126l-103 131h119z" />
    <glyph glyph-name="florin" unicode="&#x192;" horiz-adv-x="333" 
d="M92 488l10 72q7 47 27 75q43 58 134 58q39 0 106 -15l-11 -102h-49q-37 0 -47.5 -18t-14.5 -70h91l-10 -94h-92l-37 -347q-11 -97 -17 -126t-21 -52q-41 -59 -136 -59q-37 0 -103 15l10 102q18 -1 28 -1t22 1.5t18 1.5t13.5 5l10.5 7t7 12t5.5 15t4 21t3.5 25.5t3 32.5
l34 347h-71l10 94h72z" />
    <glyph glyph-name="circumflex" unicode="&#x2c6;" horiz-adv-x="271" 
d="M-30 588l101 132h127l103 -131h-118l-49 62l-46 -63h-118z" />
    <glyph glyph-name="caron" unicode="&#x2c7;" horiz-adv-x="271" 
d="M137 657l45 63h119l-102 -131h-126l-103 131h119z" />
    <glyph glyph-name="breve" unicode="&#x2d8;" horiz-adv-x="271" 
d="M190 720h100q-8 -60 -29 -90q-42 -59 -127 -59q-80 0 -123 57q-22 29 -29 92h101q0 -61 53 -61q21 0 37 14t17 47z" />
    <glyph glyph-name="dotaccent" unicode="&#x2d9;" horiz-adv-x="271" 
d="M57 722h157v-132h-157v132z" />
    <glyph glyph-name="ring" unicode="&#x2da;" horiz-adv-x="271" 
d="M37 655q0 41 28.5 69.5t69.5 28.5t69.5 -28.5t28.5 -69.5t-28.5 -69.5t-69.5 -28.5t-69.5 28.5t-28.5 69.5zM95 655q0 -17 11.5 -28.5t28.5 -11.5t28.5 11.5t11.5 28.5t-11.5 28.5t-28.5 11.5t-28.5 -11.5t-11.5 -28.5z" />
    <glyph glyph-name="ogonek" unicode="&#x2db;" horiz-adv-x="271" 
d="M123 0h46q-49 -52 -49 -86q0 -21 14.5 -31t30.5 -10q14 0 40 16l25 -24q-42 -40 -94 -40q-46 0 -71 22t-25 52q0 51 83 101z" />
    <glyph glyph-name="tilde" unicode="&#x2dc;" horiz-adv-x="271" 
d="M194 680l10 -1q33 0 40 41h69q-4 -30 -7.5 -47.5t-13 -42t-27.5 -36.5t-45 -12q-31 0 -86 25q-44 21 -64 21q-33 0 -39 -46h-72q6 69 29.5 105.5t70.5 36.5q26 0 62 -15q7 -3 22 -10.5t27 -12t24 -6.5z" />
    <glyph glyph-name="hungarumlaut" unicode="&#x2dd;" horiz-adv-x="271" 
d="M-99 586l73 133h182l-153 -133h-102zM116 586l73 133h182l-154 -133h-101z" />
    <glyph glyph-name="endash" unicode="&#x2013;" horiz-adv-x="562" 
d="M52 221v143h457v-143h-457z" />
    <glyph glyph-name="emdash" unicode="&#x2014;" 
d="M52 221v143h498v-143h-498z" />
    <glyph glyph-name="quoteleft" unicode="&#x2018;" horiz-adv-x="250" 
d="M46 372v156q1 24 3 37t9 33t20 38q44 62 127 76v-69q-33 -14 -45 -35.5t-17 -67.5h62v-168h-159z" />
    <glyph glyph-name="quoteright" unicode="&#x2019;" horiz-adv-x="250" 
d="M45 542v164h159v-144q-3 -85 -42 -134q-44 -51 -117 -60v71q35 11 49 33t15 70h-64z" />
    <glyph glyph-name="quotesinglbase" unicode="&#x201a;" horiz-adv-x="250" 
d="M45 0v168h160v-128q-2 -81 -20 -117q-12 -23 -29 -40.5t-39 -28.5t-35 -15.5t-36 -11.5v71q33 13 45 35.5t15 66.5h-61z" />
    <glyph glyph-name="quotedblleft" unicode="&#x201c;" horiz-adv-x="479" 
d="M434 538v-167h-158v148q2 85 42 134q44 51 116 60v-71q-34 -11 -48 -33.5t-15 -70.5h63zM204 538v-167h-158v149q2 84 42 133q44 51 116 60v-71q-34 -11 -48 -33.5t-15 -70.5h63z" />
    <glyph glyph-name="quotedblright" unicode="&#x201d;" horiz-adv-x="479" 
d="M276 539v167h158v-148q-2 -85 -42 -133q-42 -52 -116 -60v71q34 11 48 33t15 70h-63zM46 539v167h158v-148q-2 -85 -42 -133q-42 -52 -116 -60v71q34 11 48 33t15 70h-63z" />
    <glyph glyph-name="quotedblbase" unicode="&#x201e;" horiz-adv-x="479" 
d="M46 0v167h158v-148q-2 -85 -42 -133q-42 -52 -116 -60v70q34 11 48 33.5t15 70.5h-63zM276 0v167h158v-148q-2 -85 -42 -133q-42 -52 -116 -60v70q34 11 48 33.5t15 70.5h-63z" />
    <glyph glyph-name="dagger" unicode="&#x2020;" horiz-adv-x="583" 
d="M223 475v234h135v-234h184v-127h-184v-467h-135v467h-184v127h184z" />
    <glyph glyph-name="daggerdbl" unicode="&#x2021;" horiz-adv-x="583" 
d="M226 706h129v-169h161v-122h-161v-232h160v-123h-160v-181h-130v182h-159v122h159v233h-158v121h159v169z" />
    <glyph glyph-name="bullet" unicode="&#x2022;" horiz-adv-x="333" 
d="M12 352q0 64 45 109.5t110 45.5t110 -45.5t45 -109.5t-45 -109.5t-110 -45.5t-110 45.5t-45 109.5z" />
    <glyph glyph-name="ellipsis" unicode="&#x2026;" horiz-adv-x="1000" 
d="M755 167h158v-167h-158v167zM421 167h158v-167h-158v167zM87 167h158v-167h-158v167z" />
    <glyph glyph-name="perthousand" unicode="&#x2030;" horiz-adv-x="1250" 
d="M211 0l375 720l80 -42l-376 -719zM692 454q70 -1 111 -58q44 -61 44 -175q0 -109 -47 -173q-36 -54 -113 -54q-45 0 -77.5 21t-49.5 56.5t-24.5 72.5t-7.5 77q0 101 40.5 167.5t123.5 65.5zM683 367q-24 -2 -35 -31q-17 -37 -17 -120q0 -137 59 -137q56 0 56 143
q0 152 -63 145zM1067 454q70 -1 111 -58q44 -61 44 -175q0 -109 -47 -173q-36 -54 -113 -54q-45 0 -77.5 21t-49.5 56.5t-24.5 72.5t-7.5 77q0 101 40.5 167.5t123.5 65.5zM1058 367q-24 -2 -35 -31q-17 -37 -17 -120q0 -137 59 -137q56 0 56 143q0 152 -63 145zM161 686
q18 2 27 2q71 0 114 -59t43 -173q0 -110 -47 -174q-42 -54 -116 -54q-44 0 -76 20.5t-48.5 56t-24 73t-7.5 80.5q0 100 37 160q35 57 98 68zM181 601q-25 -2 -36 -31q-17 -37 -17 -120q0 -137 59 -137q56 0 56 143q0 22 -2 42.5t-7 47.5t-19 42t-34 13z" />
    <glyph glyph-name="guilsinglleft" unicode="&#x2039;" horiz-adv-x="229" 
d="M191 237v-137l-159 130v125l158 134v-138l-67 -57z" />
    <glyph glyph-name="guilsinglright" unicode="&#x203a;" horiz-adv-x="229" 
d="M36 349v136l159 -131v-123l-159 -135v138l64 58z" />
    <glyph glyph-name="fraction" unicode="&#x2044;" horiz-adv-x="125" 
d="M-166 -4l391 750l64 -34l-391 -750z" />
    <glyph glyph-name="fraction" unicode="&#x2215;" horiz-adv-x="125" 
d="M-166 -4l391 750l64 -34l-391 -750z" />
    <glyph glyph-name="Euro" unicode="&#x20ac;" horiz-adv-x="562" 
d="M517 654v-126q-43 43 -135 43q-123 0 -145 -117h247l-31 -89h-228q0 -3 -0.5 -12t-0.5 -14q0 -6 0.5 -16.5t0.5 -13.5h207l-32 -90h-162q21 -116 145 -116q86 0 134 42v-126q-45 -33 -155 -33q-226 0 -264 233h-80l31 90h40q-2 16 -2 30q0 10 2 26h-71l31 89h48
q42 235 265 235q51 0 93.5 -11t61.5 -24z" />
    <glyph glyph-name="trademark" unicode="&#x2122;" horiz-adv-x="687" 
d="M674 706v-332h-82l4 177q0 28 6 68q-10 -40 -14 -54l-56 -191h-75l-59 192l-14 51q6 -47 7 -66l4 -177h-81v332h106l76 -240l71 240h107zM186 639v-265h-84v265h-102v67h287v-67h-101z" />
    <glyph glyph-name="minus" unicode="&#x2212;" horiz-adv-x="667" 
d="M667 354v-127h-667v127h667z" />
    <glyph glyph-name="fi" unicode="&#xfb01;" horiz-adv-x="646" 
d="M93 510v64q2 61 22 89q39 53 134 53q23 0 93 -9v-115h-38q-42 0 -51.5 -14t-8.5 -68h103v-94h-102v-416h-153v416h-82v94h83zM424 587v120h152v-120h-152zM424 0v522h152v-522h-152z" />
    <glyph glyph-name="fl" unicode="&#xfb02;" horiz-adv-x="646" 
d="M93 510v64q2 61 22 89q39 53 134 53q23 0 93 -9v-115h-38q-42 0 -51.5 -14t-8.5 -68h103v-94h-102v-416h-153v416h-82v94h83zM423 706h154v-706h-154v706z" />
    </font>
</defs>
</svg>
